<svg width="59" height="59" viewBox="0 0 59 59" fill="none" xmlns="http://www.w3.org/2000/svg">
<rect width="58.131" height="58.131" rx="29.0655" fill="#2A71FA"/>
<path d="M21.4016 38.4784C19.1308 38.4784 17.4019 37.6527 16.2148 36.0012C15.0278 34.3496 14.4343 31.9756 14.4343 28.879C14.4343 25.7824 15.0278 23.4083 16.2148 21.7568C17.4019 20.1053 19.1308 19.2795 21.4016 19.2795C23.6725 19.2795 25.4014 20.1053 26.5884 21.7568C27.7755 23.4083 28.369 25.7824 28.369 28.879C28.369 32.0014 27.7755 34.3754 26.5884 36.027C25.4014 37.6785 23.6725 38.4784 21.4016 38.4784ZM21.4016 36.0786C24.137 36.0786 25.5046 33.6787 25.5046 28.879C25.5046 24.0793 24.137 21.6794 21.4016 21.6794C18.6663 21.6794 17.3244 24.0793 17.3244 28.879C17.3244 33.6787 18.6663 36.0786 21.4016 36.0786ZM40.9426 28.2597C43.007 29.2661 44.0392 30.7885 44.0392 32.8529C44.0392 34.5561 43.4199 35.8979 42.2329 36.9301C40.9943 37.9623 39.4202 38.4784 37.459 38.4784C35.2914 38.4784 33.6398 37.9365 32.4528 36.8269C31.2658 35.7431 30.6981 34.2206 30.6981 32.2852H33.3818C33.4334 34.8141 34.8011 36.0786 37.4332 36.0786C38.5686 36.0786 39.4976 35.7947 40.1685 35.2012C40.8394 34.6077 41.1749 33.8077 41.1749 32.8013C41.1749 31.7691 40.8136 30.9434 40.1427 30.3499C39.446 29.7563 38.4912 29.4467 37.2783 29.4467H35.9107V27.3049H37.2009C38.3363 27.3049 39.2137 27.0726 39.833 26.5823C40.4524 26.092 40.762 25.3695 40.762 24.4405C40.762 23.5632 40.4524 22.8922 39.833 22.3761C39.2137 21.8858 38.388 21.6278 37.3299 21.6278C35.0333 21.6278 33.8463 22.7116 33.7431 24.8792H31.0335C31.0593 23.1245 31.627 21.7568 32.7367 20.7762C33.8463 19.7956 35.3946 19.2795 37.3558 19.2795C39.2137 19.2795 40.6846 19.744 41.7942 20.6214C42.9038 21.5246 43.4715 22.7374 43.4715 24.2857C43.4715 26.0662 42.62 27.3823 40.9426 28.2597Z" fill="white"/>
</svg>
