<svg width="59" height="59" viewBox="0 0 59 59" fill="none" xmlns="http://www.w3.org/2000/svg">
<rect y="0.598267" width="58.131" height="58.131" rx="29.0655" fill="white"/>
<path d="M21.4016 39.0766C19.1308 39.0766 17.4019 38.2509 16.2148 36.5994C15.0278 34.9478 14.4343 32.5738 14.4343 29.4772C14.4343 26.3806 15.0278 24.0065 16.2148 22.355C17.4019 20.7035 19.1308 19.8777 21.4016 19.8777C23.6725 19.8777 25.4014 20.7035 26.5884 22.355C27.7755 24.0065 28.369 26.3806 28.369 29.4772C28.369 32.5996 27.7755 34.9736 26.5884 36.6252C25.4014 38.2767 23.6725 39.0766 21.4016 39.0766ZM21.4016 36.6768C24.137 36.6768 25.5046 34.2769 25.5046 29.4772C25.5046 24.6775 24.137 22.2776 21.4016 22.2776C18.6663 22.2776 17.3244 24.6775 17.3244 29.4772C17.3244 34.2769 18.6663 36.6768 21.4016 36.6768ZM40.9426 28.8579C43.007 29.8643 44.0392 31.3868 44.0392 33.4512C44.0392 35.1543 43.4199 36.4961 42.2329 37.5283C40.9943 38.5605 39.4202 39.0766 37.459 39.0766C35.2914 39.0766 33.6398 38.5347 32.4528 37.4251C31.2658 36.3413 30.6981 34.8188 30.6981 32.8834H33.3818C33.4334 35.4123 34.8011 36.6768 37.4332 36.6768C38.5686 36.6768 39.4976 36.3929 40.1685 35.7994C40.8394 35.2059 41.1749 34.4059 41.1749 33.3995C41.1749 32.3673 40.8136 31.5416 40.1427 30.9481C39.446 30.3546 38.4912 30.0449 37.2783 30.0449H35.9107V27.9031H37.2009C38.3363 27.9031 39.2137 27.6708 39.833 27.1805C40.4524 26.6902 40.762 25.9677 40.762 25.0387C40.762 24.1614 40.4524 23.4904 39.833 22.9743C39.2137 22.484 38.388 22.226 37.3299 22.226C35.0333 22.226 33.8463 23.3098 33.7431 25.4774H31.0335C31.0593 23.7227 31.627 22.355 32.7367 21.3744C33.8463 20.3938 35.3946 19.8777 37.3558 19.8777C39.2137 19.8777 40.6846 20.3422 41.7942 21.2196C42.9038 22.1228 43.4715 23.3356 43.4715 24.8839C43.4715 26.6644 42.62 27.9805 40.9426 28.8579Z" fill="#6C6C6C"/>
</svg>
