<svg width="126" height="45" viewBox="0 0 126 45" fill="none" xmlns="http://www.w3.org/2000/svg">
<g clip-path="url(#clip0_12_533)">
<path fill-rule="evenodd" clip-rule="evenodd" d="M20.1911 31.8213C23.7925 31.8213 25.4278 33.6845 25.4278 36.1752V36.2893H23.4618V36.0421C23.4618 34.4831 22.5614 33.7035 20.0074 33.7035C17.7657 33.7035 16.8838 34.2739 16.8838 35.4147C16.8838 36.5174 17.5085 36.8787 18.9601 37.2019L21.9551 37.7342C24.4172 38.1905 25.6299 39.3503 25.6299 41.2136C25.6299 43.1529 24.1048 44.9401 20.4668 44.9401C16.7919 44.9401 14.9177 43.2669 14.9177 40.5862V40.4721H16.9022V40.7763C16.9022 42.2973 17.7657 43.0578 20.4668 43.0578C22.8187 43.0578 23.6455 42.5254 23.6455 41.3276C23.6455 40.2249 23.0208 39.8066 21.459 39.5024L18.4456 38.9891C16.3693 38.6088 14.8994 37.6202 14.8994 35.5288C14.8994 33.6845 16.3693 31.8213 20.1911 31.8213ZM31.9323 31.8213C35.5336 31.8213 37.1689 33.6845 37.1689 36.1752V36.2893H35.2029V36.0421C35.2029 34.4831 34.3025 33.7035 31.7485 33.7035C29.5069 33.7035 28.6249 34.2739 28.6249 35.4147C28.6249 36.5174 29.2496 36.8787 30.7012 37.2019L33.6962 37.7342C36.1583 38.1905 37.371 39.3503 37.371 41.2136C37.371 43.1529 35.846 44.9401 32.2079 44.9401C28.533 44.9401 26.6589 43.2669 26.6589 40.5862V40.4721H28.6433V40.7763C28.6433 42.2973 29.5069 43.0578 32.2079 43.0578C34.5598 43.0578 35.3866 42.5254 35.3866 41.3276C35.3866 40.2249 34.7619 39.8066 33.2001 39.5024L30.1867 38.9891C28.1104 38.6088 26.6405 37.6202 26.6405 35.5288C26.6405 33.6845 28.1104 31.8213 31.9323 31.8213ZM67.174 31.8213C70.7753 31.8213 72.4106 33.6845 72.4106 36.1752V36.2893H70.4446V36.0421C70.4446 34.4831 69.5442 33.7035 66.9902 33.7035C64.7486 33.7035 63.8666 34.2739 63.8666 35.4147C63.8666 36.5174 64.4913 36.8787 65.9429 37.2019L68.9379 37.7342C71.4 38.1905 72.6127 39.3503 72.6127 41.2136C72.6127 43.1529 71.0877 44.9401 67.4496 44.9401C63.7747 44.9401 61.9006 43.2669 61.9006 40.5862V40.4721H63.885V40.7763C63.885 42.2973 64.7486 43.0578 67.4496 43.0578C69.8015 43.0578 70.6283 42.5254 70.6283 41.3276C70.6283 40.2249 70.0036 39.8066 68.4418 39.5024L65.4284 38.9891C63.3521 38.6088 61.8822 37.6202 61.8822 35.5288C61.8822 33.6845 63.3521 31.8213 67.174 31.8213ZM8.89101 32.0114L14.3849 44.7499H12.1432L10.7284 41.4417H4.22397L2.80915 44.7499H0.604248L6.09813 32.0114H8.89101ZM48.6344 32.0114V33.8557H40.7702V37.43H48.3588V39.2553H40.7702V42.9057H48.6344V44.7499H38.7858V32.0114H48.6344ZM61.1289 32.0114V33.8557H56.2964V44.7499H54.3304V33.8557H49.4796V32.0114H61.1289ZM80.826 32.0114C83.1779 32.0114 84.5927 33.1332 84.5927 35.1485C84.5927 36.6505 83.7842 37.7723 81.9101 38.0004V38.1335C84.0047 38.3807 85.0337 39.5595 85.0337 41.2326C85.0337 43.419 83.6189 44.7499 81.0832 44.7499H73.9357V32.0114H80.826ZM93.6879 32.0114L99.1818 44.7499H96.9402L95.5254 41.4417H89.0209L87.6061 44.7499H85.4012L90.8951 32.0114H93.6879ZM102.232 32.0114L107.744 39.4644L109.343 41.841H109.49L109.398 39.5405V32.0114H111.382V44.7499H109.251L103.702 37.316L102.158 35.0725H102.011L102.085 37.2779V44.7499H100.101V32.0114H102.232ZM115.204 32.0114V37.4491H118.934L122.535 32.0114H124.887L120.588 38.3046L124.869 44.7499H122.517L118.971 39.4264H115.204V44.7499H113.22V32.0114H115.204ZM80.8627 39.0461H75.9017V42.9057H80.8627C82.3327 42.9057 83.0493 42.3353 83.0493 40.9474C83.0493 39.6165 82.3143 39.0461 80.8627 39.0461ZM7.54969 33.9127H7.4027L6.68611 35.7189L5.01406 39.5975H9.93834L8.26629 35.7189L7.54969 33.9127ZM92.3466 33.9127H92.1996L91.483 35.7189L89.811 39.5975H94.7353L93.0632 35.7189L92.3466 33.9127ZM80.6055 33.8557H75.9017V37.354H80.5504C81.9284 37.354 82.6267 36.8026 82.6267 35.6048C82.6267 34.407 81.9836 33.8557 80.6055 33.8557ZM53.4821 0.0600586C55.2299 0.0600586 56.6467 1.47691 56.6467 3.22467V17.6093C56.6467 19.3571 55.2299 20.7739 53.4821 20.7739C51.7343 20.7739 50.3175 19.3571 50.3175 17.6093V3.22467C50.3175 1.47691 51.7343 0.0600586 53.4821 0.0600586ZM62.1129 3.51237C63.8606 3.51237 65.2775 4.92921 65.2775 6.67698V14.7324C65.2775 16.4801 63.8606 17.897 62.1129 17.897C60.3651 17.897 58.9482 16.4801 58.9482 14.7324V6.67698C58.9482 4.92921 60.3651 3.51237 62.1129 3.51237ZM71.319 7.54006C73.0668 7.54006 74.4836 8.95691 74.4836 10.7047C74.4836 12.4524 73.0668 13.8693 71.319 13.8693C69.5712 13.8693 68.1544 12.4524 68.1544 10.7047C68.1544 8.95691 69.5712 7.54006 71.319 7.54006Z" fill="white" fill-opacity="0.5"/>
</g>
<defs>
<clipPath id="clip0_12_533">
<rect width="124.974" height="44.88" fill="white" transform="translate(0.513184 0.0600586)"/>
</clipPath>
</defs>
</svg>
