<svg width="126" height="45" viewBox="0 0 126 45" fill="none" xmlns="http://www.w3.org/2000/svg">
<g clip-path="url(#clip0_12_526)">
<g clip-path="url(#clip1_12_526)">
<path d="M52.0649 25.625C52.0083 26.037 51.9403 26.449 51.8553 26.8553C47.7304 30.5689 43.6338 34.4688 39.7242 37.9848C36.9648 40.485 34.2961 42.8046 31.7577 44.8984C31.2002 44.9526 30.6317 44.9851 30.0583 44.9959L29.6273 45H29.5649C32.7436 42.5675 36.1603 39.757 39.7242 36.6134C43.7018 33.1481 47.855 29.2934 52.0649 25.625ZM52.0649 21.875V22.8957C47.877 26.5267 43.7114 30.3808 39.7462 33.8222C35.0459 37.9496 30.6018 41.5081 26.6422 44.375C25.9405 44.2746 25.2444 44.1407 24.5649 43.9734C29.851 40.4581 34.9138 36.617 39.7239 32.4724C43.7114 29.1259 47.8547 25.4 52.0649 21.875ZM50.8149 30C50.6051 30.6203 50.3731 31.1946 50.1191 31.7689C46.6231 35.2262 43.1658 38.7697 39.8521 42.0031C39.3385 42.52 38.8304 43.0196 38.3113 43.502C37.4963 43.8436 36.6628 44.1351 35.8149 44.375C37.1404 43.1689 38.488 41.9093 39.8577 40.596C43.3923 37.2708 47.076 33.578 50.8149 30ZM51.9345 18.75C51.9855 19.0499 52.0309 19.3609 52.0649 19.6664C47.8337 23.0874 43.6308 26.725 39.6605 29.9684C34.7357 34.0869 29.559 37.9075 24.1592 41.4089C23.2403 42.0143 22.3498 42.5696 21.4991 43.125C20.8354 42.8584 20.1945 42.603 19.5649 42.3031C20.9886 41.4256 22.5313 40.5314 24.1649 39.5262C29.5754 36.2389 34.7525 32.5966 39.6605 28.6244C43.6138 25.5255 47.7486 22.0378 51.9345 18.75ZM51.8218 16.25C51.9066 16.549 51.9914 16.8255 52.0649 17.1132C48.0394 20.329 44.0704 23.6972 40.2653 26.7042C35.3739 30.6961 30.2254 34.3637 24.8529 37.6832C22.3256 39.2403 20.0528 40.5323 18.0683 41.875C17.5066 41.5214 16.9639 41.1453 16.4399 40.7466C18.7693 39.0936 21.6132 37.6606 24.8303 35.7875C30.2215 32.6701 35.3817 29.1707 40.271 25.3164C43.9969 22.456 47.8641 19.2853 51.8218 16.25ZM50.471 13.75C50.5875 13.9959 50.704 14.2808 50.8149 14.5546C47.1763 17.382 43.5875 20.3155 40.1429 22.9361C35.3516 26.7213 30.3007 30.1607 25.028 33.2286C21.1064 35.5139 17.7561 37.1399 15.2212 39.375C14.8529 39.0532 14.5095 38.717 14.1824 38.3637L13.9399 38.0954L14.245 37.7881C16.8631 35.2792 20.5739 33.7371 25.0113 31.3176C30.2968 28.4667 35.3557 25.2087 40.1429 21.5727C43.4821 19.1197 46.9488 16.3818 50.471 13.75ZM48.4844 11.25C48.6362 11.5017 48.7937 11.7589 48.9399 12.0218C45.6949 14.4154 42.4836 16.8537 39.3792 19.0907C34.5189 22.693 29.3921 25.9254 24.0426 28.7602C19.5434 31.165 15.7809 32.7086 13.132 35.242C12.6126 35.7425 12.1401 36.2891 11.7204 36.875C11.3773 36.4835 11.1018 36.0809 10.8149 35.667C11.4117 34.5698 12.2023 33.5885 13.1489 32.7701C15.7922 30.4604 19.549 29.1293 24.0482 26.8923C29.3978 24.2654 34.5199 21.2033 39.3623 17.7373C42.298 15.724 45.3743 13.4591 48.4844 11.25ZM108.144 17.755C113.139 17.755 116.852 21.13 117.358 26.1925H111.216C111.114 24.2013 109.933 22.9525 108.178 22.9525C106.153 22.9525 104.972 24.505 104.972 27.1712C104.972 29.905 106.119 31.4237 108.178 31.4237C109.967 31.4237 111.081 30.2087 111.216 28.15H117.358C116.852 33.3475 113.308 36.5875 108.144 36.5875C102.744 36.5875 98.9981 32.7062 98.9981 27.1712C98.9981 21.7712 102.913 17.755 108.144 17.755ZM66.3618 29.0275C68.5218 29.0275 70.0068 30.5462 70.0068 32.74C70.0068 34.9 68.5218 36.4188 66.3618 36.4188C64.2018 36.4188 62.6831 34.9 62.6831 32.74C62.6831 30.5462 64.2018 29.0275 66.3618 29.0275ZM77.6343 18.0925V36.25H71.8631V18.0925H77.6343ZM91.2693 17.755C94.8468 17.755 97.3781 20.1513 97.3781 24.5725V36.25H91.6068V26.4963C91.6068 24.2013 90.7968 22.9525 89.0418 22.9525C87.6243 22.9525 86.3418 23.965 86.3418 26.6987V36.25H80.5706V18.0925H85.8693V20.2863C87.2868 18.7 88.9743 17.755 91.2693 17.755ZM47.1327 8.125C47.3185 8.36613 47.5042 8.61098 47.6899 8.85953C44.9931 10.7738 42.3352 12.6991 39.7609 14.4575C34.9412 17.8707 29.8542 20.8909 24.5492 23.4889C20.0971 25.6869 16.3582 27.0335 13.7505 29.3484C12.3953 30.5406 11.3625 32.0543 10.7471 33.75C10.5577 33.4328 10.3682 33.1101 10.1899 32.7762C10.6651 30.4536 11.9287 28.3661 13.7672 26.8666C16.3861 24.7743 20.1026 23.628 24.5603 21.6136C29.8716 19.2407 34.9621 16.4028 39.772 13.1331C42.168 11.5417 44.6309 9.83333 47.1327 8.125ZM43.0145 3.75C43.3323 3.9715 43.6389 4.20435 43.9399 4.44289C42.7135 5.24369 41.4926 6.02745 40.294 6.77145C35.4839 9.90302 30.4026 12.5797 25.1138 14.7681C20.665 16.6082 16.9466 17.5851 14.332 19.5331C12.9138 20.5783 11.8173 21.9879 11.1098 24.0105C11.6893 23.1919 12.3741 22.5194 13.1516 21.953C15.8266 20.0317 19.6114 19.0454 24.1646 17.1811C29.5759 14.9702 34.7684 12.256 39.6739 9.07417C41.4268 7.97956 43.231 6.83933 45.0807 5.625C45.3312 5.85875 45.5759 6.10389 45.8149 6.34904C43.7319 7.76291 41.6829 9.15968 39.6739 10.4595C34.7587 13.7849 29.5681 16.6822 24.1589 19.1195C19.6114 21.1662 15.8095 22.3463 13.1346 24.5128C11.9492 25.4554 10.9857 26.6519 10.2811 28.2367C10.2308 28.8554 10.201 29.5102 10.1925 30.204L10.1899 30.5962L10.1897 28.4479C9.74675 29.4999 9.41383 30.7184 9.20118 32.1403L9.15053 32.5L8.93994 32.0724C9.02588 29.2762 9.4852 27.1431 10.2593 25.483C10.5836 20.9816 12.0322 18.5161 14.3432 17.0001C16.9578 15.2849 20.6595 14.5125 25.1193 12.8541C30.409 10.8809 35.4924 8.37523 40.294 5.37431C41.1897 4.85559 42.0965 4.31416 43.0145 3.75ZM39.5611 1.875C39.8459 2.012 40.1258 2.15408 40.4023 2.30123L40.8149 2.52577L40.1436 2.92536C35.3589 5.89608 30.305 8.38143 25.0531 10.3464C20.6313 11.9961 16.9363 12.7953 14.3343 14.525C11.7323 16.2546 10.2288 19.2287 10.1899 25C10.1899 23.9097 10.1899 22.8137 10.2177 21.7233C10.251 16.2204 11.7489 13.4974 14.3509 11.979C16.953 10.4605 20.6313 9.88398 25.0697 8.42261C30.1052 6.7562 34.9612 4.56216 39.5611 1.875ZM34.3823 0.625C35.0816 0.772014 35.7636 0.952955 36.4399 1.16217C32.5417 3.16829 28.4719 4.83147 24.2776 6.13239C19.7095 7.56295 15.8923 8.15101 13.2099 9.66074C10.5755 11.1435 9.03016 13.7989 8.94323 19.0841L8.94057 19.3138L8.95714 16.152C8.94135 14.704 9.11277 13.2599 9.46724 11.8546C10.358 10.2587 11.4374 8.77258 12.6826 7.42725C12.8592 7.32409 13.041 7.22974 13.2271 7.14453C15.9095 5.84401 19.6981 5.47648 24.2833 4.22685C27.7462 3.30824 31.1245 2.10336 34.3823 0.625ZM74.6981 10.5662C76.8918 10.5662 78.4106 11.95 78.4106 13.8737C78.4106 15.7638 76.8918 17.1475 74.6981 17.1475C72.5043 17.1475 70.9856 15.7638 70.9856 13.8737C70.9856 11.95 72.5043 10.5662 74.6981 10.5662ZM29.5649 0C27.8823 0.666996 26.2728 1.21047 24.7477 1.63661C22.6373 2.27273 20.6845 2.69886 18.9399 3.125C22.1897 1.1298 25.8416 0.0557115 29.5649 0Z" fill="white" fill-opacity="0.5"/>
</g>
</g>
<defs>
<clipPath id="clip0_12_526">
<rect width="125" height="45" fill="white" transform="translate(0.5)"/>
</clipPath>
<clipPath id="clip1_12_526">
<rect width="108.75" height="45" fill="white" transform="translate(8.625)"/>
</clipPath>
</defs>
</svg>
