<svg width="126" height="35" viewBox="0 0 126 35" fill="none" xmlns="http://www.w3.org/2000/svg">
<g clip-path="url(#clip0_12_521)">
<g clip-path="url(#clip1_12_521)">
<g clip-path="url(#clip2_12_521)">
<path d="M28.1691 0.52002C32.3246 0.52002 35.6932 3.89977 35.6932 8.06891C35.6932 10.6186 34.4333 12.8731 32.5039 14.2398C32.8663 15.581 33.0598 16.9922 33.0598 18.4486C33.0598 27.308 25.9014 34.49 17.071 34.49C8.24068 34.49 1.08228 27.308 1.08228 18.4486C1.08228 9.58922 8.24068 2.40724 17.071 2.40724C18.9166 2.40724 20.6891 2.72096 22.3385 3.29814C23.7176 1.60251 25.8174 0.52002 28.1691 0.52002ZM17.071 5.55647C9.97425 5.55647 4.22117 11.3285 4.22117 18.4486C4.22117 25.5688 9.97425 31.3408 17.071 31.3408C24.1678 31.3408 29.9209 25.5688 29.9209 18.4486C29.9209 17.4288 29.8028 16.4366 29.5797 15.485C29.1229 15.5723 28.6513 15.6178 28.1691 15.6178C24.0136 15.6178 20.645 12.238 20.645 8.06891C20.645 7.40111 20.7314 6.75356 20.8937 6.13691C19.6864 5.75961 18.4024 5.55647 17.071 5.55647ZM55.0845 6.92945C57.2316 6.92945 59.0889 7.39556 60.6564 8.32778C62.2239 9.25999 63.426 10.5736 64.2627 12.2685C65.0993 13.9635 65.5177 15.9226 65.5177 18.146C65.5177 20.3693 65.0993 22.3285 64.2627 24.0234C63.426 25.7184 62.2239 27.0319 60.6564 27.9641C59.0889 28.8964 57.2316 29.3625 55.0845 29.3625C52.9474 29.3625 51.0952 28.8964 49.5277 27.9641C47.9602 27.0319 46.7581 25.7184 45.9214 24.0234C45.0848 22.3285 44.6664 20.3693 44.6664 18.146C44.6664 15.9226 45.0848 13.9635 45.9214 12.2685C46.7581 10.5736 47.9602 9.25999 49.5277 8.32778C51.0952 7.39556 52.9474 6.92945 55.0845 6.92945ZM118.424 12.3134C119.685 12.3134 120.808 12.5078 121.796 12.8966C122.784 13.2855 123.583 13.8413 124.193 14.5642C124.803 15.287 125.173 16.127 125.304 17.0841L121.585 17.7422L121.558 17.586C121.433 16.9715 121.122 16.4802 120.625 16.112C120.085 15.7132 119.372 15.4889 118.485 15.439C117.628 15.3992 116.938 15.5313 116.413 15.8354C115.889 16.1395 115.627 16.5607 115.627 17.0991C115.627 17.4281 115.736 17.6973 115.952 17.9067C116.169 18.1161 116.585 18.3279 117.2 18.5423C117.815 18.7566 118.777 19.0283 120.088 19.3573C121.408 19.6963 122.454 20.0752 123.225 20.494C123.996 20.9127 124.556 21.4137 124.904 21.997C125.251 22.5802 125.425 23.2956 125.425 24.1431C125.425 25.2198 125.156 26.1496 124.616 26.9322C124.077 27.7149 123.301 28.3156 122.288 28.7343C121.275 29.1531 120.073 29.3625 118.682 29.3625C116.665 29.3625 115.027 28.9138 113.767 28.0165C112.507 27.1192 111.741 25.8579 111.469 24.2328L115.189 23.6645L115.231 23.8348C115.431 24.5613 115.838 25.1351 116.451 25.5563C117.112 26.01 117.941 26.2368 118.939 26.2368C119.805 26.2368 120.481 26.0648 120.965 25.7208C121.449 25.3769 121.691 24.9058 121.691 24.3076C121.691 23.9187 121.597 23.6196 121.411 23.4102C121.224 23.2009 120.854 22.994 120.299 22.7896C119.745 22.5852 118.823 22.3135 117.532 21.9745C116.151 21.6156 115.06 21.2293 114.259 20.8155C113.457 20.4017 112.88 19.9132 112.527 19.3499C112.175 18.7866 111.998 18.0961 111.998 17.2786C111.998 16.2815 112.263 15.4091 112.792 14.6614C113.321 13.9136 114.072 13.3353 115.045 12.9265C116.018 12.5178 117.144 12.3134 118.424 12.3134ZM71.0064 7.37811V14.5567L71.1631 14.3806C71.7483 13.7473 72.4521 13.2502 73.2745 12.8892C74.1717 12.4953 75.1948 12.2984 76.344 12.2984C78.1685 12.2984 79.5546 12.7546 80.5021 13.6668C81.4497 14.5791 82.0646 15.5936 82.3468 16.7103C82.6291 17.8269 82.7702 18.8887 82.7702 19.8957V28.9138H79.0808V21.137L79.0793 20.9215C79.0295 17.436 77.7599 15.6933 75.2704 15.6933C74.1717 15.6933 73.2594 16.0647 72.5336 16.8075C71.8078 17.5502 71.4449 18.819 71.4449 20.6136V28.9138H67.7555V7.37811H71.0064ZM103.606 12.3582C104.786 12.3582 105.796 12.6 106.638 13.0836C107.48 13.5671 108.117 14.2451 108.551 15.1175C108.984 15.9899 109.201 17.0143 109.201 18.1908V28.9138H105.557V19.1031L105.554 18.9002C105.521 17.8995 105.245 17.1047 104.725 16.5158C104.171 15.8877 103.42 15.5736 102.472 15.5736C101.888 15.5736 101.361 15.7082 100.892 15.9774C100.423 16.2466 100.056 16.638 99.7884 17.1514C99.5213 17.6649 99.3877 18.2706 99.3877 18.9685V28.9138H95.7588V19.148L95.7555 18.9414C95.723 17.9229 95.4469 17.1168 94.9271 16.5233C94.3727 15.8902 93.6167 15.5736 92.6591 15.5736C92.0442 15.5736 91.5049 15.7157 91.0412 15.9999C90.5775 16.284 90.2196 16.6828 89.9676 17.1963C89.7156 17.7098 89.5896 18.3005 89.5896 18.9685V28.9138H85.9153V12.762H89.136V14.5118L89.2879 14.3306C89.8056 13.739 90.4379 13.271 91.1848 12.9265C92.0064 12.5477 92.901 12.3582 93.8687 12.3582C94.9876 12.3582 95.9503 12.5851 96.7567 13.0387C97.5632 13.4924 98.1881 14.123 98.6317 14.9306C99.1357 14.123 99.8262 13.4924 100.703 13.0387C101.58 12.5851 102.548 12.3582 103.606 12.3582ZM54.9938 10.3243C53.5724 10.3243 52.3779 10.6508 51.4102 11.3039C50.4425 11.9569 49.7192 12.8717 49.2404 14.0482C48.7616 15.2247 48.5222 16.6056 48.5222 18.1908C48.5222 19.7761 48.7717 21.152 49.2706 22.3185C49.7696 23.485 50.5156 24.3848 51.5085 25.0179C52.5014 25.6511 53.7236 25.9676 55.1752 25.9676C56.5865 25.9676 57.7785 25.6461 58.7512 25.003C59.724 24.3599 60.4523 23.4501 60.9361 22.2736C61.42 21.0972 61.6619 19.7213 61.6619 18.146C61.6619 16.5507 61.4124 15.1674 60.9135 13.9959C60.4145 12.8244 59.666 11.9196 58.6681 11.2815C57.6701 10.6434 56.4453 10.3243 54.9938 10.3243Z" fill="white" fill-opacity="0.5"/>
</g>
</g>
</g>
<defs>
<clipPath id="clip0_12_521">
<rect width="125" height="33.97" fill="white" transform="translate(0.5 0.52002)"/>
</clipPath>
<clipPath id="clip1_12_521">
<rect width="125" height="33.97" fill="white" transform="translate(0.5 0.52002)"/>
</clipPath>
<clipPath id="clip2_12_521">
<rect width="124.984" height="33.97" fill="white" transform="translate(0.508057 0.52002)"/>
</clipPath>
</defs>
</svg>
