<svg width="126" height="39" viewBox="0 0 126 39" fill="none" xmlns="http://www.w3.org/2000/svg">
<g clip-path="url(#clip0_12_516)">
<g clip-path="url(#clip1_12_516)">
<g clip-path="url(#clip2_12_516)">
<path d="M4.94756 11.4414C12.3699 11.4414 18.3868 17.4583 18.3868 24.8807C18.3868 32.303 12.3699 38.3199 4.94756 38.3199H0.915771V11.4414H4.94756ZM96.0122 14.2636C100.044 14.2636 100.044 14.2636 102.732 17.1262C105.42 19.9888 105.42 19.9888 105.42 24.1818C105.42 28.4017 105.42 28.4017 102.745 31.1434C100.071 33.885 100.071 33.885 96.0928 33.885C92.061 33.885 92.061 33.885 89.3194 31.0627C86.5778 28.2405 86.5778 28.2405 86.5778 24.1281C86.5778 19.7737 86.5778 19.7737 89.1984 17.0187C91.8191 14.2636 91.8191 14.2636 96.0122 14.2636ZM53.9203 14.5324L54.0347 14.5369C54.7122 14.5903 54.7122 14.5903 55.1836 15.285L64.7524 28.563V17.1127L64.7466 16.9895C64.6946 16.4368 64.6946 16.4368 64.1745 15.9167C63.5966 15.3388 63.5966 15.3388 63.5966 15.07V14.9893L63.6003 14.9217C63.6441 14.5324 63.6442 14.5324 64.2148 14.5324H67.3596L67.451 14.5351C67.9778 14.5676 67.9778 14.5676 67.9778 14.9893V15.07L67.9738 15.1169C67.9296 15.3869 67.9296 15.3869 67.3999 15.9167C66.822 16.4945 66.822 16.4945 66.822 17.1127V32.541L66.8176 32.6652C66.7868 33.087 66.7868 33.087 66.5398 33.334C66.2576 33.6162 66.2576 33.6162 65.7738 33.6162H64.5105L64.4195 33.6113C63.8737 33.5521 63.8737 33.5521 63.3278 32.783L53.0871 19.048V30.9821L53.0921 31.0989C53.1421 31.6809 53.1421 31.6809 53.6918 32.2185C54.2966 32.8098 54.2966 32.8098 54.2966 33.0786V33.1593L54.293 33.2269C54.2491 33.6162 54.2491 33.6162 53.6784 33.6162H50.5605L50.469 33.6135C49.9423 33.581 49.9423 33.581 49.9423 33.1593V33.0786L49.9467 33.0271C49.9912 32.7561 49.9912 32.7561 50.4799 32.2185C51.0174 31.6272 51.0174 31.6272 51.0174 30.9821V17.1396L51.0121 17.0114C50.9637 16.4381 50.9637 16.4381 50.4799 15.9301C49.9423 15.3656 49.9423 15.3656 49.9423 15.0969V14.9893L49.9459 14.9217C49.9898 14.5324 49.9898 14.5324 50.5605 14.5324H53.9203ZM76.8746 14.5324L77.1833 14.5351C80.702 14.5962 80.702 14.5962 82.8013 16.0645C84.9919 17.5966 84.9919 17.5966 85.0188 20.5532C85.0188 22.1928 85.0188 22.1928 84.0646 23.577C83.1104 24.9613 83.1104 24.9613 81.3365 25.7139L84.8576 31.0358L84.9781 31.2109C85.2898 31.6384 85.2898 31.6384 85.7042 31.9632C86.2015 32.3529 86.2015 32.3529 86.4971 32.5814C86.7928 32.8098 86.7928 32.8098 86.7928 33.0786V33.1593L86.7891 33.2269C86.7453 33.6162 86.7453 33.6162 86.1746 33.6162H80.557L80.4625 33.613C79.9656 33.5781 79.9657 33.5781 79.9657 33.1593V33.0786L79.9705 33.0171C80.0043 32.7981 80.0043 32.7981 80.2747 32.5276C80.5839 32.2185 80.5839 32.2185 80.7048 31.9632C80.8258 31.7078 80.8258 31.7078 80.557 31.0358L77.7347 26.359L74.7781 26.4127V31.0358L74.7839 31.1591C74.8359 31.7118 74.8359 31.7118 75.356 32.2319C75.9339 32.8098 75.9339 32.8098 75.9339 33.0786V33.1593L75.93 33.2269C75.8842 33.6162 75.8842 33.6162 75.2888 33.6162H70.2356L70.1412 33.613C69.6443 33.5781 69.6443 33.5781 69.6443 33.1593V33.0786L69.6485 33.0272C69.6907 32.7573 69.6907 32.7573 70.155 32.2319C70.6657 31.6541 70.6657 31.6541 70.6657 31.0358V17.1127L70.6606 16.9895C70.6146 16.4368 70.6146 16.4368 70.155 15.9167C69.6443 15.3388 69.6443 15.3388 69.6443 15.07V14.9625L69.6484 14.8938C69.6936 14.5324 69.6936 14.5324 70.2356 14.5324H76.8746ZM112.381 14.5324L112.473 14.535C112.999 14.5655 112.999 14.5655 112.999 14.9625V15.07L112.995 15.1169C112.951 15.3869 112.951 15.3869 112.422 15.9167C111.844 16.4945 111.844 16.4945 111.844 17.1127V24.1549L118.725 17.1396L118.807 17.0592C119.079 16.7784 119.079 16.7784 119.114 16.508C119.155 16.1989 119.155 16.1989 119.007 15.9973C118.859 15.7957 118.859 15.7957 118.684 15.5269C118.51 15.2581 118.51 15.2581 118.51 15.07V14.9625L118.513 14.8988C118.557 14.5324 118.557 14.5324 119.128 14.5324H122.998L123.093 14.5354C123.59 14.5682 123.59 14.5682 123.59 14.9625V15.07L123.584 15.1372C123.548 15.3724 123.548 15.3724 123.254 15.6075C122.918 15.8763 122.918 15.8763 122.299 16.293C121.681 16.7096 121.681 16.7096 121.251 17.1396L117.381 21.037L123.401 31.009L123.52 31.2009C123.82 31.6675 123.82 31.6675 124.167 32.0035C124.584 32.4067 124.584 32.4067 124.799 32.6082C125.014 32.8098 125.014 32.8098 125.014 33.0786V33.1593L125.01 33.2322C124.967 33.6162 124.967 33.6162 124.45 33.6162H118.751L118.657 33.613C118.16 33.5781 118.16 33.5781 118.16 33.1593V33.0786L118.165 33.0169C118.2 32.7964 118.2 32.7964 118.483 32.5142C118.805 32.1916 118.805 32.1916 118.98 31.9497C119.155 31.7078 119.155 31.7078 118.913 31.1434L114.585 23.8593L111.844 26.6278V31.009L111.849 31.1373C111.901 31.7118 111.901 31.7118 112.422 32.2319C112.999 32.8098 112.999 32.8098 112.999 33.0786V33.1593L112.996 33.2269C112.952 33.6162 112.952 33.6162 112.381 33.6162H107.355L107.26 33.613C106.764 33.5781 106.764 33.5781 106.764 33.1593V33.0786L106.768 33.0272C106.81 32.7573 106.81 32.7573 107.274 32.2319C107.785 31.6541 107.785 31.6541 107.785 31.009V17.1127L107.78 16.9895C107.734 16.4368 107.734 16.4368 107.274 15.9167C106.764 15.3388 106.764 15.3388 106.764 15.07V14.9625L106.768 14.8938C106.813 14.5324 106.813 14.5324 107.355 14.5324H112.381ZM94.5607 16.0107C92.7061 16.0107 92.7061 16.0107 91.6175 17.3547C90.5289 18.6986 90.5289 18.6986 90.5289 20.9295C90.5289 23.6711 90.5289 23.6711 91.4025 26.2515C92.276 28.8318 92.276 28.8318 93.835 30.4848C95.394 32.1379 95.3939 32.1379 97.2217 32.1379C99.0763 32.1379 99.0763 32.1379 100.205 30.7671C101.334 29.3963 101.334 29.3963 101.334 27.2729C101.334 24.6388 101.334 24.6387 100.447 22.045C99.5601 19.4512 99.5601 19.4512 97.9743 17.731C96.3885 16.0107 96.3885 16.0107 94.5607 16.0107ZM36.5299 0.689941V27.5685H31.8261C24.4038 27.5685 18.3868 21.5515 18.3868 14.1292C18.3868 6.70691 24.4038 0.689941 31.8261 0.689941H36.5299ZM76.6058 16.172H75.692L75.5932 16.1757C74.7781 16.2392 74.7781 16.2392 74.7781 17.3815V22.9723L74.7806 23.1297C74.8083 23.9746 74.8083 23.9746 75.1409 24.3565C75.5038 24.7731 75.5038 24.7731 76.2833 24.7731H77.4391C78.9711 24.7731 78.9711 24.7731 79.8985 23.819C80.8258 22.8648 80.8258 22.8648 80.8258 21.0101C80.8258 18.8061 80.8258 18.8061 79.549 17.489C78.2723 16.172 78.2723 16.172 76.6058 16.172Z" fill="white" fill-opacity="0.5"/>
</g>
</g>
</g>
<defs>
<clipPath id="clip0_12_516">
<rect width="125" height="37.63" fill="white" transform="translate(0.5 0.689941)"/>
</clipPath>
<clipPath id="clip1_12_516">
<rect width="125" height="37.63" fill="white" transform="translate(0.5 0.689941)"/>
</clipPath>
<clipPath id="clip2_12_516">
<rect width="124.985" height="37.63" fill="white" transform="translate(0.507324 0.689941)"/>
</clipPath>
</defs>
</svg>
