<svg width="126" height="43" viewBox="0 0 126 43" fill="none" xmlns="http://www.w3.org/2000/svg">
<g clip-path="url(#clip0_12_506)">
<g clip-path="url(#clip1_12_506)">
<g clip-path="url(#clip2_12_506)">
<path fill-rule="evenodd" clip-rule="evenodd" d="M11.2601 2.35511L26.7238 17.4922C26.8916 17.6565 27.0471 17.8287 27.1902 18.0076L27.2342 18.0633C27.1608 17.9775 27.0844 17.8934 27.005 17.8111L26.9355 17.7405L26.8648 17.671L26.6879 17.5069C26.404 17.2538 26.1019 17.0323 25.7861 16.8424C25.8695 16.9105 25.9516 16.9819 26.0321 17.0559L26.2005 17.2172L26.2184 17.235C26.2613 17.2781 26.3034 17.3218 26.3447 17.3659L26.3403 17.3638L26.1701 17.2032C25.9621 17.0143 25.7438 16.843 25.5172 16.6891C23.345 15.5333 20.6144 15.8057 18.7061 17.5069L18.5292 17.671L14.41 21.6473L14.0632 21.3077L13.9686 21.4013L18.081 25.4385C20.0742 27.3952 23.1104 27.651 25.3764 26.2059L10.8786 40.6401C8.66554 42.8435 5.12108 42.8972 2.84311 40.8013L2.67468 40.6401L2.65682 40.6222C0.465921 38.4217 0.420096 34.8949 2.51365 32.6389L2.67468 32.4721L13.9745 21.2217L2.98037 10.46C0.742268 8.26916 0.703951 4.6788 2.89479 2.44069L2.98037 2.35511C5.28092 0.103148 8.95958 0.103148 11.2601 2.35511ZM106.718 11.9919C111.909 11.9919 115.673 15.4234 116.426 20.8664H112.226C111.79 17.5138 109.69 15.5022 106.757 15.5022C103.31 15.5022 101.051 18.421 101.051 22.8385C101.051 27.2955 103.31 30.1748 106.757 30.1748C109.729 30.1748 111.79 28.2027 112.266 24.8107H116.426C115.713 30.3326 111.988 33.7246 106.718 33.7246C100.972 33.7246 96.9298 29.2282 96.9298 22.8385C96.9298 16.5277 101.051 11.9919 106.718 11.9919ZM44.9086 11.9919C50.0998 11.9919 53.1115 14.9106 53.1115 19.8804V33.2908H49.7828V30.0565C48.4751 32.3836 46.1371 33.6852 43.0462 33.6852C38.6872 33.6852 35.834 31.2003 35.834 27.3744C35.834 23.2724 39.1231 21.1425 45.3842 21.1425C46.6126 21.1425 47.6033 21.1819 49.3073 21.3792V19.8409C49.3073 16.8433 47.6825 15.1473 44.9086 15.1473C41.9762 15.1473 40.193 16.8827 40.0741 19.8015H36.4284C36.6266 15.1078 39.9949 11.9919 44.9086 11.9919ZM85.2165 11.9919C91.1606 11.9919 95.5195 16.6461 95.5195 22.8385C95.5195 29.031 91.1606 33.6852 85.2165 33.6852C79.2724 33.6852 74.9134 29.031 74.9134 22.8385C74.9134 16.6461 79.2724 11.9919 85.2165 11.9919ZM60.0695 12.3863L65.2607 20.2748L70.4519 12.3863H74.7712L67.8761 22.7202L75.2467 33.2908H70.65L65.0229 24.9684L59.4751 33.2908H54.9576L62.4075 22.6019L55.4332 12.3863H60.0695ZM45.6219 23.6274C41.6196 23.6274 39.6382 24.8107 39.6382 27.2561C39.6382 29.4254 41.2629 30.8453 43.8387 30.8453C47.207 30.8453 49.3073 28.7549 49.3073 25.5601V23.864C47.7618 23.6668 46.6522 23.6274 45.6219 23.6274ZM85.2165 15.5417C81.7689 15.5417 79.0743 18.2632 79.0743 22.8385C79.0743 27.4139 81.7689 30.1748 85.2165 30.1748C88.664 30.1748 91.3983 27.4139 91.3983 22.8385C91.3983 18.2632 88.664 15.5417 85.2165 15.5417ZM122.308 11.0863C124.123 11.0863 125.482 12.5 125.482 14.2603C125.482 16.0114 124.123 17.4251 122.308 17.4251C120.502 17.4251 119.143 16.0114 119.143 14.2603C119.143 12.5 120.502 11.0863 122.308 11.0863ZM122.308 11.5971C120.788 11.5971 119.724 12.7827 119.724 14.2603C119.724 15.7287 120.788 16.9143 122.308 16.9143C123.837 16.9143 124.901 15.7287 124.901 14.2603C124.901 12.7827 123.837 11.5971 122.308 11.5971ZM122.299 12.5912C123.112 12.5912 123.747 13.1384 123.863 13.9502H123.247C123.166 13.4668 122.791 13.1202 122.308 13.1202C121.736 13.1202 121.333 13.5945 121.333 14.2603C121.333 14.9261 121.736 15.4094 122.308 15.4094C122.791 15.4094 123.166 15.0537 123.247 14.5704H123.863C123.747 15.3821 123.112 15.9293 122.299 15.9293C121.414 15.9293 120.734 15.1997 120.734 14.2603C120.734 13.3117 121.414 12.5912 122.299 12.5912Z" fill="white" fill-opacity="0.5"/>
</g>
</g>
</g>
<defs>
<clipPath id="clip0_12_506">
<rect width="125" height="42.56" fill="white" transform="translate(0.5 0.219971)"/>
</clipPath>
<clipPath id="clip1_12_506">
<rect width="125" height="42.56" fill="white" transform="translate(0.5 0.219971)"/>
</clipPath>
<clipPath id="clip2_12_506">
<rect width="124.963" height="42.56" fill="white" transform="translate(0.518311 0.219971)"/>
</clipPath>
</defs>
</svg>
