<svg width="486" height="486" viewBox="0 0 486 486" fill="none" xmlns="http://www.w3.org/2000/svg">
<circle cx="9" cy="225" r="1" fill="#DADFF2" fill-opacity="0.5"/>
<circle cx="9" cy="117" r="1" fill="#DADFF2" fill-opacity="0.5"/>
<circle cx="9" cy="333" r="1" fill="#DADFF2" fill-opacity="0.5"/>
<circle cx="117" cy="9" r="1" fill="#DADFF2" fill-opacity="0.5"/>
<circle cx="261" cy="9" r="1" fill="#DADFF2" fill-opacity="0.5"/>
<circle cx="405" cy="9" r="1" fill="#DADFF2" fill-opacity="0.5"/>
<circle cx="117" cy="225" r="1" fill="#DADFF2" fill-opacity="0.5"/>
<circle cx="261" cy="225" r="1" fill="#DADFF2" fill-opacity="0.5"/>
<circle cx="405" cy="225" r="1" fill="#DADFF2" fill-opacity="0.5"/>
<circle cx="117" cy="117" r="1" fill="#DADFF2" fill-opacity="0.5"/>
<circle cx="261" cy="117" r="1" fill="#DADFF2" fill-opacity="0.5"/>
<circle cx="405" cy="117" r="1" fill="#DADFF2" fill-opacity="0.5"/>
<circle cx="117" cy="333" r="1" fill="#DADFF2" fill-opacity="0.5"/>
<circle cx="261" cy="333" r="1" fill="#DADFF2" fill-opacity="0.5"/>
<circle cx="405" cy="333" r="1" fill="#DADFF2" fill-opacity="0.5"/>
<circle cx="9" cy="81" r="1" fill="#DADFF2" fill-opacity="0.5"/>
<circle cx="9" cy="297" r="1" fill="#DADFF2" fill-opacity="0.5"/>
<circle cx="9" cy="189" r="1" fill="#DADFF2" fill-opacity="0.5"/>
<circle cx="9" cy="405" r="1" fill="#DADFF2" fill-opacity="0.5"/>
<circle cx="9" cy="441" r="1" fill="#DADFF2" fill-opacity="0.5"/>
<circle cx="117" cy="81" r="1" fill="#DADFF2" fill-opacity="0.5"/>
<circle cx="261" cy="81" r="1" fill="#DADFF2" fill-opacity="0.5"/>
<circle cx="405" cy="81" r="1" fill="#DADFF2" fill-opacity="0.5"/>
<circle cx="117" cy="297" r="1" fill="#DADFF2" fill-opacity="0.5"/>
<circle cx="261" cy="297" r="1" fill="#DADFF2" fill-opacity="0.5"/>
<circle cx="405" cy="297" r="1" fill="#DADFF2" fill-opacity="0.5"/>
<circle cx="117" cy="189" r="1" fill="#DADFF2" fill-opacity="0.5"/>
<circle cx="261" cy="189" r="1" fill="#DADFF2" fill-opacity="0.5"/>
<circle cx="405" cy="189" r="1" fill="#DADFF2" fill-opacity="0.5"/>
<circle cx="117" cy="405" r="1" fill="#DADFF2" fill-opacity="0.5"/>
<circle cx="261" cy="405" r="1" fill="#DADFF2" fill-opacity="0.5"/>
<circle cx="405" cy="405" r="1" fill="#DADFF2" fill-opacity="0.5"/>
<circle cx="117" cy="441" r="1" fill="#DADFF2" fill-opacity="0.5"/>
<circle cx="261" cy="441" r="1" fill="#DADFF2" fill-opacity="0.5"/>
<circle cx="405" cy="441" r="1" fill="#DADFF2" fill-opacity="0.5"/>
<circle cx="9" cy="45" r="1" fill="#DADFF2" fill-opacity="0.5"/>
<circle cx="9" cy="261" r="1" fill="#DADFF2" fill-opacity="0.5"/>
<circle cx="9" cy="153" r="1" fill="#DADFF2" fill-opacity="0.5"/>
<circle cx="9" cy="369" r="1" fill="#DADFF2" fill-opacity="0.5"/>
<circle cx="117" cy="45" r="1" fill="#DADFF2" fill-opacity="0.5"/>
<circle cx="261" cy="45" r="1" fill="#DADFF2" fill-opacity="0.5"/>
<circle cx="405" cy="45" r="1" fill="#DADFF2" fill-opacity="0.5"/>
<circle cx="117" cy="261" r="1" fill="#DADFF2" fill-opacity="0.5"/>
<circle cx="261" cy="261" r="1" fill="#DADFF2" fill-opacity="0.5"/>
<circle cx="405" cy="261" r="1" fill="#DADFF2" fill-opacity="0.5"/>
<circle cx="117" cy="153" r="1" fill="#DADFF2" fill-opacity="0.5"/>
<circle cx="261" cy="153" r="1" fill="#DADFF2" fill-opacity="0.5"/>
<circle cx="405" cy="153" r="1" fill="#DADFF2" fill-opacity="0.5"/>
<circle cx="117" cy="369" r="1" fill="#DADFF2" fill-opacity="0.5"/>
<circle cx="261" cy="369" r="1" fill="#DADFF2" fill-opacity="0.5"/>
<circle cx="405" cy="369" r="1" fill="#DADFF2" fill-opacity="0.5"/>
<circle cx="9" cy="27" r="1" fill="#DADFF2" fill-opacity="0.5"/>
<circle cx="9" cy="243" r="1" fill="#DADFF2" fill-opacity="0.5"/>
<circle cx="9" cy="135" r="1" fill="#DADFF2" fill-opacity="0.5"/>
<circle cx="9" cy="351" r="1" fill="#DADFF2" fill-opacity="0.5"/>
<circle cx="117" cy="27" r="1" fill="#DADFF2" fill-opacity="0.5"/>
<circle cx="261" cy="27" r="1" fill="#DADFF2" fill-opacity="0.5"/>
<circle cx="405" cy="27" r="1" fill="#DADFF2" fill-opacity="0.5"/>
<circle cx="117" cy="243" r="1" fill="#DADFF2" fill-opacity="0.5"/>
<circle cx="261" cy="243" r="1" fill="#DADFF2" fill-opacity="0.5"/>
<circle cx="405" cy="243" r="1" fill="#DADFF2" fill-opacity="0.5"/>
<circle cx="117" cy="135" r="1" fill="#DADFF2" fill-opacity="0.5"/>
<circle cx="261" cy="135" r="1" fill="#DADFF2" fill-opacity="0.5"/>
<circle cx="405" cy="135" r="1" fill="#DADFF2" fill-opacity="0.5"/>
<circle cx="117" cy="351" r="1" fill="#DADFF2" fill-opacity="0.5"/>
<circle cx="261" cy="351" r="1" fill="#DADFF2" fill-opacity="0.5"/>
<circle cx="405" cy="351" r="1" fill="#DADFF2" fill-opacity="0.5"/>
<circle cx="9" cy="99" r="1" fill="#DADFF2" fill-opacity="0.5"/>
<circle cx="9" cy="315" r="1" fill="#DADFF2" fill-opacity="0.5"/>
<circle cx="9" cy="207" r="1" fill="#DADFF2" fill-opacity="0.5"/>
<circle cx="9" cy="423" r="1" fill="#DADFF2" fill-opacity="0.5"/>
<circle cx="9" cy="459" r="1" fill="#DADFF2" fill-opacity="0.5"/>
<circle cx="9" cy="477" r="1" fill="#DADFF2" fill-opacity="0.5"/>
<circle cx="117" cy="99" r="1" fill="#DADFF2" fill-opacity="0.5"/>
<circle cx="261" cy="99" r="1" fill="#DADFF2" fill-opacity="0.5"/>
<circle cx="405" cy="99" r="1" fill="#DADFF2" fill-opacity="0.5"/>
<circle cx="117" cy="315" r="1" fill="#DADFF2" fill-opacity="0.5"/>
<circle cx="261" cy="315" r="1" fill="#DADFF2" fill-opacity="0.5"/>
<circle cx="405" cy="315" r="1" fill="#DADFF2" fill-opacity="0.5"/>
<circle cx="117" cy="207" r="1" fill="#DADFF2" fill-opacity="0.5"/>
<circle cx="261" cy="207" r="1" fill="#DADFF2" fill-opacity="0.5"/>
<circle cx="405" cy="207" r="1" fill="#DADFF2" fill-opacity="0.5"/>
<circle cx="117" cy="423" r="1" fill="#DADFF2" fill-opacity="0.5"/>
<circle cx="261" cy="423" r="1" fill="#DADFF2" fill-opacity="0.5"/>
<circle cx="405" cy="423" r="1" fill="#DADFF2" fill-opacity="0.5"/>
<circle cx="117" cy="459" r="1" fill="#DADFF2" fill-opacity="0.5"/>
<circle cx="261" cy="459" r="1" fill="#DADFF2" fill-opacity="0.5"/>
<circle cx="405" cy="459" r="1" fill="#DADFF2" fill-opacity="0.5"/>
<circle cx="117" cy="477" r="1" fill="#DADFF2" fill-opacity="0.5"/>
<circle cx="261" cy="477" r="1" fill="#DADFF2" fill-opacity="0.5"/>
<circle cx="405" cy="477" r="1" fill="#DADFF2" fill-opacity="0.5"/>
<circle cx="9" cy="63" r="1" fill="#DADFF2" fill-opacity="0.5"/>
<circle cx="9" cy="279" r="1" fill="#DADFF2" fill-opacity="0.5"/>
<circle cx="9" cy="171" r="1" fill="#DADFF2" fill-opacity="0.5"/>
<circle cx="9" cy="387" r="1" fill="#DADFF2" fill-opacity="0.5"/>
<circle cx="117" cy="63" r="1" fill="#DADFF2" fill-opacity="0.5"/>
<circle cx="261" cy="63" r="1" fill="#DADFF2" fill-opacity="0.5"/>
<circle cx="405" cy="63" r="1" fill="#DADFF2" fill-opacity="0.5"/>
<circle cx="117" cy="279" r="1" fill="#DADFF2" fill-opacity="0.5"/>
<circle cx="261" cy="279" r="1" fill="#DADFF2" fill-opacity="0.5"/>
<circle cx="405" cy="279" r="1" fill="#DADFF2" fill-opacity="0.5"/>
<circle cx="117" cy="171" r="1" fill="#DADFF2" fill-opacity="0.5"/>
<circle cx="261" cy="171" r="1" fill="#DADFF2" fill-opacity="0.5"/>
<circle cx="405" cy="171" r="1" fill="#DADFF2" fill-opacity="0.5"/>
<circle cx="117" cy="387" r="1" fill="#DADFF2" fill-opacity="0.5"/>
<circle cx="261" cy="387" r="1" fill="#DADFF2" fill-opacity="0.5"/>
<circle cx="405" cy="387" r="1" fill="#DADFF2" fill-opacity="0.5"/>
<circle cx="81" cy="9" r="1" fill="#DADFF2" fill-opacity="0.5"/>
<circle cx="225" cy="9" r="1" fill="#DADFF2" fill-opacity="0.5"/>
<circle cx="369" cy="9" r="1" fill="#DADFF2" fill-opacity="0.5"/>
<circle cx="81" cy="225" r="1" fill="#DADFF2" fill-opacity="0.5"/>
<circle cx="225" cy="225" r="1" fill="#DADFF2" fill-opacity="0.5"/>
<circle cx="369" cy="225" r="1" fill="#DADFF2" fill-opacity="0.5"/>
<circle cx="81" cy="117" r="1" fill="#DADFF2" fill-opacity="0.5"/>
<circle cx="225" cy="117" r="1" fill="#DADFF2" fill-opacity="0.5"/>
<circle cx="369" cy="117" r="1" fill="#DADFF2" fill-opacity="0.5"/>
<circle cx="81" cy="333" r="1" fill="#DADFF2" fill-opacity="0.5"/>
<circle cx="225" cy="333" r="1" fill="#DADFF2" fill-opacity="0.5"/>
<circle cx="369" cy="333" r="1" fill="#DADFF2" fill-opacity="0.5"/>
<circle cx="189" cy="9" r="1" fill="#DADFF2" fill-opacity="0.5"/>
<circle cx="333" cy="9" r="1" fill="#DADFF2" fill-opacity="0.5"/>
<circle cx="189" cy="225" r="1" fill="#DADFF2" fill-opacity="0.5"/>
<circle cx="333" cy="225" r="1" fill="#DADFF2" fill-opacity="0.5"/>
<circle cx="189" cy="117" r="1" fill="#DADFF2" fill-opacity="0.5"/>
<circle cx="333" cy="117" r="1" fill="#DADFF2" fill-opacity="0.5"/>
<circle cx="189" cy="333" r="1" fill="#DADFF2" fill-opacity="0.5"/>
<circle cx="333" cy="333" r="1" fill="#DADFF2" fill-opacity="0.5"/>
<circle cx="81" cy="81" r="1" fill="#DADFF2" fill-opacity="0.5"/>
<circle cx="225" cy="81" r="1" fill="#DADFF2" fill-opacity="0.5"/>
<circle cx="369" cy="81" r="1" fill="#DADFF2" fill-opacity="0.5"/>
<circle cx="81" cy="297" r="1" fill="#DADFF2" fill-opacity="0.5"/>
<circle cx="225" cy="297" r="1" fill="#DADFF2" fill-opacity="0.5"/>
<circle cx="369" cy="297" r="1" fill="#DADFF2" fill-opacity="0.5"/>
<circle cx="81" cy="189" r="1" fill="#DADFF2" fill-opacity="0.5"/>
<circle cx="225" cy="189" r="1" fill="#DADFF2" fill-opacity="0.5"/>
<circle cx="369" cy="189" r="1" fill="#DADFF2" fill-opacity="0.5"/>
<circle cx="81" cy="405" r="1" fill="#DADFF2" fill-opacity="0.5"/>
<circle cx="225" cy="405" r="1" fill="#DADFF2" fill-opacity="0.5"/>
<circle cx="369" cy="405" r="1" fill="#DADFF2" fill-opacity="0.5"/>
<circle cx="81" cy="441" r="1" fill="#DADFF2" fill-opacity="0.5"/>
<circle cx="225" cy="441" r="1" fill="#DADFF2" fill-opacity="0.5"/>
<circle cx="369" cy="441" r="1" fill="#DADFF2" fill-opacity="0.5"/>
<circle cx="189" cy="81" r="1" fill="#DADFF2" fill-opacity="0.5"/>
<circle cx="333" cy="81" r="1" fill="#DADFF2" fill-opacity="0.5"/>
<circle cx="189" cy="297" r="1" fill="#DADFF2" fill-opacity="0.5"/>
<circle cx="333" cy="297" r="1" fill="#DADFF2" fill-opacity="0.5"/>
<circle cx="189" cy="189" r="1" fill="#DADFF2" fill-opacity="0.5"/>
<circle cx="333" cy="189" r="1" fill="#DADFF2" fill-opacity="0.5"/>
<circle cx="189" cy="405" r="1" fill="#DADFF2" fill-opacity="0.5"/>
<circle cx="333" cy="405" r="1" fill="#DADFF2" fill-opacity="0.5"/>
<circle cx="189" cy="441" r="1" fill="#DADFF2" fill-opacity="0.5"/>
<circle cx="333" cy="441" r="1" fill="#DADFF2" fill-opacity="0.5"/>
<circle cx="81" cy="45" r="1" fill="#DADFF2" fill-opacity="0.5"/>
<circle cx="225" cy="45" r="1" fill="#DADFF2" fill-opacity="0.5"/>
<circle cx="369" cy="45" r="1" fill="#DADFF2" fill-opacity="0.5"/>
<circle cx="81" cy="261" r="1" fill="#DADFF2" fill-opacity="0.5"/>
<circle cx="225" cy="261" r="1" fill="#DADFF2" fill-opacity="0.5"/>
<circle cx="369" cy="261" r="1" fill="#DADFF2" fill-opacity="0.5"/>
<circle cx="81" cy="153" r="1" fill="#DADFF2" fill-opacity="0.5"/>
<circle cx="225" cy="153" r="1" fill="#DADFF2" fill-opacity="0.5"/>
<circle cx="369" cy="153" r="1" fill="#DADFF2" fill-opacity="0.5"/>
<circle cx="81" cy="369" r="1" fill="#DADFF2" fill-opacity="0.5"/>
<circle cx="225" cy="369" r="1" fill="#DADFF2" fill-opacity="0.5"/>
<circle cx="369" cy="369" r="1" fill="#DADFF2" fill-opacity="0.5"/>
<circle cx="189" cy="45" r="1" fill="#DADFF2" fill-opacity="0.5"/>
<circle cx="333" cy="45" r="1" fill="#DADFF2" fill-opacity="0.5"/>
<circle cx="189" cy="261" r="1" fill="#DADFF2" fill-opacity="0.5"/>
<circle cx="333" cy="261" r="1" fill="#DADFF2" fill-opacity="0.5"/>
<circle cx="189" cy="153" r="1" fill="#DADFF2" fill-opacity="0.5"/>
<circle cx="333" cy="153" r="1" fill="#DADFF2" fill-opacity="0.5"/>
<circle cx="189" cy="369" r="1" fill="#DADFF2" fill-opacity="0.5"/>
<circle cx="333" cy="369" r="1" fill="#DADFF2" fill-opacity="0.5"/>
<circle cx="81" cy="27" r="1" fill="#DADFF2" fill-opacity="0.5"/>
<circle cx="225" cy="27" r="1" fill="#DADFF2" fill-opacity="0.5"/>
<circle cx="369" cy="27" r="1" fill="#DADFF2" fill-opacity="0.5"/>
<circle cx="81" cy="243" r="1" fill="#DADFF2" fill-opacity="0.5"/>
<circle cx="225" cy="243" r="1" fill="#DADFF2" fill-opacity="0.5"/>
<circle cx="369" cy="243" r="1" fill="#DADFF2" fill-opacity="0.5"/>
<circle cx="81" cy="135" r="1" fill="#DADFF2" fill-opacity="0.5"/>
<circle cx="225" cy="135" r="1" fill="#DADFF2" fill-opacity="0.5"/>
<circle cx="369" cy="135" r="1" fill="#DADFF2" fill-opacity="0.5"/>
<circle cx="81" cy="351" r="1" fill="#DADFF2" fill-opacity="0.5"/>
<circle cx="225" cy="351" r="1" fill="#DADFF2" fill-opacity="0.5"/>
<circle cx="369" cy="351" r="1" fill="#DADFF2" fill-opacity="0.5"/>
<circle cx="189" cy="27" r="1" fill="#DADFF2" fill-opacity="0.5"/>
<circle cx="333" cy="27" r="1" fill="#DADFF2" fill-opacity="0.5"/>
<circle cx="189" cy="243" r="1" fill="#DADFF2" fill-opacity="0.5"/>
<circle cx="333" cy="243" r="1" fill="#DADFF2" fill-opacity="0.5"/>
<circle cx="189" cy="135" r="1" fill="#DADFF2" fill-opacity="0.5"/>
<circle cx="333" cy="135" r="1" fill="#DADFF2" fill-opacity="0.5"/>
<circle cx="189" cy="351" r="1" fill="#DADFF2" fill-opacity="0.5"/>
<circle cx="333" cy="351" r="1" fill="#DADFF2" fill-opacity="0.5"/>
<circle cx="81" cy="99" r="1" fill="#DADFF2" fill-opacity="0.5"/>
<circle cx="225" cy="99" r="1" fill="#DADFF2" fill-opacity="0.5"/>
<circle cx="369" cy="99" r="1" fill="#DADFF2" fill-opacity="0.5"/>
<circle cx="81" cy="315" r="1" fill="#DADFF2" fill-opacity="0.5"/>
<circle cx="225" cy="315" r="1" fill="#DADFF2" fill-opacity="0.5"/>
<circle cx="369" cy="315" r="1" fill="#DADFF2" fill-opacity="0.5"/>
<circle cx="81" cy="207" r="1" fill="#DADFF2" fill-opacity="0.5"/>
<circle cx="225" cy="207" r="1" fill="#DADFF2" fill-opacity="0.5"/>
<circle cx="369" cy="207" r="1" fill="#DADFF2" fill-opacity="0.5"/>
<circle cx="81" cy="423" r="1" fill="#DADFF2" fill-opacity="0.5"/>
<circle cx="225" cy="423" r="1" fill="#DADFF2" fill-opacity="0.5"/>
<circle cx="369" cy="423" r="1" fill="#DADFF2" fill-opacity="0.5"/>
<circle cx="81" cy="459" r="1" fill="#DADFF2" fill-opacity="0.5"/>
<circle cx="225" cy="459" r="1" fill="#DADFF2" fill-opacity="0.5"/>
<circle cx="369" cy="459" r="1" fill="#DADFF2" fill-opacity="0.5"/>
<circle cx="81" cy="477" r="1" fill="#DADFF2" fill-opacity="0.5"/>
<circle cx="225" cy="477" r="1" fill="#DADFF2" fill-opacity="0.5"/>
<circle cx="369" cy="477" r="1" fill="#DADFF2" fill-opacity="0.5"/>
<circle cx="189" cy="99" r="1" fill="#DADFF2" fill-opacity="0.5"/>
<circle cx="333" cy="99" r="1" fill="#DADFF2" fill-opacity="0.5"/>
<circle cx="189" cy="315" r="1" fill="#DADFF2" fill-opacity="0.5"/>
<circle cx="333" cy="315" r="1" fill="#DADFF2" fill-opacity="0.5"/>
<circle cx="189" cy="207" r="1" fill="#DADFF2" fill-opacity="0.5"/>
<circle cx="333" cy="207" r="1" fill="#DADFF2" fill-opacity="0.5"/>
<circle cx="189" cy="423" r="1" fill="#DADFF2" fill-opacity="0.5"/>
<circle cx="333" cy="423" r="1" fill="#DADFF2" fill-opacity="0.5"/>
<circle cx="189" cy="459" r="1" fill="#DADFF2" fill-opacity="0.5"/>
<circle cx="333" cy="459" r="1" fill="#DADFF2" fill-opacity="0.5"/>
<circle cx="189" cy="477" r="1" fill="#DADFF2" fill-opacity="0.5"/>
<circle cx="333" cy="477" r="1" fill="#DADFF2" fill-opacity="0.5"/>
<circle cx="81" cy="63" r="1" fill="#DADFF2" fill-opacity="0.5"/>
<circle cx="225" cy="63" r="1" fill="#DADFF2" fill-opacity="0.5"/>
<circle cx="369" cy="63" r="1" fill="#DADFF2" fill-opacity="0.5"/>
<circle cx="81" cy="279" r="1" fill="#DADFF2" fill-opacity="0.5"/>
<circle cx="225" cy="279" r="1" fill="#DADFF2" fill-opacity="0.5"/>
<circle cx="369" cy="279" r="1" fill="#DADFF2" fill-opacity="0.5"/>
<circle cx="81" cy="171" r="1" fill="#DADFF2" fill-opacity="0.5"/>
<circle cx="225" cy="171" r="1" fill="#DADFF2" fill-opacity="0.5"/>
<circle cx="369" cy="171" r="1" fill="#DADFF2" fill-opacity="0.5"/>
<circle cx="81" cy="387" r="1" fill="#DADFF2" fill-opacity="0.5"/>
<circle cx="225" cy="387" r="1" fill="#DADFF2" fill-opacity="0.5"/>
<circle cx="369" cy="387" r="1" fill="#DADFF2" fill-opacity="0.5"/>
<circle cx="189" cy="63" r="1" fill="#DADFF2" fill-opacity="0.5"/>
<circle cx="333" cy="63" r="1" fill="#DADFF2" fill-opacity="0.5"/>
<circle cx="189" cy="279" r="1" fill="#DADFF2" fill-opacity="0.5"/>
<circle cx="333" cy="279" r="1" fill="#DADFF2" fill-opacity="0.5"/>
<circle cx="189" cy="171" r="1" fill="#DADFF2" fill-opacity="0.5"/>
<circle cx="333" cy="171" r="1" fill="#DADFF2" fill-opacity="0.5"/>
<circle cx="189" cy="387" r="1" fill="#DADFF2" fill-opacity="0.5"/>
<circle cx="333" cy="387" r="1" fill="#DADFF2" fill-opacity="0.5"/>
<circle cx="45" cy="9" r="1" fill="#DADFF2" fill-opacity="0.5"/>
<circle cx="45" cy="225" r="1" fill="#DADFF2" fill-opacity="0.5"/>
<circle cx="45" cy="117" r="1" fill="#DADFF2" fill-opacity="0.5"/>
<circle cx="45" cy="333" r="1" fill="#DADFF2" fill-opacity="0.5"/>
<circle cx="153" cy="9" r="1" fill="#DADFF2" fill-opacity="0.5"/>
<circle cx="297" cy="9" r="1" fill="#DADFF2" fill-opacity="0.5"/>
<circle cx="441" cy="9" r="1" fill="#DADFF2" fill-opacity="0.5"/>
<circle cx="459" cy="9" r="1" fill="#DADFF2" fill-opacity="0.5"/>
<circle cx="477" cy="9" r="1" fill="#DADFF2" fill-opacity="0.5"/>
<circle cx="153" cy="225" r="1" fill="#DADFF2" fill-opacity="0.5"/>
<circle cx="297" cy="225" r="1" fill="#DADFF2" fill-opacity="0.5"/>
<circle cx="441" cy="225" r="1" fill="#DADFF2" fill-opacity="0.5"/>
<circle cx="459" cy="225" r="1" fill="#DADFF2" fill-opacity="0.5"/>
<circle cx="477" cy="225" r="1" fill="#DADFF2" fill-opacity="0.5"/>
<circle cx="153" cy="117" r="1" fill="#DADFF2" fill-opacity="0.5"/>
<circle cx="297" cy="117" r="1" fill="#DADFF2" fill-opacity="0.5"/>
<circle cx="441" cy="117" r="1" fill="#DADFF2" fill-opacity="0.5"/>
<circle cx="459" cy="117" r="1" fill="#DADFF2" fill-opacity="0.5"/>
<circle cx="477" cy="117" r="1" fill="#DADFF2" fill-opacity="0.5"/>
<circle cx="153" cy="333" r="1" fill="#DADFF2" fill-opacity="0.5"/>
<circle cx="297" cy="333" r="1" fill="#DADFF2" fill-opacity="0.5"/>
<circle cx="441" cy="333" r="1" fill="#DADFF2" fill-opacity="0.5"/>
<circle cx="459" cy="333" r="1" fill="#DADFF2" fill-opacity="0.5"/>
<circle cx="477" cy="333" r="1" fill="#DADFF2" fill-opacity="0.5"/>
<circle cx="45" cy="81" r="1" fill="#DADFF2" fill-opacity="0.5"/>
<circle cx="45" cy="297" r="1" fill="#DADFF2" fill-opacity="0.5"/>
<circle cx="45" cy="189" r="1" fill="#DADFF2" fill-opacity="0.5"/>
<circle cx="45" cy="405" r="1" fill="#DADFF2" fill-opacity="0.5"/>
<circle cx="45" cy="441" r="1" fill="#DADFF2" fill-opacity="0.5"/>
<circle cx="153" cy="81" r="1" fill="#DADFF2" fill-opacity="0.5"/>
<circle cx="297" cy="81" r="1" fill="#DADFF2" fill-opacity="0.5"/>
<circle cx="441" cy="81" r="1" fill="#DADFF2" fill-opacity="0.5"/>
<circle cx="459" cy="81" r="1" fill="#DADFF2" fill-opacity="0.5"/>
<circle cx="477" cy="81" r="1" fill="#DADFF2" fill-opacity="0.5"/>
<circle cx="153" cy="297" r="1" fill="#DADFF2" fill-opacity="0.5"/>
<circle cx="297" cy="297" r="1" fill="#DADFF2" fill-opacity="0.5"/>
<circle cx="441" cy="297" r="1" fill="#DADFF2" fill-opacity="0.5"/>
<circle cx="459" cy="297" r="1" fill="#DADFF2" fill-opacity="0.5"/>
<circle cx="477" cy="297" r="1" fill="#DADFF2" fill-opacity="0.5"/>
<circle cx="153" cy="189" r="1" fill="#DADFF2" fill-opacity="0.5"/>
<circle cx="297" cy="189" r="1" fill="#DADFF2" fill-opacity="0.5"/>
<circle cx="441" cy="189" r="1" fill="#DADFF2" fill-opacity="0.5"/>
<circle cx="459" cy="189" r="1" fill="#DADFF2" fill-opacity="0.5"/>
<circle cx="477" cy="189" r="1" fill="#DADFF2" fill-opacity="0.5"/>
<circle cx="153" cy="405" r="1" fill="#DADFF2" fill-opacity="0.5"/>
<circle cx="297" cy="405" r="1" fill="#DADFF2" fill-opacity="0.5"/>
<circle cx="441" cy="405" r="1" fill="#DADFF2" fill-opacity="0.5"/>
<circle cx="459" cy="405" r="1" fill="#DADFF2" fill-opacity="0.5"/>
<circle cx="477" cy="405" r="1" fill="#DADFF2" fill-opacity="0.5"/>
<circle cx="153" cy="441" r="1" fill="#DADFF2" fill-opacity="0.5"/>
<circle cx="297" cy="441" r="1" fill="#DADFF2" fill-opacity="0.5"/>
<circle cx="441" cy="441" r="1" fill="#DADFF2" fill-opacity="0.5"/>
<circle cx="459" cy="441" r="1" fill="#DADFF2" fill-opacity="0.5"/>
<circle cx="477" cy="441" r="1" fill="#DADFF2" fill-opacity="0.5"/>
<circle cx="45" cy="45" r="1" fill="#DADFF2" fill-opacity="0.5"/>
<circle cx="45" cy="261" r="1" fill="#DADFF2" fill-opacity="0.5"/>
<circle cx="45" cy="153" r="1" fill="#DADFF2" fill-opacity="0.5"/>
<circle cx="45" cy="369" r="1" fill="#DADFF2" fill-opacity="0.5"/>
<circle cx="153" cy="45" r="1" fill="#DADFF2" fill-opacity="0.5"/>
<circle cx="297" cy="45" r="1" fill="#DADFF2" fill-opacity="0.5"/>
<circle cx="441" cy="45" r="1" fill="#DADFF2" fill-opacity="0.5"/>
<circle cx="459" cy="45" r="1" fill="#DADFF2" fill-opacity="0.5"/>
<circle cx="477" cy="45" r="1" fill="#DADFF2" fill-opacity="0.5"/>
<circle cx="153" cy="261" r="1" fill="#DADFF2" fill-opacity="0.5"/>
<circle cx="297" cy="261" r="1" fill="#DADFF2" fill-opacity="0.5"/>
<circle cx="441" cy="261" r="1" fill="#DADFF2" fill-opacity="0.5"/>
<circle cx="459" cy="261" r="1" fill="#DADFF2" fill-opacity="0.5"/>
<circle cx="477" cy="261" r="1" fill="#DADFF2" fill-opacity="0.5"/>
<circle cx="153" cy="153" r="1" fill="#DADFF2" fill-opacity="0.5"/>
<circle cx="297" cy="153" r="1" fill="#DADFF2" fill-opacity="0.5"/>
<circle cx="441" cy="153" r="1" fill="#DADFF2" fill-opacity="0.5"/>
<circle cx="459" cy="153" r="1" fill="#DADFF2" fill-opacity="0.5"/>
<circle cx="477" cy="153" r="1" fill="#DADFF2" fill-opacity="0.5"/>
<circle cx="153" cy="369" r="1" fill="#DADFF2" fill-opacity="0.5"/>
<circle cx="297" cy="369" r="1" fill="#DADFF2" fill-opacity="0.5"/>
<circle cx="441" cy="369" r="1" fill="#DADFF2" fill-opacity="0.5"/>
<circle cx="459" cy="369" r="1" fill="#DADFF2" fill-opacity="0.5"/>
<circle cx="477" cy="369" r="1" fill="#DADFF2" fill-opacity="0.5"/>
<circle cx="45" cy="27" r="1" fill="#DADFF2" fill-opacity="0.5"/>
<circle cx="45" cy="243" r="1" fill="#DADFF2" fill-opacity="0.5"/>
<circle cx="45" cy="135" r="1" fill="#DADFF2" fill-opacity="0.5"/>
<circle cx="45" cy="351" r="1" fill="#DADFF2" fill-opacity="0.5"/>
<circle cx="153" cy="27" r="1" fill="#DADFF2" fill-opacity="0.5"/>
<circle cx="297" cy="27" r="1" fill="#DADFF2" fill-opacity="0.5"/>
<circle cx="441" cy="27" r="1" fill="#DADFF2" fill-opacity="0.5"/>
<circle cx="459" cy="27" r="1" fill="#DADFF2" fill-opacity="0.5"/>
<circle cx="477" cy="27" r="1" fill="#DADFF2" fill-opacity="0.5"/>
<circle cx="153" cy="243" r="1" fill="#DADFF2" fill-opacity="0.5"/>
<circle cx="297" cy="243" r="1" fill="#DADFF2" fill-opacity="0.5"/>
<circle cx="441" cy="243" r="1" fill="#DADFF2" fill-opacity="0.5"/>
<circle cx="459" cy="243" r="1" fill="#DADFF2" fill-opacity="0.5"/>
<circle cx="477" cy="243" r="1" fill="#DADFF2" fill-opacity="0.5"/>
<circle cx="153" cy="135" r="1" fill="#DADFF2" fill-opacity="0.5"/>
<circle cx="297" cy="135" r="1" fill="#DADFF2" fill-opacity="0.5"/>
<circle cx="441" cy="135" r="1" fill="#DADFF2" fill-opacity="0.5"/>
<circle cx="459" cy="135" r="1" fill="#DADFF2" fill-opacity="0.5"/>
<circle cx="477" cy="135" r="1" fill="#DADFF2" fill-opacity="0.5"/>
<circle cx="153" cy="351" r="1" fill="#DADFF2" fill-opacity="0.5"/>
<circle cx="297" cy="351" r="1" fill="#DADFF2" fill-opacity="0.5"/>
<circle cx="441" cy="351" r="1" fill="#DADFF2" fill-opacity="0.5"/>
<circle cx="459" cy="351" r="1" fill="#DADFF2" fill-opacity="0.5"/>
<circle cx="477" cy="351" r="1" fill="#DADFF2" fill-opacity="0.5"/>
<circle cx="45" cy="99" r="1" fill="#DADFF2" fill-opacity="0.5"/>
<circle cx="45" cy="315" r="1" fill="#DADFF2" fill-opacity="0.5"/>
<circle cx="45" cy="207" r="1" fill="#DADFF2" fill-opacity="0.5"/>
<circle cx="45" cy="423" r="1" fill="#DADFF2" fill-opacity="0.5"/>
<circle cx="45" cy="459" r="1" fill="#DADFF2" fill-opacity="0.5"/>
<circle cx="45" cy="477" r="1" fill="#DADFF2" fill-opacity="0.5"/>
<circle cx="153" cy="99" r="1" fill="#DADFF2" fill-opacity="0.5"/>
<circle cx="297" cy="99" r="1" fill="#DADFF2" fill-opacity="0.5"/>
<circle cx="441" cy="99" r="1" fill="#DADFF2" fill-opacity="0.5"/>
<circle cx="459" cy="99" r="1" fill="#DADFF2" fill-opacity="0.5"/>
<circle cx="477" cy="99" r="1" fill="#DADFF2" fill-opacity="0.5"/>
<circle cx="153" cy="315" r="1" fill="#DADFF2" fill-opacity="0.5"/>
<circle cx="297" cy="315" r="1" fill="#DADFF2" fill-opacity="0.5"/>
<circle cx="441" cy="315" r="1" fill="#DADFF2" fill-opacity="0.5"/>
<circle cx="459" cy="315" r="1" fill="#DADFF2" fill-opacity="0.5"/>
<circle cx="477" cy="315" r="1" fill="#DADFF2" fill-opacity="0.5"/>
<circle cx="153" cy="207" r="1" fill="#DADFF2" fill-opacity="0.5"/>
<circle cx="297" cy="207" r="1" fill="#DADFF2" fill-opacity="0.5"/>
<circle cx="441" cy="207" r="1" fill="#DADFF2" fill-opacity="0.5"/>
<circle cx="459" cy="207" r="1" fill="#DADFF2" fill-opacity="0.5"/>
<circle cx="477" cy="207" r="1" fill="#DADFF2" fill-opacity="0.5"/>
<circle cx="153" cy="423" r="1" fill="#DADFF2" fill-opacity="0.5"/>
<circle cx="297" cy="423" r="1" fill="#DADFF2" fill-opacity="0.5"/>
<circle cx="441" cy="423" r="1" fill="#DADFF2" fill-opacity="0.5"/>
<circle cx="459" cy="423" r="1" fill="#DADFF2" fill-opacity="0.5"/>
<circle cx="477" cy="423" r="1" fill="#DADFF2" fill-opacity="0.5"/>
<circle cx="153" cy="459" r="1" fill="#DADFF2" fill-opacity="0.5"/>
<circle cx="297" cy="459" r="1" fill="#DADFF2" fill-opacity="0.5"/>
<circle cx="441" cy="459" r="1" fill="#DADFF2" fill-opacity="0.5"/>
<circle cx="459" cy="459" r="1" fill="#DADFF2" fill-opacity="0.5"/>
<circle cx="477" cy="459" r="1" fill="#DADFF2" fill-opacity="0.5"/>
<circle cx="153" cy="477" r="1" fill="#DADFF2" fill-opacity="0.5"/>
<circle cx="297" cy="477" r="1" fill="#DADFF2" fill-opacity="0.5"/>
<circle cx="441" cy="477" r="1" fill="#DADFF2" fill-opacity="0.5"/>
<circle cx="459" cy="477" r="1" fill="#DADFF2" fill-opacity="0.5"/>
<circle cx="477" cy="477" r="1" fill="#DADFF2" fill-opacity="0.5"/>
<circle cx="45" cy="63" r="1" fill="#DADFF2" fill-opacity="0.5"/>
<circle cx="45" cy="279" r="1" fill="#DADFF2" fill-opacity="0.5"/>
<circle cx="45" cy="171" r="1" fill="#DADFF2" fill-opacity="0.5"/>
<circle cx="45" cy="387" r="1" fill="#DADFF2" fill-opacity="0.5"/>
<circle cx="153" cy="63" r="1" fill="#DADFF2" fill-opacity="0.5"/>
<circle cx="297" cy="63" r="1" fill="#DADFF2" fill-opacity="0.5"/>
<circle cx="441" cy="63" r="1" fill="#DADFF2" fill-opacity="0.5"/>
<circle cx="459" cy="63" r="1" fill="#DADFF2" fill-opacity="0.5"/>
<circle cx="477" cy="63" r="1" fill="#DADFF2" fill-opacity="0.5"/>
<circle cx="153" cy="279" r="1" fill="#DADFF2" fill-opacity="0.5"/>
<circle cx="297" cy="279" r="1" fill="#DADFF2" fill-opacity="0.5"/>
<circle cx="441" cy="279" r="1" fill="#DADFF2" fill-opacity="0.5"/>
<circle cx="459" cy="279" r="1" fill="#DADFF2" fill-opacity="0.5"/>
<circle cx="477" cy="279" r="1" fill="#DADFF2" fill-opacity="0.5"/>
<circle cx="153" cy="171" r="1" fill="#DADFF2" fill-opacity="0.5"/>
<circle cx="297" cy="171" r="1" fill="#DADFF2" fill-opacity="0.5"/>
<circle cx="441" cy="171" r="1" fill="#DADFF2" fill-opacity="0.5"/>
<circle cx="459" cy="171" r="1" fill="#DADFF2" fill-opacity="0.5"/>
<circle cx="477" cy="171" r="1" fill="#DADFF2" fill-opacity="0.5"/>
<circle cx="153" cy="387" r="1" fill="#DADFF2" fill-opacity="0.5"/>
<circle cx="297" cy="387" r="1" fill="#DADFF2" fill-opacity="0.5"/>
<circle cx="441" cy="387" r="1" fill="#DADFF2" fill-opacity="0.5"/>
<circle cx="459" cy="387" r="1" fill="#DADFF2" fill-opacity="0.5"/>
<circle cx="477" cy="387" r="1" fill="#DADFF2" fill-opacity="0.5"/>
<circle cx="27" cy="9" r="1" fill="#DADFF2" fill-opacity="0.5"/>
<circle cx="27" cy="225" r="1" fill="#DADFF2" fill-opacity="0.5"/>
<circle cx="27" cy="117" r="1" fill="#DADFF2" fill-opacity="0.5"/>
<circle cx="27" cy="333" r="1" fill="#DADFF2" fill-opacity="0.5"/>
<circle cx="135" cy="9" r="1" fill="#DADFF2" fill-opacity="0.5"/>
<circle cx="279" cy="9" r="1" fill="#DADFF2" fill-opacity="0.5"/>
<circle cx="423" cy="9" r="1" fill="#DADFF2" fill-opacity="0.5"/>
<circle cx="135" cy="225" r="1" fill="#DADFF2" fill-opacity="0.5"/>
<circle cx="279" cy="225" r="1" fill="#DADFF2" fill-opacity="0.5"/>
<circle cx="423" cy="225" r="1" fill="#DADFF2" fill-opacity="0.5"/>
<circle cx="135" cy="117" r="1" fill="#DADFF2" fill-opacity="0.5"/>
<circle cx="279" cy="117" r="1" fill="#DADFF2" fill-opacity="0.5"/>
<circle cx="423" cy="117" r="1" fill="#DADFF2" fill-opacity="0.5"/>
<circle cx="135" cy="333" r="1" fill="#DADFF2" fill-opacity="0.5"/>
<circle cx="279" cy="333" r="1" fill="#DADFF2" fill-opacity="0.5"/>
<circle cx="423" cy="333" r="1" fill="#DADFF2" fill-opacity="0.5"/>
<circle cx="27" cy="81" r="1" fill="#DADFF2" fill-opacity="0.5"/>
<circle cx="27" cy="297" r="1" fill="#DADFF2" fill-opacity="0.5"/>
<circle cx="27" cy="189" r="1" fill="#DADFF2" fill-opacity="0.5"/>
<circle cx="27" cy="405" r="1" fill="#DADFF2" fill-opacity="0.5"/>
<circle cx="27" cy="441" r="1" fill="#DADFF2" fill-opacity="0.5"/>
<circle cx="135" cy="81" r="1" fill="#DADFF2" fill-opacity="0.5"/>
<circle cx="279" cy="81" r="1" fill="#DADFF2" fill-opacity="0.5"/>
<circle cx="423" cy="81" r="1" fill="#DADFF2" fill-opacity="0.5"/>
<circle cx="135" cy="297" r="1" fill="#DADFF2" fill-opacity="0.5"/>
<circle cx="279" cy="297" r="1" fill="#DADFF2" fill-opacity="0.5"/>
<circle cx="423" cy="297" r="1" fill="#DADFF2" fill-opacity="0.5"/>
<circle cx="135" cy="189" r="1" fill="#DADFF2" fill-opacity="0.5"/>
<circle cx="279" cy="189" r="1" fill="#DADFF2" fill-opacity="0.5"/>
<circle cx="423" cy="189" r="1" fill="#DADFF2" fill-opacity="0.5"/>
<circle cx="135" cy="405" r="1" fill="#DADFF2" fill-opacity="0.5"/>
<circle cx="279" cy="405" r="1" fill="#DADFF2" fill-opacity="0.5"/>
<circle cx="423" cy="405" r="1" fill="#DADFF2" fill-opacity="0.5"/>
<circle cx="135" cy="441" r="1" fill="#DADFF2" fill-opacity="0.5"/>
<circle cx="279" cy="441" r="1" fill="#DADFF2" fill-opacity="0.5"/>
<circle cx="423" cy="441" r="1" fill="#DADFF2" fill-opacity="0.5"/>
<circle cx="27" cy="45" r="1" fill="#DADFF2" fill-opacity="0.5"/>
<circle cx="27" cy="261" r="1" fill="#DADFF2" fill-opacity="0.5"/>
<circle cx="27" cy="153" r="1" fill="#DADFF2" fill-opacity="0.5"/>
<circle cx="27" cy="369" r="1" fill="#DADFF2" fill-opacity="0.5"/>
<circle cx="135" cy="45" r="1" fill="#DADFF2" fill-opacity="0.5"/>
<circle cx="279" cy="45" r="1" fill="#DADFF2" fill-opacity="0.5"/>
<circle cx="423" cy="45" r="1" fill="#DADFF2" fill-opacity="0.5"/>
<circle cx="135" cy="261" r="1" fill="#DADFF2" fill-opacity="0.5"/>
<circle cx="279" cy="261" r="1" fill="#DADFF2" fill-opacity="0.5"/>
<circle cx="423" cy="261" r="1" fill="#DADFF2" fill-opacity="0.5"/>
<circle cx="135" cy="153" r="1" fill="#DADFF2" fill-opacity="0.5"/>
<circle cx="279" cy="153" r="1" fill="#DADFF2" fill-opacity="0.5"/>
<circle cx="423" cy="153" r="1" fill="#DADFF2" fill-opacity="0.5"/>
<circle cx="135" cy="369" r="1" fill="#DADFF2" fill-opacity="0.5"/>
<circle cx="279" cy="369" r="1" fill="#DADFF2" fill-opacity="0.5"/>
<circle cx="423" cy="369" r="1" fill="#DADFF2" fill-opacity="0.5"/>
<circle cx="27" cy="27" r="1" fill="#DADFF2" fill-opacity="0.5"/>
<circle cx="27" cy="243" r="1" fill="#DADFF2" fill-opacity="0.5"/>
<circle cx="27" cy="135" r="1" fill="#DADFF2" fill-opacity="0.5"/>
<circle cx="27" cy="351" r="1" fill="#DADFF2" fill-opacity="0.5"/>
<circle cx="135" cy="27" r="1" fill="#DADFF2" fill-opacity="0.5"/>
<circle cx="279" cy="27" r="1" fill="#DADFF2" fill-opacity="0.5"/>
<circle cx="423" cy="27" r="1" fill="#DADFF2" fill-opacity="0.5"/>
<circle cx="135" cy="243" r="1" fill="#DADFF2" fill-opacity="0.5"/>
<circle cx="279" cy="243" r="1" fill="#DADFF2" fill-opacity="0.5"/>
<circle cx="423" cy="243" r="1" fill="#DADFF2" fill-opacity="0.5"/>
<circle cx="135" cy="135" r="1" fill="#DADFF2" fill-opacity="0.5"/>
<circle cx="279" cy="135" r="1" fill="#DADFF2" fill-opacity="0.5"/>
<circle cx="423" cy="135" r="1" fill="#DADFF2" fill-opacity="0.5"/>
<circle cx="135" cy="351" r="1" fill="#DADFF2" fill-opacity="0.5"/>
<circle cx="279" cy="351" r="1" fill="#DADFF2" fill-opacity="0.5"/>
<circle cx="423" cy="351" r="1" fill="#DADFF2" fill-opacity="0.5"/>
<circle cx="27" cy="99" r="1" fill="#DADFF2" fill-opacity="0.5"/>
<circle cx="27" cy="315" r="1" fill="#DADFF2" fill-opacity="0.5"/>
<circle cx="27" cy="207" r="1" fill="#DADFF2" fill-opacity="0.5"/>
<circle cx="27" cy="423" r="1" fill="#DADFF2" fill-opacity="0.5"/>
<circle cx="27" cy="459" r="1" fill="#DADFF2" fill-opacity="0.5"/>
<circle cx="27" cy="477" r="1" fill="#DADFF2" fill-opacity="0.5"/>
<circle cx="135" cy="99" r="1" fill="#DADFF2" fill-opacity="0.5"/>
<circle cx="279" cy="99" r="1" fill="#DADFF2" fill-opacity="0.5"/>
<circle cx="423" cy="99" r="1" fill="#DADFF2" fill-opacity="0.5"/>
<circle cx="135" cy="315" r="1" fill="#DADFF2" fill-opacity="0.5"/>
<circle cx="279" cy="315" r="1" fill="#DADFF2" fill-opacity="0.5"/>
<circle cx="423" cy="315" r="1" fill="#DADFF2" fill-opacity="0.5"/>
<circle cx="135" cy="207" r="1" fill="#DADFF2" fill-opacity="0.5"/>
<circle cx="279" cy="207" r="1" fill="#DADFF2" fill-opacity="0.5"/>
<circle cx="423" cy="207" r="1" fill="#DADFF2" fill-opacity="0.5"/>
<circle cx="135" cy="423" r="1" fill="#DADFF2" fill-opacity="0.5"/>
<circle cx="279" cy="423" r="1" fill="#DADFF2" fill-opacity="0.5"/>
<circle cx="423" cy="423" r="1" fill="#DADFF2" fill-opacity="0.5"/>
<circle cx="135" cy="459" r="1" fill="#DADFF2" fill-opacity="0.5"/>
<circle cx="279" cy="459" r="1" fill="#DADFF2" fill-opacity="0.5"/>
<circle cx="423" cy="459" r="1" fill="#DADFF2" fill-opacity="0.5"/>
<circle cx="135" cy="477" r="1" fill="#DADFF2" fill-opacity="0.5"/>
<circle cx="279" cy="477" r="1" fill="#DADFF2" fill-opacity="0.5"/>
<circle cx="423" cy="477" r="1" fill="#DADFF2" fill-opacity="0.5"/>
<circle cx="27" cy="63" r="1" fill="#DADFF2" fill-opacity="0.5"/>
<circle cx="27" cy="279" r="1" fill="#DADFF2" fill-opacity="0.5"/>
<circle cx="27" cy="171" r="1" fill="#DADFF2" fill-opacity="0.5"/>
<circle cx="27" cy="387" r="1" fill="#DADFF2" fill-opacity="0.5"/>
<circle cx="135" cy="63" r="1" fill="#DADFF2" fill-opacity="0.5"/>
<circle cx="279" cy="63" r="1" fill="#DADFF2" fill-opacity="0.5"/>
<circle cx="423" cy="63" r="1" fill="#DADFF2" fill-opacity="0.5"/>
<circle cx="135" cy="279" r="1" fill="#DADFF2" fill-opacity="0.5"/>
<circle cx="279" cy="279" r="1" fill="#DADFF2" fill-opacity="0.5"/>
<circle cx="423" cy="279" r="1" fill="#DADFF2" fill-opacity="0.5"/>
<circle cx="135" cy="171" r="1" fill="#DADFF2" fill-opacity="0.5"/>
<circle cx="279" cy="171" r="1" fill="#DADFF2" fill-opacity="0.5"/>
<circle cx="423" cy="171" r="1" fill="#DADFF2" fill-opacity="0.5"/>
<circle cx="135" cy="387" r="1" fill="#DADFF2" fill-opacity="0.5"/>
<circle cx="279" cy="387" r="1" fill="#DADFF2" fill-opacity="0.5"/>
<circle cx="423" cy="387" r="1" fill="#DADFF2" fill-opacity="0.5"/>
<circle cx="99" cy="9" r="1" fill="#DADFF2" fill-opacity="0.5"/>
<circle cx="243" cy="9" r="1" fill="#DADFF2" fill-opacity="0.5"/>
<circle cx="387" cy="9" r="1" fill="#DADFF2" fill-opacity="0.5"/>
<circle cx="99" cy="225" r="1" fill="#DADFF2" fill-opacity="0.5"/>
<circle cx="243" cy="225" r="1" fill="#DADFF2" fill-opacity="0.5"/>
<circle cx="387" cy="225" r="1" fill="#DADFF2" fill-opacity="0.5"/>
<circle cx="99" cy="117" r="1" fill="#DADFF2" fill-opacity="0.5"/>
<circle cx="243" cy="117" r="1" fill="#DADFF2" fill-opacity="0.5"/>
<circle cx="387" cy="117" r="1" fill="#DADFF2" fill-opacity="0.5"/>
<circle cx="99" cy="333" r="1" fill="#DADFF2" fill-opacity="0.5"/>
<circle cx="243" cy="333" r="1" fill="#DADFF2" fill-opacity="0.5"/>
<circle cx="387" cy="333" r="1" fill="#DADFF2" fill-opacity="0.5"/>
<circle cx="207" cy="9" r="1" fill="#DADFF2" fill-opacity="0.5"/>
<circle cx="351" cy="9" r="1" fill="#DADFF2" fill-opacity="0.5"/>
<circle cx="207" cy="225" r="1" fill="#DADFF2" fill-opacity="0.5"/>
<circle cx="351" cy="225" r="1" fill="#DADFF2" fill-opacity="0.5"/>
<circle cx="207" cy="117" r="1" fill="#DADFF2" fill-opacity="0.5"/>
<circle cx="351" cy="117" r="1" fill="#DADFF2" fill-opacity="0.5"/>
<circle cx="207" cy="333" r="1" fill="#DADFF2" fill-opacity="0.5"/>
<circle cx="351" cy="333" r="1" fill="#DADFF2" fill-opacity="0.5"/>
<circle cx="99" cy="81" r="1" fill="#DADFF2" fill-opacity="0.5"/>
<circle cx="243" cy="81" r="1" fill="#DADFF2" fill-opacity="0.5"/>
<circle cx="387" cy="81" r="1" fill="#DADFF2" fill-opacity="0.5"/>
<circle cx="99" cy="297" r="1" fill="#DADFF2" fill-opacity="0.5"/>
<circle cx="243" cy="297" r="1" fill="#DADFF2" fill-opacity="0.5"/>
<circle cx="387" cy="297" r="1" fill="#DADFF2" fill-opacity="0.5"/>
<circle cx="99" cy="189" r="1" fill="#DADFF2" fill-opacity="0.5"/>
<circle cx="243" cy="189" r="1" fill="#DADFF2" fill-opacity="0.5"/>
<circle cx="387" cy="189" r="1" fill="#DADFF2" fill-opacity="0.5"/>
<circle cx="99" cy="405" r="1" fill="#DADFF2" fill-opacity="0.5"/>
<circle cx="243" cy="405" r="1" fill="#DADFF2" fill-opacity="0.5"/>
<circle cx="387" cy="405" r="1" fill="#DADFF2" fill-opacity="0.5"/>
<circle cx="99" cy="441" r="1" fill="#DADFF2" fill-opacity="0.5"/>
<circle cx="243" cy="441" r="1" fill="#DADFF2" fill-opacity="0.5"/>
<circle cx="387" cy="441" r="1" fill="#DADFF2" fill-opacity="0.5"/>
<circle cx="207" cy="81" r="1" fill="#DADFF2" fill-opacity="0.5"/>
<circle cx="351" cy="81" r="1" fill="#DADFF2" fill-opacity="0.5"/>
<circle cx="207" cy="297" r="1" fill="#DADFF2" fill-opacity="0.5"/>
<circle cx="351" cy="297" r="1" fill="#DADFF2" fill-opacity="0.5"/>
<circle cx="207" cy="189" r="1" fill="#DADFF2" fill-opacity="0.5"/>
<circle cx="351" cy="189" r="1" fill="#DADFF2" fill-opacity="0.5"/>
<circle cx="207" cy="405" r="1" fill="#DADFF2" fill-opacity="0.5"/>
<circle cx="351" cy="405" r="1" fill="#DADFF2" fill-opacity="0.5"/>
<circle cx="207" cy="441" r="1" fill="#DADFF2" fill-opacity="0.5"/>
<circle cx="351" cy="441" r="1" fill="#DADFF2" fill-opacity="0.5"/>
<circle cx="99" cy="45" r="1" fill="#DADFF2" fill-opacity="0.5"/>
<circle cx="243" cy="45" r="1" fill="#DADFF2" fill-opacity="0.5"/>
<circle cx="387" cy="45" r="1" fill="#DADFF2" fill-opacity="0.5"/>
<circle cx="99" cy="261" r="1" fill="#DADFF2" fill-opacity="0.5"/>
<circle cx="243" cy="261" r="1" fill="#DADFF2" fill-opacity="0.5"/>
<circle cx="387" cy="261" r="1" fill="#DADFF2" fill-opacity="0.5"/>
<circle cx="99" cy="153" r="1" fill="#DADFF2" fill-opacity="0.5"/>
<circle cx="243" cy="153" r="1" fill="#DADFF2" fill-opacity="0.5"/>
<circle cx="387" cy="153" r="1" fill="#DADFF2" fill-opacity="0.5"/>
<circle cx="99" cy="369" r="1" fill="#DADFF2" fill-opacity="0.5"/>
<circle cx="243" cy="369" r="1" fill="#DADFF2" fill-opacity="0.5"/>
<circle cx="387" cy="369" r="1" fill="#DADFF2" fill-opacity="0.5"/>
<circle cx="207" cy="45" r="1" fill="#DADFF2" fill-opacity="0.5"/>
<circle cx="351" cy="45" r="1" fill="#DADFF2" fill-opacity="0.5"/>
<circle cx="207" cy="261" r="1" fill="#DADFF2" fill-opacity="0.5"/>
<circle cx="351" cy="261" r="1" fill="#DADFF2" fill-opacity="0.5"/>
<circle cx="207" cy="153" r="1" fill="#DADFF2" fill-opacity="0.5"/>
<circle cx="351" cy="153" r="1" fill="#DADFF2" fill-opacity="0.5"/>
<circle cx="207" cy="369" r="1" fill="#DADFF2" fill-opacity="0.5"/>
<circle cx="351" cy="369" r="1" fill="#DADFF2" fill-opacity="0.5"/>
<circle cx="99" cy="27" r="1" fill="#DADFF2" fill-opacity="0.5"/>
<circle cx="243" cy="27" r="1" fill="#DADFF2" fill-opacity="0.5"/>
<circle cx="387" cy="27" r="1" fill="#DADFF2" fill-opacity="0.5"/>
<circle cx="99" cy="243" r="1" fill="#DADFF2" fill-opacity="0.5"/>
<circle cx="243" cy="243" r="1" fill="#DADFF2" fill-opacity="0.5"/>
<circle cx="387" cy="243" r="1" fill="#DADFF2" fill-opacity="0.5"/>
<circle cx="99" cy="135" r="1" fill="#DADFF2" fill-opacity="0.5"/>
<circle cx="243" cy="135" r="1" fill="#DADFF2" fill-opacity="0.5"/>
<circle cx="387" cy="135" r="1" fill="#DADFF2" fill-opacity="0.5"/>
<circle cx="99" cy="351" r="1" fill="#DADFF2" fill-opacity="0.5"/>
<circle cx="243" cy="351" r="1" fill="#DADFF2" fill-opacity="0.5"/>
<circle cx="387" cy="351" r="1" fill="#DADFF2" fill-opacity="0.5"/>
<circle cx="207" cy="27" r="1" fill="#DADFF2" fill-opacity="0.5"/>
<circle cx="351" cy="27" r="1" fill="#DADFF2" fill-opacity="0.5"/>
<circle cx="207" cy="243" r="1" fill="#DADFF2" fill-opacity="0.5"/>
<circle cx="351" cy="243" r="1" fill="#DADFF2" fill-opacity="0.5"/>
<circle cx="207" cy="135" r="1" fill="#DADFF2" fill-opacity="0.5"/>
<circle cx="351" cy="135" r="1" fill="#DADFF2" fill-opacity="0.5"/>
<circle cx="207" cy="351" r="1" fill="#DADFF2" fill-opacity="0.5"/>
<circle cx="351" cy="351" r="1" fill="#DADFF2" fill-opacity="0.5"/>
<circle cx="99" cy="99" r="1" fill="#DADFF2" fill-opacity="0.5"/>
<circle cx="243" cy="99" r="1" fill="#DADFF2" fill-opacity="0.5"/>
<circle cx="387" cy="99" r="1" fill="#DADFF2" fill-opacity="0.5"/>
<circle cx="99" cy="315" r="1" fill="#DADFF2" fill-opacity="0.5"/>
<circle cx="243" cy="315" r="1" fill="#DADFF2" fill-opacity="0.5"/>
<circle cx="387" cy="315" r="1" fill="#DADFF2" fill-opacity="0.5"/>
<circle cx="99" cy="207" r="1" fill="#DADFF2" fill-opacity="0.5"/>
<circle cx="243" cy="207" r="1" fill="#DADFF2" fill-opacity="0.5"/>
<circle cx="387" cy="207" r="1" fill="#DADFF2" fill-opacity="0.5"/>
<circle cx="99" cy="423" r="1" fill="#DADFF2" fill-opacity="0.5"/>
<circle cx="243" cy="423" r="1" fill="#DADFF2" fill-opacity="0.5"/>
<circle cx="387" cy="423" r="1" fill="#DADFF2" fill-opacity="0.5"/>
<circle cx="99" cy="459" r="1" fill="#DADFF2" fill-opacity="0.5"/>
<circle cx="243" cy="459" r="1" fill="#DADFF2" fill-opacity="0.5"/>
<circle cx="387" cy="459" r="1" fill="#DADFF2" fill-opacity="0.5"/>
<circle cx="99" cy="477" r="1" fill="#DADFF2" fill-opacity="0.5"/>
<circle cx="243" cy="477" r="1" fill="#DADFF2" fill-opacity="0.5"/>
<circle cx="387" cy="477" r="1" fill="#DADFF2" fill-opacity="0.5"/>
<circle cx="207" cy="99" r="1" fill="#DADFF2" fill-opacity="0.5"/>
<circle cx="351" cy="99" r="1" fill="#DADFF2" fill-opacity="0.5"/>
<circle cx="207" cy="315" r="1" fill="#DADFF2" fill-opacity="0.5"/>
<circle cx="351" cy="315" r="1" fill="#DADFF2" fill-opacity="0.5"/>
<circle cx="207" cy="207" r="1" fill="#DADFF2" fill-opacity="0.5"/>
<circle cx="351" cy="207" r="1" fill="#DADFF2" fill-opacity="0.5"/>
<circle cx="207" cy="423" r="1" fill="#DADFF2" fill-opacity="0.5"/>
<circle cx="351" cy="423" r="1" fill="#DADFF2" fill-opacity="0.5"/>
<circle cx="207" cy="459" r="1" fill="#DADFF2" fill-opacity="0.5"/>
<circle cx="351" cy="459" r="1" fill="#DADFF2" fill-opacity="0.5"/>
<circle cx="207" cy="477" r="1" fill="#DADFF2" fill-opacity="0.5"/>
<circle cx="351" cy="477" r="1" fill="#DADFF2" fill-opacity="0.5"/>
<circle cx="99" cy="63" r="1" fill="#DADFF2" fill-opacity="0.5"/>
<circle cx="243" cy="63" r="1" fill="#DADFF2" fill-opacity="0.5"/>
<circle cx="387" cy="63" r="1" fill="#DADFF2" fill-opacity="0.5"/>
<circle cx="99" cy="279" r="1" fill="#DADFF2" fill-opacity="0.5"/>
<circle cx="243" cy="279" r="1" fill="#DADFF2" fill-opacity="0.5"/>
<circle cx="387" cy="279" r="1" fill="#DADFF2" fill-opacity="0.5"/>
<circle cx="99" cy="171" r="1" fill="#DADFF2" fill-opacity="0.5"/>
<circle cx="243" cy="171" r="1" fill="#DADFF2" fill-opacity="0.5"/>
<circle cx="387" cy="171" r="1" fill="#DADFF2" fill-opacity="0.5"/>
<circle cx="99" cy="387" r="1" fill="#DADFF2" fill-opacity="0.5"/>
<circle cx="243" cy="387" r="1" fill="#DADFF2" fill-opacity="0.5"/>
<circle cx="387" cy="387" r="1" fill="#DADFF2" fill-opacity="0.5"/>
<circle cx="207" cy="63" r="1" fill="#DADFF2" fill-opacity="0.5"/>
<circle cx="351" cy="63" r="1" fill="#DADFF2" fill-opacity="0.5"/>
<circle cx="207" cy="279" r="1" fill="#DADFF2" fill-opacity="0.5"/>
<circle cx="351" cy="279" r="1" fill="#DADFF2" fill-opacity="0.5"/>
<circle cx="207" cy="171" r="1" fill="#DADFF2" fill-opacity="0.5"/>
<circle cx="351" cy="171" r="1" fill="#DADFF2" fill-opacity="0.5"/>
<circle cx="207" cy="387" r="1" fill="#DADFF2" fill-opacity="0.5"/>
<circle cx="351" cy="387" r="1" fill="#DADFF2" fill-opacity="0.5"/>
<circle cx="63" cy="9" r="1" fill="#DADFF2" fill-opacity="0.5"/>
<circle cx="63" cy="225" r="1" fill="#DADFF2" fill-opacity="0.5"/>
<circle cx="63" cy="117" r="1" fill="#DADFF2" fill-opacity="0.5"/>
<circle cx="63" cy="333" r="1" fill="#DADFF2" fill-opacity="0.5"/>
<circle cx="171" cy="9" r="1" fill="#DADFF2" fill-opacity="0.5"/>
<circle cx="315" cy="9" r="1" fill="#DADFF2" fill-opacity="0.5"/>
<circle cx="171" cy="225" r="1" fill="#DADFF2" fill-opacity="0.5"/>
<circle cx="315" cy="225" r="1" fill="#DADFF2" fill-opacity="0.5"/>
<circle cx="171" cy="117" r="1" fill="#DADFF2" fill-opacity="0.5"/>
<circle cx="315" cy="117" r="1" fill="#DADFF2" fill-opacity="0.5"/>
<circle cx="171" cy="333" r="1" fill="#DADFF2" fill-opacity="0.5"/>
<circle cx="315" cy="333" r="1" fill="#DADFF2" fill-opacity="0.5"/>
<circle cx="63" cy="81" r="1" fill="#DADFF2" fill-opacity="0.5"/>
<circle cx="63" cy="297" r="1" fill="#DADFF2" fill-opacity="0.5"/>
<circle cx="63" cy="189" r="1" fill="#DADFF2" fill-opacity="0.5"/>
<circle cx="63" cy="405" r="1" fill="#DADFF2" fill-opacity="0.5"/>
<circle cx="63" cy="441" r="1" fill="#DADFF2" fill-opacity="0.5"/>
<circle cx="171" cy="81" r="1" fill="#DADFF2" fill-opacity="0.5"/>
<circle cx="315" cy="81" r="1" fill="#DADFF2" fill-opacity="0.5"/>
<circle cx="171" cy="297" r="1" fill="#DADFF2" fill-opacity="0.5"/>
<circle cx="315" cy="297" r="1" fill="#DADFF2" fill-opacity="0.5"/>
<circle cx="171" cy="189" r="1" fill="#DADFF2" fill-opacity="0.5"/>
<circle cx="315" cy="189" r="1" fill="#DADFF2" fill-opacity="0.5"/>
<circle cx="171" cy="405" r="1" fill="#DADFF2" fill-opacity="0.5"/>
<circle cx="315" cy="405" r="1" fill="#DADFF2" fill-opacity="0.5"/>
<circle cx="171" cy="441" r="1" fill="#DADFF2" fill-opacity="0.5"/>
<circle cx="315" cy="441" r="1" fill="#DADFF2" fill-opacity="0.5"/>
<circle cx="63" cy="45" r="1" fill="#DADFF2" fill-opacity="0.5"/>
<circle cx="63" cy="261" r="1" fill="#DADFF2" fill-opacity="0.5"/>
<circle cx="63" cy="153" r="1" fill="#DADFF2" fill-opacity="0.5"/>
<circle cx="63" cy="369" r="1" fill="#DADFF2" fill-opacity="0.5"/>
<circle cx="171" cy="45" r="1" fill="#DADFF2" fill-opacity="0.5"/>
<circle cx="315" cy="45" r="1" fill="#DADFF2" fill-opacity="0.5"/>
<circle cx="171" cy="261" r="1" fill="#DADFF2" fill-opacity="0.5"/>
<circle cx="315" cy="261" r="1" fill="#DADFF2" fill-opacity="0.5"/>
<circle cx="171" cy="153" r="1" fill="#DADFF2" fill-opacity="0.5"/>
<circle cx="315" cy="153" r="1" fill="#DADFF2" fill-opacity="0.5"/>
<circle cx="171" cy="369" r="1" fill="#DADFF2" fill-opacity="0.5"/>
<circle cx="315" cy="369" r="1" fill="#DADFF2" fill-opacity="0.5"/>
<circle cx="63" cy="27" r="1" fill="#DADFF2" fill-opacity="0.5"/>
<circle cx="63" cy="243" r="1" fill="#DADFF2" fill-opacity="0.5"/>
<circle cx="63" cy="135" r="1" fill="#DADFF2" fill-opacity="0.5"/>
<circle cx="63" cy="351" r="1" fill="#DADFF2" fill-opacity="0.5"/>
<circle cx="171" cy="27" r="1" fill="#DADFF2" fill-opacity="0.5"/>
<circle cx="315" cy="27" r="1" fill="#DADFF2" fill-opacity="0.5"/>
<circle cx="171" cy="243" r="1" fill="#DADFF2" fill-opacity="0.5"/>
<circle cx="315" cy="243" r="1" fill="#DADFF2" fill-opacity="0.5"/>
<circle cx="171" cy="135" r="1" fill="#DADFF2" fill-opacity="0.5"/>
<circle cx="315" cy="135" r="1" fill="#DADFF2" fill-opacity="0.5"/>
<circle cx="171" cy="351" r="1" fill="#DADFF2" fill-opacity="0.5"/>
<circle cx="315" cy="351" r="1" fill="#DADFF2" fill-opacity="0.5"/>
<circle cx="63" cy="99" r="1" fill="#DADFF2" fill-opacity="0.5"/>
<circle cx="63" cy="315" r="1" fill="#DADFF2" fill-opacity="0.5"/>
<circle cx="63" cy="207" r="1" fill="#DADFF2" fill-opacity="0.5"/>
<circle cx="63" cy="423" r="1" fill="#DADFF2" fill-opacity="0.5"/>
<circle cx="63" cy="459" r="1" fill="#DADFF2" fill-opacity="0.5"/>
<circle cx="63" cy="477" r="1" fill="#DADFF2" fill-opacity="0.5"/>
<circle cx="171" cy="99" r="1" fill="#DADFF2" fill-opacity="0.5"/>
<circle cx="315" cy="99" r="1" fill="#DADFF2" fill-opacity="0.5"/>
<circle cx="171" cy="315" r="1" fill="#DADFF2" fill-opacity="0.5"/>
<circle cx="315" cy="315" r="1" fill="#DADFF2" fill-opacity="0.5"/>
<circle cx="171" cy="207" r="1" fill="#DADFF2" fill-opacity="0.5"/>
<circle cx="315" cy="207" r="1" fill="#DADFF2" fill-opacity="0.5"/>
<circle cx="171" cy="423" r="1" fill="#DADFF2" fill-opacity="0.5"/>
<circle cx="315" cy="423" r="1" fill="#DADFF2" fill-opacity="0.5"/>
<circle cx="171" cy="459" r="1" fill="#DADFF2" fill-opacity="0.5"/>
<circle cx="315" cy="459" r="1" fill="#DADFF2" fill-opacity="0.5"/>
<circle cx="171" cy="477" r="1" fill="#DADFF2" fill-opacity="0.5"/>
<circle cx="315" cy="477" r="1" fill="#DADFF2" fill-opacity="0.5"/>
<circle cx="63" cy="63" r="1" fill="#DADFF2" fill-opacity="0.5"/>
<circle cx="63" cy="279" r="1" fill="#DADFF2" fill-opacity="0.5"/>
<circle cx="63" cy="171" r="1" fill="#DADFF2" fill-opacity="0.5"/>
<circle cx="63" cy="387" r="1" fill="#DADFF2" fill-opacity="0.5"/>
<circle cx="171" cy="63" r="1" fill="#DADFF2" fill-opacity="0.5"/>
<circle cx="315" cy="63" r="1" fill="#DADFF2" fill-opacity="0.5"/>
<circle cx="171" cy="279" r="1" fill="#DADFF2" fill-opacity="0.5"/>
<circle cx="315" cy="279" r="1" fill="#DADFF2" fill-opacity="0.5"/>
<circle cx="171" cy="171" r="1" fill="#DADFF2" fill-opacity="0.5"/>
<circle cx="315" cy="171" r="1" fill="#DADFF2" fill-opacity="0.5"/>
<circle cx="171" cy="387" r="1" fill="#DADFF2" fill-opacity="0.5"/>
<circle cx="315" cy="387" r="1" fill="#DADFF2" fill-opacity="0.5"/>
<rect x="1" y="155" width="477" height="331" fill="url(#paint0_linear_188_734)"/>
<rect x="155" y="478" width="477" height="331" transform="rotate(-90 155 478)" fill="url(#paint1_linear_188_734)"/>
<defs>
<linearGradient id="paint0_linear_188_734" x1="239.5" y1="155" x2="239.5" y2="486" gradientUnits="userSpaceOnUse">
<stop stop-color="#030303" stop-opacity="0"/>
<stop offset="1" stop-color="#030303"/>
</linearGradient>
<linearGradient id="paint1_linear_188_734" x1="393.5" y1="478" x2="393.5" y2="809" gradientUnits="userSpaceOnUse">
<stop stop-color="#030303" stop-opacity="0"/>
<stop offset="1" stop-color="#030303"/>
</linearGradient>
</defs>
</svg>
