<svg width="151" height="44" viewBox="0 0 151 44" fill="none" xmlns="http://www.w3.org/2000/svg">
<g clip-path="url(#clip0_188_807)">
<path d="M87.6211 11.9716L96.2608 8.7565L87.6211 5.44953V0.948364L102.419 6.91929V10.5937L87.6211 16.5646V11.9716Z" fill="#778092"/>
<path d="M5.91142 40.4483C2.78642 40.4483 0.212891 38.8867 0.212891 35.396V35.2123C0.212891 30.9867 3.88936 29.5169 8.39304 29.5169H10.507V28.6902C10.507 26.9448 9.77171 25.9344 7.93348 25.9344C6.27907 25.9344 5.45186 26.853 5.35995 28.139H0.764361C1.13201 24.2809 4.1651 22.4437 8.20921 22.4437C12.3452 22.4437 15.3783 24.189 15.3783 28.5065V40.0809H10.6908V38.06C9.77171 39.346 8.20921 40.4483 5.91142 40.4483ZM10.507 34.3855V32.732H8.57686C6.18716 32.732 4.9923 33.3751 4.9923 34.9367V35.1204C4.9923 36.3146 5.7276 37.1414 7.38201 37.1414C9.03642 37.0495 10.507 36.1309 10.507 34.3855ZM26.3158 40.4483C21.5364 40.4483 18.0438 37.5088 18.0438 31.6297V31.3541C18.0438 25.4751 21.7202 22.3518 26.3158 22.3518C30.268 22.3518 33.485 24.3727 33.8526 28.8739H29.257C28.9813 27.2204 28.0622 26.1181 26.4077 26.1181C24.3857 26.1181 22.9151 27.7716 22.9151 31.1704V31.7216C22.9151 35.2123 24.2019 36.7739 26.4077 36.7739C28.0622 36.7739 29.257 35.5797 29.5327 33.6507H33.9445C33.6688 37.6925 31.0033 40.4483 26.3158 40.4483ZM44.3305 40.4483C39.5511 40.4483 36.0585 37.5088 36.0585 31.6297V31.3541C36.0585 25.4751 39.735 22.3518 44.3305 22.3518C48.2827 22.3518 51.4997 24.3727 51.8673 28.8739H47.2717C46.996 27.2204 46.0769 26.1181 44.4225 26.1181C42.4004 26.1181 40.9298 27.7716 40.9298 31.1704V31.7216C40.9298 35.2123 42.2166 36.7739 44.4225 36.7739C46.0769 36.7739 47.2717 35.5797 47.5475 33.6507H51.9592C51.6835 37.6925 49.018 40.4483 44.3305 40.4483ZM62.4372 40.4483C57.4739 40.4483 54.0732 37.5088 54.0732 31.7216V31.3541C54.0732 25.5669 57.6577 22.3518 62.3452 22.3518C66.6651 22.3518 70.2497 24.7402 70.2497 30.5274V32.6402H58.9445C59.1283 35.7634 60.507 36.9576 62.5291 36.9576C64.3673 36.9576 65.3783 35.9472 65.746 34.753H70.2497C69.6982 37.9681 66.9408 40.4483 62.4372 40.4483ZM59.0364 29.4251H65.4702C65.3783 26.853 64.1835 25.7507 62.2533 25.7507C60.7827 25.8425 59.4041 26.6693 59.0364 29.4251ZM73.1908 22.8111H78.0622V25.3832C78.8894 23.7297 80.6357 22.4437 83.3011 22.4437C86.4261 22.4437 88.5401 24.3727 88.5401 28.5065V40.0809H83.6688V29.2414C83.6688 27.2204 82.8416 26.3018 81.0952 26.3018C79.4408 26.3018 78.0622 27.3123 78.0622 29.5169V40.0809H73.1908V22.8111ZM97.4555 17.5751V22.8111H100.764V26.3937H97.4555V34.5693C97.4555 35.8553 98.007 36.4983 99.2019 36.4983C99.9372 36.4983 100.397 36.4065 100.856 36.2227V39.989C100.305 40.1727 99.2938 40.3565 98.0989 40.3565C94.3305 40.3565 92.5842 38.6111 92.5842 35.1204V26.3937H90.5622V22.8111H92.5842V19.596L97.4555 17.5751ZM118.963 40.0809H114.183V37.5088C113.356 39.1623 111.702 40.4483 109.128 40.4483C106.003 40.4483 103.706 38.5193 103.706 34.4774V22.8111H108.577V33.8344C108.577 35.8553 109.404 36.7739 111.058 36.7739C112.713 36.7739 114.092 35.6716 114.092 33.5588V22.8111H118.963V40.0809ZM122.547 22.8111H127.419V26.0262C128.43 23.7297 130.084 22.6274 132.658 22.6274V27.4041C129.349 27.4041 127.419 28.4146 127.419 31.2623V40.1727H122.547V22.8111ZM142.492 40.4483C137.529 40.4483 134.128 37.5088 134.128 31.7216V31.3541C134.128 25.5669 137.713 22.3518 142.4 22.3518C146.72 22.3518 150.305 24.7402 150.305 30.5274V32.6402H139.092C139.275 35.7634 140.654 36.9576 142.676 36.9576C144.514 36.9576 145.525 35.9472 145.893 34.753H150.397C149.661 37.9681 146.996 40.4483 142.492 40.4483ZM139 29.4251H145.525C145.433 26.853 144.239 25.7507 142.308 25.7507C140.838 25.8425 139.459 26.6693 139 29.4251Z" fill="#778092"/>
</g>
<defs>
<clipPath id="clip0_188_807">
<rect width="150" height="39.5" fill="white" transform="translate(0.212891 0.948364)"/>
</clipPath>
</defs>
</svg>
