<svg xmlns="http://www.w3.org/2000/svg" width="18" height="13" viewBox="0 0 18 13" fill="none">
<g clip-path="url(#clip0_22_44)">
<path d="M1.83984 6.16848C1.42563 6.16848 1.08984 6.50428 1.08984 6.91848C1.08984 7.33268 1.42563 7.66848 1.83984 7.66848V6.16848ZM17.3702 7.44883C17.663 7.15593 17.663 6.68103 17.3702 6.38813L12.5972 1.61518C12.3043 1.32228 11.8294 1.32228 11.5365 1.61518C11.2436 1.90807 11.2436 2.38294 11.5365 2.67584L15.7792 6.91848L11.5365 11.1611C11.2436 11.454 11.2436 11.9289 11.5365 12.2218C11.8294 12.5147 12.3043 12.5147 12.5972 12.2218L17.3702 7.44883ZM1.83984 7.66848H16.8398V6.16848H1.83984V7.66848Z" fill="black"/>
</g>
<defs>
<clipPath id="clip0_22_44">
<rect width="17" height="12" fill="white" transform="translate(0.839844 0.918457)"/>
</clipPath>
</defs>
</svg>