<svg width="98" height="36" viewBox="0 0 98 36" fill="none" xmlns="http://www.w3.org/2000/svg">
<g clip-path="url(#clip0_128_44)">
<path fill-rule="evenodd" clip-rule="evenodd" d="M15.6358 25.0248C18.4444 25.0248 19.7197 26.4779 19.7197 28.4203V28.5092H18.1864V28.3165C18.1864 27.1007 17.4843 26.4927 15.4925 26.4927C13.7444 26.4927 13.0566 26.9376 13.0566 27.8272C13.0566 28.6872 13.5438 28.9689 14.6758 29.2209L17.0114 29.6361C18.9316 29.992 19.8773 30.8964 19.8773 32.3495C19.8773 33.8619 18.688 35.2556 15.8508 35.2556C12.9849 35.2556 11.5233 33.9508 11.5233 31.8602V31.7712H13.0709V32.0085C13.0709 33.1946 13.7444 33.7877 15.8508 33.7877C17.6849 33.7877 18.3297 33.3726 18.3297 32.4384C18.3297 31.5785 17.8425 31.2523 16.6245 31.015L14.2745 30.6147C12.6553 30.3182 11.509 29.5471 11.509 27.9162C11.509 26.4779 12.6553 25.0248 15.6358 25.0248ZM24.7922 25.0248C27.6008 25.0248 28.8761 26.4779 28.8761 28.4203V28.5092H27.3428V28.3165C27.3428 27.1007 26.6407 26.4927 24.6489 26.4927C22.9008 26.4927 22.213 26.9376 22.213 27.8272C22.213 28.6872 22.7001 28.9689 23.8322 29.2209L26.1678 29.6361C28.0879 29.992 29.0337 30.8964 29.0337 32.3495C29.0337 33.8619 27.8444 35.2556 25.0072 35.2556C22.1413 35.2556 20.6797 33.9508 20.6797 31.8602V31.7712H22.2273V32.0085C22.2273 33.1946 22.9008 33.7877 25.0072 33.7877C26.8413 33.7877 27.4861 33.3726 27.4861 32.4384C27.4861 31.5785 26.9989 31.2523 25.7809 31.015L23.4309 30.6147C21.8117 30.3182 20.6654 29.5471 20.6654 27.9162C20.6654 26.4779 21.8117 25.0248 24.7922 25.0248ZM52.2757 25.0248C55.0843 25.0248 56.3596 26.4779 56.3596 28.4203V28.5092H54.8263V28.3165C54.8263 27.1007 54.1242 26.4927 52.1324 26.4927C50.3843 26.4927 49.6965 26.9376 49.6965 27.8272C49.6965 28.6872 50.1837 28.9689 51.3157 29.2209L53.6513 29.6361C55.5715 29.992 56.5172 30.8964 56.5172 32.3495C56.5172 33.8619 55.3279 35.2556 52.4907 35.2556C49.6248 35.2556 48.1632 33.9508 48.1632 31.8602V31.7712H49.7108V32.0085C49.7108 33.1946 50.3843 33.7877 52.4907 33.7877C54.3248 33.7877 54.9696 33.3726 54.9696 32.4384C54.9696 31.5785 54.4824 31.2523 53.2644 31.015L50.9144 30.6147C49.2952 30.3182 48.1489 29.5471 48.1489 27.9162C48.1489 26.4779 49.2952 25.0248 52.2757 25.0248ZM6.82333 25.1731L11.1078 35.1073H9.35961L8.25626 32.5274H3.1837L2.08035 35.1073H0.36084L4.64529 25.1731H6.82333ZM37.8175 25.1731V26.6114H31.6846V29.3989H37.6026V30.8223H31.6846V33.6691H37.8175V35.1073H30.137V25.1731H37.8175ZM47.5614 25.1731V26.6114H43.7928V35.1073H42.2596V26.6114H38.4767V25.1731H47.5614ZM62.9224 25.1731C64.7565 25.1731 65.8599 26.0479 65.8599 27.6196C65.8599 28.791 65.2294 29.6658 63.7678 29.8437V29.9475C65.4013 30.1402 66.2038 31.0595 66.2038 32.3643C66.2038 34.0694 65.1004 35.1073 63.123 35.1073H57.5489V25.1731H62.9224ZM72.9529 25.1731L77.2373 35.1073H75.4891L74.3858 32.5274H69.3132L68.2099 35.1073H66.4903L70.7748 25.1731H72.9529ZM79.6159 25.1731L83.9147 30.9854L85.1614 32.8388H85.276L85.2044 31.0447V25.1731H86.7519V35.1073H85.0897L80.7623 29.3099L79.5586 27.5603H79.444L79.5013 29.2803V35.1073H77.9538V25.1731H79.6159ZM89.7324 25.1731V29.4137H92.6412L95.4498 25.1731H97.2839L93.9309 30.0809L97.2696 35.1073H95.4354L92.6699 30.9557H89.7324V35.1073H88.1848V25.1731H89.7324ZM62.951 30.6592H59.0821V33.6691H62.951C64.0974 33.6691 64.6562 33.2243 64.6562 32.1419C64.6562 31.104 64.083 30.6592 62.951 30.6592ZM5.7773 26.6558H5.66266L5.10382 28.0644L3.79986 31.0892H7.6401L6.33614 28.0644L5.7773 26.6558ZM71.9068 26.6558H71.7922L71.2333 28.0644L69.9294 31.0892H73.7696L72.4656 28.0644L71.9068 26.6558ZM62.7504 26.6114H59.0821V29.3396H62.7074C63.7821 29.3396 64.3266 28.9096 64.3266 27.9755C64.3266 27.0413 63.8251 26.6114 62.7504 26.6114ZM41.598 0.255615C42.961 0.255615 44.066 1.36055 44.066 2.72356V13.9415C44.066 15.3045 42.961 16.4095 41.598 16.4095C40.235 16.4095 39.1301 15.3045 39.1301 13.9415V2.72356C39.1301 1.36055 40.235 0.255615 41.598 0.255615ZM48.3288 2.94792C49.6918 2.94792 50.7967 4.05286 50.7967 5.41587V11.6979C50.7967 13.0609 49.6918 14.1659 48.3288 14.1659C46.9658 14.1659 45.8608 13.0609 45.8608 11.6979V5.41587C45.8608 4.05286 46.9658 2.94792 48.3288 2.94792ZM55.5083 6.08895C56.8713 6.08895 57.9762 7.19389 57.9762 8.5569C57.9762 9.91991 56.8713 11.0248 55.5083 11.0248C54.1453 11.0248 53.0403 9.91991 53.0403 8.5569C53.0403 7.19389 54.1453 6.08895 55.5083 6.08895Z" fill="#A5A9B6"/>
</g>
<defs>
<clipPath id="clip0_128_44">
<rect width="97.4615" height="35" fill="white" transform="translate(0.289551 0.255615)"/>
</clipPath>
</defs>
</svg>
