<svg width="101" height="33" viewBox="0 0 101 33" fill="none" xmlns="http://www.w3.org/2000/svg">
<g clip-path="url(#clip0_188_815)">
<path d="M99.49 22.5484C99.3397 22.5484 99.1894 22.6484 99.0892 22.8984C98.0872 25.7984 96.6844 27.5484 95.5321 27.5484C94.8808 27.5484 94.6303 26.7984 94.6303 25.6984C94.6303 22.8484 96.3337 16.7984 97.1854 13.9984C97.2856 13.6484 97.3357 13.3484 97.3357 13.0984C97.3357 12.2984 96.8848 11.8984 95.7826 11.8984C94.6303 11.8984 93.3277 12.3484 92.1253 14.4984C91.7245 12.5984 90.4219 11.7984 88.6183 11.7984C86.5642 11.7984 84.5602 13.1484 82.9069 15.2984C81.2535 17.4484 79.2996 18.1484 77.8467 17.7984C78.8988 15.2484 79.2996 13.2984 79.2996 11.8984C79.2996 9.64836 78.1974 8.29836 76.3938 8.29836C73.6884 8.29836 72.1353 10.8984 72.1353 13.5984C72.1353 15.6984 73.0872 17.8484 75.1914 18.8984C73.4379 22.8484 70.8828 26.4484 69.8808 26.4484C68.6283 26.4484 68.2275 20.2984 68.3277 15.8984C68.3778 13.3984 68.5782 13.2484 68.5782 12.4984C68.5782 12.0484 68.2776 11.7484 67.1253 11.7484C64.47 11.7484 63.6183 13.9984 63.5181 16.5984C63.468 17.5984 63.3177 18.5484 63.0672 19.4984C61.965 23.4484 59.6604 26.4984 58.1573 26.4984C57.4559 26.4984 57.2555 25.7984 57.2555 24.8984C57.2555 22.0484 58.8587 18.4484 58.8587 15.3984C58.8587 13.1484 57.8567 11.7484 56.003 11.7484C53.7986 11.7484 50.9429 14.3484 48.1874 19.1984C49.0892 15.4984 49.4399 11.8984 46.7846 11.8984C46.1834 11.8984 45.6323 12.0484 45.1313 12.3484C44.7806 12.4984 44.5802 12.8484 44.5802 13.2484C44.8307 17.1984 41.3738 27.3484 38.1173 27.3484C37.5161 27.3484 37.2155 26.6984 37.2155 25.6484C37.2155 22.7984 38.9189 16.7484 39.7706 13.9484C39.8708 13.5984 39.9209 13.2984 39.9209 12.9984C39.9209 12.2484 39.47 11.8484 38.3678 11.8484C37.2155 11.8484 35.9129 12.2984 34.7104 14.4484C34.2595 12.5484 33.007 11.7484 31.2034 11.7484C28.2475 11.7484 24.991 14.8484 23.5381 18.8984C21.5842 24.2984 17.7265 29.5484 12.466 29.5484C7.70644 29.5484 5.20143 25.5984 5.20143 19.3484C5.20143 10.2984 11.8648 2.94836 16.7746 2.94836C19.1293 2.94836 20.2315 4.44836 20.2315 6.74836C20.2315 9.54836 18.6784 10.7984 18.6784 11.8984C18.6784 12.1984 18.9289 12.5484 19.48 12.5484C21.6343 12.5484 24.1393 10.0484 24.1393 6.59836C24.1393 3.14836 21.4339 0.698364 16.5241 0.698364C8.35774 0.698364 0.191406 8.84836 0.191406 19.3484C0.191406 27.6984 4.29962 32.6984 11.4139 32.6984C16.2736 32.6984 20.5321 28.9484 22.7866 24.5484C23.0371 28.1984 24.6904 30.0984 27.2455 30.0984C29.5 30.0984 31.3036 28.7484 32.7064 26.3984C33.2575 28.8484 34.6603 30.0484 36.5141 30.0484C38.6183 30.0484 40.4219 28.6984 42.0752 26.2484C42.0752 28.1984 42.476 30.0484 44.1794 30.0484C44.981 30.0484 45.9329 29.8484 46.0832 29.1484C47.8868 21.7984 52.2956 15.7484 53.6483 15.7484C54.0491 15.7484 54.1493 16.1484 54.1493 16.5984C54.1493 18.5984 52.7465 22.6984 52.7465 25.2984C52.7465 28.1484 53.9489 29.9984 56.4539 29.9984C59.2095 29.9984 62.0151 26.6484 63.8688 21.6984C64.47 26.2984 65.7225 29.9984 67.6764 29.9984C70.0812 29.9984 74.4399 24.8984 77.0451 19.4984C78.0471 19.6484 79.6002 19.5984 81.1032 18.5484C80.4519 20.1484 80.1012 21.8984 80.1012 23.5984C80.1012 28.5984 82.506 29.9984 84.5602 29.9984C86.8147 29.9984 88.6183 28.6484 90.0211 26.2984C90.472 28.3984 91.6744 29.9484 93.8287 29.9484C97.1854 29.9484 100.141 26.4984 100.141 23.6484C100.191 23.0484 99.8407 22.5484 99.49 22.5484ZM29.3497 27.2984C27.997 27.2984 27.4459 25.9484 27.4459 23.8984C27.4459 20.3484 29.9008 14.3984 32.4559 14.3984C33.5581 14.3984 34.009 15.6984 34.009 17.3484C34.009 20.9484 31.7044 27.2984 29.3497 27.2984ZM76.0932 16.6984C75.2916 15.7484 74.991 14.3984 74.991 13.2484C74.991 11.7984 75.5421 10.5984 76.1433 10.5984C76.7445 10.5984 76.995 11.1984 76.995 12.0984C76.9449 13.4984 76.4439 15.6484 76.0932 16.6984ZM86.6644 27.2984C85.3117 27.2984 84.7606 25.6984 84.7606 23.8984C84.7606 20.4484 87.2155 14.3984 89.7706 14.3984C90.8728 14.3984 91.2736 15.6984 91.2736 17.3484C91.3237 20.9484 89.0692 27.2984 86.6644 27.2984Z" fill="#778092"/>
</g>
<defs>
<clipPath id="clip0_188_815">
<rect width="100" height="32" fill="white" transform="translate(0.191406 0.698364)"/>
</clipPath>
</defs>
</svg>
