<svg width="56" height="56" viewBox="0 0 56 56" fill="none" xmlns="http://www.w3.org/2000/svg">
<path d="M24.7346 32.2001L19.718 27.1834C19.2902 26.7556 18.7458 26.5418 18.0846 26.5418C17.4235 26.5418 16.8791 26.7556 16.4513 27.1834C16.0235 27.6112 15.8096 28.1556 15.8096 28.8168C15.8096 29.4779 16.0235 30.0223 16.4513 30.4501L23.1013 37.1001C23.568 37.5668 24.1124 37.8001 24.7346 37.8001C25.3569 37.8001 25.9013 37.5668 26.368 37.1001L39.5513 23.9168C39.9791 23.489 40.193 22.9445 40.193 22.2834C40.193 21.6223 39.9791 21.0779 39.5513 20.6501C39.1235 20.2223 38.5791 20.0084 37.918 20.0084C37.2569 20.0084 36.7124 20.2223 36.2846 20.6501L24.7346 32.2001ZM28.0013 51.3334C24.7735 51.3334 21.7402 50.7209 18.9013 49.4959C16.0624 48.2709 13.593 46.6084 11.493 44.5084C9.39297 42.4084 7.73047 39.939 6.50547 37.1001C5.28047 34.2612 4.66797 31.2279 4.66797 28.0001C4.66797 24.7723 5.28047 21.739 6.50547 18.9001C7.73047 16.0612 9.39297 13.5918 11.493 11.4917C13.593 9.39175 16.0624 7.72925 18.9013 6.50425C21.7402 5.27925 24.7735 4.66675 28.0013 4.66675C31.2291 4.66675 34.2624 5.27925 37.1013 6.50425C39.9402 7.72925 42.4096 9.39175 44.5096 11.4917C46.6096 13.5918 48.2721 16.0612 49.4971 18.9001C50.7221 21.739 51.3346 24.7723 51.3346 28.0001C51.3346 31.2279 50.7221 34.2612 49.4971 37.1001C48.2721 39.939 46.6096 42.4084 44.5096 44.5084C42.4096 46.6084 39.9402 48.2709 37.1013 49.4959C34.2624 50.7209 31.2291 51.3334 28.0013 51.3334Z" fill="#31BD72"/>
</svg>
