<svg width="18" height="13" viewBox="0 0 18 13" fill="none" xmlns="http://www.w3.org/2000/svg">
<!-- <rect width="18" height="13" fill="#EFEFEF"/> -->
<g id="Landing #04 [Desktop] // Hero of Landing Page 2" clip-path="url(#clip0_0_1)">
<!-- <rect width="1920" height="5821" transform="translate(-1213 -4065.74)" fill="#F5F5F5"/> -->
<g id="Content">
<g id="div.w-layout-grid">
<!-- <rect width="1320" height="761.8" transform="translate(-913 -508.017)" fill="white"/> -->
<g id="div#w-node-_71b95c26-9ea9-e432-415e-b865ca92fd7e-6c7bb083">
<g id="Link">
<rect x="-143" y="-26.2168" width="205.41" height="64" rx="3" fill="black"/>
<g id="613d5c4dc4abb846b5d44c3c_cta-arrow-white.svg" opacity="0.45" clip-path="url(#clip1_0_1)">
<g id="613d5c4dc4abb846b5d44c3c_cta-arrow-white.svg fill" clip-path="url(#clip2_0_1)">
<g id="613d5c4dc4abb846b5d44c3c_cta-arrow-white.svg_2" clip-path="url(#clip3_0_1)">
<path id="Vector" d="M1.41016 6.03322C0.995941 6.03322 0.660156 6.36902 0.660156 6.78322C0.660156 7.19742 0.995941 7.53322 1.41016 7.53322V6.03322ZM16.9405 7.31357C17.2334 7.02067 17.2334 6.54577 16.9405 6.25287L12.1675 1.47992C11.8746 1.18703 11.3998 1.18703 11.1069 1.47992C10.814 1.77282 10.814 2.24769 11.1069 2.54058L15.3495 6.78322L11.1069 11.0259C10.814 11.3188 10.814 11.7936 11.1069 12.0865C11.3998 12.3794 11.8746 12.3794 12.1675 12.0865L16.9405 7.31357ZM1.41016 7.53322H16.4102V6.03322H1.41016V7.53322Z" fill="white"/>
</g>
</g>
</g>
</g>
</g>
</g>
</g>
</g>
<defs>
<!-- <clipPath id="clip0_0_1">
<rect width="1920" height="5821" fill="white" transform="translate(-1213 -4065.74)"/>
</clipPath>
<clipPath id="clip1_0_1">
<rect width="17" height="12" fill="white" transform="translate(0.410156 0.783203)"/>
</clipPath>
<clipPath id="clip2_0_1">
<rect width="17" height="12" fill="white" transform="translate(0.410156 0.783203)"/>
</clipPath>
<clipPath id="clip3_0_1">
<rect width="17" height="12" fill="white" transform="translate(0.410156 0.783203)"/>
</clipPath> -->
</defs>
</svg>
