<svg width="111" height="25" viewBox="0 0 111 25" fill="none" xmlns="http://www.w3.org/2000/svg">
<g clip-path="url(#clip0_128_32)">
<path d="M12.8823 0.506959C19.6351 0.721134 24.9494 6.3863 24.7391 13.1405C24.5249 19.8946 18.8609 25.2099 12.1081 24.9996C5.35193 24.7854 0.037377 19.129 0.251359 12.3748C0.458409 5.726 5.94455 0.468924 12.5605 0.506959C12.6655 0.507516 12.7768 0.503674 12.8823 0.506959ZM37.9147 7.28221C41.3652 7.28221 44.0275 9.56454 44.4303 12.8748H40.9273C40.6646 11.3068 39.4911 10.2266 37.9497 10.2266C36.0931 10.2266 34.9196 11.6552 34.9196 13.7807C34.9196 15.9237 36.0931 17.3697 37.9497 17.3697C39.4736 17.3697 40.6471 16.2896 40.9273 14.7041H44.4303C44.01 18.0492 41.3652 20.3141 37.9147 20.3141C34.3416 20.3141 31.5217 17.4569 31.5217 13.7807C31.5217 10.1221 34.3416 7.28221 37.9147 7.28221ZM67.34 7.54355C70.0899 7.54355 71.8064 8.74569 71.8064 10.9235C71.8064 12.0211 71.2284 12.8748 70.1775 13.502C71.4561 14.0421 72.1742 14.9655 72.1742 16.2896C72.1742 18.6416 70.4227 20.0528 67.4977 20.0528H62.2957V7.54355H67.34ZM80.3713 7.54355L84.9777 20.0528H81.4047L80.634 17.7356H76.2202L75.432 20.0528H72.0866L76.7456 7.54355H80.3713ZM89.4266 7.54355L94.0681 14.7738V7.54355H97.0982V20.0528H93.9104L88.9011 12.2476V20.0528H85.871V7.54355H89.4266ZM102.423 7.54355V12.8051L106.346 7.54355H110.112L105.681 13.4149L110.234 20.0528H106.206L102.423 14.408V20.0528H99.1124V7.54355H102.423ZM47.478 7.54355L49.1769 15.0003L51.1736 7.54355H54.519L56.4455 15.0341L58.1621 7.54355H61.4024L58.1972 20.0528H54.8693L52.82 12.265L50.7708 20.0528H47.4254L44.2377 7.54355H47.478ZM12.5777 1.67346C6.57012 1.63799 1.60547 6.42547 1.41747 12.5066C1.32868 15.3283 2.28473 17.9303 3.93222 19.9501L20.0785 4.67005C18.1812 2.88704 15.664 1.76301 12.8638 1.67346C12.768 1.67055 12.673 1.67402 12.5777 1.67346ZM67.235 14.8958H65.2908V17.4569H67.235C68.4785 17.4569 69.0565 16.969 69.0565 16.1676C69.0565 15.401 68.4785 14.8958 67.235 14.8958ZM78.4621 11.1674L77.1135 15.1397H79.7758L78.4621 11.1674ZM67.0773 10.1395H65.2908V12.2998H67.0773C68.1808 12.2998 68.6887 11.8817 68.6887 11.2022C68.6887 10.5576 68.1808 10.1395 67.0773 10.1395Z" fill="#A5A9B6"/>
</g>
<defs>
<clipPath id="clip0_128_32">
<rect width="109.989" height="24.5" fill="white" transform="translate(0.245117 0.505615)"/>
</clipPath>
</defs>
</svg>
