<svg width="56" height="56" viewBox="0 0 56 56" fill="none" xmlns="http://www.w3.org/2000/svg">
<path d="M5.5 44V36L23.5 32L37 38V44H5.5Z" fill="#9CBCF8"/>
<path d="M40.9507 20.4083L49.1757 12.1249C49.6423 11.6583 50.1965 11.4249 50.8382 11.4249C51.4798 11.4249 52.034 11.6583 52.5007 12.1249C52.9673 12.5916 53.2007 13.1458 53.2007 13.7874C53.2007 14.4291 52.9673 14.9833 52.5007 15.4499L42.584 25.3666C42.1173 25.8333 41.5729 26.0666 40.9507 26.0666C40.3284 26.0666 39.784 25.8333 39.3173 25.3666L34.359 20.4083C33.8923 19.9416 33.659 19.3874 33.659 18.7458C33.659 18.1041 33.8923 17.5499 34.359 17.0833C34.8257 16.6166 35.3701 16.3833 35.9923 16.3833C36.6145 16.3833 37.159 16.6166 37.6257 17.0833L40.9507 20.4083ZM21.0007 26.9999C18.434 26.9999 16.2368 26.086 14.409 24.2583C12.5812 22.4305 11.6673 20.2333 11.6673 17.6666C11.6673 15.0999 12.5812 12.9027 14.409 11.0749C16.2368 9.24714 18.434 8.33325 21.0007 8.33325C23.5673 8.33325 25.7645 9.24714 27.5923 11.0749C29.4201 12.9027 30.334 15.0999 30.334 17.6666C30.334 20.2333 29.4201 22.4305 27.5923 24.2583C25.7645 26.086 23.5673 26.9999 21.0007 26.9999ZM2.33398 40.9999V39.1332C2.33398 37.811 2.67426 36.5958 3.35482 35.4874C4.03537 34.3791 4.93954 33.5333 6.06732 32.9499C8.47843 31.7444 10.9284 30.8402 13.4173 30.2374C15.9062 29.6346 18.434 29.3333 21.0007 29.3333C23.5673 29.3333 26.0951 29.6346 28.584 30.2374C31.0729 30.8402 33.5229 31.7444 35.934 32.9499C37.0618 33.5333 37.9659 34.3791 38.6465 35.4874C39.327 36.5958 39.6673 37.811 39.6673 39.1332V40.9999C39.6673 42.2832 39.2104 43.3819 38.2965 44.2957C37.3826 45.2096 36.284 45.6666 35.0007 45.6666H7.00065C5.71732 45.6666 4.61871 45.2096 3.70482 44.2957C2.79093 43.3819 2.33398 42.2832 2.33398 40.9999ZM7.00065 40.9999H35.0007V39.1332C35.0007 38.7055 34.8937 38.3166 34.6798 37.9666C34.4659 37.6166 34.184 37.3444 33.834 37.1499C31.734 36.0999 29.6145 35.3124 27.4757 34.7874C25.3368 34.2624 23.1784 33.9999 21.0007 33.9999C18.8229 33.9999 16.6645 34.2624 14.5257 34.7874C12.3868 35.3124 10.2673 36.0999 8.16732 37.1499C7.81732 37.3444 7.53537 37.6166 7.32148 37.9666C7.1076 38.3166 7.00065 38.7055 7.00065 39.1332V40.9999ZM21.0007 22.3333C22.284 22.3333 23.3826 21.8763 24.2965 20.9624C25.2104 20.0485 25.6673 18.9499 25.6673 17.6666C25.6673 16.3833 25.2104 15.2846 24.2965 14.3708C23.3826 13.4569 22.284 12.9999 21.0007 12.9999C19.7173 12.9999 18.6187 13.4569 17.7048 14.3708C16.7909 15.2846 16.334 16.3833 16.334 17.6666C16.334 18.9499 16.7909 20.0485 17.7048 20.9624C18.6187 21.8763 19.7173 22.3333 21.0007 22.3333Z" fill="#2A71FA"/>
</svg>
