<svg width="56" height="56" viewBox="0 0 56 56" fill="none" xmlns="http://www.w3.org/2000/svg">
<path d="M22.5 17L10 28.5V31L27.5 49.5L45 33.5L52 22.5L44 12L33.5 6L29 10.5L33.5 17L35.5 22.5H29L22.5 17Z" fill="#9CBCF8"/>
<path d="M27.7084 46.6667C27.864 46.6667 28.0195 46.6278 28.1751 46.55C28.3306 46.4722 28.4473 46.3945 28.5251 46.3167L47.6584 27.1834C48.1251 26.7167 48.4654 26.1917 48.6792 25.6084C48.8931 25.025 49.0001 24.4417 49.0001 23.8584C49.0001 23.2361 48.8931 22.6431 48.6792 22.0792C48.4654 21.5153 48.1251 21.0195 47.6584 20.5917L37.7417 10.675C37.314 10.2084 36.8181 9.86808 36.2542 9.65419C35.6904 9.4403 35.0973 9.33335 34.4751 9.33335C33.8917 9.33335 33.3084 9.4403 32.7251 9.65419C32.1417 9.86808 31.6167 10.2084 31.1501 10.675L30.5084 11.3167L34.8251 15.6917C35.4084 16.2361 35.8362 16.8584 36.1084 17.5584C36.3806 18.2584 36.5167 18.9972 36.5167 19.775C36.5167 21.4084 35.9626 22.7792 34.8542 23.8875C33.7459 24.9959 32.3751 25.55 30.7417 25.55C29.964 25.55 29.2154 25.4139 28.4959 25.1417C27.7765 24.8695 27.1445 24.4611 26.6001 23.9167L22.2251 19.6L12.0167 29.8084C11.9001 29.925 11.8126 30.0514 11.7542 30.1875C11.6959 30.3236 11.6667 30.4695 11.6667 30.625C11.6667 30.9361 11.7834 31.2181 12.0167 31.4709C12.2501 31.7236 12.5223 31.85 12.8334 31.85C12.989 31.85 13.1445 31.8111 13.3001 31.7334C13.4556 31.6556 13.5723 31.5778 13.6501 31.5L19.9501 25.2C20.3779 24.7722 20.9126 24.5486 21.5542 24.5292C22.1959 24.5097 22.7501 24.7334 23.2167 25.2C23.6445 25.6278 23.8584 26.1722 23.8584 26.8334C23.8584 27.4945 23.6445 28.0389 23.2167 28.4667L16.9751 34.7667C16.8584 34.8834 16.7709 35.0097 16.7126 35.1459C16.6542 35.282 16.6251 35.4278 16.6251 35.5834C16.6251 35.8945 16.7417 36.1667 16.9751 36.4C17.2084 36.6334 17.4806 36.75 17.7917 36.75C17.9473 36.75 18.1029 36.7111 18.2584 36.6334C18.414 36.5556 18.5306 36.4778 18.6084 36.4L24.9084 30.1584C25.3362 29.7306 25.8709 29.507 26.5126 29.4875C27.1542 29.4681 27.7084 29.6917 28.1751 30.1584C28.6029 30.5861 28.8167 31.1306 28.8167 31.7917C28.8167 32.4528 28.6029 32.9972 28.1751 33.425L21.9334 39.725C21.8167 39.8028 21.7292 39.9195 21.6709 40.075C21.6126 40.2306 21.5834 40.3861 21.5834 40.5417C21.5834 40.8528 21.7001 41.125 21.9334 41.3584C22.1667 41.5917 22.439 41.7084 22.7501 41.7084C22.9056 41.7084 23.0515 41.6792 23.1876 41.6209C23.3237 41.5625 23.4501 41.475 23.5667 41.3584L29.8667 35.1167C30.2945 34.6889 30.8292 34.4653 31.4709 34.4459C32.1126 34.4264 32.6667 34.65 33.1334 35.1167C33.5612 35.5445 33.7751 36.0889 33.7751 36.75C33.7751 37.4111 33.5612 37.9556 33.1334 38.3834L26.8334 44.6834C26.7167 44.8 26.6292 44.9264 26.5709 45.0625C26.5126 45.1986 26.4834 45.3445 26.4834 45.5C26.4834 45.8111 26.6098 46.0834 26.8626 46.3167C27.1154 46.55 27.3973 46.6667 27.7084 46.6667ZM27.6501 51.3334C26.2112 51.3334 24.9376 50.857 23.8292 49.9042C22.7209 48.9514 22.0695 47.7556 21.8751 46.3167C20.5529 46.1222 19.4445 45.5778 18.5501 44.6834C17.6556 43.7889 17.1112 42.6806 16.9167 41.3584C15.5945 41.1639 14.4959 40.6097 13.6209 39.6959C12.7459 38.782 12.2112 37.6834 12.0167 36.4C10.539 36.2056 9.33341 35.5639 8.40008 34.475C7.46674 33.3861 7.00008 32.1028 7.00008 30.625C7.00008 29.8472 7.14591 29.0986 7.43758 28.3792C7.72924 27.6597 8.1473 27.0278 8.69174 26.4834L18.9001 16.275C19.7945 15.3806 20.8931 14.9334 22.1959 14.9334C23.4987 14.9334 24.5973 15.3806 25.4917 16.275L29.8667 20.65C29.9445 20.7667 30.0612 20.8542 30.2167 20.9125C30.3723 20.9709 30.5279 21 30.6834 21C31.0334 21 31.3251 20.8931 31.5584 20.6792C31.7917 20.4653 31.9084 20.1834 31.9084 19.8334C31.9084 19.6778 31.8792 19.5222 31.8209 19.3667C31.7626 19.2111 31.6751 19.0945 31.5584 19.0167L23.2167 10.675C22.789 10.2084 22.2931 9.86808 21.7292 9.65419C21.1654 9.4403 20.5723 9.33335 19.9501 9.33335C19.3667 9.33335 18.7834 9.4403 18.2001 9.65419C17.6167 9.86808 17.0917 10.2084 16.6251 10.675L8.40008 18.9584C7.85563 19.5028 7.46674 20.1445 7.23341 20.8834C7.00008 21.6222 6.94174 22.3611 7.05841 23.1C7.17508 23.7611 7.03897 24.3445 6.65008 24.85C6.26119 25.3556 5.73619 25.6472 5.07508 25.725C4.41397 25.8028 3.83063 25.657 3.32508 25.2875C2.81952 24.9181 2.52786 24.4028 2.45008 23.7417C2.21674 22.2639 2.32369 20.8153 2.77091 19.3959C3.21813 17.9764 3.98619 16.7222 5.07508 15.6334L13.3001 7.40835C14.2334 6.51391 15.2737 5.83335 16.4209 5.36669C17.5681 4.90002 18.7445 4.66669 19.9501 4.66669C21.1556 4.66669 22.332 4.90002 23.4792 5.36669C24.6265 5.83335 25.6473 6.51391 26.5417 7.40835L27.1834 8.05002L27.8251 7.40835C28.7584 6.51391 29.7987 5.83335 30.9459 5.36669C32.0931 4.90002 33.2695 4.66669 34.4751 4.66669C35.6806 4.66669 36.857 4.90002 38.0042 5.36669C39.1515 5.83335 40.1723 6.51391 41.0667 7.40835L50.9251 17.2667C51.8195 18.1611 52.5001 19.1917 52.9667 20.3584C53.4334 21.525 53.6667 22.7111 53.6667 23.9167C53.6667 25.1222 53.4334 26.2986 52.9667 27.4459C52.5001 28.5931 51.8195 29.6139 50.9251 30.5084L31.7917 49.5834C31.2473 50.1278 30.6154 50.5556 29.8959 50.8667C29.1765 51.1778 28.4279 51.3334 27.6501 51.3334Z" fill="#2A71FA"/>
</svg>
