<svg width="172" height="172" viewBox="0 0 172 172" fill="none" xmlns="http://www.w3.org/2000/svg">
<path d="M58.8226 30.6951C61.0086 26.7255 65.7814 24.9681 70.0198 26.5722L76.4188 28.9941C79.034 29.9839 81.959 29.7169 84.3518 28.2701L90.2068 24.7299C94.0847 22.3852 99.0968 23.2496 101.965 26.758L106.296 32.0549C108.066 34.2197 110.733 35.451 113.528 35.3944L120.369 35.256C124.9 35.1644 128.808 38.419 129.538 42.8916L130.64 49.6443C131.091 52.404 132.784 54.8036 135.234 56.1525L141.227 59.4529C145.197 61.6389 146.954 66.4118 145.35 70.6501L142.928 77.0491C141.938 79.6643 142.205 82.5893 143.652 84.9821L147.192 90.8371C149.537 94.715 148.672 99.7271 145.164 102.596L139.867 106.926C137.702 108.696 136.471 111.363 136.528 114.159L136.666 120.999C136.758 125.53 133.503 129.438 129.03 130.168L122.278 131.27C119.518 131.721 117.118 133.415 115.77 135.864L112.469 141.857C110.283 145.827 105.51 147.584 101.272 145.98L94.8729 143.558C92.2577 142.569 89.3327 142.835 86.9399 144.282L81.085 147.822C77.207 150.167 72.1949 149.303 69.3264 145.794L64.9957 140.497C63.2257 138.333 60.5592 137.101 57.7635 137.158L50.9229 137.296C46.3921 137.388 42.4837 134.133 41.7537 129.661L40.6516 122.908C40.2012 120.148 38.5075 117.749 36.0581 116.4L30.0648 113.099C26.0952 110.913 24.3378 106.141 25.9419 101.902L28.3637 95.5032C29.3535 92.888 29.0866 89.9631 27.6398 87.5702L24.0996 81.7153C21.7548 77.8373 22.6193 72.8252 26.1276 69.9568L31.4246 65.626C33.5893 63.8561 34.8207 61.1895 34.7641 58.3938L34.6257 51.5532C34.534 47.0224 37.7887 43.114 42.2613 42.3841L49.0139 41.282C51.7737 40.8315 54.1733 39.1379 55.5221 36.6885L58.8226 30.6951Z" fill="#21D273"/>
<path d="M63.931 84.3619L65.0502 87.4014L55.8062 90.8052L57.3601 95.0252L65.7752 91.9267L66.8481 94.8406L58.433 97.9391L61.2726 105.651L57.8814 106.899L51.2959 89.0143L63.931 84.3619ZM85.8792 91.1991L87.0103 93.8063C87.3248 94.6603 87.7847 95.2897 88.3306 95.6877L84.839 96.9734C84.3526 96.582 83.9178 95.9434 83.5756 95.0139L82.7788 93.0824C82.3308 92.0207 81.8021 91.3596 81.1927 91.0991C80.5833 90.8385 79.7968 90.8714 78.8422 91.2229L74.4212 92.8508L77.0017 99.8591L73.6106 101.108L67.0251 83.2227L75.1387 80.2351C77.1231 79.5045 78.847 79.3831 80.2853 79.8805C81.7235 80.3778 82.7293 81.4052 83.3028 82.9626C84.0982 85.1229 83.6114 86.8995 81.886 88.3336C82.9013 88.302 83.6957 88.523 84.3196 88.9778C84.9435 89.4327 85.4497 90.1877 85.8792 91.1991ZM71.4429 84.7623L73.4407 90.1881L77.9623 88.5232C78.9168 88.1718 79.562 87.6775 79.9138 87.0059C80.2656 86.3344 80.2829 85.5294 79.9499 84.625C79.6355 83.771 79.1187 83.2196 78.3995 82.9709C77.6804 82.7223 76.8436 82.7737 75.8388 83.1437L71.4429 84.7623ZM98.1743 71.7532L99.2935 74.7926L89.4968 78.3999L91.0507 82.6199L99.9179 79.3549L100.991 82.2688L92.1236 85.5338L93.844 90.206L103.59 86.6173L104.71 89.6568L91.572 94.4942L84.9865 76.6091L98.1743 71.7532ZM114.713 65.6634L115.832 68.7029L106.036 72.3101L107.589 76.5302L116.457 73.2652L117.53 76.1791L108.662 79.4441L110.383 84.1163L120.129 80.5276L121.248 83.567L108.111 88.4044L101.525 70.5193L114.713 65.6634Z" fill="white"/>
</svg>
