<svg width="46" height="46" viewBox="0 0 46 46" fill="none" xmlns="http://www.w3.org/2000/svg">
<path d="M22.8906 45.2556C35.317 45.2556 45.3906 35.182 45.3906 22.7556C45.3906 10.3292 35.317 0.255615 22.8906 0.255615C10.4642 0.255615 0.390625 10.3292 0.390625 22.7556C0.390625 35.182 10.4642 45.2556 22.8906 45.2556Z" fill="#2350F1"/>
<path d="M34.5291 22.4151C34.5215 22.2751 34.4646 22.1423 34.3685 22.0402C34.2724 21.9381 34.1432 21.8734 34.0039 21.8574L32.5652 21.6245C32.5005 21.6139 32.441 21.5827 32.3955 21.5355C32.35 21.4882 32.321 21.4276 32.3128 21.3625C32.2853 21.1858 32.2566 21.0023 32.2174 20.8283C32.2047 20.7651 32.2121 20.6994 32.2386 20.6406C32.265 20.5817 32.3092 20.5326 32.3649 20.5001L33.6431 19.7903C33.77 19.7256 33.8687 19.6165 33.9205 19.4838C33.9722 19.3511 33.9733 19.2039 33.9237 19.0704L33.702 18.4588C33.6534 18.3249 33.5571 18.2135 33.4315 18.1461C33.306 18.0787 33.1599 18.06 33.0214 18.0936L31.5878 18.3741C31.5237 18.3857 31.4576 18.3766 31.3989 18.3483C31.3403 18.32 31.2921 18.2738 31.2613 18.2164C31.1777 18.0599 31.0868 17.9005 30.9919 17.744C30.9575 17.6882 30.9414 17.6231 30.9458 17.5577C30.9502 17.4923 30.975 17.4299 31.0166 17.3793L31.9705 16.2779C32.0673 16.1737 32.1229 16.0378 32.1269 15.8957C32.131 15.7535 32.0831 15.6147 31.9924 15.5052L31.576 15.0053C31.4855 14.8956 31.3574 14.8233 31.2166 14.8026C31.0759 14.7819 30.9324 14.8141 30.8141 14.8931L29.5589 15.6466C29.5032 15.68 29.4383 15.6945 29.3738 15.6882C29.3092 15.6818 29.2484 15.6548 29.2004 15.6113C29.0618 15.4895 28.9226 15.3723 28.7868 15.264C28.7358 15.2237 28.6989 15.1682 28.6816 15.1055C28.6642 15.0429 28.6673 14.9763 28.6903 14.9155L29.2099 13.5464C29.2665 13.4158 29.2731 13.269 29.2285 13.1338C29.1839 12.9986 29.0913 12.8844 28.9681 12.8131L28.4025 12.4849C28.2791 12.4137 28.1339 12.3906 27.9945 12.4199C27.8552 12.4492 27.7315 12.5289 27.6472 12.6436L26.7299 13.7939C26.697 13.8441 26.6476 13.8813 26.5902 13.8989C26.5328 13.9166 26.471 13.9136 26.4156 13.8904C26.3809 13.8764 26.0919 13.758 25.8669 13.6828C25.8052 13.6627 25.7515 13.6233 25.7137 13.5705C25.676 13.5177 25.6561 13.4542 25.657 13.3893L25.6789 11.9266C25.6867 11.7837 25.6422 11.6429 25.5537 11.5306C25.4652 11.4182 25.3388 11.3419 25.1981 11.3161L24.5556 11.2039C24.4156 11.1797 24.2716 11.2071 24.1504 11.2811C24.0291 11.3551 23.9388 11.4706 23.8963 11.6062L23.4194 12.9983C23.398 13.0603 23.3572 13.1137 23.303 13.1506C23.2488 13.1875 23.1842 13.2059 23.1186 13.2031H22.5716C22.5067 13.2041 22.4431 13.1848 22.3898 13.1479C22.3364 13.111 22.296 13.0582 22.2742 12.9971L21.7995 11.6129C21.7577 11.4764 21.6676 11.3598 21.5461 11.2849C21.4245 11.21 21.2798 11.182 21.1391 11.2061L20.4961 11.3183C20.3562 11.3439 20.2303 11.4193 20.1419 11.5307C20.0534 11.642 20.0084 11.7817 20.0152 11.9238L20.0377 13.3916C20.0381 13.4575 20.0173 13.5217 19.9782 13.5748C19.9392 13.6279 19.8841 13.6669 19.8211 13.6862C19.6932 13.7361 19.4137 13.8421 19.2875 13.8898C19.1753 13.9302 19.0524 13.8859 18.9508 13.772L18.0385 12.6498C17.9549 12.5351 17.832 12.4552 17.6932 12.4253C17.5544 12.3953 17.4095 12.4176 17.2861 12.4877L16.7216 12.8148C16.5971 12.8863 16.5034 13.0013 16.4586 13.1378C16.4139 13.2742 16.4212 13.4224 16.4792 13.5537L16.9982 14.9194C17.0209 14.9804 17.0238 15.0469 17.0067 15.1096C16.9896 15.1723 16.9533 15.228 16.9028 15.269C16.7665 15.3812 16.6268 15.4934 16.4876 15.618C16.4398 15.6612 16.3795 15.688 16.3154 15.6945C16.2513 15.701 16.1868 15.6867 16.1313 15.6539L14.8907 14.8858C14.7717 14.8082 14.6283 14.7767 14.4877 14.7974C14.3471 14.8181 14.2188 14.8894 14.1271 14.998L13.7119 15.4974C13.6197 15.6061 13.5709 15.7449 13.5747 15.8874C13.5786 16.0298 13.6348 16.1659 13.7326 16.2694L14.6916 17.3692C14.7341 17.4188 14.7595 17.4808 14.764 17.546C14.7686 17.6111 14.752 17.6761 14.7168 17.7311C14.6209 17.8837 14.5294 18.0442 14.4464 18.2047C14.4153 18.2624 14.3667 18.3088 14.3077 18.3372C14.2486 18.3656 14.182 18.3746 14.1175 18.3629L12.6862 18.0863C12.5476 18.0528 12.4016 18.0716 12.2759 18.139C12.1503 18.2063 12.0539 18.3176 12.005 18.4515L11.7806 19.062C11.7309 19.1957 11.732 19.343 11.7837 19.4759C11.8354 19.6088 11.9341 19.7181 12.0611 19.783L13.3393 20.4928C13.3968 20.5245 13.4424 20.5741 13.4692 20.634C13.496 20.6939 13.5026 20.761 13.488 20.825L13.4751 20.8946C13.4454 21.0517 13.419 21.2003 13.3926 21.3586C13.3837 21.4228 13.3547 21.4826 13.3097 21.5294C13.2648 21.5761 13.2062 21.6075 13.1424 21.6189L11.7004 21.8518C11.5595 21.8692 11.4298 21.9373 11.3354 22.0433C11.241 22.1494 11.1885 22.2861 11.1875 22.428V23.0778C11.1867 23.2203 11.2388 23.3581 11.3337 23.4645C11.4287 23.5708 11.5597 23.6382 11.7015 23.6535L13.1424 23.8858C13.2071 23.8963 13.2667 23.9275 13.3122 23.9747C13.3577 24.022 13.3867 24.0827 13.3949 24.1478C13.4224 24.3251 13.451 24.508 13.4902 24.6819C13.5029 24.7452 13.4955 24.8109 13.469 24.8697C13.4426 24.9285 13.3984 24.9777 13.3427 25.0102L12.0651 25.7211C11.9381 25.7858 11.8394 25.8949 11.7877 26.0276C11.736 26.1603 11.7348 26.3075 11.7845 26.441L12.009 27.0526C12.0577 27.1865 12.154 27.2977 12.2795 27.3651C12.4051 27.4325 12.5511 27.4513 12.6896 27.4178L14.1232 27.1401C14.1873 27.1286 14.2534 27.1376 14.312 27.1659C14.3707 27.1942 14.4189 27.2404 14.4497 27.2978C14.5339 27.4549 14.6248 27.6142 14.719 27.7702C14.7536 27.8259 14.7699 27.8911 14.7655 27.9565C14.761 28.022 14.7362 28.0844 14.6944 28.1349L13.7405 29.2369C13.6426 29.3401 13.5858 29.4755 13.5806 29.6177C13.5754 29.7598 13.6223 29.8989 13.7124 30.009L14.1282 30.5089C14.2188 30.6187 14.3468 30.6909 14.4876 30.7116C14.6284 30.7323 14.7718 30.7001 14.8902 30.6211L16.1453 29.8676C16.201 29.8342 16.2659 29.8197 16.3305 29.826C16.395 29.8324 16.4558 29.8594 16.5039 29.9029C16.643 30.0247 16.7844 30.142 16.9174 30.2503C16.9685 30.2905 17.0053 30.346 17.0227 30.4087C17.04 30.4713 17.037 30.5379 17.0139 30.5987L16.4943 31.9678C16.4378 32.0984 16.4311 32.2453 16.4757 32.3805C16.5203 32.5157 16.613 32.6298 16.7362 32.7011L17.3034 33.0288C17.4267 33.0999 17.5718 33.1231 17.711 33.0939C17.8503 33.0648 17.9739 32.9852 18.0581 32.8706L18.9867 31.7287C19.0647 31.6317 19.1887 31.5885 19.2808 31.6255C19.4754 31.7063 19.6062 31.7517 19.8379 31.8292C19.8996 31.8493 19.9533 31.8887 19.9912 31.9415C20.029 31.9942 20.049 32.0577 20.0483 32.1226L20.0259 33.5843C20.0183 33.7271 20.0629 33.8677 20.1514 33.98C20.2399 34.0924 20.3662 34.1687 20.5067 34.1948L21.1492 34.307C21.2892 34.3313 21.4332 34.3039 21.5545 34.2299C21.6758 34.1559 21.7661 34.0403 21.8085 33.9047L22.2854 32.5148C22.3072 32.4531 22.3482 32.4 22.4022 32.3632C22.4563 32.3263 22.5208 32.3077 22.5862 32.31H23.1332C23.1981 32.3089 23.2617 32.3281 23.3151 32.3651C23.3685 32.402 23.4089 32.4548 23.4306 32.516L23.9059 33.9002C23.9427 34.0203 24.017 34.1256 24.118 34.2004C24.219 34.2752 24.3413 34.3157 24.467 34.316C24.5005 34.316 24.5339 34.313 24.5668 34.307L25.2104 34.1948C25.3502 34.1691 25.4759 34.0936 25.5643 33.9823C25.6526 33.8709 25.6975 33.7313 25.6907 33.5893L25.6683 32.1215C25.6678 32.0568 25.688 31.9937 25.7258 31.9413C25.7636 31.8888 25.8172 31.8497 25.8787 31.8297C26.0941 31.7574 26.2451 31.699 26.3786 31.6479L26.4123 31.6345C26.584 31.575 26.6664 31.6423 26.7192 31.708L27.659 32.8655C27.7433 32.98 27.8667 33.0595 28.0059 33.0887C28.145 33.1178 28.29 33.0947 28.4131 33.0238L28.9782 32.6966C29.1018 32.6252 29.1947 32.5108 29.2393 32.3753C29.2839 32.2397 29.2771 32.0924 29.22 31.9616L28.7015 30.5959C28.6787 30.535 28.6755 30.4685 28.6925 30.4058C28.7096 30.3431 28.7459 30.2873 28.7964 30.2463C28.9327 30.1341 29.0724 30.0219 29.2116 29.8973C29.2597 29.854 29.3204 29.8272 29.3848 29.8209C29.4493 29.8147 29.514 29.8293 29.5696 29.8625L30.8258 30.6144C30.9449 30.692 31.0883 30.7234 31.2289 30.7028C31.3695 30.6821 31.4978 30.6108 31.5895 30.5022L32.0047 30.0028C32.0968 29.8942 32.1456 29.7554 32.1418 29.6131C32.138 29.4707 32.0818 29.3348 31.984 29.2313L31.0267 28.1276C30.9842 28.078 30.9588 28.016 30.9542 27.9509C30.9497 27.8857 30.9662 27.8208 31.0015 27.7657C31.0974 27.6137 31.1889 27.4532 31.2719 27.2922C31.3032 27.2346 31.3518 27.1884 31.4108 27.16C31.4698 27.1316 31.5362 27.1225 31.6007 27.1339L33.0304 27.4128C33.169 27.4462 33.315 27.4275 33.4407 27.3601C33.5663 27.2927 33.6627 27.1815 33.7116 27.0475L33.9332 26.4371C33.9829 26.3035 33.9818 26.1563 33.9301 26.0234C33.8783 25.8906 33.7796 25.7814 33.6526 25.7166L32.3734 25.0057C32.3167 24.9737 32.2718 24.9242 32.2454 24.8647C32.2191 24.8052 32.2126 24.7387 32.2269 24.6752L32.2398 24.6051C32.2695 24.448 32.2959 24.2998 32.3223 24.1416C32.3312 24.0774 32.3602 24.0176 32.4052 23.9708C32.4501 23.9241 32.5087 23.8927 32.5725 23.8813L34.0146 23.649C34.1558 23.6318 34.2859 23.5638 34.3806 23.4576C34.4753 23.3514 34.5281 23.2144 34.5291 23.0722V22.4151ZM18.1221 28.6624C17.2367 27.9499 16.5229 27.0476 16.0333 26.0221C15.5437 24.9966 15.2909 23.8741 15.2936 22.7377C15.2963 21.6014 15.5544 20.4801 16.0489 19.4569C16.5433 18.4338 17.2614 17.5348 18.1501 16.8266L21.5167 22.7523L18.1221 28.6624ZM22.8583 30.3367C21.9277 30.3375 21.0052 30.1653 20.1375 29.8289L23.5316 23.9222H30.3332C29.7716 27.5503 26.6339 30.3367 22.8583 30.3367ZM23.535 21.5892L20.1712 15.6696C21.0291 15.3418 21.9399 15.1741 22.8583 15.1747C26.6339 15.1747 29.7716 17.9611 30.3332 21.5892H23.535Z" fill="white"/>
</svg>
