<svg width="111" height="36" viewBox="0 0 111 36" fill="none" xmlns="http://www.w3.org/2000/svg">
<g clip-path="url(#clip0_128_57)">
<path fill-rule="evenodd" clip-rule="evenodd" d="M28.7334 0.305664C32.3711 0.305664 35.3202 3.25467 35.3202 6.89246V20.7247C35.3202 24.3625 32.3711 27.3115 28.7334 27.3115H20.8292V28.6289C20.8292 32.2667 17.8802 35.2157 14.2424 35.2157H6.99695C3.35916 35.2157 0.410156 32.2667 0.410156 28.6289V21.3834C0.410156 17.7456 3.35916 14.7966 6.99695 14.7966H8.18884V20.8502C8.18884 24.4263 11.0387 27.3368 14.5913 27.4344L14.7756 27.437L20.8289 27.4367L20.8292 27.3115H14.9011L20.8286 27.3109V21.3373L20.8292 21.3834V27.3115L21.0802 27.311L21.0807 21.1319C21.0807 17.5558 18.2308 14.6453 14.6783 14.5476L14.4939 14.5451H8.31431V6.89246C8.31431 3.25467 11.2633 0.305664 14.9011 0.305664H28.7334ZM51.0547 11.6033C54.7011 11.6033 56.4927 13.4371 57.1883 15.84C57.2094 15.9032 57.1672 15.9875 57.0829 15.9875H54.5957C54.406 15.9875 54.3639 15.9032 54.3428 15.84C53.7105 14.5542 52.4458 13.9219 51.0547 13.9219C48.5254 13.9219 47.0078 16.0297 47.0078 19.2335C47.0078 22.5427 48.441 24.5451 51.0547 24.5451C53.1414 24.5451 55.0173 23.702 55.1648 20.6878V20.4771C55.1648 20.4138 55.1438 20.3927 55.0805 20.3927H51.139C51.0758 20.3927 51.0547 20.3506 51.0547 20.2874V18.2007C51.0547 18.1374 51.0758 18.0953 51.139 18.0953H57.378C57.4412 18.0953 57.4834 18.1374 57.4834 18.2007V26.5685C57.4834 26.6318 57.4412 26.6528 57.378 26.6528H55.4599C55.3967 26.6528 55.3756 26.6318 55.3545 26.5685L55.1438 25.4725C55.1227 25.3882 55.0384 25.346 54.933 25.4303C53.9423 26.2313 52.762 26.8636 51.0547 26.8636C46.8181 26.8636 44.373 23.702 44.373 19.2335C44.373 14.7861 46.8181 11.6033 51.0547 11.6033ZM66.3571 11.8141C68.7389 11.8141 70.8045 13.8165 70.8045 16.388C70.8045 18.1585 69.856 19.6339 68.507 20.3927C68.486 20.4138 68.486 20.4349 68.507 20.4771L71.1839 26.5053C71.2261 26.5896 71.1628 26.6528 71.0785 26.6528H68.6546C68.6124 26.6528 68.5703 26.6107 68.5492 26.5896L66.1042 21.0672C66.062 20.9829 65.9988 20.9618 65.9356 20.9618H62.6896C62.6264 20.9618 62.6053 20.9829 62.6053 21.0462V26.5474C62.6053 26.6107 62.5631 26.6528 62.4999 26.6528H60.1813C60.1181 26.6528 60.076 26.6107 60.076 26.5474V11.9195C60.076 11.8563 60.1181 11.8141 60.1813 11.8141H66.3571ZM83.3669 11.8141C83.4301 11.8141 83.4722 11.8563 83.4722 11.9195V14.0273C83.4722 14.0905 83.4301 14.1327 83.3669 14.1327H75.5892C75.5259 14.1327 75.4838 14.1748 75.4838 14.238V17.8634C75.4838 17.9267 75.5259 17.9688 75.5892 17.9688H82.313C82.3762 17.9688 82.4184 18.011 82.4184 18.0742V20.182C82.4184 20.2452 82.3762 20.2874 82.313 20.2874H75.5892C75.5259 20.2874 75.4838 20.3295 75.4838 20.3927V24.2289C75.4838 24.2921 75.5259 24.3343 75.5892 24.3343H83.3669C83.4301 24.3343 83.4722 24.3764 83.4722 24.4397V26.5474C83.4722 26.6107 83.4301 26.6528 83.3669 26.6528H73.0598C72.9966 26.6528 72.9545 26.6107 72.9545 26.5474V11.9195C72.9545 11.8563 72.9966 11.8141 73.0598 11.8141H83.3669ZM95.9503 11.8141C96.0135 11.8141 96.0556 11.8563 96.0556 11.9195V14.0273C96.0556 14.0905 96.0135 14.1327 95.9503 14.1327H88.1726C88.1094 14.1327 88.0672 14.1748 88.0672 14.238V17.8634C88.0672 17.9267 88.1094 17.9688 88.1726 17.9688H94.8964C94.9596 17.9688 95.0018 18.011 95.0018 18.0742V20.182C95.0018 20.2452 94.9596 20.2874 94.8964 20.2874H88.1726C88.1094 20.2874 88.0672 20.3295 88.0672 20.3927V24.2289C88.0672 24.2921 88.1094 24.3343 88.1726 24.3343H95.9503C96.0135 24.3343 96.0556 24.3764 96.0556 24.4397V26.5474C96.0556 26.6107 96.0135 26.6528 95.9503 26.6528H85.6432C85.58 26.6528 85.5379 26.6107 85.5379 26.5474V11.9195C85.5379 11.8563 85.58 11.8141 85.6432 11.8141H95.9503ZM101.367 11.8141C101.43 11.8141 101.473 11.8773 101.494 11.9195L107.269 23.0064C107.332 23.1539 107.48 23.1118 107.48 23.0064V11.9195C107.48 11.8563 107.522 11.8141 107.585 11.8141H109.904C109.967 11.8141 110.009 11.8563 110.009 11.9195V26.5474C110.009 26.6107 109.967 26.6528 109.904 26.6528H106.763C106.7 26.6528 106.637 26.5896 106.616 26.5474L100.861 15.4606C100.798 15.313 100.651 15.3552 100.651 15.4606V26.5474C100.651 26.6107 100.608 26.6528 100.545 26.6528H98.2056C98.1634 26.6528 98.1213 26.6107 98.1213 26.5474V11.9195C98.1213 11.8563 98.1634 11.8141 98.2267 11.8141H101.367ZM66.1463 14.1327H62.6896C62.6264 14.1327 62.6053 14.1748 62.6053 14.217V18.5379C62.6053 18.6011 62.6474 18.6433 62.7107 18.6433H66.2307C67.3056 18.6433 68.2963 17.6105 68.2963 16.388C68.2963 15.1444 67.2635 14.1327 66.1463 14.1327Z" fill="#A5A9B6"/>
</g>
<defs>
<clipPath id="clip0_128_57">
<rect width="109.999" height="34.91" fill="white" transform="translate(0.410156 0.305664)"/>
</clipPath>
</defs>
</svg>
