<svg width="48" height="51" viewBox="0 0 48 51" fill="none" xmlns="http://www.w3.org/2000/svg">
<path d="M18.8686 35.0592L10.7648 31.5743L18.7028 28.2063C18.7028 28.2063 18.7029 28.2062 18.703 28.2062C21.2825 27.1121 23.3618 25.1038 24.4979 22.5655C24.4979 22.5654 24.4979 22.5653 24.498 22.5653L28.0063 14.7473L31.5152 22.5666C31.5152 22.5666 31.5152 22.5666 31.5152 22.5667C32.6499 25.0956 34.7215 27.111 37.3101 28.2064C37.3105 28.2066 37.3108 28.2067 37.3111 28.2068L45.2335 31.5676L37.3098 34.9289C34.7304 36.0229 32.6511 38.031 31.515 40.5691C31.5149 40.5693 31.5147 40.5696 31.5146 40.5699L28.0159 48.3632L24.6384 40.7328C23.5162 38.1891 21.4502 36.1672 18.8697 35.0596C18.8693 35.0595 18.8689 35.0593 18.8686 35.0592Z" fill="#2A71FA" stroke="#2A71FA" stroke-width="3"/>
<path d="M9.82984 24.8921L11.7271 20.6638C12.1843 19.6414 13.0243 18.8247 14.0758 18.3802L18.4304 16.5355C18.7676 16.391 18.7676 15.9243 18.4304 15.7854L14.0758 13.9407C13.0243 13.4962 12.1843 12.6795 11.7271 11.6571L9.82984 7.42329C9.68126 7.09547 9.20123 7.09547 9.05836 7.42329L7.1611 11.6571C6.70392 12.6795 5.86387 13.4962 4.81237 13.9407L0.452092 15.791C0.114928 15.9354 0.114928 16.3966 0.452092 16.5411L4.88666 18.4468C5.93816 18.8969 6.7725 19.7192 7.22396 20.7416L9.06408 24.8921C9.21266 25.2199 9.69269 25.2254 9.83555 24.8921H9.82984Z" fill="#9CBCF8"/>
<path d="M22.6565 3.50691L22.9554 2.83977L23.2534 3.50484C23.2535 3.5052 23.2537 3.50557 23.2539 3.50593C23.6003 4.28305 24.2366 4.89474 25.0203 5.22907L25.0227 5.23008L25.6297 5.48719L25.0247 5.74346C25.0244 5.74359 25.0241 5.74372 25.0238 5.74385C24.239 6.0745 23.6056 6.68902 23.2554 7.46503L23.2543 7.46747L22.9594 8.12566L22.6867 7.51022L22.686 7.50845C22.3437 6.74 21.7185 6.11763 20.926 5.7792C20.9256 5.77902 20.9252 5.77884 20.9248 5.77865L20.2645 5.49507L20.8861 5.23093C20.8866 5.23071 20.8872 5.23048 20.8877 5.23025C21.6722 4.89953 22.3053 4.28514 22.6554 3.50936L22.6565 3.50691Z" stroke="#9CBCF8" stroke-width="2"/>
</svg>
