<svg width="46" height="46" viewBox="0 0 46 46" fill="none" xmlns="http://www.w3.org/2000/svg">
<path d="M22.8906 45.2556C35.317 45.2556 45.3906 35.182 45.3906 22.7556C45.3906 10.3292 35.317 0.255615 22.8906 0.255615C10.4642 0.255615 0.390625 10.3292 0.390625 22.7556C0.390625 35.182 10.4642 45.2556 22.8906 45.2556Z" fill="#2350F1"/>
<path d="M31.7097 20.4032C32.9597 19.1532 32.3897 17.6932 31.7097 16.9832L28.7097 13.9832C27.4497 12.7332 25.9997 13.3032 25.2897 13.9832L23.5897 15.6932H20.9997C19.0997 15.6932 17.9997 16.6932 17.4397 17.8432L12.9997 22.2832V26.2832L12.2897 26.9832C11.0397 28.2432 11.6097 29.6932 12.2897 30.4032L15.2897 33.4032C15.8297 33.9432 16.4097 34.1432 16.9597 34.1432C17.6697 34.1432 18.3197 33.7932 18.7097 33.4032L21.4097 30.6932H24.9997C26.6997 30.6932 27.5597 29.6332 27.8697 28.5932C28.9997 28.2932 29.6197 27.4332 29.8697 26.5932C31.4197 26.1932 31.9997 24.7232 31.9997 23.6932V20.6932H31.4097L31.7097 20.4032ZM29.9997 23.6932C29.9997 24.1432 29.8097 24.6932 28.9997 24.6932H27.9997V25.6932C27.9997 26.1432 27.8097 26.6932 26.9997 26.6932H25.9997V27.6932C25.9997 28.1432 25.8097 28.6932 24.9997 28.6932H20.5897L17.3097 31.9732C16.9997 32.2632 16.8197 32.0932 16.7097 31.9832L13.7197 29.0032C13.4297 28.6932 13.5997 28.5132 13.7097 28.4032L14.9997 27.1032V23.1032L16.9997 21.1032V22.6932C16.9997 23.9032 17.7997 25.6932 19.9997 25.6932C22.1997 25.6932 22.9997 23.9032 22.9997 22.6932H29.9997V23.6932ZM30.2897 18.9832L28.5897 20.6932H20.9997V22.6932C20.9997 23.1432 20.8097 23.6932 19.9997 23.6932C19.1897 23.6932 18.9997 23.1432 18.9997 22.6932V19.6932C18.9997 19.2332 19.1697 17.6932 20.9997 17.6932H24.4097L26.6897 15.4132C26.9997 15.1232 27.1797 15.2932 27.2897 15.4032L30.2797 18.3832C30.5697 18.6932 30.3997 18.8732 30.2897 18.9832Z" fill="white"/>
</svg>
