<svg width="20" height="20" viewBox="0 0 20 20" fill="none" xmlns="http://www.w3.org/2000/svg">
<mask id="mask0_362_30662" style="mask-type:alpha" maskUnits="userSpaceOnUse" x="0" y="0" width="20" height="20">
<rect width="20" height="20" fill="#D9D9D9"/>
</mask>
<g mask="url(#mask0_362_30662)">
<path d="M9.95573 15.0003C10.2474 15.0003 10.4939 14.8996 10.6953 14.6982C10.8967 14.4969 10.9974 14.2503 10.9974 13.9587C10.9974 13.667 10.8967 13.4205 10.6953 13.2191C10.4939 13.0177 10.2474 12.917 9.95573 12.917C9.66406 12.917 9.41753 13.0177 9.21614 13.2191C9.01476 13.4205 8.91406 13.667 8.91406 13.9587C8.91406 14.2503 9.01476 14.4969 9.21614 14.6982C9.41753 14.8996 9.66406 15.0003 9.95573 15.0003ZM9.99739 18.3337C8.84462 18.3337 7.76128 18.1149 6.7474 17.6774C5.73351 17.2399 4.85156 16.6462 4.10156 15.8962C3.35156 15.1462 2.75781 14.2642 2.32031 13.2503C1.88281 12.2364 1.66406 11.1531 1.66406 10.0003C1.66406 8.84755 1.88281 7.76421 2.32031 6.75032C2.75781 5.73644 3.35156 4.85449 4.10156 4.10449C4.85156 3.35449 5.73351 2.76074 6.7474 2.32324C7.76128 1.88574 8.84462 1.66699 9.99739 1.66699C11.1502 1.66699 12.2335 1.88574 13.2474 2.32324C14.2613 2.76074 15.1432 3.35449 15.8932 4.10449C16.6432 4.85449 17.237 5.73644 17.6745 6.75032C18.112 7.76421 18.3307 8.84755 18.3307 10.0003C18.3307 11.1531 18.112 12.2364 17.6745 13.2503C17.237 14.2642 16.6432 15.1462 15.8932 15.8962C15.1432 16.6462 14.2613 17.2399 13.2474 17.6774C12.2335 18.1149 11.1502 18.3337 9.99739 18.3337ZM9.99739 16.667C11.8585 16.667 13.4349 16.0212 14.7266 14.7295C16.0182 13.4378 16.6641 11.8614 16.6641 10.0003C16.6641 8.13921 16.0182 6.56283 14.7266 5.27116C13.4349 3.97949 11.8585 3.33366 9.99739 3.33366C8.13628 3.33366 6.5599 3.97949 5.26823 5.27116C3.97656 6.56283 3.33073 8.13921 3.33073 10.0003C3.33073 11.8614 3.97656 13.4378 5.26823 14.7295C6.5599 16.0212 8.13628 16.667 9.99739 16.667ZM10.0807 6.41699C10.4279 6.41699 10.73 6.5281 10.987 6.75032C11.2439 6.97255 11.3724 7.25032 11.3724 7.58366C11.3724 7.88921 11.2786 8.16005 11.0911 8.39616C10.9036 8.63227 10.6918 8.85449 10.4557 9.06282C10.1363 9.3406 9.85503 9.64616 9.61198 9.97949C9.36892 10.3128 9.2474 10.6878 9.2474 11.1045C9.2474 11.2989 9.32031 11.4621 9.46614 11.5941C9.61198 11.726 9.78212 11.792 9.97656 11.792C10.1849 11.792 10.362 11.7225 10.5078 11.5837C10.6536 11.4448 10.7474 11.2712 10.7891 11.0628C10.8446 10.7712 10.9696 10.5107 11.1641 10.2816C11.3585 10.0524 11.5668 9.83366 11.7891 9.62532C12.1085 9.31977 12.3828 8.98644 12.612 8.62532C12.8411 8.26421 12.9557 7.86144 12.9557 7.41699C12.9557 6.70866 12.6675 6.1288 12.0911 5.67741C11.5148 5.22602 10.8446 5.00032 10.0807 5.00032C9.55295 5.00032 9.04948 5.11144 8.57031 5.33366C8.09115 5.55588 7.72656 5.89616 7.47656 6.35449C7.37934 6.52116 7.34809 6.69824 7.38281 6.88574C7.41753 7.07324 7.51128 7.2156 7.66406 7.31282C7.85851 7.42394 8.0599 7.45866 8.26823 7.41699C8.47656 7.37532 8.65017 7.25727 8.78906 7.06282C8.94184 6.85449 9.13281 6.69477 9.36198 6.58366C9.59114 6.47255 9.83073 6.41699 10.0807 6.41699Z" fill="#9893A7"/>
</g>
</svg>
