<svg width="46" height="46" viewBox="0 0 46 46" fill="none" xmlns="http://www.w3.org/2000/svg">
<path d="M22.666 45.4556C35.0924 45.4556 45.166 35.382 45.166 22.9556C45.166 10.5292 35.0924 0.455566 22.666 0.455566C10.2396 0.455566 0.166016 10.5292 0.166016 22.9556C0.166016 35.382 10.2396 45.4556 22.666 45.4556Z" fill="#2350F1"/>
<path d="M13.2085 22.9556C13.209 20.8107 13.9121 18.725 15.2102 17.0176C16.5084 15.3101 18.33 14.0749 20.3966 13.5008C22.4633 12.9267 24.661 13.0453 26.6538 13.8386C28.6466 14.6318 30.3248 16.0559 31.4315 17.8932C32.5383 19.7305 33.0128 21.8797 32.7825 24.0122C32.5521 26.1446 31.6296 28.143 30.156 29.7015C28.6824 31.26 26.7388 32.2929 24.6226 32.6423C22.5064 32.9917 20.334 32.6382 18.4376 31.636L13.9716 32.7525C13.8689 32.7784 13.7611 32.7771 13.659 32.7489C13.5568 32.7208 13.4637 32.6666 13.3887 32.5917C13.3137 32.5168 13.2594 32.4238 13.231 32.3217C13.2026 32.2196 13.2012 32.1118 13.2269 32.009L14.3434 27.5418C13.5973 26.1283 13.2077 24.5539 13.2085 22.9556ZM22.1037 19.6515C22.2914 19.4392 22.5822 19.2748 23.0239 19.2748C23.4656 19.2748 23.7563 19.4392 23.9441 19.6515C24.1416 19.8772 24.2508 20.1889 24.2508 20.5017C24.2508 20.8907 24.1637 21.1434 24.0471 21.3422C23.9232 21.5557 23.7576 21.7274 23.5281 21.9679L23.5011 21.9973C23.2692 22.239 22.9846 22.5421 22.7674 22.9556C22.5466 23.3801 22.4104 23.8893 22.4104 24.542C22.4104 24.7047 22.475 24.8607 22.5901 24.9758C22.7051 25.0908 22.8612 25.1554 23.0239 25.1554C23.1866 25.1554 23.3426 25.0908 23.4576 24.9758C23.5727 24.8607 23.6373 24.7047 23.6373 24.542C23.6373 24.0708 23.7318 23.7592 23.8545 23.5249C23.9833 23.2795 24.1588 23.0844 24.387 22.8451L24.4385 22.7924C24.6471 22.5752 24.9072 22.3041 25.1072 21.9605C25.3354 21.5679 25.4777 21.1017 25.4777 20.5017C25.4777 19.9214 25.2802 19.3116 24.8642 18.8405C24.4385 18.3571 23.8091 18.0479 23.0239 18.0479C22.2386 18.0479 21.6092 18.3571 21.1835 18.8405C20.7663 19.3128 20.57 19.9202 20.57 20.5017C20.57 20.6644 20.6347 20.8205 20.7497 20.9355C20.8647 21.0506 21.0208 21.1152 21.1835 21.1152C21.3462 21.1152 21.5022 21.0506 21.6173 20.9355C21.7323 20.8205 21.7969 20.6644 21.7969 20.5017C21.7969 20.1889 21.9061 19.876 22.1037 19.6515ZM23.8827 27.2657C23.8827 27.038 23.7922 26.8195 23.6312 26.6584C23.4701 26.4974 23.2516 26.4069 23.0239 26.4069C22.7961 26.4069 22.5776 26.4974 22.4166 26.6584C22.2555 26.8195 22.165 27.038 22.165 27.2657C22.165 27.4935 22.2555 27.712 22.4166 27.873C22.5776 28.0341 22.7961 28.1246 23.0239 28.1246C23.2516 28.1246 23.4701 28.0341 23.6312 27.873C23.7922 27.712 23.8827 27.4935 23.8827 27.2657Z" fill="white"/>
</svg>
