<svg width="19" height="19" viewBox="0 0 19 19" fill="none" xmlns="http://www.w3.org/2000/svg">
<g clip-path="url(#clip0_13_697)">
<path d="M9.04077 2.09961C11.4835 2.09961 11.7728 2.10891 12.7375 2.15292C13.6294 2.19363 14.1138 2.34266 14.4362 2.46791C14.8632 2.63387 15.168 2.83215 15.4881 3.15226C15.8082 3.47237 16.0065 3.77716 16.1724 4.20414C16.2977 4.52654 16.4468 5.01094 16.4875 5.90286C16.5315 6.86756 16.5408 7.15688 16.5408 9.59961C16.5408 12.0423 16.5315 12.3317 16.4875 13.2963C16.4468 14.1883 16.2977 14.6727 16.1724 14.9951C16.0065 15.4221 15.8082 15.7268 15.4881 16.047C15.168 16.3671 14.8632 16.5654 14.4362 16.7313C14.1138 16.8566 13.6294 17.0056 12.7375 17.0463C11.773 17.0903 11.4836 17.0996 9.04077 17.0996C6.59789 17.0996 6.30858 17.0903 5.34406 17.0463C4.45211 17.0056 3.96771 16.8566 3.64534 16.7313C3.21832 16.5654 2.91353 16.3671 2.59342 16.047C2.27331 15.7268 2.07503 15.4221 1.90911 14.9951C1.78382 14.6727 1.63479 14.1883 1.59408 13.2964C1.55007 12.3317 1.54077 12.0423 1.54077 9.59961C1.54077 7.15688 1.55007 6.86756 1.59408 5.9029C1.63479 5.01094 1.78382 4.52654 1.90911 4.20414C2.07503 3.77716 2.27331 3.47237 2.59342 3.15226C2.91353 2.83215 3.21832 2.63387 3.64534 2.46791C3.96771 2.34266 4.45211 2.19363 5.34403 2.15292C6.30872 2.10891 6.59804 2.09961 9.04077 2.09961ZM9.04075 0.599609C6.59648 0.599609 6.29003 0.60997 5.33008 0.653769C4.3721 0.697497 3.7179 0.849617 3.14539 1.07212C2.55356 1.30212 2.05166 1.60986 1.55132 2.11019C1.05098 2.61053 0.743243 3.11244 0.513242 3.70427C0.290743 4.27677 0.138624 4.93098 0.0948957 5.88896C0.0510962 6.84887 0.0407715 7.15536 0.0407715 9.59963C0.0407715 12.0439 0.0510962 12.3504 0.0948957 13.3103C0.138624 14.2683 0.290743 14.9225 0.513242 15.495C0.743243 16.0868 1.05098 16.5887 1.55132 17.0891C2.05166 17.5894 2.55356 17.8971 3.14539 18.1271C3.7179 18.3496 4.3721 18.5018 5.33008 18.5455C6.29003 18.5893 6.59648 18.5996 9.04075 18.5996C11.485 18.5996 11.7915 18.5893 12.7514 18.5455C13.7094 18.5018 14.3636 18.3496 14.9361 18.1271C15.5279 17.8971 16.0299 17.5894 16.5302 17.0891C17.0305 16.5887 17.3383 16.0868 17.5683 15.495C17.7908 14.9225 17.9429 14.2683 17.9866 13.3103C18.0304 12.3504 18.0408 12.0439 18.0408 9.59963C18.0408 7.15536 18.0304 6.84887 17.9866 5.88896C17.9429 4.93098 17.7908 4.27677 17.5683 3.70427C17.3383 3.11244 17.0305 2.61053 16.5302 2.11019C16.0299 1.60986 15.5279 1.30212 14.9361 1.07212C14.3636 0.849617 13.7094 0.697497 12.7514 0.653769C11.7915 0.60997 11.485 0.599609 9.04075 0.599609ZM9.04077 5.09961C6.5555 5.09961 4.54077 7.11434 4.54077 9.59961C4.54077 12.0849 6.5555 14.0996 9.04077 14.0996C11.526 14.0996 13.5408 12.0849 13.5408 9.59961C13.5408 7.11434 11.526 5.09961 9.04077 5.09961ZM9.04077 12.5996C7.38394 12.5996 6.04077 11.2564 6.04077 9.59961C6.04077 7.94278 7.38394 6.59961 9.04077 6.59961C10.6976 6.59961 12.0408 7.94278 12.0408 9.59961C12.0408 11.2564 10.6976 12.5996 9.04077 12.5996ZM15.0408 4.59959C15.0408 5.15188 14.5931 5.59961 14.0408 5.59961C13.4885 5.59961 13.0408 5.15188 13.0408 4.59959C13.0408 4.0473 13.4885 3.59961 14.0408 3.59961C14.5931 3.59961 15.0408 4.0473 15.0408 4.59959Z" fill="#142568"/>
</g>
<defs>
<clipPath id="clip0_13_697">
<rect width="18" height="18" fill="white" transform="translate(0.0407715 0.599609)"/>
</clipPath>
</defs>
</svg>
