<svg width="48" height="48" viewBox="0 0 48 48" fill="none" xmlns="http://www.w3.org/2000/svg">
<path d="M24 41.5C23.4833 41.5 23.0417 41.3167 22.675 40.95C22.3083 40.5833 22.125 40.1417 22.125 39.625C22.125 39.1083 22.3083 38.6667 22.675 38.3C23.0417 37.9333 23.4833 37.75 24 37.75H37.775V23.8C37.775 19.9833 36.4333 16.7375 33.75 14.0625C31.0667 11.3875 27.8167 10.05 24 10.05C20.1667 10.05 16.9083 11.3875 14.225 14.0625C11.5417 16.7375 10.2 19.9833 10.2 23.8V33.775C10.2 34.2917 10.0167 34.7333 9.65 35.1C9.28333 35.4667 8.84167 35.65 8.325 35.65C7.275 35.65 6.375 35.275 5.625 34.525C4.875 33.775 4.5 32.875 4.5 31.825V27.9C4.5 27.2167 4.675 26.5833 5.025 26C5.375 25.4167 5.85 24.9417 6.45 24.575L6.6 21.975C6.88333 19.775 7.5375 17.7333 8.5625 15.85C9.5875 13.9667 10.8708 12.3292 12.4125 10.9375C13.9542 9.54583 15.7208 8.45833 17.7125 7.675C19.7042 6.89167 21.8 6.5 24 6.5C26.2 6.5 28.2875 6.89167 30.2625 7.675C32.2375 8.45833 34 9.5375 35.55 10.9125C37.1 12.2875 38.3833 13.9125 39.4 15.7875C40.4167 17.6625 41.075 19.7 41.375 21.9L41.525 24.5C42.125 24.7833 42.6042 25.2083 42.9625 25.775C43.3208 26.3417 43.5 26.9583 43.5 27.625V32.1C43.5 32.7667 43.3208 33.3833 42.9625 33.95C42.6042 34.5167 42.125 34.9417 41.525 35.225V37.75C41.525 38.7833 41.1583 39.6667 40.425 40.4C39.6917 41.1333 38.8083 41.5 37.775 41.5H24ZM18.125 27.825C17.6083 27.825 17.1667 27.6417 16.8 27.275C16.4333 26.9083 16.25 26.4667 16.25 25.95C16.25 25.4333 16.4333 24.9917 16.8 24.625C17.1667 24.2583 17.6083 24.075 18.125 24.075C18.6417 24.075 19.0833 24.2583 19.45 24.625C19.8167 24.9917 20 25.4333 20 25.95C20 26.4667 19.8167 26.9083 19.45 27.275C19.0833 27.6417 18.6417 27.825 18.125 27.825ZM29.875 27.825C29.3583 27.825 28.9167 27.6417 28.55 27.275C28.1833 26.9083 28 26.4667 28 25.95C28 25.4333 28.1833 24.9917 28.55 24.625C28.9167 24.2583 29.3583 24.075 29.875 24.075C30.3917 24.075 30.8333 24.2583 31.2 24.625C31.5667 24.9917 31.75 25.4333 31.75 25.95C31.75 26.4667 31.5667 26.9083 31.2 27.275C30.8333 27.6417 30.3917 27.825 29.875 27.825ZM12.375 24.775C12.225 21.375 13.2917 18.4542 15.575 16.0125C17.8583 13.5708 20.6917 12.35 24.075 12.35C26.9417 12.35 29.4667 13.2583 31.65 15.075C33.8333 16.8917 35.1667 19.2083 35.65 22.025C32.6833 21.975 29.9458 21.1833 27.4375 19.65C24.9292 18.1167 23.0167 16.0167 21.7 13.35C21.1833 15.9333 20.1042 18.2292 18.4625 20.2375C16.8208 22.2458 14.7917 23.7583 12.375 24.775Z" fill="#2A71FA"/>
</svg>
