<svg width="45" height="46" viewBox="0 0 45 46" fill="none" xmlns="http://www.w3.org/2000/svg">
<g id="6158f4c770739c5824786572_icon-connect.svg" clip-path="url(#clip0_13_336)">
<g id="Page-1">
<g id="Group-19">
<path id="Oval" d="M22.5 45.3574C34.9264 45.3574 45 35.2838 45 22.8574C45 10.431 34.9264 0.357422 22.5 0.357422C10.0736 0.357422 0 10.431 0 22.8574C0 35.2838 10.0736 45.3574 22.5 45.3574Z" fill="#2350F1"/>
<path id="Oval_2" d="M27.9807 19.9728C30.0518 19.9728 31.7307 18.2939 31.7307 16.2228C31.7307 14.1517 30.0518 12.4728 27.9807 12.4728C25.9096 12.4728 24.2307 14.1517 24.2307 16.2228C24.2307 18.2939 25.9096 19.9728 27.9807 19.9728Z" fill="white"/>
<path id="Oval-Copy-8" d="M21.346 26.8959C22.9392 26.8959 24.2307 25.6044 24.2307 24.0113C24.2307 22.4181 22.9392 21.1266 21.346 21.1266C19.7529 21.1266 18.4614 22.4181 18.4614 24.0113C18.4614 25.6044 19.7529 26.8959 21.346 26.8959Z" fill="white"/>
<path id="Oval-Copy-9" d="M15.5768 32.6651C16.692 32.6651 17.5961 31.7611 17.5961 30.6459C17.5961 29.5307 16.692 28.6266 15.5768 28.6266C14.4617 28.6266 13.5576 29.5307 13.5576 30.6459C13.5576 31.7611 14.4617 32.6651 15.5768 32.6651Z" fill="white"/>
</g>
</g>
</g>
<defs>
<clipPath id="clip0_13_336">
<rect width="45" height="45" fill="white" transform="translate(0 0.357422)"/>
</clipPath>
</defs>
</svg>
