<svg width="56" height="56" viewBox="0 0 56 56" fill="none" xmlns="http://www.w3.org/2000/svg">
<path d="M11.6667 46.6667C10.3833 46.6667 9.28472 46.2098 8.37083 45.2959C7.45694 44.382 7 43.2834 7 42.0001V25.6667C7 22.789 7.55417 20.0765 8.6625 17.5292C9.77083 14.982 11.2778 12.7556 13.1833 10.8501C15.0889 8.94453 17.3153 7.43758 19.8625 6.32925C22.4097 5.22091 25.1222 4.66675 28 4.66675C30.8778 4.66675 33.5903 5.22091 36.1375 6.32925C38.6847 7.43758 40.9111 8.94453 42.8167 10.8501C44.7222 12.7556 46.2292 14.982 47.3375 17.5292C48.4458 20.0765 49 22.789 49 25.6667V49.0001C49 50.2834 48.5431 51.382 47.6292 52.2959C46.7153 53.2098 45.6167 53.6667 44.3333 53.6667H30.3333C29.6722 53.6667 29.1181 53.4431 28.6708 52.9959C28.2236 52.5487 28 51.9945 28 51.3334C28 50.6723 28.2236 50.1181 28.6708 49.6709C29.1181 49.2237 29.6722 49.0001 30.3333 49.0001H44.3333V46.6667H39.6667C38.3833 46.6667 37.2847 46.2098 36.3708 45.2959C35.4569 44.382 35 43.2834 35 42.0001V32.6667C35 31.3834 35.4569 30.2848 36.3708 29.3709C37.2847 28.457 38.3833 28.0001 39.6667 28.0001H44.3333V25.6667C44.3333 21.1556 42.7389 17.3056 39.55 14.1167C36.3611 10.9279 32.5111 9.33341 28 9.33341C23.4889 9.33341 19.6389 10.9279 16.45 14.1167C13.2611 17.3056 11.6667 21.1556 11.6667 25.6667V28.0001H16.3333C17.6167 28.0001 18.7153 28.457 19.6292 29.3709C20.5431 30.2848 21 31.3834 21 32.6667V42.0001C21 43.2834 20.5431 44.382 19.6292 45.2959C18.7153 46.2098 17.6167 46.6667 16.3333 46.6667H11.6667ZM11.6667 42.0001H16.3333V32.6667H11.6667V42.0001ZM39.6667 42.0001H44.3333V32.6667H39.6667V42.0001Z" fill="#E8EAED"/>
</svg>
