<svg width="48" height="48" viewBox="0 0 48 48" fill="none" xmlns="http://www.w3.org/2000/svg">
<path d="M26 42V44C26 45.1045 25.1046 46 24 46C22.8954 46 22 45.1045 22 44V42H6C5.46957 42 4.96086 41.7893 4.58579 41.4142C4.21072 41.0392 4 40.5305 4 40V13.1667C4 12.5223 4.52233 12 5.16667 12H42.8333C43.4776 12 44 12.5223 44 13.1667V40C44 40.5305 43.7893 41.0392 43.4143 41.4142C43.0391 41.7893 42.5305 42 42.0001 42H26ZM8.00001 38H40V16H8.00001V38ZM26 21.1667C26 20.5224 26.5223 20 27.1667 20H34.8334C35.4777 20 36.0001 20.5224 36.0001 21.1667V22.8333C36.0001 23.4777 35.4777 24 34.8334 24H27.1666C26.5223 24 26 23.4777 26 22.8333V21.1667ZM26 29.1666C26 28.5223 26.5223 28 27.1667 28H34.8334C35.4777 28 36.0001 28.5223 36.0001 29.1666V30.8334C36.0001 31.4777 35.4777 32 34.8334 32H27.1666C26.5223 32 26 31.4777 26 30.8334V29.1666ZM16.8407 20.1131C17.4729 19.9886 18.0001 20.5224 18.0001 21.1667V26H22.8334C23.4777 26 24.0115 26.5272 23.887 27.1594C23.7347 27.9325 23.4308 28.6719 22.9888 29.3334C22.3295 30.3202 21.3925 31.0891 20.2961 31.5433C19.1997 31.9974 17.9933 32.1162 16.8295 31.8847C15.6656 31.6532 14.5965 31.0818 13.7573 30.2426C12.9183 29.4035 12.3469 28.3344 12.1153 27.1705C11.8838 26.0066 12.0026 24.8003 12.4568 23.7038C12.9109 22.6075 13.6799 21.6704 14.6666 21.0112C15.3281 20.5691 16.0675 20.2653 16.8407 20.1131ZM4 8C4 6.89543 4.89543 6 6 6H42C43.1046 6 44 6.89543 44 8C44 9.10457 43.1046 10 42 10H6C4.89543 10 4 9.10457 4 8Z" fill="#2A71FA"/>
</svg>
