<svg width="56" height="56" viewBox="0 0 56 56" fill="none" xmlns="http://www.w3.org/2000/svg">
<path d="M27.7084 46.6667C27.864 46.6667 28.0195 46.6279 28.1751 46.5501C28.3306 46.4723 28.4473 46.3945 28.5251 46.3167L47.6584 27.1834C48.1251 26.7167 48.4654 26.1917 48.6792 25.6084C48.8931 25.0251 49.0001 24.4417 49.0001 23.8584C49.0001 23.2362 48.8931 22.6431 48.6792 22.0792C48.4654 21.5154 48.1251 21.0195 47.6584 20.5917L37.7417 10.6751C37.314 10.2084 36.8181 9.86814 36.2542 9.65425C35.6904 9.44036 35.0973 9.33341 34.4751 9.33341C33.8917 9.33341 33.3084 9.44036 32.7251 9.65425C32.1417 9.86814 31.6167 10.2084 31.1501 10.6751L30.5084 11.3167L34.8251 15.6917C35.4084 16.2362 35.8362 16.8584 36.1084 17.5584C36.3806 18.2584 36.5167 18.9973 36.5167 19.7751C36.5167 21.4084 35.9626 22.7792 34.8542 23.8876C33.7459 24.9959 32.3751 25.5501 30.7417 25.5501C29.964 25.5501 29.2154 25.414 28.4959 25.1417C27.7765 24.8695 27.1445 24.4612 26.6001 23.9167L22.2251 19.6001L12.0167 29.8084C11.9001 29.9251 11.8126 30.0515 11.7542 30.1876C11.6959 30.3237 11.6667 30.4695 11.6667 30.6251C11.6667 30.9362 11.7834 31.2181 12.0167 31.4709C12.2501 31.7237 12.5223 31.8501 12.8334 31.8501C12.989 31.8501 13.1445 31.8112 13.3001 31.7334C13.4556 31.6556 13.5723 31.5779 13.6501 31.5001L19.9501 25.2001C20.3779 24.7723 20.9126 24.5487 21.5542 24.5292C22.1959 24.5098 22.7501 24.7334 23.2167 25.2001C23.6445 25.6279 23.8584 26.1723 23.8584 26.8334C23.8584 27.4945 23.6445 28.039 23.2167 28.4667L16.9751 34.7667C16.8584 34.8834 16.7709 35.0098 16.7126 35.1459C16.6542 35.282 16.6251 35.4279 16.6251 35.5834C16.6251 35.8945 16.7417 36.1667 16.9751 36.4001C17.2084 36.6334 17.4806 36.7501 17.7917 36.7501C17.9473 36.7501 18.1029 36.7112 18.2584 36.6334C18.414 36.5556 18.5306 36.4779 18.6084 36.4001L24.9084 30.1584C25.3362 29.7306 25.8709 29.507 26.5126 29.4876C27.1542 29.4681 27.7084 29.6917 28.1751 30.1584C28.6029 30.5862 28.8167 31.1306 28.8167 31.7917C28.8167 32.4529 28.6029 32.9973 28.1751 33.4251L21.9334 39.7251C21.8167 39.8029 21.7292 39.9195 21.6709 40.0751C21.6126 40.2306 21.5834 40.3862 21.5834 40.5417C21.5834 40.8529 21.7001 41.1251 21.9334 41.3584C22.1667 41.5917 22.439 41.7084 22.7501 41.7084C22.9056 41.7084 23.0515 41.6792 23.1876 41.6209C23.3237 41.5626 23.4501 41.4751 23.5667 41.3584L29.8667 35.1167C30.2945 34.689 30.8292 34.4654 31.4709 34.4459C32.1126 34.4265 32.6667 34.6501 33.1334 35.1167C33.5612 35.5445 33.7751 36.089 33.7751 36.7501C33.7751 37.4112 33.5612 37.9556 33.1334 38.3834L26.8334 44.6834C26.7167 44.8001 26.6292 44.9265 26.5709 45.0626C26.5126 45.1987 26.4834 45.3445 26.4834 45.5001C26.4834 45.8112 26.6098 46.0834 26.8626 46.3167C27.1154 46.5501 27.3973 46.6667 27.7084 46.6667ZM27.6501 51.3334C26.2112 51.3334 24.9376 50.857 23.8292 49.9042C22.7209 48.9515 22.0695 47.7556 21.8751 46.3167C20.5529 46.1223 19.4445 45.5779 18.5501 44.6834C17.6556 43.789 17.1112 42.6806 16.9167 41.3584C15.5945 41.164 14.4959 40.6098 13.6209 39.6959C12.7459 38.782 12.2112 37.6834 12.0167 36.4001C10.539 36.2056 9.33341 35.564 8.40008 34.4751C7.46674 33.3862 7.00008 32.1029 7.00008 30.6251C7.00008 29.8473 7.14591 29.0987 7.43758 28.3792C7.72924 27.6598 8.1473 27.0279 8.69174 26.4834L18.9001 16.2751C19.7945 15.3806 20.8931 14.9334 22.1959 14.9334C23.4987 14.9334 24.5973 15.3806 25.4917 16.2751L29.8667 20.6501C29.9445 20.7667 30.0612 20.8542 30.2167 20.9126C30.3723 20.9709 30.5279 21.0001 30.6834 21.0001C31.0334 21.0001 31.3251 20.8931 31.5584 20.6792C31.7917 20.4654 31.9084 20.1834 31.9084 19.8334C31.9084 19.6779 31.8792 19.5223 31.8209 19.3667C31.7626 19.2112 31.6751 19.0945 31.5584 19.0167L23.2167 10.6751C22.789 10.2084 22.2931 9.86814 21.7292 9.65425C21.1654 9.44036 20.5723 9.33341 19.9501 9.33341C19.3667 9.33341 18.7834 9.44036 18.2001 9.65425C17.6167 9.86814 17.0917 10.2084 16.6251 10.6751L8.40008 18.9584C7.85563 19.5029 7.46674 20.1445 7.23341 20.8834C7.00008 21.6223 6.94174 22.3612 7.05841 23.1001C7.17508 23.7612 7.03897 24.3445 6.65008 24.8501C6.26119 25.3556 5.73619 25.6473 5.07508 25.7251C4.41397 25.8029 3.83063 25.657 3.32508 25.2876C2.81952 24.9181 2.52786 24.4029 2.45008 23.7417C2.21674 22.264 2.32369 20.8154 2.77091 19.3959C3.21813 17.9765 3.98619 16.7223 5.07508 15.6334L13.3001 7.40841C14.2334 6.51397 15.2737 5.83341 16.4209 5.36675C17.5681 4.90008 18.7445 4.66675 19.9501 4.66675C21.1556 4.66675 22.332 4.90008 23.4792 5.36675C24.6265 5.83341 25.6473 6.51397 26.5417 7.40841L27.1834 8.05008L27.8251 7.40841C28.7584 6.51397 29.7987 5.83341 30.9459 5.36675C32.0931 4.90008 33.2695 4.66675 34.4751 4.66675C35.6806 4.66675 36.857 4.90008 38.0042 5.36675C39.1515 5.83341 40.1723 6.51397 41.0667 7.40841L50.9251 17.2667C51.8195 18.1612 52.5001 19.1917 52.9667 20.3584C53.4334 21.5251 53.6667 22.7112 53.6667 23.9167C53.6667 25.1223 53.4334 26.2987 52.9667 27.4459C52.5001 28.5931 51.8195 29.614 50.9251 30.5084L31.7917 49.5834C31.2473 50.1279 30.6154 50.5556 29.8959 50.8667C29.1765 51.1779 28.4279 51.3334 27.6501 51.3334Z" fill="#E8EAED"/>
</svg>
