<svg width="48" height="48" viewBox="0 0 48 48" fill="none" xmlns="http://www.w3.org/2000/svg">
<g clip-path="url(#clip0_188_1187)">
<path fill-rule="evenodd" clip-rule="evenodd" d="M18.236 8.73325L43.8428 34.338C44.2377 34.7402 44.4589 35.2814 44.4589 35.8451C44.4589 36.4087 44.2377 36.9499 43.8428 37.3522L37.8187 43.3763C37.4192 43.7757 36.8775 44 36.3126 44C35.7478 44 35.2061 43.7757 34.8066 43.3763L9.19976 17.7716C8.80397 17.376 8.49 16.9062 8.27579 16.3892C8.06158 15.8722 7.95132 15.3181 7.95132 14.7585C7.95132 14.1988 8.06158 13.6447 8.27579 13.1277C8.49 12.6107 8.80397 12.141 9.19976 11.7453L12.2118 8.73325C13.0108 7.93456 14.0942 7.48588 15.2239 7.48588C16.3536 7.48588 17.437 7.93456 18.236 8.73325ZM10.857 24.2367C11.8028 24.2367 12.4717 24.8097 12.8807 25.5829L12.9936 25.8215C13.6167 27.2661 14.6405 28.5021 15.9439 29.3832L16.3912 29.6558C17.1538 30.0861 17.7119 30.7742 17.7119 31.6902C17.7119 32.4996 17.2795 33.1387 16.6469 33.569L16.4019 33.7224C15.0393 34.5052 13.9359 35.6701 13.2279 37.0731L13.0043 37.5418C12.6059 38.4407 11.9136 39.1479 10.857 39.1479C9.8942 39.1479 9.23597 38.5642 8.82485 37.7825L8.70982 37.5418C8.08822 36.1014 7.06464 34.8708 5.76166 33.9971L5.32284 33.7287C4.55811 33.2984 4 32.6083 4 31.6902C4 30.8743 4.44308 30.2416 5.07574 29.8092L5.32284 29.6558C6.67792 28.8765 7.77533 27.7176 8.47976 26.3221L8.72047 25.8194C9.11029 24.9311 9.81325 24.2367 10.857 24.2367ZM22.7562 19.2776L19.7441 22.2897L36.3126 38.8582L39.3247 35.8461L22.7562 19.2776ZM37.3373 15.5072C37.8442 14.4826 39.0414 14.4144 39.6421 15.3006L39.7614 15.5051C40.2215 16.4317 40.9841 17.2177 41.9832 17.7205C43.0355 18.2445 43.0504 19.5737 41.9917 20.0977C41.1537 20.5143 40.4495 21.1579 39.9595 21.9553L39.7678 22.3046C39.2565 23.3399 38.0551 23.408 37.4565 22.5219L37.3373 22.3174C36.9325 21.5079 36.2999 20.8028 35.4797 20.3044L35.1176 20.1041C34.125 19.6099 34.0589 18.4213 34.911 17.8398L35.107 17.7247C35.9889 17.2817 36.6812 16.6256 37.1455 15.8544L37.3373 15.5072ZM15.226 11.7432L12.2097 14.7574L16.7278 19.2776L19.742 16.2634L15.2239 11.7453L15.226 11.7432ZM28.9635 4C29.5898 4 30.0499 4.35574 30.3567 4.84994L30.4845 5.08426C30.9915 6.10035 31.8009 6.98864 32.849 7.61278L33.2665 7.84071C33.8523 8.13254 34.289 8.63526 34.289 9.32544C34.289 9.92828 33.9545 10.3905 33.4795 10.6888L33.2558 10.8166C32.1481 11.3704 31.2705 12.2097 30.689 13.1917L30.476 13.5815C30.1777 14.1865 29.6793 14.6509 28.9635 14.6509C28.3373 14.6509 27.8771 14.2951 27.5704 13.8009L27.4426 13.5666C26.9133 12.5144 26.0925 11.6367 25.0781 11.0381L24.6606 10.8102C24.0748 10.5183 23.6381 10.0135 23.6381 9.32331C23.6381 8.7226 23.9725 8.26035 24.4476 7.96L24.6712 7.83645C25.7789 7.27834 26.6566 6.44331 27.2381 5.45917L27.4511 5.06935C27.7493 4.46438 28.2478 4 28.9635 4Z" fill="#2A71FA"/>
</g>
<defs>
<clipPath id="clip0_188_1187">
<rect width="48" height="48" fill="white"/>
</clipPath>
</defs>
</svg>
