<svg width="46" height="46" viewBox="0 0 46 46" fill="none" xmlns="http://www.w3.org/2000/svg">
<g clip-path="url(#clip0_128_749)">
<path d="M22.8906 45.9083C35.317 45.9083 45.3906 35.8347 45.3906 23.4083C45.3906 10.9819 35.317 0.908325 22.8906 0.908325C10.4642 0.908325 0.390625 10.9819 0.390625 23.4083C0.390625 35.8347 10.4642 45.9083 22.8906 45.9083Z" fill="#2350F1"/>
<path d="M19.0248 35.0042C19.0248 35.7128 19.6046 36.2926 20.3133 36.2926H25.467C26.1756 36.2926 26.7554 35.7128 26.7554 35.0042V33.7158H19.0248V35.0042ZM22.8901 10.5239C17.9168 10.5239 13.8711 14.5696 13.8711 19.543C13.8711 22.6094 15.4043 25.3023 17.7364 26.9386V29.8504C17.7364 30.5591 18.3162 31.1389 19.0248 31.1389H26.7554C27.4641 31.1389 28.0439 30.5591 28.0439 29.8504V26.9386C30.3759 25.3023 31.9092 22.6094 31.9092 19.543C31.9092 14.5696 27.8635 10.5239 22.8901 10.5239ZM26.5622 24.8256L25.467 25.5986V28.562H20.3133V25.5986L19.2181 24.8256C18.3645 24.2338 17.6667 23.4443 17.1844 22.5244C16.702 21.6045 16.4493 20.5816 16.448 19.543C16.448 15.9869 19.3341 13.1008 22.8901 13.1008C26.4462 13.1008 29.3323 15.9869 29.3323 19.543C29.3323 21.6431 28.3016 23.6144 26.5622 24.8256Z" fill="white"/>
</g>
<defs>
<clipPath id="clip0_128_749">
<rect width="45" height="45" fill="white" transform="translate(0.390625 0.908325)"/>
</clipPath>
</defs>
</svg>
