<svg width="48" height="48" viewBox="0 0 48 48" fill="none" xmlns="http://www.w3.org/2000/svg">
<path d="M24 42C21.5 42 19.1583 41.525 16.975 40.575C14.7917 39.625 12.8917 38.3417 11.275 36.725C9.65833 35.1083 8.375 33.2083 7.425 31.025C6.475 28.8417 6 26.5 6 24C6 21.5 6.475 19.1583 7.425 16.975C8.375 14.7917 9.65833 12.8917 11.275 11.275C12.8917 9.65833 14.7917 8.375 16.975 7.425C19.1583 6.475 21.5 6 24 6C26.7333 6 29.325 6.58333 31.775 7.75C34.225 8.91667 36.3 10.5667 38 12.7V10C38 9.43333 38.1917 8.95833 38.575 8.575C38.9583 8.19167 39.4333 8 40 8C40.5667 8 41.0417 8.19167 41.425 8.575C41.8083 8.95833 42 9.43333 42 10V18C42 18.5667 41.8083 19.0417 41.425 19.425C41.0417 19.8083 40.5667 20 40 20H32C31.4333 20 30.9583 19.8083 30.575 19.425C30.1917 19.0417 30 18.5667 30 18C30 17.4333 30.1917 16.9583 30.575 16.575C30.9583 16.1917 31.4333 16 32 16H35.5C34.1333 14.1333 32.45 12.6667 30.45 11.6C28.45 10.5333 26.3 10 24 10C20.1 10 16.7917 11.3583 14.075 14.075C11.3583 16.7917 10 20.1 10 24C10 27.9 11.3583 31.2083 14.075 33.925C16.7917 36.6417 20.1 38 24 38C27.1667 38 30 37.05 32.5 35.15C35 33.25 36.65 30.8 37.45 27.8C37.6167 27.2667 37.9167 26.8667 38.35 26.6C38.7833 26.3333 39.2667 26.2333 39.8 26.3C40.3667 26.3667 40.8167 26.6083 41.15 27.025C41.4833 27.4417 41.5833 27.9 41.45 28.4C40.4833 32.3667 38.3833 35.625 35.15 38.175C31.9167 40.725 28.2 42 24 42ZM26 23.2L31 28.2C31.3667 28.5667 31.55 29.0333 31.55 29.6C31.55 30.1667 31.3667 30.6333 31 31C30.6333 31.3667 30.1667 31.55 29.6 31.55C29.0333 31.55 28.5667 31.3667 28.2 31L22.6 25.4C22.4 25.2 22.25 24.975 22.15 24.725C22.05 24.475 22 24.2167 22 23.95V16C22 15.4333 22.1917 14.9583 22.575 14.575C22.9583 14.1917 23.4333 14 24 14C24.5667 14 25.0417 14.1917 25.425 14.575C25.8083 14.9583 26 15.4333 26 16V23.2Z" fill="#2A71FA"/>
</svg>
