<svg width="48" height="48" viewBox="0 0 48 48" fill="none" xmlns="http://www.w3.org/2000/svg">
<g clip-path="url(#clip0_188_1191)">
<path d="M36.6664 17.9999C38.3344 17.9998 39.9669 18.481 41.3682 19.3859C42.7694 20.2907 43.8798 21.5806 44.566 23.1009C45.2523 24.6211 45.4852 26.3071 45.2369 27.9565C44.9887 29.6059 44.2697 31.1486 43.1664 32.3995V41.4821C43.1664 41.8884 43.0626 42.2879 42.8648 42.6428C42.667 42.9977 42.3817 43.2961 42.0361 43.5097C41.6905 43.7234 41.296 43.8451 40.8901 43.8633C40.4843 43.8816 40.0804 43.7958 39.7171 43.6141L36.6664 42.0887L33.6158 43.6141C33.2524 43.7958 32.8486 43.8816 32.4427 43.8633C32.0368 43.8451 31.6423 43.7234 31.2967 43.5097C30.9511 43.2961 30.6658 42.9977 30.468 42.6428C30.2702 42.2879 30.1664 41.8884 30.1665 41.4821V32.3995C29.0631 31.1486 28.3441 29.6059 28.0959 27.9565C27.8476 26.3071 28.0806 24.6211 28.7668 23.1009C29.4531 21.5806 30.5634 20.2907 31.9647 19.3859C33.3659 18.481 34.9984 17.9998 36.6664 17.9999ZM40.9997 5C42.149 5 43.2512 5.45654 44.0638 6.26919C44.8765 7.08185 45.333 8.18404 45.333 9.3333V13.6666C45.333 14.2412 45.1047 14.7923 44.6984 15.1987C44.2921 15.605 43.741 15.8333 43.1664 15.8333C42.5917 15.8333 42.0406 15.605 41.6343 15.1987C41.228 14.7923 40.9997 14.2412 40.9997 13.6666V9.3333H6.3333V35.3331H23.6665C24.2411 35.3331 24.7922 35.5614 25.1986 35.9677C25.6049 36.374 25.8332 36.9251 25.8332 37.4998C25.8332 38.0744 25.6049 38.6255 25.1986 39.0318C24.7922 39.4381 24.2411 39.6664 23.6665 39.6664H6.3333C5.18404 39.6664 4.08185 39.2099 3.26919 38.3972C2.45654 37.5846 2 36.4824 2 35.3331V9.3333C2 8.18404 2.45654 7.08185 3.26919 6.26919C4.08185 5.45654 5.18404 5 6.3333 5H40.9997ZM38.8331 35.0601C37.4118 35.4261 35.921 35.4261 34.4998 35.0601V38.3274L35.6979 37.7294C35.9986 37.5792 36.3302 37.5009 36.6664 37.5009C37.0026 37.5009 37.3342 37.5792 37.6349 37.7294L38.8331 38.3274V35.0601ZM36.6664 22.3332C35.5172 22.3332 34.415 22.7898 33.6023 23.6024C32.7897 24.4151 32.3331 25.5173 32.3331 26.6665C32.3331 27.8158 32.7897 28.918 33.6023 29.7306C34.415 30.5433 35.5172 30.9998 36.6664 30.9998C37.8157 30.9998 38.9179 30.5433 39.7305 29.7306C40.5432 28.918 40.9997 27.8158 40.9997 26.6665C40.9997 25.5173 40.5432 24.4151 39.7305 23.6024C38.9179 22.7898 37.8157 22.3332 36.6664 22.3332ZM17.1666 24.4999C17.7188 24.5005 18.25 24.7119 18.6515 25.091C19.0531 25.4701 19.2947 25.9882 19.3271 26.5395C19.3594 27.0908 19.1801 27.6337 18.8256 28.0571C18.4712 28.4806 17.9684 28.7528 17.4201 28.818L17.1666 28.8332H12.8333C12.281 28.8326 11.7499 28.6211 11.3483 28.242C10.9467 27.8629 10.7051 27.3448 10.6727 26.7935C10.6404 26.2422 10.8197 25.6994 11.1742 25.2759C11.5286 24.8524 12.0314 24.5803 12.5798 24.515L12.8333 24.4999H17.1666ZM25.8332 15.8333C26.4078 15.8333 26.9589 16.0615 27.3652 16.4679C27.7715 16.8742 27.9998 17.4253 27.9998 17.9999C27.9998 18.5745 27.7715 19.1256 27.3652 19.532C26.9589 19.9383 26.4078 20.1666 25.8332 20.1666H12.8333C12.2586 20.1666 11.7075 19.9383 11.3012 19.532C10.8949 19.1256 10.6666 18.5745 10.6666 17.9999C10.6666 17.4253 10.8949 16.8742 11.3012 16.4679C11.7075 16.0615 12.2586 15.8333 12.8333 15.8333H25.8332Z" fill="#2A71FA"/>
</g>
<defs>
<clipPath id="clip0_188_1191">
<rect width="48" height="48" fill="white"/>
</clipPath>
</defs>
</svg>
