<svg width="56" height="56" viewBox="0 0 56 56" fill="none" xmlns="http://www.w3.org/2000/svg">
<path d="M27.9993 51.3334C24.7716 51.3334 21.7382 50.7209 18.8993 49.4959C16.0605 48.2709 13.591 46.6084 11.491 44.5084C9.39102 42.4084 7.72852 39.939 6.50352 37.1001C5.27852 34.2612 4.66602 31.2279 4.66602 28.0001C4.66602 24.7723 5.27852 21.739 6.50352 18.9001C7.72852 16.0612 9.39102 13.5917 11.491 11.4917C13.591 9.39175 16.0605 7.72925 18.8993 6.50425C21.7382 5.27925 24.7716 4.66675 27.9993 4.66675C31.2271 4.66675 34.2605 5.27925 37.0993 6.50425C39.9382 7.72925 42.4077 9.39175 44.5077 11.4917C46.6077 13.5917 48.2702 16.0612 49.4952 18.9001C50.7202 21.739 51.3327 24.7723 51.3327 28.0001C51.3327 31.2279 50.7202 34.2612 49.4952 37.1001C48.2702 39.939 46.6077 42.4084 44.5077 44.5084C42.4077 46.6084 39.9382 48.2709 37.0993 49.4959C34.2605 50.7209 31.2271 51.3334 27.9993 51.3334ZM25.666 46.5501V42.0001C24.3827 42.0001 23.2841 41.5431 22.3702 40.6292C21.4563 39.7154 20.9993 38.6167 20.9993 37.3334V35.0001L9.79935 23.8001C9.68268 24.5001 9.57574 25.2001 9.47852 25.9001C9.38129 26.6001 9.33268 27.3001 9.33268 28.0001C9.33268 32.7056 10.8785 36.8279 13.9702 40.3667C17.0618 43.9056 20.9605 45.9667 25.666 46.5501ZM41.766 40.6001C42.5438 39.7445 43.2438 38.8209 43.866 37.8292C44.4882 36.8376 45.0035 35.807 45.4118 34.7376C45.8202 33.6681 46.1313 32.5695 46.3452 31.4417C46.5591 30.314 46.666 29.1667 46.666 28.0001C46.666 24.189 45.6063 20.7084 43.4869 17.5584C41.3674 14.4084 38.5382 12.1334 34.9993 10.7334V11.6667C34.9993 12.9501 34.5424 14.0487 33.6285 14.9626C32.7146 15.8765 31.616 16.3334 30.3327 16.3334H25.666V21.0001C25.666 21.6612 25.4424 22.2154 24.9952 22.6626C24.548 23.1098 23.9938 23.3334 23.3327 23.3334H18.666V28.0001H32.666C33.3271 28.0001 33.8813 28.2237 34.3285 28.6709C34.7757 29.1181 34.9993 29.6723 34.9993 30.3334V37.3334H37.3327C38.3438 37.3334 39.2577 37.6348 40.0743 38.2376C40.891 38.8404 41.4549 39.6279 41.766 40.6001Z" fill="#E8EAED"/>
</svg>
