<svg width="56" height="56" viewBox="0 0 56 56" fill="none" xmlns="http://www.w3.org/2000/svg">
<path d="M7.00065 51.3333C5.71732 51.3333 4.61871 50.8764 3.70482 49.9625C2.79093 49.0486 2.33398 47.95 2.33398 46.6666V18.6666C2.33398 18.0055 2.5576 17.4514 3.00482 17.0041C3.45204 16.5569 4.00621 16.3333 4.66732 16.3333C5.32843 16.3333 5.8826 16.5569 6.32982 17.0041C6.77704 17.4514 7.00065 18.0055 7.00065 18.6666V46.6666H39.6673C40.3284 46.6666 40.8826 46.8903 41.3298 47.3375C41.777 47.7847 42.0007 48.3389 42.0007 49C42.0007 49.6611 41.777 50.2152 41.3298 50.6625C40.8826 51.1097 40.3284 51.3333 39.6673 51.3333H7.00065ZM49.0007 37.3333V22.2833L35.0007 30.45C34.2618 30.8778 33.484 31.0916 32.6673 31.0916C31.8507 31.0916 31.0729 30.8778 30.334 30.45L16.334 22.2833V37.3333H49.0007ZM16.334 42C15.0507 42 13.952 41.543 13.0382 40.6291C12.1243 39.7152 11.6673 38.6166 11.6673 37.3333V17.5C11.6673 16.6833 11.852 15.9055 12.2215 15.1666C12.5909 14.4277 13.1451 13.8444 13.884 13.4166L29.109 4.4333C29.6534 4.12219 30.2465 4.04441 30.8882 4.19997C31.5298 4.35553 32.0062 4.70553 32.3173 5.24997C32.6673 5.79441 32.7548 6.39719 32.5798 7.0583C32.4048 7.71941 32.0451 8.20553 31.5007 8.51664L16.8007 17.15L32.6673 26.4833L48.4173 17.15C49.0007 16.8 49.5937 16.6347 50.1965 16.6541C50.7993 16.6736 51.3729 16.8389 51.9173 17.15C52.4618 17.4611 52.8895 17.8791 53.2007 18.4041C53.5118 18.9291 53.6673 19.5222 53.6673 20.1833V37.3333C53.6673 38.6166 53.2104 39.7152 52.2965 40.6291C51.3826 41.543 50.284 42 49.0007 42H16.334ZM32.6673 16.8L39.3173 10.15C39.7451 9.72219 40.2895 9.5083 40.9507 9.5083C41.6118 9.5083 42.1562 9.72219 42.584 10.15C43.0118 10.5777 43.2257 11.1222 43.2257 11.7833C43.2257 12.4444 43.0118 12.9889 42.584 13.4166L34.3007 21.7C33.834 22.1666 33.2895 22.4 32.6673 22.4C32.0451 22.4 31.5007 22.1666 31.034 21.7L27.7673 18.4333C27.3395 18.0055 27.1257 17.4611 27.1257 16.8C27.1257 16.1389 27.3395 15.5944 27.7673 15.1666C28.1951 14.7389 28.7395 14.525 29.4007 14.525C30.0618 14.525 30.6062 14.7389 31.034 15.1666L32.6673 16.8Z" fill="#E8EAED"/>
</svg>
