<svg width="56" height="57" viewBox="0 0 56 57" fill="none" xmlns="http://www.w3.org/2000/svg">
<path d="M28 48.8028C27.3972 48.8028 26.8819 48.5889 26.4542 48.1611C26.0264 47.7334 25.8125 47.2181 25.8125 46.6153C25.8125 46.0125 26.0264 45.4973 26.4542 45.0695C26.8819 44.6417 27.3972 44.4278 28 44.4278H44.0708V28.1528C44.0708 23.7 42.5056 19.9132 39.375 16.7924C36.2444 13.6716 32.4528 12.1111 28 12.1111C23.5278 12.1111 19.7264 13.6716 16.5958 16.7924C13.4653 19.9132 11.9 23.7 11.9 28.1528V39.7903C11.9 40.3931 11.6861 40.9084 11.2583 41.3361C10.8306 41.7639 10.3153 41.9778 9.7125 41.9778C8.4875 41.9778 7.4375 41.5403 6.5625 40.6653C5.6875 39.7903 5.25 38.7403 5.25 37.5153V32.9361C5.25 32.1389 5.45417 31.4 5.8625 30.7195C6.27083 30.0389 6.825 29.4848 7.525 29.057L7.7 26.0236C8.03056 23.457 8.79375 21.075 9.98958 18.8778C11.1854 16.6806 12.6826 14.7702 14.4812 13.1466C16.2799 11.523 18.341 10.2542 20.6646 9.34032C22.9882 8.42643 25.4333 7.96948 28 7.96948C30.5667 7.96948 33.0021 8.42643 35.3062 9.34032C37.6104 10.2542 39.6667 11.5132 41.475 13.1174C43.2833 14.7216 44.7806 16.6174 45.9667 18.8049C47.1528 20.9924 47.9208 23.3695 48.2708 25.9361L48.4458 28.9695C49.1458 29.3 49.7049 29.7959 50.1229 30.457C50.541 31.1181 50.75 31.8375 50.75 32.6153V37.8361C50.75 38.6139 50.541 39.3334 50.1229 39.9945C49.7049 40.6556 49.1458 41.1514 48.4458 41.482V44.4278C48.4458 45.6334 48.0181 46.6639 47.1625 47.5195C46.3069 48.375 45.2764 48.8028 44.0708 48.8028H28ZM21.1458 32.8486C20.5431 32.8486 20.0278 32.6348 19.6 32.207C19.1722 31.7792 18.9583 31.2639 18.9583 30.6611C18.9583 30.0584 19.1722 29.5431 19.6 29.1153C20.0278 28.6875 20.5431 28.4736 21.1458 28.4736C21.7486 28.4736 22.2639 28.6875 22.6917 29.1153C23.1194 29.5431 23.3333 30.0584 23.3333 30.6611C23.3333 31.2639 23.1194 31.7792 22.6917 32.207C22.2639 32.6348 21.7486 32.8486 21.1458 32.8486ZM34.8542 32.8486C34.2514 32.8486 33.7361 32.6348 33.3083 32.207C32.8806 31.7792 32.6667 31.2639 32.6667 30.6611C32.6667 30.0584 32.8806 29.5431 33.3083 29.1153C33.7361 28.6875 34.2514 28.4736 34.8542 28.4736C35.4569 28.4736 35.9722 28.6875 36.4 29.1153C36.8278 29.5431 37.0417 30.0584 37.0417 30.6611C37.0417 31.2639 36.8278 31.7792 36.4 32.207C35.9722 32.6348 35.4569 32.8486 34.8542 32.8486ZM14.4375 29.2903C14.2625 25.3236 15.5069 21.916 18.1708 19.0674C20.8347 16.2188 24.1403 14.7945 28.0875 14.7945C31.4319 14.7945 34.3778 15.8542 36.925 17.9736C39.4722 20.0931 41.0278 22.7959 41.5917 26.082C38.1306 26.0236 34.9368 25.1 32.0104 23.3111C29.084 21.5223 26.8528 19.0723 25.3167 15.9611C24.7139 18.975 23.4549 21.6535 21.5396 23.9966C19.6243 26.3396 17.2569 28.1042 14.4375 29.2903Z" fill="white"/>
</svg>
