<svg width="133" height="42" viewBox="0 0 133 42" fill="none" xmlns="http://www.w3.org/2000/svg">
<g clip-path="url(#clip0_362_28569)">
<path d="M16.628 14.7716V19.1935H27.2993C27.016 21.6397 26.1661 23.5213 24.844 24.7444C23.333 26.2497 20.8776 27.9432 16.628 27.9432C10.1119 27.9432 5.01227 22.6746 5.01227 16.1828C5.01227 9.69107 10.0174 4.4224 16.628 4.4224C20.1222 4.4224 22.7664 5.83365 24.6551 7.62124L27.7715 4.51649C25.1273 1.97624 21.5387 0.000488281 16.628 0.000488281C7.6565 0.000488281 0.101562 7.2449 0.101562 16.1828C0.101562 25.1207 7.6565 32.3652 16.628 32.3652C21.4443 32.3652 25.1273 30.7657 27.9604 27.8492C30.8879 24.9326 31.8323 20.7929 31.8323 17.5C31.8323 16.4651 31.7379 15.5242 31.6434 14.7716H16.628Z" fill="#778092"/>
<path d="M45.0535 11.1025C39.2928 11.1025 34.4766 15.5245 34.4766 21.5458C34.4766 27.5671 39.1984 31.989 45.0535 31.989C50.9086 31.989 55.6304 27.6612 55.6304 21.6399C55.6304 15.5245 50.9086 11.1025 45.0535 11.1025ZM45.0535 27.9435C41.8426 27.9435 39.104 25.3091 39.104 21.6399C39.104 17.8765 41.8426 15.3363 45.0535 15.3363C48.2643 15.3363 51.003 17.8765 51.003 21.6399C51.003 25.3091 48.2643 27.9435 45.0535 27.9435Z" fill="#778092"/>
<path d="M96.7071 13.4546H96.5182C95.4794 12.2315 93.4962 11.1025 90.9464 11.1025C85.658 11.1025 81.125 15.6185 81.125 21.5458C81.125 27.379 85.658 31.989 90.9464 31.989C93.4962 31.989 95.4794 30.86 96.5182 29.637H96.7071V31.1423C96.7071 35.0938 94.535 37.2577 91.1353 37.2577C88.3022 37.2577 86.6023 35.282 85.8468 33.4944L81.8805 35.1879C83.0137 37.9163 86.1301 41.3974 91.2297 41.3974C96.6126 41.3974 101.24 38.1985 101.24 30.4837V11.667H96.8959V13.4546H96.7071ZM91.4186 27.9435C88.2078 27.9435 85.8468 25.215 85.8468 21.6399C85.8468 17.9706 88.3022 15.3363 91.4186 15.3363C94.535 15.3363 96.9904 18.0647 96.9904 21.734C97.0848 25.3091 94.6294 27.9435 91.4186 27.9435Z" fill="#778092"/>
<path d="M68.5691 11.1025C62.8085 11.1025 57.9922 15.5245 57.9922 21.5458C57.9922 27.5671 62.714 31.989 68.5691 31.989C74.4242 31.989 79.146 27.6612 79.146 21.6399C79.146 15.5245 74.4242 11.1025 68.5691 11.1025ZM68.5691 27.9435C65.3583 27.9435 62.6196 25.3091 62.6196 21.6399C62.6196 17.8765 65.3583 15.3363 68.5691 15.3363C71.78 15.3363 74.5186 17.8765 74.5186 21.6399C74.5186 25.3091 71.78 27.9435 68.5691 27.9435Z" fill="#778092"/>
<path d="M104.738 0.471191H109.271V32.0832H104.738V0.471191Z" fill="#778092"/>
<path d="M123.247 27.9435C120.886 27.9435 119.281 26.9085 118.148 24.7446L132.219 19.0055L131.747 17.7825C130.897 15.4304 128.158 11.1025 122.775 11.1025C117.392 11.1025 112.859 15.3363 112.859 21.5458C112.859 27.379 117.298 31.989 123.247 31.989C128.064 31.989 130.802 29.0725 132.03 27.379L128.441 25.0269C127.214 26.8145 125.608 27.9435 123.247 27.9435ZM122.964 15.054C124.853 15.054 126.458 15.9949 126.93 17.312L117.487 21.2635C117.392 16.9357 120.603 15.054 122.964 15.054Z" fill="#778092"/>
</g>
<defs>
<clipPath id="clip0_362_28569">
<rect width="132.117" height="41.3967" fill="white" transform="translate(0.09375)"/>
</clipPath>
</defs>
</svg>
