<svg width="46" height="46" viewBox="0 0 46 46" fill="none" xmlns="http://www.w3.org/2000/svg">
<path d="M22.8906 45.9083C35.317 45.9083 45.3906 35.8347 45.3906 23.4083C45.3906 10.9819 35.317 0.908325 22.8906 0.908325C10.4642 0.908325 0.390625 10.9819 0.390625 23.4083C0.390625 35.8347 10.4642 45.9083 22.8906 45.9083Z" fill="#2350F1"/>
<path d="M26.8587 30.848H18.7187C18.6193 30.4975 18.4748 30.1613 18.2887 29.848L28.8587 19.278C29.4607 19.6474 30.1524 19.8446 30.8587 19.848C31.6074 19.8505 32.3417 19.6427 32.9782 19.2484C33.6146 18.8542 34.1276 18.2892 34.4589 17.6178C34.7901 16.9463 34.9263 16.1954 34.8519 15.4505C34.7774 14.7055 34.4954 13.9963 34.0379 13.4037C33.5804 12.8111 32.9658 12.3587 32.2639 12.0982C31.562 11.8376 30.8011 11.7792 30.0677 11.9297C29.3343 12.0802 28.6578 12.4335 28.1153 12.9494C27.5727 13.4653 27.1859 14.1231 26.9987 14.848H18.7187C18.4753 13.9054 17.8965 13.0838 17.0907 12.5374C16.2849 11.991 15.3075 11.7572 14.3417 11.8799C13.3759 12.0026 12.488 12.4733 11.8444 13.2038C11.2008 13.9343 10.8457 14.8745 10.8457 15.848C10.8457 16.8216 11.2008 17.7618 11.8444 18.4923C12.488 19.2228 13.3759 19.6935 14.3417 19.8162C15.3075 19.9388 16.2849 19.705 17.0907 19.1586C17.8965 18.6122 18.4753 17.7907 18.7187 16.848H26.9987C27.098 17.1986 27.2426 17.5348 27.4287 17.848L16.8587 28.418C16.2567 28.0486 15.5649 27.8515 14.8587 27.848C14.11 27.8456 13.3757 28.0533 12.7392 28.4476C12.1028 28.8419 11.5897 29.4069 11.2585 30.0783C10.9273 30.7497 10.7911 31.5006 10.8655 32.2456C10.9399 32.9906 11.2219 33.6997 11.6795 34.2924C12.137 34.885 12.7516 35.3373 13.4535 35.5979C14.1554 35.8585 14.9163 35.9169 15.6497 35.7664C16.3831 35.6159 17.0595 35.2626 17.6021 34.7467C18.1446 34.2308 18.5315 33.5729 18.7187 32.848H26.8587V35.848H34.8587V27.848H26.8587V30.848ZM14.8587 17.848C14.4631 17.848 14.0764 17.7307 13.7475 17.511C13.4186 17.2912 13.1623 16.9789 13.0109 16.6134C12.8596 16.2479 12.8199 15.8458 12.8971 15.4579C12.9743 15.0699 13.1648 14.7135 13.4445 14.4338C13.7242 14.1541 14.0805 13.9636 14.4685 13.8865C14.8565 13.8093 15.2586 13.8489 15.6241 14.0003C15.9895 14.1516 16.3019 14.408 16.5216 14.7369C16.7414 15.0658 16.8587 15.4525 16.8587 15.848C16.8587 16.3785 16.648 16.8872 16.2729 17.2622C15.8978 17.6373 15.3891 17.848 14.8587 17.848ZM30.8587 13.848C31.2542 13.848 31.6409 13.9653 31.9698 14.1851C32.2987 14.4049 32.5551 14.7172 32.7064 15.0827C32.8578 15.4481 32.8974 15.8503 32.8203 16.2382C32.7431 16.6262 32.5526 16.9825 32.2729 17.2622C31.9932 17.542 31.6368 17.7324 31.2489 17.8096C30.8609 17.8868 30.4588 17.8472 30.0933 17.6958C29.7279 17.5444 29.4155 17.2881 29.1957 16.9592C28.976 16.6303 28.8587 16.2436 28.8587 15.848C28.8587 15.3176 29.0694 14.8089 29.4445 14.4338C29.8195 14.0587 30.3283 13.848 30.8587 13.848ZM14.8587 33.848C14.4631 33.848 14.0764 33.7307 13.7475 33.511C13.4186 33.2912 13.1623 32.9789 13.0109 32.6134C12.8596 32.2479 12.8199 31.8458 12.8971 31.4579C12.9743 31.0699 13.1648 30.7135 13.4445 30.4338C13.7242 30.1541 14.0805 29.9636 14.4685 29.8865C14.8565 29.8093 15.2586 29.8489 15.6241 30.0003C15.9895 30.1516 16.3019 30.408 16.5216 30.7369C16.7414 31.0658 16.8587 31.4525 16.8587 31.848C16.8587 32.3785 16.648 32.8872 16.2729 33.2622C15.8978 33.6373 15.3891 33.848 14.8587 33.848ZM28.8587 29.848H32.8587V33.848H28.8587V29.848Z" fill="white"/>
</svg>
