<svg width="111" height="36" viewBox="0 0 111 36" fill="none" xmlns="http://www.w3.org/2000/svg">
<g clip-path="url(#clip0_128_25)">
<g clip-path="url(#clip1_128_25)">
<path d="M47.3454 20.1862C47.3013 20.5066 47.2484 20.827 47.1823 21.1431C43.9741 24.0314 40.7878 27.0646 37.747 29.7994C35.6009 31.7439 33.5252 33.5481 31.5509 35.1766C31.1172 35.2187 30.6751 35.244 30.2291 35.2525L29.8939 35.2556H29.8454C32.3177 33.3637 34.9751 31.1777 37.747 28.7327C40.8407 26.0375 44.071 23.0394 47.3454 20.1862ZM47.3454 17.2695V18.0634C44.0881 20.8875 40.8481 23.8851 37.7641 26.5618C34.1083 29.772 30.6518 32.5397 27.5721 34.7695C27.0264 34.6914 26.4849 34.5873 25.9565 34.4572C30.0679 31.723 34.0056 28.7355 37.7468 25.5119C40.8481 22.9091 44.0708 20.0112 47.3454 17.2695ZM46.3732 23.5889C46.2099 24.0714 46.0295 24.5181 45.8319 24.9647C43.1128 27.6538 40.4238 30.4098 37.8465 32.9247C37.447 33.3267 37.0518 33.7153 36.6481 34.0905C36.0142 34.3562 35.3659 34.5829 34.7065 34.7695C35.7374 33.8315 36.7855 32.8517 37.8508 31.8303C40.6 29.244 43.4651 26.3718 46.3732 23.5889ZM47.2439 14.8389C47.2836 15.0722 47.3189 15.3141 47.3454 15.5517C44.0544 18.2125 40.7855 21.0418 37.6975 23.5644C33.8671 26.7677 29.8408 29.7393 25.6409 32.4626C24.9262 32.9334 24.2336 33.3653 23.5719 33.7973C23.0558 33.5899 22.5573 33.3912 22.0676 33.158C23.1749 32.4755 24.3748 31.7801 25.6453 30.9982C29.8535 28.4414 33.8801 25.6085 37.6975 22.519C40.7723 20.1088 43.9882 17.3961 47.2439 14.8389ZM47.1563 12.8945C47.2222 13.1271 47.2882 13.3421 47.3454 13.5659C44.2144 16.0671 41.1274 18.6867 38.1679 21.0256C34.3634 24.1304 30.359 26.9829 26.1804 29.5647C24.2148 30.7758 22.447 31.7807 20.9035 32.8251C20.4667 32.5501 20.0445 32.2575 19.637 31.9474C21.4488 30.6617 23.6607 29.5472 26.1629 28.0903C30.356 25.6657 34.3695 22.944 38.1723 19.9461C41.0702 17.7214 44.0781 15.2553 47.1563 12.8945ZM46.1057 10.9501C46.1963 11.1413 46.2869 11.3629 46.3732 11.5759C43.5431 13.7749 40.7518 16.0566 38.0727 18.0948C34.3461 21.0389 30.4176 23.714 26.3166 26.1001C23.2665 27.8776 20.6607 29.1422 18.6892 30.8806C18.4027 30.6303 18.1356 30.3688 17.8811 30.094L17.6926 29.8854L17.9299 29.6464C19.9662 27.695 22.8523 26.4955 26.3037 24.6137C30.4146 22.3964 34.3493 19.8624 38.0727 17.0344C40.6698 15.1265 43.3662 12.997 46.1057 10.9501ZM44.5605 9.00562C44.6786 9.20135 44.8011 9.40144 44.9148 9.60588C42.3909 11.4676 39.8932 13.3641 37.4787 15.104C33.6985 17.9058 29.711 20.4198 25.5502 22.6247C22.0508 24.4951 19.1245 25.6956 17.0642 27.666C16.6602 28.0554 16.2927 28.4805 15.9663 28.9362C15.6995 28.6317 15.4851 28.3185 15.262 27.9966C15.7262 27.1433 16.3411 26.38 17.0773 25.7435C19.1332 23.947 22.0552 22.9118 25.5546 21.1719C29.7154 19.1287 33.6993 16.7471 37.4655 14.0513C39.7489 12.4854 42.1416 10.7238 44.5605 9.00562ZM90.9627 14.0651C94.8477 14.0651 97.7352 16.6901 98.1289 20.6276H93.3514C93.2727 19.0788 92.3539 18.1076 90.9889 18.1076C89.4139 18.1076 88.4952 19.3151 88.4952 21.3888C88.4952 23.5151 89.3877 24.6963 90.9889 24.6963C92.3802 24.6963 93.2464 23.7513 93.3514 22.1501H98.1289C97.7352 26.1926 94.9789 28.7126 90.9627 28.7126C86.7627 28.7126 83.8489 25.6938 83.8489 21.3888C83.8489 17.1888 86.8939 14.0651 90.9627 14.0651ZM58.4652 22.8326C60.1452 22.8326 61.3002 24.0138 61.3002 25.7201C61.3002 27.4001 60.1452 28.5813 58.4652 28.5813C56.7852 28.5813 55.6039 27.4001 55.6039 25.7201C55.6039 24.0138 56.7852 22.8326 58.4652 22.8326ZM67.2327 14.3276V28.4501H62.7439V14.3276H67.2327ZM77.8377 14.0651C80.6202 14.0651 82.5889 15.9288 82.5889 19.3676V28.4501H78.1002V20.8638C78.1002 19.0788 77.4702 18.1076 76.1052 18.1076C75.0027 18.1076 74.0052 18.8951 74.0052 21.0213V28.4501H69.5164V14.3276H73.6377V16.0338C74.7402 14.8001 76.0527 14.0651 77.8377 14.0651ZM43.5092 6.57506C43.6537 6.76261 43.7981 6.95304 43.9426 7.14636C41.845 8.6352 39.7778 10.1327 37.7756 11.5004C34.0269 14.155 30.0703 16.5041 25.9442 18.5247C22.4815 20.2343 19.5735 21.2817 17.5452 23.0821C16.4912 24.0094 15.6879 25.1868 15.2093 26.5056C15.062 26.2589 14.9146 26.0079 14.7759 25.7482C15.1455 23.9417 16.1283 22.3181 17.5583 21.1518C19.5952 19.5245 22.4858 18.6329 25.9529 17.0662C30.0839 15.2206 34.0431 13.0134 37.7842 10.4703C39.6478 9.23247 41.5633 7.90376 43.5092 6.57506ZM40.3062 3.17228C40.5533 3.34456 40.7918 3.52567 41.0259 3.7112C40.072 4.33404 39.1224 4.94363 38.1902 5.5223C34.449 7.95796 30.4969 10.0398 26.3833 11.7419C22.9232 13.1731 20.0311 13.9329 17.9976 15.448C16.8945 16.261 16.0417 17.3573 15.4914 18.9305C15.9421 18.2938 16.4747 17.7707 17.0795 17.3301C19.16 15.8358 22.1038 15.0687 25.6451 13.6187C29.8539 11.8991 33.8925 9.78807 37.7079 7.3133C39.0713 6.46194 40.4745 5.5751 41.9132 4.63062C42.108 4.81242 42.2983 5.00309 42.4843 5.19376C40.8641 6.29344 39.2705 7.37981 37.7079 8.39081C33.885 10.9772 29.8478 13.2306 25.6407 15.1263C22.1038 16.7182 19.1467 17.6361 17.0662 19.3211C16.1443 20.0543 15.3948 20.9849 14.8468 22.2175C14.8077 22.6987 14.7846 23.208 14.7779 23.7476L14.7759 24.0527L14.7757 22.3817C14.4312 23.2 14.1723 24.1477 14.0069 25.2536L13.9675 25.5334L13.8037 25.2008C13.8706 23.026 14.2278 21.3669 14.8298 20.0757C15.0821 16.5746 16.2088 14.657 18.0062 13.4779C20.0398 12.1439 22.9189 11.5431 26.3877 10.2533C30.5019 8.71853 34.4556 6.76968 38.1902 4.43564C38.8869 4.03219 39.5922 3.61107 40.3062 3.17228ZM37.6202 1.71395C37.8417 1.82051 38.0593 1.93101 38.2745 2.04546L38.5954 2.2201L38.0732 2.53089C34.3518 4.84145 30.421 6.7745 26.3361 8.30279C22.897 9.58592 20.0231 10.2075 17.9993 11.5528C15.9755 12.8981 14.8061 15.2113 14.7759 19.7001C14.7759 18.852 14.7759 17.9996 14.7975 17.1515C14.8234 12.8715 15.9885 10.7536 18.0123 9.5726C20.0361 8.39159 22.897 7.94315 26.3491 6.80654C30.2656 5.51044 34.0425 3.80396 37.6202 1.71395ZM33.5922 0.741726C34.1361 0.856071 34.6666 0.996803 35.1926 1.15952C32.1607 2.71984 28.9952 4.01342 25.733 5.02525C22.1801 6.13791 19.2111 6.59529 17.1248 7.76952C15.0758 8.92278 13.8739 10.9881 13.8063 15.0988L13.8042 15.2774L13.8171 12.8183C13.8048 11.692 13.9381 10.5689 14.2138 9.47589C14.9067 8.23464 15.7461 7.07873 16.7147 6.03236C16.8521 5.95213 16.9934 5.87874 17.1382 5.81247C19.2245 4.80096 22.1711 4.5151 25.7374 3.54317C28.4308 2.82869 31.0584 1.89156 33.5922 0.741726ZM64.9489 8.47381C66.6552 8.47381 67.8364 9.55006 67.8364 11.0463C67.8364 12.5163 66.6552 13.5926 64.9489 13.5926C63.2427 13.5926 62.0614 12.5163 62.0614 11.0463C62.0614 9.55006 63.2427 8.47381 64.9489 8.47381ZM29.8454 0.255615C28.5366 0.77439 27.2848 1.1971 26.0986 1.52853C24.4572 2.02329 22.9384 2.35473 21.5815 2.68617C24.109 1.13435 26.9494 0.298946 29.8454 0.255615Z" fill="#A5A9B6"/>
</g>
</g>
<defs>
<clipPath id="clip0_128_25">
<rect width="110" height="35" fill="white" transform="translate(0.850586 0.255615)"/>
</clipPath>
<clipPath id="clip1_128_25">
<rect width="84.5833" height="35" fill="white" transform="translate(13.5586 0.255615)"/>
</clipPath>
</defs>
</svg>
