<svg width="268" height="27" viewBox="0 0 268 27" fill="none" xmlns="http://www.w3.org/2000/svg">
<path d="M315.679 0.698364C314.176 0.698364 312.914 1.18209 311.953 2.20999C310.931 3.2379 310.451 4.38674 310.451 5.6565C310.451 7.28906 311.172 9.16348 312.614 11.1588C310.21 12.7914 308.528 14.1821 307.686 15.21C306.845 16.2984 306.424 17.5681 306.424 19.1402C306.424 20.5309 306.785 21.7402 307.446 22.7681C308.107 23.796 309.008 24.6425 310.09 25.2472C311.172 25.8519 312.313 26.1542 313.515 26.1542C315.979 26.1542 318.323 24.8844 320.486 22.4658C322.349 24.9449 324.452 26.1542 326.916 26.1542C328.058 26.1542 329.019 25.7914 329.86 25.1867C330.702 24.5821 331.243 23.7356 331.543 22.7077H330.642C329.981 23.8565 329.079 24.4007 327.937 24.4007C327.096 24.4007 326.315 24.1588 325.534 23.6146C324.753 23.0705 323.731 21.8612 322.349 19.9263C322.89 19.2007 323.551 17.9914 324.212 16.4193C324.993 14.4844 325.774 13.1542 326.555 12.4891C327.337 11.7635 328.178 11.2798 329.199 11.0379V10.1309H321.207V11.0379C323.19 11.2798 324.152 12.0658 324.152 13.517C324.152 14.1216 323.911 14.9681 323.491 15.996C323.07 17.0844 322.529 18.1123 321.808 19.0798C319.825 16.2379 317.782 13.3356 315.558 10.3123C319.164 8.49836 320.907 6.62395 320.907 4.68906C320.907 3.47976 320.366 2.45185 319.284 1.66581C318.263 1.06115 317.001 0.698364 315.679 0.698364ZM349.751 0.819294C347.588 0.819294 345.545 1.30302 343.742 2.33092C341.939 3.35883 340.497 4.93092 339.475 7.0472C338.454 9.16348 337.973 11.4612 337.973 13.8193C337.973 17.5077 339.055 20.4705 341.278 22.6472C343.501 24.8844 346.386 25.9728 349.871 25.9728C353.176 25.9728 355.88 24.7635 357.984 22.3449C358.525 23.0705 358.945 23.9774 359.125 24.9449H359.967V16.4798H359.125C359.005 17.8705 358.524 19.3821 357.743 20.8937C356.962 22.4053 355.88 23.4937 354.558 24.0984C353.176 24.703 351.854 25.0053 350.592 25.0053C348.189 25.0053 346.145 24.0379 344.523 22.103C342.9 20.1681 342.119 17.3263 342.119 13.6984C342.119 9.8286 342.84 6.86581 344.343 4.74953C345.845 2.69371 347.828 1.66581 350.352 1.66581C352.395 1.66581 354.258 2.33092 355.941 3.60069C357.623 4.87046 358.645 7.16813 359.186 10.4332H360.027L359.786 1.18209H358.945C358.825 2.27046 358.524 3.35883 358.044 4.38674C357.323 3.47976 356.181 2.69371 354.739 1.90767C353.176 1.18209 351.554 0.819294 349.751 0.819294ZM207.212 0.87976C205.048 0.87976 203.005 1.36348 201.202 2.39139C199.4 3.41929 197.957 4.99139 196.936 7.10767C195.914 9.22395 195.434 11.5216 195.434 13.8798C195.434 17.5681 196.515 20.5309 198.739 22.7077C200.962 24.9449 203.786 26.0332 207.272 26.0332C210.577 26.0332 213.281 24.8844 215.384 22.4658C215.925 23.1914 216.346 24.0379 216.586 25.0658H217.427V16.5402H216.586C216.466 17.9309 215.985 19.4426 215.204 20.9542C214.423 22.4658 213.341 23.5542 212.019 24.1588C210.637 24.7635 209.315 25.1263 208.053 25.1263C205.649 25.1263 203.606 24.0984 201.984 22.1635C200.361 20.2286 199.58 17.4472 199.58 13.7588C199.58 9.88906 200.301 6.92627 201.803 4.87046C203.306 2.81464 205.289 1.72627 207.813 1.72627C209.856 1.72627 211.719 2.39139 213.401 3.66115C215.024 4.93092 216.105 7.2286 216.646 10.4937H217.488L217.247 1.30302H216.406C216.286 2.39139 215.985 3.41929 215.444 4.4472C214.723 3.54022 213.642 2.75418 212.199 1.96813C210.637 1.24255 209.014 0.87976 207.212 0.87976ZM30.6 0.940225C29.2179 0.940225 27.2949 1.00069 24.8912 1.06115L21.8265 1.18209V2.0286H22.2472C23.5091 2.0286 24.2903 2.14953 24.6509 2.39139C25.0114 2.63325 25.2518 2.99604 25.372 3.54022C25.4921 4.08441 25.5522 5.35418 25.5522 7.28906V19.2612C25.5522 21.317 25.4921 22.6472 25.372 23.1914C25.2518 23.7356 25.0114 24.1588 24.6509 24.4007C24.2302 24.6425 23.5091 24.7635 22.4875 24.7635H21.8265V25.61H33.0037V24.7635H32.1624C31.0807 24.7635 30.3596 24.6425 29.939 24.3402C29.5183 24.0379 29.278 23.6146 29.2179 23.01C29.0977 22.4053 29.0977 21.1356 29.0977 19.2612V14.1216H31.7418C34.506 14.1216 36.4891 13.8798 37.5707 13.3356C38.6524 12.7914 39.4937 12.0658 40.0946 11.0379C40.6955 10.01 40.996 8.80069 40.996 7.47046C40.996 5.95883 40.5754 4.68906 39.674 3.66115C38.8327 2.63325 37.6909 1.96813 36.3088 1.54488C34.9868 1.18209 33.0638 0.940225 30.6 0.940225ZM7.5846 1.24255V2.08906H8.12543C9.32728 2.08906 10.1085 2.20999 10.5291 2.45185C10.8897 2.69371 11.13 3.0565 11.2502 3.60069C11.3704 4.14488 11.3704 5.41464 11.3704 7.34953V15.6332C11.3704 18.3542 11.3103 20.2891 11.13 21.4984C10.9498 22.7077 10.3488 23.6751 9.44746 24.5821C8.54607 25.4286 7.40432 25.9123 6.02219 25.9123C5.36117 25.9123 4.82034 25.7914 4.3396 25.5495C3.91896 25.3077 3.67859 25.0053 3.67859 24.6425C3.67859 24.5216 3.73868 24.2798 3.85886 23.9774C3.97905 23.6751 4.09923 23.3728 4.09923 23.0705C4.09923 22.5867 3.91896 22.1635 3.5584 21.8007C3.25794 21.4379 2.7772 21.2565 2.23637 21.2565C1.69554 21.2565 1.27489 21.4379 0.914333 21.8612C0.613871 22.2239 0.433594 22.7077 0.433594 23.2519C0.433594 24.2193 0.914333 25.0053 1.9359 25.6705C2.89738 26.3356 4.27951 26.6984 6.14238 26.6984C7.76487 26.6984 9.20709 26.4565 10.469 25.8519C11.6709 25.3077 12.6925 24.5216 13.4136 23.4937C14.1347 22.4658 14.6154 21.3774 14.7356 20.2891C14.9159 19.2007 14.976 17.6286 14.976 15.5728V7.28906C14.976 5.23325 15.0361 3.96348 15.1562 3.41929C15.2764 2.87511 15.5168 2.51232 15.8774 2.27046C16.2379 2.08906 17.0191 1.96813 18.221 1.96813H18.8219V1.24255H7.5846ZM44.3011 1.24255V2.08906H44.9621C46.224 2.08906 46.9451 2.20999 47.3658 2.45185C47.7263 2.69371 47.9667 3.0565 48.0869 3.60069C48.2071 4.14488 48.2071 5.41464 48.2071 7.34953V17.9309C48.2071 19.9263 48.147 21.317 48.0268 22.103C47.9066 22.8286 47.486 23.4937 46.825 24.0379C46.1639 24.5216 45.3227 24.8239 44.3011 24.8844V25.7309H53.0145V24.8844C51.8727 24.8239 51.0314 24.5216 50.4305 23.9774C49.8296 23.4332 49.4089 22.8286 49.2888 22.103C49.1686 21.3774 49.1085 20.0472 49.1085 18.1123V3.78209L58.7834 25.61H59.6247L69.1794 3.78209V19.3216C69.1794 21.3774 69.1193 22.6472 69.0592 23.1914C68.939 23.7356 68.6986 24.1588 68.278 24.4007C67.8573 24.6425 67.1362 24.7635 66.1146 24.7635H65.2733V25.61H76.9313V24.7635H75.8496C74.768 24.7635 73.9868 24.6425 73.6262 24.3402C73.2656 24.0379 72.9652 23.6146 72.9051 23.01C72.7849 22.4053 72.7849 21.1356 72.7849 19.2007V7.28906C72.7849 5.23325 72.845 3.96348 72.9652 3.41929C73.0854 2.87511 73.3257 2.51232 73.6863 2.27046C74.0468 2.08906 74.8881 1.96813 76.09 1.96813H76.9914V1.24255H69.4798L60.7063 21.4379L51.6925 1.24255H44.3011ZM315.739 1.60534C316.64 1.60534 317.361 1.90767 317.902 2.51232C318.443 3.11697 318.743 3.90302 318.743 4.93092C318.743 6.62395 317.481 8.19604 315.018 9.6472C313.515 7.53092 312.734 5.8379 312.734 4.6286C312.734 3.72162 313.034 2.99604 313.575 2.45185C314.116 1.90767 314.837 1.60534 315.739 1.60534ZM30.9606 1.8472C33.184 1.8472 34.7464 2.33092 35.768 3.2379C36.7294 4.20534 37.2703 5.6565 37.2703 7.71232C37.2703 9.04255 36.9698 10.1914 36.429 11.0984C35.828 12.0053 35.1069 12.5495 34.2656 12.8519C33.4243 13.1542 32.2826 13.2751 30.9005 13.2751H29.1578V1.90767C29.5183 1.8472 30.1193 1.8472 30.9606 1.8472ZM271.03 6.44255C269.588 6.44255 268.446 6.86581 267.545 7.77278C266.643 8.67976 266.162 9.76813 266.162 11.1588C266.162 12.0658 266.403 12.8519 266.823 13.6379C267.244 14.4239 267.785 15.0891 268.566 15.5728C269.347 16.0565 270.489 16.6007 271.991 17.2658C273.674 17.9914 274.816 18.6565 275.417 19.2612C276.078 19.9263 276.318 20.6519 276.318 21.6193C276.318 22.5263 275.957 23.4332 275.236 24.1588C274.515 24.8844 273.494 25.3077 272.172 25.3077C269.227 25.3077 267.424 23.3123 266.643 19.3821H265.922V25.4286H266.643C266.763 24.6426 267.004 24.0379 267.304 23.6146C268.686 25.1867 270.369 25.9728 272.412 25.9728C274.215 25.9728 275.597 25.4891 276.679 24.4612C277.76 23.4332 278.301 22.1635 278.301 20.5309C278.301 19.503 278.061 18.596 277.64 17.8705C277.219 17.0844 276.618 16.5402 275.897 16.0565C275.176 15.6332 273.974 15.0286 272.352 14.303C270.669 13.517 269.528 12.8519 268.927 12.2472C268.266 11.6426 267.905 10.917 267.905 10.0705C267.905 9.34488 268.145 8.67976 268.686 8.07511C269.227 7.47046 270.008 7.16813 271.15 7.16813C272.352 7.16813 273.374 7.59139 274.275 8.37743C275.176 9.16348 275.777 10.3123 276.138 11.703H276.739V6.80534H276.138C276.078 7.40999 275.837 7.95418 275.417 8.4379C274.696 7.65185 273.974 7.10767 273.253 6.80534C272.592 6.56348 271.811 6.44255 271.03 6.44255ZM88.2887 6.50302C85.4043 6.50302 83.0607 7.34953 81.1378 9.10301C79.2148 10.8565 78.2533 13.2146 78.2533 16.117C78.2533 19.0798 79.2148 21.4379 81.1378 23.2519C83.0607 25.0658 85.4644 25.9728 88.4089 25.9728C91.4736 25.9728 93.8774 25.0658 95.7402 23.2519C97.6031 21.4379 98.5045 19.1402 98.5045 16.2379C98.5045 13.2146 97.543 10.8565 95.5599 9.16348C93.637 7.34953 91.2333 6.50302 88.2887 6.50302ZM131.435 6.50302C128.551 6.50302 126.267 7.53092 124.585 9.52627C122.902 11.5216 122.001 13.8798 122.001 16.6007C122.001 19.3216 122.902 21.5588 124.645 23.3123C126.387 25.0658 128.611 25.9728 131.315 25.9728C132.637 25.9728 134.079 25.6705 135.642 25.0658C136.783 24.6425 137.745 24.4007 138.406 24.4007C138.586 24.4007 138.766 24.4007 139.007 24.4612V22.4658C139.007 20.8332 139.067 19.8053 139.127 19.3821C139.247 18.9588 139.427 18.6565 139.788 18.4751C140.088 18.2937 140.689 18.2332 141.591 18.2332V17.5681H133.538V18.2332H133.959C134.68 18.2332 135.221 18.2937 135.461 18.4146C135.762 18.5356 135.942 18.7774 136.062 19.0798C136.182 19.4426 136.303 20.1077 136.303 21.0751C136.303 21.9216 136.122 22.6472 135.882 23.1914C135.582 23.7356 135.101 24.2193 134.32 24.5821C133.538 25.0053 132.697 25.1867 131.736 25.1867C129.873 25.1867 128.31 24.5216 127.048 23.1309C125.786 21.7402 125.186 19.3821 125.186 16.0565C125.186 12.7309 125.847 10.4332 127.169 9.10301C128.491 7.77278 129.993 7.10767 131.736 7.10767C133.418 7.10767 134.86 7.65185 136.062 8.80069C137.264 9.94953 137.985 11.4612 138.226 13.3356H138.887V7.10767H138.226C138.165 7.89371 137.925 8.55883 137.625 9.22395C136.002 7.40999 133.899 6.50302 131.435 6.50302ZM374.569 6.50302C371.685 6.50302 369.341 7.34953 367.418 9.10301C365.495 10.8565 364.534 13.2146 364.534 16.117C364.534 19.0798 365.435 21.4379 367.358 23.2519C369.281 25.0658 371.685 25.9728 374.629 25.9728C377.694 25.9728 380.098 25.0658 381.961 23.2519C383.823 21.4379 384.785 19.1402 384.785 16.2379C384.785 13.2146 383.823 10.8565 381.84 9.16348C379.857 7.34953 377.454 6.50302 374.569 6.50302ZM253.723 6.50302L248.315 19.503C247.954 20.41 247.654 20.9542 247.594 21.1356C246.993 22.5867 246.572 23.5542 246.152 24.0379C245.731 24.5216 245.13 24.8239 244.289 24.9449V25.61H249.877V24.8844C249.276 24.8844 248.796 24.703 248.375 24.4612C248.014 24.1588 247.834 23.7356 247.834 23.1914C247.834 22.6472 248.195 21.5588 248.916 19.8053L249.397 18.596H256.427L257.87 22.0425C258.29 23.0705 258.531 23.6146 258.531 23.8565C258.531 24.2798 258.35 24.5216 258.05 24.703C257.749 24.8239 257.149 24.8844 256.247 24.8844V25.5495H263.578V24.8844C262.917 24.8239 262.437 24.6425 262.136 24.4007C261.836 24.1588 261.535 23.796 261.355 23.3728L260.514 21.4379L254.324 6.50302H253.723ZM107.939 6.62395C106.917 6.62395 105.475 6.68441 103.733 6.74488L101.088 6.86581V7.53092H101.389C102.35 7.53092 103.011 7.65185 103.312 7.77278C103.612 7.95418 103.793 8.2565 103.853 8.67976C103.913 9.10301 103.973 10.0705 103.973 11.5821V20.8332C103.973 22.4053 103.973 23.3728 103.853 23.796C103.793 24.2193 103.552 24.5216 103.252 24.703C102.951 24.8844 102.35 25.0053 101.569 25.0053H100.968V25.6705H109.922V25.0053H109.021C108.179 25.0053 107.578 24.8844 107.278 24.6425C106.978 24.4007 106.797 24.0984 106.737 23.6146C106.677 23.1914 106.677 22.2239 106.677 20.7123V16.6007H107.398C107.879 16.6007 108.239 16.7216 108.48 16.8426C108.72 17.0239 109.141 17.4472 109.802 18.2332C110.403 19.0193 111.064 19.8053 111.605 20.6519C113.407 23.3123 114.79 24.9449 115.691 25.5495H120.679V24.8844C119.597 24.8239 118.635 24.5216 117.854 23.9774C117.073 23.3728 115.931 22.1635 114.549 20.2286C112.806 17.8705 111.545 16.5402 110.763 16.1774C112.506 15.9356 113.828 15.4519 114.669 14.5449C115.571 13.6984 115.991 12.61 115.991 11.3402C115.991 10.3123 115.631 9.40534 114.97 8.67976C114.309 7.89371 113.407 7.34953 112.326 7.0472C111.124 6.74488 109.682 6.62395 107.939 6.62395ZM152.347 6.62395L146.879 19.5635C146.458 20.4705 146.278 21.0146 146.218 21.196C145.617 22.6472 145.136 23.6751 144.716 24.0984C144.295 24.5821 143.754 24.8239 142.913 24.9449V25.61H148.501V24.9449C147.9 24.9449 147.42 24.8239 146.999 24.5216C146.639 24.2193 146.458 23.796 146.458 23.1914C146.458 22.6472 146.819 21.5588 147.54 19.8053L148.021 18.596H155.051L156.434 22.0425C156.854 23.0705 157.095 23.6751 157.095 23.8565C157.095 24.2798 156.914 24.5216 156.614 24.6425C156.313 24.7635 155.712 24.8239 154.811 24.8239V25.4891H162.142V24.8239C161.481 24.7635 161.001 24.6425 160.7 24.4007C160.4 24.1588 160.099 23.796 159.919 23.3728L159.078 21.3774L152.888 6.62395H152.347ZM221.694 6.80534V7.47046H222.055C223.016 7.47046 223.617 7.59139 223.857 7.71232C224.158 7.89371 224.338 8.19604 224.398 8.61929C224.458 9.04255 224.518 10.01 224.518 11.5216V20.6519C224.518 22.2239 224.458 23.2519 224.398 23.6751C224.338 24.0984 224.098 24.4007 223.797 24.5821C223.497 24.7635 222.956 24.8844 222.115 24.8844H221.634V25.5495H230.107V24.8844H229.626C228.785 24.8844 228.184 24.7635 227.884 24.5216C227.583 24.2798 227.403 23.9774 227.343 23.4937C227.283 23.01 227.222 22.0426 227.222 20.5914V16.0565H236.957V20.6519C236.957 22.2239 236.957 23.1914 236.837 23.6146C236.777 24.0379 236.537 24.4007 236.236 24.5821C235.936 24.7635 235.395 24.8844 234.614 24.8844H233.953V25.5495H242.366V24.8844H241.945C241.104 24.8844 240.563 24.7635 240.263 24.5216C239.962 24.2798 239.782 23.9774 239.722 23.4937C239.662 23.01 239.602 22.0426 239.602 20.5914V11.4612C239.602 9.88906 239.662 8.92162 239.722 8.49836C239.842 8.07511 240.022 7.77278 240.263 7.65185C240.563 7.47046 241.164 7.40999 242.065 7.40999H242.306V6.74488H233.893V7.40999H234.373C235.335 7.40999 235.936 7.53092 236.176 7.65185C236.477 7.83325 236.657 8.13557 236.717 8.55883C236.777 8.98209 236.837 9.94953 236.837 11.4612V15.21H227.102V11.4612C227.102 9.88906 227.162 8.92162 227.222 8.49836C227.283 8.07511 227.523 7.77278 227.823 7.65185C228.124 7.47046 228.665 7.40999 229.626 7.40999H229.987V6.74488H221.694V6.80534ZM281.847 6.80534V7.47046C282.748 7.47046 283.349 7.53092 283.649 7.71232C283.95 7.89371 284.13 8.19604 284.19 8.61929C284.25 9.04255 284.31 10.01 284.31 11.4612V20.6519C284.31 22.2239 284.25 23.1914 284.19 23.6146C284.13 23.9774 283.95 24.2798 283.649 24.5216C283.409 24.7635 282.808 24.8844 281.907 24.8844H281.486V25.5495H296.87L297.29 19.7449H296.689C296.389 21.1356 295.908 22.2239 295.307 23.01C294.766 23.796 294.165 24.3402 293.504 24.5216C292.843 24.7635 292.062 24.8844 291.101 24.8844H289.719C288.457 24.8844 287.676 24.703 287.435 24.2798C287.135 23.917 287.014 22.5867 287.014 20.3495V15.8751H288.998C289.779 15.8751 290.38 15.9356 290.68 16.0565C291.041 16.1774 291.221 16.3588 291.401 16.7216C291.582 17.0844 291.642 17.7495 291.642 18.8379H292.303V12.4891H291.642C291.642 13.396 291.582 14.0612 291.461 14.3635C291.341 14.6658 291.101 14.9077 290.74 15.0891C290.38 15.2705 289.719 15.3309 288.817 15.3309H286.894V7.47046H289.478C290.74 7.47046 291.702 7.53092 292.243 7.71232C292.843 7.83325 293.324 8.19604 293.745 8.74022C294.165 9.28441 294.526 10.2519 294.827 11.5216H295.488L295.067 6.86581H281.847V6.80534ZM164.606 6.80534V7.47046C165.628 7.47046 166.229 7.53092 166.529 7.71232C166.83 7.83325 167.01 8.13557 167.19 8.61929C167.37 9.10302 167.431 10.0705 167.431 11.5216V21.4984C167.431 22.6472 167.37 23.3123 167.31 23.6146C167.25 23.917 166.95 24.2193 166.469 24.4612C165.988 24.703 165.327 24.8844 164.486 24.9449V25.61H171.397V24.9449C170.435 24.9449 169.714 24.8239 169.233 24.5216C168.753 24.2193 168.392 23.917 168.332 23.6146C168.212 23.2519 168.212 22.5867 168.212 21.4984V8.4379L181.312 26.0332H181.853V10.4937C181.853 9.70767 181.913 9.16348 182.033 8.80069C182.153 8.4379 182.454 8.13557 182.874 7.89371C183.295 7.65185 183.956 7.53092 184.737 7.47046V6.80534H178.007V7.47046C178.728 7.47046 179.329 7.59139 179.87 7.77278C180.41 7.95418 180.711 8.2565 180.891 8.55883C181.071 8.92162 181.132 9.46581 181.132 10.3123V21.4984L170.135 6.80534H164.606ZM88.3488 7.16813C90.6324 7.16813 92.375 7.95418 93.5168 9.52627C94.7186 11.0984 95.3196 13.2751 95.3196 16.2379C95.3196 19.2612 94.7186 21.4984 93.5168 23.01C92.3149 24.5216 90.6925 25.3077 88.5892 25.3077C86.1855 25.3077 84.4428 24.5216 83.241 23.01C82.0391 21.4984 81.4382 19.2612 81.4382 16.2379C81.4382 13.2751 82.0391 10.9774 83.241 9.46581C84.4428 7.89371 86.1254 7.16813 88.3488 7.16813ZM374.569 7.16813C376.853 7.16813 378.595 7.95418 379.737 9.52627C380.939 11.0984 381.54 13.2751 381.54 16.2379C381.54 19.2612 380.939 21.4984 379.737 23.01C378.535 24.5216 376.913 25.3077 374.81 25.3077C372.406 25.3077 370.603 24.5216 369.401 23.01C368.199 21.4984 367.598 19.2612 367.598 16.2379C367.598 13.2751 368.199 10.9774 369.401 9.46581C370.603 7.89371 372.346 7.16813 374.569 7.16813ZM107.759 7.28906C109.922 7.28906 111.364 7.71232 111.965 8.49836C112.626 9.28441 112.927 10.3728 112.927 11.703C112.927 12.4891 112.806 13.0937 112.626 13.6379C112.446 14.1821 112.206 14.6053 111.845 14.9077C111.545 15.21 111.064 15.4519 110.523 15.6332C109.982 15.8146 109.381 15.8751 108.6 15.9356C107.879 15.996 107.218 15.996 106.497 15.996V7.28906C107.038 7.28906 107.458 7.28906 107.759 7.28906ZM252.942 10.01L256.187 17.9309H249.697L252.942 10.01ZM151.566 10.01L154.811 17.9914H148.261L151.566 10.01ZM313.155 12.0053C315.078 14.4844 317.301 17.7495 319.945 21.7402C318.443 23.4937 316.88 24.3402 315.138 24.3402C313.575 24.3402 312.133 23.6751 310.931 22.2844C309.669 20.8937 309.068 19.4426 309.068 17.8705C309.068 16.8426 309.429 15.8146 310.15 14.7867C310.871 13.7588 311.893 12.7914 313.155 12.0053ZM388.39 21.9821C387.85 21.9821 387.369 22.1635 386.948 22.5867C386.528 23.01 386.347 23.4937 386.347 24.0379C386.347 24.5821 386.528 25.0658 386.948 25.4891C387.369 25.9123 387.85 26.0937 388.39 26.0937C388.931 26.0937 389.412 25.9123 389.833 25.4891C390.253 25.0658 390.434 24.5821 390.434 24.0379C390.434 23.4937 390.253 23.01 389.833 22.5867C389.412 22.1635 388.931 21.9821 388.39 21.9821Z" fill="#778092"/>
</svg>
