<svg width="1440" height="443" viewBox="0 0 1440 443" fill="none" xmlns="http://www.w3.org/2000/svg">
<path d="M-10 123.327C206.091 210.492 322.572 325.454 389.751 419.5C445.751 497.908 444.757 529.981 504.221 588.479C633.263 715.417 880.458 802.953 1000.26 693.867C1059.28 640.131 1037.45 572.033 1065.68 443.119C1091.07 327.153 1156.73 167.658 1340.04 -5.68066" stroke="#2A71FA" stroke-miterlimit="10"/>
<path d="M-9.56836 151.45C200.616 226.362 315.932 334.513 383.076 422.528C439.57 496.607 444.164 526.229 507.325 583.722C639.824 704.329 871.971 788.296 991.943 686.511C1053.74 634.088 1039.68 567.155 1072.76 438.619C1101.88 325.458 1168.88 168.69 1349.03 -3.09326" stroke="#2A71FA" stroke-miterlimit="10"/>
<path d="M-9.13477 179.568C195.139 242.231 309.38 343.598 376.414 425.555C433.521 495.375 443.472 522.481 510.443 578.964C646.105 693.38 863.857 773.833 983.645 679.159C1048.36 628.009 1041.83 562.343 1079.86 434.123C1112.59 323.794 1181.04 169.734 1358.05 -0.487305" stroke="#2A71FA" stroke-miterlimit="10"/>
<path d="M-8.70312 207.69C189.66 258.103 302.939 352.711 369.751 428.605C427.543 494.217 442.664 518.759 513.575 574.202C652.132 682.587 856.09 759.587 975.353 671.802C1043.12 621.931 1043.88 557.585 1086.97 429.622C1123.15 322.153 1193.22 170.777 1367.05 2.10693" stroke="#2A71FA" stroke-miterlimit="10"/>
<path d="M-8.26953 235.81C184.203 273.965 296.632 361.825 363.089 431.614C421.669 493.123 441.793 515.074 516.67 569.446C657.88 671.955 848.607 745.578 967.028 664.447C1037.98 615.842 1045.78 552.86 1094.04 425.123C1133.57 320.521 1205.36 171.819 1376.02 4.72217" stroke="#2A71FA" stroke-miterlimit="10"/>
<path d="M-7.83789 263.928C178.708 289.834 290.467 370.941 356.426 434.64C415.917 492.094 440.779 511.442 519.786 564.684C663.435 661.497 841.429 731.804 958.721 657.094C1032.99 609.786 1047.55 548.156 1101.14 420.622C1143.87 318.884 1217.52 172.862 1385.02 7.29688" stroke="#2A71FA" stroke-miterlimit="10"/>
<path d="M-7.40625 292.047C173.23 305.684 284.474 380.02 349.763 437.668C410.298 491.12 439.699 507.874 522.898 559.927C668.811 651.211 834.509 718.281 950.413 649.738C1028.12 603.787 1049.24 543.454 1108.23 416.126C1154.05 317.232 1229.7 173.907 1394.02 9.896" stroke="#2A71FA" stroke-miterlimit="10"/>
<path d="M-6.95703 320.171C167.768 321.57 278.685 389.056 343.117 440.696C404.852 490.178 438.574 504.384 526.028 555.171C674.045 641.101 827.84 705.003 942.123 642.383C1023.38 597.861 1050.8 538.744 1115.34 411.627C1164.11 315.562 1241.84 174.963 1403.02 12.4917" stroke="#2A71FA" stroke-miterlimit="10"/>
<path d="M-6.54102 348.289C162.274 337.438 273.066 398.005 336.438 443.727C399.556 489.25 437.319 501.001 529.129 550.409C679.133 631.162 821.344 691.974 933.8 635.03C1018.74 592.032 1052.19 533.994 1122.42 407.126C1174.06 313.855 1254 175.991 1412.04 15.0859" stroke="#2A71FA" stroke-miterlimit="10"/>
<path d="M-6.10742 376.396C156.801 353.296 267.671 406.826 329.777 446.742C394.426 488.291 436.034 497.658 532.243 545.64C684.109 621.374 815.014 679.17 925.494 627.663C1014.19 586.312 1053.48 529.186 1129.52 402.614C1183.9 312.093 1266.17 177.024 1421.02 17.6689" stroke="#2A71FA" stroke-miterlimit="10"/>
<path d="M-5.67578 404.531C151.341 369.177 262.484 415.522 323.117 449.781C389.501 487.294 434.7 494.459 535.359 540.89C689.017 611.77 808.83 666.628 917.187 620.322C1009.75 580.764 1054.64 524.335 1136.61 398.125C1193.65 310.309 1278.33 178.079 1430.02 20.2832" stroke="#2A71FA" stroke-miterlimit="10"/>
<path d="M-5.24219 432.65C145.845 385.042 257.498 424.02 316.456 452.809C384.764 486.168 433.342 491.358 538.473 536.133C693.869 602.306 802.76 654.297 908.881 612.966C1005.39 575.38 1055.68 519.395 1143.71 393.629C1203.32 308.458 1290.49 179.12 1439.01 22.8745" stroke="#2A71FA" stroke-miterlimit="10"/>
<path d="M-4.81055 460.773C140.366 400.911 252.682 432.299 309.792 455.84C380.205 484.863 431.915 488.362 541.589 531.376C698.68 592.986 796.767 642.184 900.578 605.61C1001.1 570.194 1056.61 514.365 1150.8 389.129C1212.92 306.549 1302.65 180.164 1448.01 25.4692" stroke="#2A71FA" stroke-miterlimit="10"/>
<path d="M-4.37891 488.891C134.891 416.78 248.009 440.336 303.129 458.867C375.805 483.3 430.48 485.478 544.694 526.614C703.456 583.795 790.821 630.253 892.262 598.257C996.887 565.237 1057.41 509.225 1157.89 384.629C1222.45 304.573 1314.81 181.196 1457.01 28.0752" stroke="#2A71FA" stroke-miterlimit="10"/>
<path d="M-3.94531 517.011C129.414 432.646 243.432 448.114 296.452 461.895C371.509 481.399 429.016 482.705 547.804 521.857C708.23 574.733 784.9 618.553 883.949 590.902C992.712 560.539 1058.13 503.974 1164.98 380.117C1231.92 302.521 1326.96 182.237 1466 30.6475" stroke="#2A71FA" stroke-miterlimit="10"/>
<path d="M-3.51367 545.133C123.955 448.515 238.893 455.626 289.804 464.922C367.3 479.073 427.57 480.043 550.932 517.096C713.014 565.799 779 607.017 875.657 583.55C988.588 556.125 1058.78 498.613 1172.09 375.633C1241.39 300.421 1339.13 183.293 1475.01 33.2578" stroke="#2A71FA" stroke-miterlimit="10"/>
<path d="M-3.06055 573.252C118.478 464.384 234.881 476.969 283.162 467.953C362.135 453.202 426.13 477.495 554.069 512.338C717.827 556.946 773.063 595.651 867.351 576.193C984.467 552.037 1059.34 493.091 1179.18 371.132C1250.8 298.25 1351.29 184.336 1484.01 35.8677" stroke="#2A71FA" stroke-miterlimit="10"/>
<path d="M-2.64648 601.371C112.985 480.253 230.775 481.527 276.481 470.98C356.591 452.497 424.65 475.052 557.164 507.581C722.655 548.219 767.056 584.453 859.046 568.837C980.335 548.273 1059.83 487.454 1186.28 366.624C1260.2 295.998 1363.45 185.369 1493 38.4395" stroke="#2A71FA" stroke-miterlimit="10"/>
<path d="M-2.21484 629.494C107.506 496.119 226.13 485.638 269.818 474.008C351.37 452.302 423.196 472.719 560.28 502.84C727.509 539.566 760.974 573.385 850.738 561.505C976.169 544.904 1060.26 481.695 1193.37 362.152C1269.58 293.715 1375.62 186.433 1502 41.062" stroke="#2A71FA" stroke-miterlimit="10"/>
<path d="M-1.7832 657.613C102.027 511.988 219.541 483.452 263.159 477.035C349.074 464.423 421.765 470.482 563.396 498.075C732.414 530.986 754.786 562.428 842.435 554.141C971.937 541.884 1060.65 475.75 1200.48 357.632C1278.97 291.319 1387.78 187.466 1511 43.6372" stroke="#2A71FA" stroke-miterlimit="10"/>
<path d="M-1.35156 685.732C96.5484 527.857 214.109 490.068 256.491 480.066C343.63 459.506 420.342 468.347 566.505 493.314C737.349 522.484 748.457 551.593 834.123 546.785C967.611 539.297 1061.01 469.718 1207.56 353.144C1288.35 288.884 1399.93 188.517 1520 46.2437" stroke="#2A71FA" stroke-miterlimit="10"/>
<path d="M-0.917969 713.855C91.0753 543.727 208.308 496.692 249.83 483.094C337.689 454.309 418.949 466.305 569.623 488.549C742.345 514.046 741.983 540.844 825.821 539.425C963.163 537.088 1061.34 463.523 1214.66 348.64C1297.74 286.394 1412.1 189.55 1529 48.8311" stroke="#2A71FA" stroke-miterlimit="10"/>
</svg>
