<svg width="530" height="408" viewBox="0 0 530 408" fill="none" xmlns="http://www.w3.org/2000/svg">
<path d="M44.1822 62.6563C60.5728 62.6563 73.8601 49.3691 73.8601 32.9784C73.8601 31.1208 73.6894 29.3031 73.3629 27.54C71.5998 27.2135 69.7821 27.0428 67.9245 27.0428C51.5338 27.0428 38.2466 40.3301 38.2466 56.7208C38.2466 58.5784 38.4172 60.3961 38.7438 62.1592C40.5068 62.4857 42.3246 62.6563 44.1822 62.6563Z" fill="#175CD3"/>
<path fill-rule="evenodd" clip-rule="evenodd" d="M38.7439 62.159C24.9505 59.6045 14.5044 47.5113 14.5044 32.9783C14.5044 16.5876 27.7916 3.30035 44.1823 3.30035C58.7154 3.30035 70.8086 13.7465 73.363 27.5399C71.6 27.2133 69.7822 27.0427 67.9246 27.0427C51.534 27.0427 38.2467 40.3299 38.2467 56.7206C38.2467 58.5782 38.4174 60.3959 38.7439 62.159Z" fill="#1570EF"/>
<path fill-rule="evenodd" clip-rule="evenodd" d="M44.1821 62.6563C60.5727 62.6563 73.86 49.369 73.86 32.9784C73.86 31.1208 73.6893 29.303 73.3628 27.54C87.1561 30.0944 97.6023 42.1877 97.6023 56.7207C97.6023 73.1114 84.315 86.3986 67.9244 86.3986C53.3913 86.3986 41.2981 75.9525 38.7437 62.1591C40.5067 62.4856 42.3245 62.6563 44.1821 62.6563Z" fill="#2E90FA"/>
<path opacity="0.8" d="M290.981 18.874C290.107 17.9994 289.232 17.1248 288.358 16.2502C285.734 13.4515 282.935 10.6528 279.437 8.90358C275.414 6.80456 271.041 7.3293 266.668 7.3293C260.021 7.3293 243.403 7.3293 233.608 7.3293L240.255 16.2502C252.324 16.2502 271.215 16.2502 279.961 16.2502C283.635 16.2502 286.783 16.9498 289.757 18.874C290.282 19.0489 290.806 19.0489 290.981 18.874Z" fill="white"/>
<path opacity="0.9" d="M298.328 33.2176C297.453 32.343 296.579 31.4684 295.704 30.5938C293.08 27.7951 290.282 24.9964 286.783 23.2472C282.76 21.1482 278.387 21.6729 274.014 21.6729C268.242 21.6729 254.423 21.6729 244.628 21.6729L251.275 30.5938C263.169 30.5938 279.437 30.5938 287.483 30.5938C291.156 30.5938 294.305 31.2935 297.279 33.2176C297.628 33.3925 297.978 33.3925 298.328 33.2176Z" fill="white"/>
<path d="M306.549 47.211C305.674 46.3364 304.8 45.4618 303.925 44.5872C301.302 41.7885 298.503 38.9898 295.004 37.2406C290.981 35.1416 286.608 35.6663 282.235 35.6663C276.813 35.6663 264.918 35.6663 255.298 35.6663L261.945 44.5872C273.489 44.5872 288.183 44.5872 295.529 44.5872C299.203 44.5872 302.351 45.2869 305.325 47.211C305.849 47.3859 306.199 47.5608 306.549 47.211Z" fill="white"/>
<path opacity="0.8" d="M232.909 70.8245C233.783 71.6991 234.658 72.5737 235.532 73.4483C238.156 76.247 240.955 79.0456 244.453 80.7948C248.476 82.8939 252.849 82.3691 257.222 82.3691H290.282L283.635 73.4483C271.566 73.4483 252.675 73.4483 243.929 73.4483C240.255 73.4483 237.107 72.7486 234.133 70.8245C233.608 70.6496 233.259 70.6496 232.909 70.8245Z" fill="white"/>
<path opacity="0.9" d="M225.562 56.4817C226.436 57.3563 227.311 58.2309 228.185 59.1055C230.809 61.9042 233.608 64.7029 237.106 66.4521C241.129 68.5511 245.502 68.0264 249.875 68.0264H279.262L272.615 59.1055C260.72 59.1055 244.453 59.1055 236.406 59.1055C232.733 59.1055 229.585 58.4058 226.611 56.4817C226.261 56.3068 225.911 56.3068 225.562 56.4817Z" fill="white"/>
<path d="M217.515 42.3127C218.39 43.1873 219.264 44.0619 220.139 44.9365C222.763 47.7352 225.561 50.5339 229.06 52.2831C233.083 54.3821 237.456 53.8574 241.829 53.8574H268.766L262.119 44.9365C250.575 44.9365 235.882 44.9365 228.535 44.9365C224.862 44.9365 221.713 44.2368 218.74 42.3127C218.215 42.1378 217.865 42.1378 217.515 42.3127Z" fill="white"/>
<path d="M456.365 35.6419C468.022 30.0667 477.145 20.6058 482.383 8.77974C479.004 5.23191 474.611 2.69774 469.881 1.17724L467.346 0.33252C467.178 0.670408 467.009 1.17726 467.009 1.51515C462.954 13.0034 454.676 22.2953 443.525 27.5326C435.754 31.2494 430.01 38.0071 427.307 46.1165L426.462 48.6506C426.8 48.8196 427.307 48.9885 427.645 48.9885C430.854 50.1711 434.064 51.6916 437.105 53.55C441.329 45.9475 448.087 39.5276 456.365 35.6419Z" fill="#087443"/>
<path d="M505.359 36.3176C499.108 45.7785 490.492 53.381 479.848 58.4493C471.232 62.504 464.643 70.1065 461.602 79.2295L460.757 82.1015C463.967 84.9736 467.853 87.1699 472.077 88.5214L474.611 89.3662C474.78 89.0283 474.949 88.5214 474.949 88.1835C479.003 76.6953 487.282 67.4034 498.432 62.1661C506.203 58.4493 512.116 51.6915 514.651 43.5822L515.495 41.048C511.947 40.0344 508.569 38.3449 505.359 36.3176Z" fill="#16B364"/>
<path d="M454 73.3163C458.224 63.1796 465.995 54.9013 475.963 50.1709C485.086 45.7783 492.688 39.0205 497.925 30.7423C494.04 27.0255 490.83 22.8019 488.465 17.7335C482.214 29.2217 472.415 38.5137 460.42 44.2578C453.493 47.4678 447.918 53.0429 444.539 59.8007C448.256 63.3485 451.297 67.7411 453.662 72.6404C453.662 72.6404 453.831 72.9784 454 73.3163Z" fill="#099250"/>
<path fill-rule="evenodd" clip-rule="evenodd" d="M70.8924 229.109C84.8244 229.109 96.1186 217.815 96.1186 203.883C96.1186 189.951 84.8244 178.657 70.8924 178.657C56.9603 178.657 45.6661 189.951 45.6661 203.883C45.6661 217.815 56.9603 229.109 70.8924 229.109ZM70.8924 248.4C95.4783 248.4 115.409 228.469 115.409 203.883C115.409 179.297 95.4783 159.366 70.8924 159.366C46.3064 159.366 26.3755 179.297 26.3755 203.883C26.3755 228.469 46.3064 248.4 70.8924 248.4Z" fill="#6938EF"/>
<path d="M71.4017 204.858C76.0377 200.222 83.5541 200.222 88.1901 204.858L111.274 227.942C115.91 232.578 115.91 240.094 111.274 244.73C106.638 249.366 99.1217 249.366 94.4857 244.73L71.4017 221.646C66.7658 217.01 66.7657 209.494 71.4017 204.858Z" fill="#F670C7"/>
<path d="M77.8838 228.128L92.5447 242.789C99.5767 238.867 105.435 233.094 109.461 226.129L94.9206 211.588C92.3665 219.56 85.9556 225.805 77.8838 228.128Z" fill="#6519BA"/>
<path d="M269.946 216.249C283.605 216.249 294.678 205.176 294.678 191.517C294.678 177.858 283.605 166.786 269.946 166.786H235.322V216.249H269.946Z" fill="#F38744"/>
<path d="M235.322 166.786L294.678 240.98H255.107L235.322 216.249V166.786Z" fill="#2E90FA"/>
<path d="M274.55 215.821C273.058 216.102 271.519 216.249 269.946 216.249H235.322V166.786L274.55 215.821Z" fill="#53B1FD"/>
<path d="M480.344 164.749C486.335 176.494 489.713 189.794 489.713 203.883C489.713 217.972 486.335 231.272 480.344 243.018C494.212 235.476 503.624 220.779 503.624 203.883C503.624 186.987 494.212 172.29 480.344 164.749Z" fill="#0BA5EC"/>
<path d="M460.326 163.815C458.313 160.962 454.882 159.426 451.442 160.023C430.509 163.656 414.59 181.91 414.59 203.883C414.59 225.855 430.509 244.109 451.442 247.742C454.882 248.339 458.312 246.803 460.326 243.951C468.322 232.624 473.019 218.802 473.019 203.883C473.019 188.964 468.322 175.142 460.326 163.815Z" fill="#0086C9"/>
<path d="M35.4793 323.43L45.8973 362.31V319.564C46.7233 319.371 47.5583 319.201 48.4013 319.055V362.314L60.1188 318.583C60.9633 318.66 61.8009 318.76 62.631 318.883L50.8191 362.965L74.2981 322.299C75.063 322.643 75.8165 323.008 76.5577 323.393L52.9911 364.212L86.6354 330.567C87.2419 331.141 87.8324 331.731 88.406 332.338L54.7567 365.987L95.5801 342.418C95.9653 343.159 96.3303 343.913 96.6743 344.678L56.0175 368.151L100.088 356.342C100.211 357.172 100.311 358.01 100.387 358.854L56.6576 370.572L99.9147 370.572C99.7686 371.415 99.5988 372.25 99.406 373.076L56.6509 373.076L95.5387 383.496C95.1394 384.26 94.7184 385.012 94.2767 385.75L56.0139 375.497L87.9721 393.949C87.3671 394.571 86.7441 395.175 86.1039 395.761L54.7646 377.668L78.4785 401.382C77.7284 401.82 76.9644 402.237 76.1872 402.632L52.9914 379.436L68.1895 405.76C67.3574 405.995 66.5154 406.207 65.6642 406.394L50.8206 380.684L57.9773 407.393C57.3394 407.42 56.6981 407.434 56.0535 407.434C55.8335 407.434 55.6138 407.432 55.3946 407.429L48.4013 381.33V406.779C47.5583 406.633 46.7233 406.463 45.8972 406.27V381.334L39.7311 404.346C38.9446 404.036 38.1691 403.704 37.4053 403.352L43.4776 380.689L32.0786 400.433C31.3729 399.981 30.6808 399.51 30.003 399.02L41.3124 379.432L25.4744 395.27C24.8678 394.696 24.2773 394.106 23.7037 393.499L39.5367 377.666L19.9539 388.972C19.4639 388.294 18.9926 387.602 18.5405 386.897L38.2934 375.492L15.62 381.568C15.2671 380.804 14.9352 380.028 14.6251 379.242L37.6373 373.076L12.701 373.076C12.5081 372.25 12.3383 371.415 12.1922 370.572L37.6306 370.572L11.5415 363.581C11.5382 363.36 11.5366 363.139 11.5366 362.917C11.5366 362.274 11.5502 361.635 11.5772 360.998L38.2898 368.156L12.5759 353.31C12.7632 352.459 12.9748 351.617 13.2099 350.785L39.5446 365.989L16.3391 342.783C16.7339 342.006 17.1508 341.242 17.589 340.492L41.3127 364.216L23.2117 332.864C23.7978 332.224 24.4024 331.601 25.0246 330.996L43.4791 362.96L33.225 324.691C33.9629 324.25 34.7146 323.829 35.4793 323.43Z" fill="#FF6838"/>
<circle cx="265" cy="363.422" r="41.4816" stroke="white" stroke-width="6.07048"/>
<path d="M281.454 379.877C273.078 388.253 263.589 393.721 255.138 395.894C246.611 398.087 239.738 396.825 235.668 392.755C231.598 388.685 230.335 381.812 232.528 373.284C234.701 364.834 240.169 355.344 248.545 346.968C256.921 338.592 266.41 333.124 274.861 330.951C283.388 328.759 290.261 330.021 294.331 334.091C298.402 338.161 299.664 345.034 297.471 353.561C295.298 362.012 289.83 371.501 281.454 379.877Z" stroke="white" stroke-width="6.07048"/>
<path d="M281.453 346.968C289.829 355.344 295.297 364.833 297.47 373.284C299.663 381.811 298.401 388.684 294.331 392.755C290.261 396.825 283.388 398.087 274.86 395.894C266.41 393.721 256.92 388.253 248.544 379.877C240.168 371.501 234.7 362.012 232.527 353.561C230.335 345.034 231.597 338.161 235.667 334.091C239.737 330.021 246.61 328.758 255.137 330.951C263.588 333.124 273.077 338.592 281.453 346.968Z" stroke="white" stroke-width="6.07048"/>
<path d="M491.002 318.4H456.89L429.429 345.861V379.973L456.89 407.434H491.002L518.463 379.973V345.861L491.002 318.4ZM461.61 380.402L444.018 362.809L461.61 345.217C468.261 338.567 479.202 338.567 485.853 345.217L503.445 362.809L485.853 380.402C479.202 387.052 468.475 387.052 461.61 380.402Z" fill="#444CE7"/>
</svg>
