<svg width="605" height="140" viewBox="0 0 605 140" fill="none" xmlns="http://www.w3.org/2000/svg">
<rect width="605" height="140" rx="28" fill="#F0F0F0"/>
<rect x="32" y="42.5982" width="56.4019" height="56.4019" rx="28.2009" fill="white"/>
<path d="M53.1556 80.1997C50.9523 80.1997 49.2748 79.3985 48.1231 77.7961C46.9714 76.1937 46.3955 73.8903 46.3955 70.8858C46.3955 67.8813 46.9714 65.5779 48.1231 63.9755C49.2748 62.3731 50.9523 61.5719 53.1556 61.5719C55.3589 61.5719 57.0364 62.3731 58.1881 63.9755C59.3398 65.5779 59.9157 67.8813 59.9157 70.8858C59.9157 73.9153 59.3398 76.2188 58.1881 77.8212C57.0364 79.4236 55.3589 80.1997 53.1556 80.1997ZM53.1556 77.8713C55.8096 77.8713 57.1365 75.5428 57.1365 70.8858C57.1365 66.2289 55.8096 63.9004 53.1556 63.9004C50.5016 63.9004 49.1997 66.2289 49.1997 70.8858C49.1997 75.5428 50.5016 77.8713 53.1556 77.8713ZM65.0339 77.4707H74.3478V79.7991H62.0294L62.1045 78.6725C62.1546 77.4707 62.43 76.2939 62.9307 75.1672C63.4816 73.8903 64.6082 72.8137 66.3358 71.9124L68.3639 70.7857C69.4154 70.2348 70.1916 69.659 70.6673 69.0581C71.118 68.4572 71.3683 67.7311 71.3683 66.8798C71.3683 65.9785 71.0679 65.2524 70.492 64.7016C69.9162 64.1758 69.115 63.9004 68.1135 63.9004C65.81 63.9004 64.6834 65.1022 64.6834 67.4807H62.0544C62.0294 65.628 62.5552 64.1758 63.6318 63.1242C64.6834 62.0977 66.2106 61.5719 68.1886 61.5719C69.9913 61.5719 71.4184 62.0727 72.495 63.0241C73.5716 64.0256 74.1225 65.2774 74.1225 66.7797C74.1225 68.0316 73.7719 69.1332 73.0709 70.0846C72.3698 71.036 71.2682 71.9124 69.7659 72.7136L67.9883 73.715C66.9618 74.2909 66.2357 74.8417 65.785 75.3926C65.3343 75.9434 65.084 76.6444 65.0339 77.4707Z" fill="#6C6C6C"/>
<path d="M150.883 81H146.307L144.515 75.976H134.531L132.771 81H128.323L136.995 58.216H142.051L150.883 81ZM136.707 69.832L135.843 72.296H143.203L142.307 69.832C141.539 67.944 140.611 65.352 139.491 62.024C138.595 64.68 137.667 67.272 136.707 69.832ZM157.509 81H153.189V58.216H157.509V81ZM170.596 73.736H161.092V70.28H170.596V73.736ZM174.188 58.216H184.204C186.732 58.216 188.716 58.888 190.124 60.232C191.532 61.576 192.268 63.368 192.268 65.64C192.268 67.912 191.532 69.704 190.124 71.048C188.716 72.392 186.732 73.032 184.204 73.032H178.508V81H174.188V58.216ZM178.508 69.32H184.012C185.26 69.32 186.22 69.032 186.892 68.392C187.564 67.752 187.916 66.856 187.916 65.64C187.916 64.456 187.564 63.528 186.892 62.888C186.22 62.248 185.26 61.928 184.012 61.928H178.508V69.32ZM208.208 79.016C206.672 80.616 204.624 81.384 202.128 81.384C199.6 81.384 197.584 80.616 196.048 79.016C194.48 77.48 193.712 75.368 193.712 72.744C193.712 70.12 194.48 68.04 196.048 66.472C197.584 64.904 199.6 64.104 202.128 64.104C204.624 64.104 206.672 64.904 208.208 66.44C209.744 68.008 210.512 70.12 210.512 72.744C210.512 75.368 209.744 77.448 208.208 79.016ZM202.128 78.056C203.472 78.056 204.496 77.608 205.264 76.68C206.032 75.752 206.416 74.44 206.416 72.744C206.416 71.08 206.032 69.768 205.264 68.84C204.496 67.912 203.472 67.432 202.128 67.432C200.784 67.432 199.728 67.912 198.96 68.808C198.192 69.736 197.84 71.048 197.84 72.744C197.84 74.472 198.192 75.784 198.96 76.68C199.728 77.608 200.784 78.056 202.128 78.056ZM231.366 70.664L233.222 64.488H237.542L232.102 81H227.878L225.798 74.216C224.998 71.464 224.518 69.8 224.39 69.288C224.326 69.544 223.846 71.176 223.014 74.216L220.966 81H216.742L211.302 64.488H215.622L217.478 70.664C217.926 72.136 218.47 74.056 219.11 76.392C219.686 74.024 220.23 72.104 220.678 70.632L222.502 64.488H226.342L228.166 70.632C228.614 72.104 229.126 74.024 229.734 76.392C230.278 74.28 230.822 72.392 231.366 70.664ZM254.656 73.032V73.992H242.304C242.432 75.4 242.88 76.488 243.616 77.192C244.352 77.896 245.344 78.248 246.592 78.248C248.416 78.248 249.664 77.48 250.368 75.88H254.24C253.792 77.576 252.896 78.92 251.552 79.912C250.176 80.904 248.512 81.384 246.56 81.384C244.096 81.384 242.112 80.616 240.608 79.016C239.072 77.448 238.336 75.368 238.336 72.744C238.336 70.152 239.072 68.072 240.576 66.472C242.08 64.904 244.064 64.104 246.496 64.104C248.992 64.104 250.976 64.936 252.448 66.568C253.92 68.232 254.656 70.376 254.656 73.032ZM246.464 67.24C244.096 67.24 242.72 68.552 242.336 71.176H250.624C250.432 69.96 249.984 69 249.28 68.296C248.544 67.592 247.616 67.24 246.464 67.24ZM266.731 64.232C267.083 64.232 267.403 64.264 267.723 64.296V68.008H266.699C265.163 68.008 263.979 68.424 263.147 69.192C262.315 69.96 261.931 71.112 261.931 72.616V81H257.899V64.488H261.803V67.432C262.699 65.32 264.363 64.232 266.731 64.232ZM285.373 73.032V73.992H273.021C273.149 75.4 273.597 76.488 274.333 77.192C275.069 77.896 276.061 78.248 277.309 78.248C279.133 78.248 280.381 77.48 281.085 75.88H284.957C284.509 77.576 283.613 78.92 282.269 79.912C280.893 80.904 279.229 81.384 277.277 81.384C274.813 81.384 272.829 80.616 271.325 79.016C269.789 77.448 269.053 75.368 269.053 72.744C269.053 70.152 269.789 68.072 271.293 66.472C272.797 64.904 274.781 64.104 277.213 64.104C279.709 64.104 281.693 64.936 283.165 66.568C284.637 68.232 285.373 70.376 285.373 73.032ZM277.181 67.24C274.813 67.24 273.437 68.552 273.053 71.176H281.341C281.149 69.96 280.701 69 279.997 68.296C279.261 67.592 278.333 67.24 277.181 67.24ZM300.393 66.632V58.216H304.425V81H300.521V78.696C299.305 80.488 297.545 81.384 295.305 81.384C293.001 81.384 291.209 80.616 289.897 79.016C288.553 77.448 287.881 75.368 287.881 72.744C287.881 70.12 288.553 68.008 289.897 66.44C291.177 64.904 293.001 64.104 295.305 64.104C297.513 64.104 299.209 64.968 300.393 66.632ZM293.129 76.744C293.865 77.64 294.889 78.056 296.233 78.056C297.545 78.056 298.601 77.608 299.369 76.68C300.105 75.784 300.489 74.472 300.489 72.744C300.489 71.048 300.105 69.736 299.369 68.808C298.601 67.912 297.577 67.432 296.233 67.432C294.921 67.432 293.897 67.912 293.129 68.872C292.361 69.832 292.009 71.176 292.009 72.872C292.009 74.6 292.361 75.88 293.129 76.744ZM327.481 69.992L331.513 58.216H335.993L327.833 81H322.777L314.425 58.216H319.033L323.161 69.992C324.121 72.904 324.825 75.272 325.337 77.096C325.881 74.984 326.585 72.616 327.481 69.992ZM351.527 73.032V73.992H339.175C339.303 75.4 339.751 76.488 340.487 77.192C341.223 77.896 342.215 78.248 343.463 78.248C345.287 78.248 346.535 77.48 347.239 75.88H351.111C350.663 77.576 349.767 78.92 348.423 79.912C347.047 80.904 345.383 81.384 343.431 81.384C340.967 81.384 338.983 80.616 337.479 79.016C335.943 77.448 335.207 75.368 335.207 72.744C335.207 70.152 335.943 68.072 337.447 66.472C338.951 64.904 340.935 64.104 343.367 64.104C345.863 64.104 347.847 64.936 349.319 66.568C350.791 68.232 351.527 70.376 351.527 73.032ZM343.335 67.24C340.967 67.24 339.591 68.552 339.207 71.176H347.495C347.303 69.96 346.855 69 346.151 68.296C345.415 67.592 344.487 67.24 343.335 67.24ZM362.535 64.488V67.56H359.271V76.488C359.271 77.032 359.399 77.416 359.687 77.608C359.975 77.832 360.455 77.928 361.159 77.928H362.535V81C361.639 81.096 360.935 81.128 360.423 81.128C358.631 81.128 357.319 80.808 356.487 80.136C355.655 79.464 355.271 78.376 355.271 76.904V67.56H352.711V64.488H355.271V59.688H359.271V64.488H362.535ZM372.862 64.488V67.56H369.598V76.488C369.598 77.032 369.726 77.416 370.014 77.608C370.302 77.832 370.782 77.928 371.486 77.928H372.862V81C371.966 81.096 371.262 81.128 370.75 81.128C368.958 81.128 367.646 80.808 366.814 80.136C365.982 79.464 365.598 78.376 365.598 76.904V67.56H363.038V64.488H365.598V59.688H369.598V64.488H372.862ZM379.863 62.344H375.895V58.568H379.863V62.344ZM379.895 81H375.863V64.488H379.895V81ZM392.84 64.104C394.632 64.104 396.04 64.648 397.064 65.672C398.088 66.696 398.632 68.168 398.632 70.056V81H394.6V70.728C394.6 68.648 393.544 67.592 391.496 67.592C390.472 67.592 389.576 67.976 388.872 68.712C388.168 69.448 387.816 70.472 387.816 71.752V81H383.784V64.488H387.688V66.856C388.936 65.032 390.664 64.104 392.84 64.104ZM414.453 66.76V64.488H418.357V80.456C418.357 82.696 417.621 84.456 416.213 85.736C414.805 87.016 412.789 87.656 410.197 87.656C407.893 87.656 406.069 87.144 404.757 86.12C403.445 85.096 402.741 83.688 402.613 81.896H406.581C406.773 83.688 407.989 84.552 410.261 84.552C411.573 84.552 412.565 84.232 413.269 83.528C413.973 82.856 414.325 81.864 414.325 80.552V78.472C413.109 80.136 411.445 80.936 409.269 80.936C407.029 80.936 405.205 80.168 403.861 78.6C402.485 77.096 401.813 75.08 401.813 72.52C401.813 69.96 402.485 67.944 403.861 66.408C405.205 64.872 406.997 64.104 409.237 64.104C411.541 64.104 413.301 65 414.453 66.76ZM410.165 77.608C411.509 77.608 412.533 77.16 413.301 76.264C414.037 75.368 414.421 74.12 414.421 72.52C414.421 70.92 414.037 69.672 413.301 68.776C412.533 67.88 411.509 67.432 410.165 67.432C408.853 67.432 407.829 67.912 407.061 68.808C406.293 69.704 405.941 70.952 405.941 72.552C405.941 74.152 406.293 75.368 407.061 76.264C407.829 77.16 408.853 77.608 410.165 77.608Z" fill="#0B0B0B"/>
</svg>
