<svg width="605" height="140" viewBox="0 0 605 140" fill="none" xmlns="http://www.w3.org/2000/svg">
<rect width="605" height="140" rx="28" fill="#F0F0F0"/>
<rect x="32" y="43.5983" width="58.131" height="58.131" rx="29.0655" fill="white"/>
<path d="M53.4016 82.0766C51.1308 82.0766 49.4019 81.2509 48.2148 79.5994C47.0278 77.9478 46.4343 75.5738 46.4343 72.4772C46.4343 69.3806 47.0278 67.0065 48.2148 65.355C49.4019 63.7035 51.1308 62.8777 53.4016 62.8777C55.6725 62.8777 57.4014 63.7035 58.5884 65.355C59.7755 67.0065 60.369 69.3806 60.369 72.4772C60.369 75.5996 59.7755 77.9736 58.5884 79.6252C57.4014 81.2767 55.6725 82.0766 53.4016 82.0766ZM53.4016 79.6768C56.137 79.6768 57.5046 77.2769 57.5046 72.4772C57.5046 67.6775 56.137 65.2776 53.4016 65.2776C50.6663 65.2776 49.3244 67.6775 49.3244 72.4772C49.3244 77.2769 50.6663 79.6768 53.4016 79.6768ZM72.9426 71.8579C75.007 72.8643 76.0392 74.3868 76.0392 76.4512C76.0392 78.1543 75.4199 79.4961 74.2329 80.5283C72.9943 81.5605 71.4202 82.0766 69.459 82.0766C67.2914 82.0766 65.6398 81.5347 64.4528 80.4251C63.2658 79.3413 62.6981 77.8188 62.6981 75.8834H65.3818C65.4334 78.4123 66.8011 79.6768 69.4332 79.6768C70.5686 79.6768 71.4976 79.3929 72.1685 78.7994C72.8394 78.2059 73.1749 77.4059 73.1749 76.3995C73.1749 75.3673 72.8136 74.5416 72.1427 73.9481C71.446 73.3546 70.4912 73.0449 69.2783 73.0449H67.9107V70.9031H69.2009C70.3363 70.9031 71.2137 70.6708 71.833 70.1805C72.4524 69.6902 72.762 68.9677 72.762 68.0387C72.762 67.1614 72.4524 66.4904 71.833 65.9743C71.2137 65.484 70.388 65.226 69.3299 65.226C67.0333 65.226 65.8463 66.3098 65.7431 68.4774H63.0335C63.0593 66.7227 63.627 65.355 64.7367 64.3744C65.8463 63.3938 67.3946 62.8777 69.3558 62.8777C71.2137 62.8777 72.6846 63.3422 73.7942 64.2196C74.9038 65.1228 75.4715 66.3356 75.4715 67.8839C75.4715 69.6644 74.62 70.9805 72.9426 71.8579Z" fill="#6C6C6C"/>
<path d="M140.936 59.512C137.64 59.512 134.984 58.456 132.968 56.28C130.92 54.136 129.896 51.256 129.896 47.608C129.896 43.96 130.888 41.08 132.936 38.904C134.92 36.792 137.608 35.704 140.936 35.704C143.592 35.704 145.864 36.44 147.752 37.848C149.608 39.288 150.792 41.368 151.272 44.056H146.888C146.504 42.584 145.768 41.432 144.744 40.664C143.72 39.896 142.44 39.48 140.936 39.48C138.888 39.48 137.288 40.216 136.136 41.656C134.984 43.096 134.408 45.08 134.408 47.608C134.408 50.168 134.984 52.184 136.136 53.592C137.288 55.032 138.888 55.736 140.936 55.736C142.504 55.736 143.848 55.288 145 54.328C146.12 53.4 146.792 52.088 147.048 50.424H151.368C151.08 53.336 149.96 55.576 147.976 57.144C145.992 58.744 143.656 59.512 140.936 59.512ZM168.22 57.016C166.684 58.616 164.635 59.384 162.139 59.384C159.611 59.384 157.595 58.616 156.059 57.016C154.491 55.48 153.723 53.368 153.723 50.744C153.723 48.12 154.491 46.04 156.059 44.472C157.595 42.904 159.611 42.104 162.139 42.104C164.635 42.104 166.684 42.904 168.22 44.44C169.756 46.008 170.524 48.12 170.524 50.744C170.524 53.368 169.756 55.448 168.22 57.016ZM162.139 56.056C163.483 56.056 164.507 55.608 165.276 54.68C166.043 53.752 166.427 52.44 166.427 50.744C166.427 49.08 166.043 47.768 165.276 46.84C164.507 45.912 163.483 45.432 162.139 45.432C160.795 45.432 159.739 45.912 158.971 46.808C158.203 47.736 157.851 49.048 157.851 50.744C157.851 52.472 158.203 53.784 158.971 54.68C159.739 55.608 160.795 56.056 162.139 56.056ZM182.749 42.104C184.541 42.104 185.949 42.648 186.973 43.672C187.997 44.696 188.541 46.168 188.541 48.056V59H184.509V48.728C184.509 46.648 183.453 45.592 181.405 45.592C180.381 45.592 179.485 45.976 178.781 46.712C178.077 47.448 177.725 48.472 177.725 49.752V59H173.693V42.488H177.597V44.856C178.845 43.032 180.573 42.104 182.749 42.104ZM200.504 42.488V45.56H197.24V54.488C197.24 55.032 197.368 55.416 197.656 55.608C197.944 55.832 198.424 55.928 199.128 55.928H200.504V59C199.608 59.096 198.904 59.128 198.392 59.128C196.6 59.128 195.288 58.808 194.456 58.136C193.624 57.464 193.24 56.376 193.24 54.904V45.56H190.68V42.488H193.24V37.688H197.24V42.488H200.504ZM207.504 40.344H203.536V36.568H207.504V40.344ZM207.536 59H203.504V42.488H207.536V59ZM220.482 42.104C222.274 42.104 223.682 42.648 224.706 43.672C225.73 44.696 226.274 46.168 226.274 48.056V59H222.242V48.728C222.242 46.648 221.186 45.592 219.138 45.592C218.114 45.592 217.218 45.976 216.514 46.712C215.81 47.448 215.458 48.472 215.458 49.752V59H211.426V42.488H215.33V44.856C216.578 43.032 218.306 42.104 220.482 42.104ZM240.507 51.736V42.488H244.539V59H240.635V56.6C239.355 58.456 237.627 59.384 235.451 59.384C233.659 59.384 232.251 58.872 231.227 57.848C230.203 56.824 229.691 55.352 229.691 53.432V42.488H233.723V52.76C233.723 54.872 234.747 55.896 236.827 55.896C237.851 55.896 238.715 55.544 239.419 54.808C240.123 54.072 240.507 53.048 240.507 51.736ZM262.216 57.016C260.68 58.616 258.632 59.384 256.136 59.384C253.608 59.384 251.592 58.616 250.056 57.016C248.488 55.48 247.72 53.368 247.72 50.744C247.72 48.12 248.488 46.04 250.056 44.472C251.592 42.904 253.608 42.104 256.136 42.104C258.632 42.104 260.68 42.904 262.216 44.44C263.752 46.008 264.52 48.12 264.52 50.744C264.52 53.368 263.752 55.448 262.216 57.016ZM256.136 56.056C257.48 56.056 258.504 55.608 259.272 54.68C260.04 53.752 260.424 52.44 260.424 50.744C260.424 49.08 260.04 47.768 259.272 46.84C258.504 45.912 257.48 45.432 256.136 45.432C254.792 45.432 253.736 45.912 252.968 46.808C252.2 47.736 251.848 49.048 251.848 50.744C251.848 52.472 252.2 53.784 252.968 54.68C253.736 55.608 254.792 56.056 256.136 56.056ZM278.099 51.736V42.488H282.131V59H278.227V56.6C276.947 58.456 275.219 59.384 273.043 59.384C271.251 59.384 269.843 58.872 268.819 57.848C267.795 56.824 267.283 55.352 267.283 53.432V42.488H271.315V52.76C271.315 54.872 272.339 55.896 274.419 55.896C275.443 55.896 276.307 55.544 277.011 54.808C277.715 54.072 278.099 53.048 278.099 51.736ZM292.544 59.448C287.712 59.448 285.184 57.56 284.992 53.752H288.928C289.024 54.776 289.344 55.512 289.92 55.928C290.496 56.376 291.392 56.568 292.608 56.568C294.784 56.568 295.872 55.928 295.872 54.584C295.872 54.008 295.616 53.528 295.168 53.208C294.688 52.888 293.856 52.632 292.64 52.408L290.752 52.088C287.136 51.512 285.344 49.848 285.344 47.096C285.344 45.56 285.92 44.344 287.136 43.448C288.32 42.552 290.016 42.104 292.192 42.104C296.896 42.104 299.328 43.992 299.488 47.704H295.68C295.616 46.744 295.328 46.04 294.752 45.624C294.176 45.208 293.312 44.984 292.192 44.984C290.272 44.984 289.312 45.624 289.312 46.904C289.312 47.48 289.504 47.896 289.952 48.216C290.368 48.536 291.072 48.76 292.064 48.92L294.144 49.24C296.128 49.624 297.6 50.2 298.496 50.968C299.392 51.768 299.872 52.856 299.872 54.264C299.872 55.928 299.232 57.208 297.952 58.104C296.672 59 294.848 59.448 292.544 59.448ZM309.083 36.216H328.027V40.088H320.731V59H316.379V40.088H309.083V36.216ZM337.581 42.232C337.933 42.232 338.253 42.264 338.573 42.296V46.008H337.549C336.013 46.008 334.829 46.424 333.997 47.192C333.165 47.96 332.781 49.112 332.781 50.616V59H328.749V42.488H332.653V45.432C333.549 43.32 335.213 42.232 337.581 42.232ZM355.269 59H351.237C351.045 58.68 350.885 58.008 350.789 56.984C349.669 58.584 347.909 59.384 345.477 59.384C343.653 59.384 342.213 58.968 341.125 58.072C340.037 57.208 339.525 55.992 339.525 54.424C339.525 51.416 341.637 49.72 345.861 49.272L348.357 49.048C349.189 48.952 349.765 48.76 350.149 48.472C350.501 48.184 350.693 47.736 350.693 47.16C350.693 46.456 350.437 45.944 349.989 45.624C349.541 45.304 348.773 45.112 347.685 45.112C346.501 45.112 345.669 45.336 345.157 45.72C344.645 46.104 344.325 46.776 344.261 47.736H340.293C340.517 43.992 342.981 42.104 347.717 42.104C352.293 42.104 354.597 43.768 354.597 47.064V55.864C354.597 57.336 354.821 58.36 355.269 59ZM346.437 56.504C347.685 56.504 348.709 56.184 349.509 55.48C350.277 54.776 350.693 53.784 350.693 52.472V50.968C350.309 51.32 349.669 51.544 348.805 51.64L346.629 51.896C345.541 52.024 344.773 52.28 344.325 52.664C343.877 53.048 343.653 53.56 343.653 54.264C343.653 54.968 343.877 55.544 344.357 55.928C344.837 56.312 345.541 56.504 346.437 56.504ZM362.217 40.344H358.249V36.568H362.217V40.344ZM362.249 59H358.217V42.488H362.249V59ZM375.194 42.104C376.986 42.104 378.394 42.648 379.418 43.672C380.442 44.696 380.986 46.168 380.986 48.056V59H376.954V48.728C376.954 46.648 375.898 45.592 373.85 45.592C372.826 45.592 371.93 45.976 371.226 46.712C370.522 47.448 370.17 48.472 370.17 49.752V59H366.138V42.488H370.042V44.856C371.29 43.032 373.018 42.104 375.194 42.104ZM388.903 40.344H384.935V36.568H388.903V40.344ZM388.935 59H384.903V42.488H388.935V59ZM401.881 42.104C403.673 42.104 405.081 42.648 406.105 43.672C407.129 44.696 407.673 46.168 407.673 48.056V59H403.641V48.728C403.641 46.648 402.585 45.592 400.537 45.592C399.513 45.592 398.617 45.976 397.913 46.712C397.209 47.448 396.857 48.472 396.857 49.752V59H392.825V42.488H396.729V44.856C397.977 43.032 399.705 42.104 401.881 42.104ZM423.493 44.76V42.488H427.397V58.456C427.397 60.696 426.661 62.456 425.253 63.736C423.845 65.016 421.829 65.656 419.237 65.656C416.933 65.656 415.109 65.144 413.797 64.12C412.485 63.096 411.781 61.688 411.653 59.896H415.621C415.813 61.688 417.029 62.552 419.301 62.552C420.613 62.552 421.605 62.232 422.309 61.528C423.013 60.856 423.365 59.864 423.365 58.552V56.472C422.149 58.136 420.485 58.936 418.309 58.936C416.069 58.936 414.245 58.168 412.901 56.6C411.525 55.096 410.853 53.08 410.853 50.52C410.853 47.96 411.525 45.944 412.901 44.408C414.245 42.872 416.037 42.104 418.277 42.104C420.581 42.104 422.341 43 423.493 44.76ZM419.205 55.608C420.549 55.608 421.573 55.16 422.341 54.264C423.077 53.368 423.461 52.12 423.461 50.52C423.461 48.92 423.077 47.672 422.341 46.776C421.573 45.88 420.549 45.432 419.205 45.432C417.893 45.432 416.869 45.912 416.101 46.808C415.333 47.704 414.981 48.952 414.981 50.552C414.981 52.152 415.333 53.368 416.101 54.264C416.869 55.16 417.893 55.608 419.205 55.608ZM455.126 54.264L459.382 59H454.326L452.662 57.112C450.71 58.712 448.438 59.512 445.846 59.512C443.414 59.512 441.526 58.904 440.15 57.624C438.742 56.408 438.038 54.808 438.038 52.856C438.038 51.416 438.422 50.168 439.222 49.112C440.022 48.088 441.27 47.128 442.998 46.264C442.102 45.24 441.462 44.344 441.078 43.576C440.694 42.808 440.534 42.008 440.534 41.176C440.534 39.64 441.11 38.328 442.262 37.272C443.382 36.248 444.95 35.704 446.934 35.704C448.79 35.704 450.326 36.184 451.51 37.144C452.694 38.104 453.302 39.384 453.302 40.984C453.302 43.416 451.734 45.432 448.598 47.032L452.566 51.448C453.014 50.296 453.27 49.08 453.334 47.8H457.046C456.95 50.168 456.31 52.312 455.126 54.264ZM447.062 38.936C446.358 38.936 445.75 39.16 445.302 39.576C444.822 39.992 444.598 40.536 444.598 41.176C444.598 42.136 445.238 43.32 446.55 44.728L446.614 44.792C448.566 43.704 449.558 42.52 449.558 41.176C449.558 40.536 449.302 40.024 448.854 39.576C448.374 39.16 447.766 38.936 447.062 38.936ZM446.198 56.056C447.734 56.056 449.142 55.576 450.39 54.552L445.046 48.6C443.19 49.624 442.262 50.936 442.262 52.536C442.262 53.528 442.614 54.36 443.35 55.032C444.054 55.736 445.014 56.056 446.198 56.056ZM130.856 83.216H139.56C143.208 83.216 146.024 84.24 148.008 86.256C149.992 88.304 150.984 91.088 150.984 94.608C150.984 98.128 149.992 100.912 148.008 102.928C146.024 104.976 143.208 106 139.56 106H130.856V83.216ZM135.176 102.288H139.496C141.736 102.288 143.464 101.648 144.68 100.336C145.896 99.024 146.504 97.104 146.504 94.608C146.504 92.112 145.896 90.224 144.68 88.912C143.464 87.6 141.736 86.928 139.496 86.928H135.176V102.288ZM169.919 98.032V98.992H157.566C157.694 100.4 158.142 101.488 158.878 102.192C159.614 102.896 160.606 103.248 161.854 103.248C163.679 103.248 164.927 102.48 165.63 100.88H169.503C169.055 102.576 168.158 103.92 166.814 104.912C165.439 105.904 163.774 106.384 161.823 106.384C159.358 106.384 157.374 105.616 155.87 104.016C154.334 102.448 153.598 100.368 153.598 97.744C153.598 95.152 154.334 93.072 155.838 91.472C157.342 89.904 159.326 89.104 161.759 89.104C164.255 89.104 166.238 89.936 167.71 91.568C169.183 93.232 169.919 95.376 169.919 98.032ZM161.726 92.24C159.358 92.24 157.982 93.552 157.598 96.176H165.887C165.694 94.96 165.247 94 164.542 93.296C163.806 92.592 162.878 92.24 161.726 92.24ZM181.917 93.904L183.517 89.488H187.709L181.565 106H176.925L170.813 89.488H175.133L176.733 93.936C177.469 96.272 178.333 99.088 179.325 102.352C180.093 99.728 180.957 96.912 181.917 93.904ZM204.823 98.032V98.992H192.471C192.599 100.4 193.047 101.488 193.783 102.192C194.519 102.896 195.511 103.248 196.759 103.248C198.583 103.248 199.831 102.48 200.535 100.88H204.407C203.959 102.576 203.063 103.92 201.719 104.912C200.343 105.904 198.679 106.384 196.727 106.384C194.263 106.384 192.279 105.616 190.775 104.016C189.239 102.448 188.503 100.368 188.503 97.744C188.503 95.152 189.239 93.072 190.743 91.472C192.247 89.904 194.231 89.104 196.663 89.104C199.159 89.104 201.143 89.936 202.615 91.568C204.087 93.232 204.823 95.376 204.823 98.032ZM196.631 92.24C194.263 92.24 192.887 93.552 192.503 96.176H200.791C200.599 94.96 200.151 94 199.447 93.296C198.711 92.592 197.783 92.24 196.631 92.24ZM212.099 106H208.067V83.216H212.099V106ZM229.748 104.016C228.212 105.616 226.164 106.384 223.668 106.384C221.14 106.384 219.124 105.616 217.588 104.016C216.02 102.48 215.252 100.368 215.252 97.744C215.252 95.12 216.02 93.04 217.588 91.472C219.124 89.904 221.14 89.104 223.668 89.104C226.164 89.104 228.212 89.904 229.748 91.44C231.284 93.008 232.052 95.12 232.052 97.744C232.052 100.368 231.284 102.448 229.748 104.016ZM223.668 103.056C225.012 103.056 226.036 102.608 226.804 101.68C227.572 100.752 227.956 99.44 227.956 97.744C227.956 96.08 227.572 94.768 226.804 93.84C226.036 92.912 225.012 92.432 223.668 92.432C222.324 92.432 221.268 92.912 220.5 93.808C219.732 94.736 219.38 96.048 219.38 97.744C219.38 99.472 219.732 100.784 220.5 101.68C221.268 102.608 222.324 103.056 223.668 103.056ZM244.374 89.104C246.614 89.104 248.438 89.904 249.782 91.44C251.094 93.04 251.766 95.12 251.766 97.744C251.766 100.368 251.094 102.448 249.782 104.016C248.438 105.616 246.614 106.384 244.374 106.384C242.134 106.384 240.406 105.552 239.254 103.856V112.272H235.222V89.488H239.094V91.856C240.278 90.032 242.038 89.104 244.374 89.104ZM240.31 101.68C241.014 102.608 242.07 103.056 243.414 103.056C244.726 103.056 245.782 102.576 246.55 101.616C247.286 100.688 247.67 99.344 247.67 97.616C247.67 95.952 247.286 94.672 246.55 93.776C245.814 92.88 244.758 92.432 243.414 92.432C242.07 92.432 241.014 92.912 240.278 93.808C239.51 94.736 239.158 96.048 239.158 97.744C239.158 99.472 239.542 100.784 240.31 101.68ZM273.773 89.104C275.565 89.104 276.973 89.648 277.997 90.704C279.021 91.792 279.533 93.232 279.533 95.088V106H275.501V95.728C275.501 93.648 274.541 92.592 272.653 92.592C271.629 92.592 270.797 92.976 270.157 93.712C269.517 94.448 269.229 95.504 269.229 96.912V106H265.229V95.728C265.229 93.648 264.269 92.592 262.349 92.592C261.325 92.592 260.525 92.976 259.885 93.712C259.245 94.448 258.957 95.504 258.957 96.912V106H254.925V89.488H258.829V91.856C259.949 90.032 261.517 89.104 263.533 89.104C266.029 89.104 267.757 90.128 268.653 92.176C269.869 90.128 271.597 89.104 273.773 89.104ZM299.023 98.032V98.992H286.671C286.799 100.4 287.247 101.488 287.983 102.192C288.719 102.896 289.711 103.248 290.959 103.248C292.783 103.248 294.031 102.48 294.735 100.88H298.607C298.159 102.576 297.263 103.92 295.919 104.912C294.543 105.904 292.879 106.384 290.927 106.384C288.463 106.384 286.479 105.616 284.975 104.016C283.439 102.448 282.703 100.368 282.703 97.744C282.703 95.152 283.439 93.072 284.943 91.472C286.447 89.904 288.431 89.104 290.863 89.104C293.359 89.104 295.343 89.936 296.815 91.568C298.287 93.232 299.023 95.376 299.023 98.032ZM290.831 92.24C288.463 92.24 287.087 93.552 286.703 96.176H294.991C294.799 94.96 294.351 94 293.647 93.296C292.911 92.592 291.983 92.24 290.831 92.24ZM311.323 89.104C313.115 89.104 314.523 89.648 315.547 90.672C316.571 91.696 317.115 93.168 317.115 95.056V106H313.083V95.728C313.083 93.648 312.027 92.592 309.979 92.592C308.955 92.592 308.059 92.976 307.355 93.712C306.651 94.448 306.299 95.472 306.299 96.752V106H302.267V89.488H306.171V91.856C307.419 90.032 309.147 89.104 311.323 89.104ZM329.077 89.488V92.56H325.813V101.488C325.813 102.032 325.941 102.416 326.229 102.608C326.517 102.832 326.997 102.928 327.701 102.928H329.077V106C328.181 106.096 327.477 106.128 326.965 106.128C325.173 106.128 323.861 105.808 323.029 105.136C322.197 104.464 321.813 103.376 321.813 101.904V92.56H319.253V89.488H321.813V84.688H325.813V89.488H329.077Z" fill="#0B0B0B"/>
</svg>
