<svg width="110" height="34" viewBox="0 0 110 34" fill="none" xmlns="http://www.w3.org/2000/svg">
<g clip-path="url(#clip0_128_51)">
<path d="M3.94008 9.65556C10.4708 9.65556 15.7651 14.9498 15.7651 21.4806C15.7651 28.0113 10.4708 33.3056 3.94008 33.3056H0.392578V9.65556H3.94008ZM84.0663 12.1388C87.6138 12.1388 87.6138 12.1388 89.9788 14.6575C92.3438 17.1763 92.3438 17.1763 92.3438 20.8657C92.3438 24.5787 92.3438 24.5787 89.9906 26.991C87.6374 29.4033 87.6374 29.4033 84.1372 29.4033C80.5897 29.4033 80.5897 29.4033 78.1774 26.9201C75.7651 24.4368 75.7651 24.4368 75.7651 20.8184C75.7651 16.9871 75.7651 16.9871 78.071 14.5629C80.3769 12.1388 80.3769 12.1388 84.0663 12.1388ZM47.0304 12.3753L47.131 12.3792C47.7271 12.4262 47.7271 12.4262 48.1419 13.0375L56.5613 24.7206V14.6457L56.5562 14.5373C56.5105 14.0509 56.5105 14.0509 56.0529 13.5933C55.5444 13.0848 55.5444 13.0848 55.5444 12.8483V12.7774L55.5476 12.7179C55.5862 12.3753 55.5862 12.3753 56.0883 12.3753H58.8554L58.9358 12.3777C59.3993 12.4062 59.3993 12.4062 59.3993 12.7774V12.8483L59.3958 12.8896C59.357 13.1272 59.357 13.1272 58.8909 13.5933C58.3824 14.1018 58.3824 14.1018 58.3824 14.6457V28.2208L58.3785 28.33C58.3513 28.7012 58.3513 28.7012 58.1341 28.9185C57.8857 29.1668 57.8857 29.1668 57.46 29.1668H56.3485L56.2684 29.1625C55.7882 29.1104 55.7882 29.1104 55.3079 28.4337L46.2972 16.3485V26.8491L46.3016 26.9519C46.3456 27.464 46.3456 27.464 46.8294 27.937C47.3615 28.4573 47.3615 28.4573 47.3615 28.6938V28.7648L47.3583 28.8242C47.3196 29.1668 47.3196 29.1668 46.8175 29.1668H44.0741L43.9937 29.1644C43.5302 29.1359 43.5302 29.1359 43.5302 28.7648V28.6938L43.5341 28.6485C43.5732 28.41 43.5732 28.41 44.0032 27.937C44.4762 27.4167 44.4762 27.4167 44.4762 26.8491V14.6694L44.4715 14.5565C44.4289 14.0521 44.4289 14.0521 44.0032 13.6051C43.5302 13.1085 43.5302 13.1085 43.5302 12.872V12.7774L43.5334 12.7179C43.572 12.3753 43.572 12.3753 44.0741 12.3753H47.0304ZM67.2275 12.3753L67.4991 12.3776C70.5951 12.4315 70.5951 12.4315 72.4423 13.7234C74.3698 15.0714 74.3698 15.0714 74.3934 17.6729C74.3934 19.1156 74.3934 19.1156 73.5539 20.3335C72.7143 21.5515 72.7143 21.5515 71.1534 22.2137L74.2515 26.8964L74.3576 27.0505C74.6319 27.4266 74.6319 27.4266 74.9965 27.7123C75.434 28.0553 75.434 28.0553 75.6942 28.2563C75.9543 28.4573 75.9543 28.4573 75.9543 28.6938V28.7648L75.9511 28.8242C75.9125 29.1668 75.9125 29.1668 75.4104 29.1668H70.4675L70.3844 29.164C69.9472 29.1333 69.9472 29.1333 69.9472 28.7648V28.6938L69.9515 28.6397C69.9812 28.447 69.9812 28.447 70.2192 28.209C70.4912 27.937 70.4912 27.937 70.5976 27.7123C70.704 27.4877 70.704 27.4877 70.4675 26.8964L67.9843 22.7813L65.3828 22.8286V26.8964L65.3879 27.0048C65.4336 27.4912 65.4336 27.4912 65.8913 27.9488C66.3997 28.4573 66.3997 28.4573 66.3997 28.6938V28.7648L66.3964 28.8242C66.3561 29.1668 66.3561 29.1668 65.8321 29.1668H61.3859L61.3028 29.164C60.8656 29.1333 60.8656 29.1333 60.8656 28.7648V28.6938L60.8693 28.6486C60.9065 28.4111 60.9065 28.4111 61.315 27.9488C61.7643 27.4404 61.7643 27.4404 61.7643 26.8964V14.6457L61.7598 14.5373C61.7194 14.0509 61.7194 14.0509 61.315 13.5933C60.8656 13.0848 60.8656 13.0848 60.8656 12.8483V12.7537L60.8692 12.6933C60.909 12.3753 60.909 12.3753 61.3859 12.3753H67.2275ZM98.4691 12.3753L98.5496 12.3775C99.0131 12.4044 99.0131 12.4044 99.0131 12.7537V12.8483L99.0095 12.8896C98.9707 13.1272 98.9707 13.1272 98.5046 13.5933C97.9961 14.1018 97.9961 14.1018 97.9961 14.6457V20.842L104.051 14.6694L104.123 14.5986C104.362 14.3516 104.362 14.3516 104.393 14.1136C104.429 13.8416 104.429 13.8416 104.299 13.6642C104.169 13.4869 104.169 13.4869 104.015 13.2504C103.861 13.0139 103.861 13.0139 103.861 12.8483V12.7537L103.865 12.6977C103.903 12.3753 103.903 12.3753 104.405 12.3753H107.811L107.894 12.3779C108.331 12.4068 108.331 12.4068 108.331 12.7537V12.8483L108.327 12.9074C108.294 13.1144 108.294 13.1144 108.036 13.3213C107.74 13.5578 107.74 13.5578 107.196 13.9244C106.652 14.291 106.652 14.291 106.274 14.6694L102.868 18.0986L108.166 26.8728L108.27 27.0416C108.534 27.4522 108.534 27.4522 108.84 27.7478C109.206 28.1026 109.206 28.1026 109.395 28.2799C109.585 28.4573 109.585 28.4573 109.585 28.6938V28.7648L109.581 28.829C109.543 29.1668 109.543 29.1668 109.088 29.1668H104.074L103.991 29.164C103.554 29.1333 103.554 29.1333 103.554 28.7648V28.6938L103.558 28.6395C103.589 28.4455 103.589 28.4455 103.838 28.1972C104.121 27.9134 104.121 27.9134 104.275 27.7005C104.429 27.4877 104.429 27.4877 104.216 26.991L100.408 20.5819L97.9961 23.0178V26.8728L98.0012 26.9857C98.047 27.4912 98.047 27.4912 98.5046 27.9488C99.0131 28.4573 99.0131 28.4573 99.0131 28.6938V28.7648L99.0099 28.8242C98.9712 29.1668 98.9712 29.1668 98.4691 29.1668H94.0466L93.9635 29.164C93.5263 29.1333 93.5263 29.1333 93.5263 28.7648V28.6938L93.53 28.6486C93.5671 28.4111 93.5671 28.4111 93.9756 27.9488C94.425 27.4404 94.425 27.4404 94.425 26.8728V14.6457L94.4205 14.5373C94.38 14.0509 94.38 14.0509 93.9756 13.5933C93.5263 13.0848 93.5263 13.0848 93.5263 12.8483V12.7537L93.5299 12.6933C93.5696 12.3753 93.5696 12.3753 94.0466 12.3753H98.4691ZM82.7892 13.6761C81.1573 13.6761 81.1573 13.6761 80.1995 14.8586C79.2417 16.0411 79.2417 16.0411 79.2417 18.004C79.2417 20.4163 79.2417 20.4163 80.0103 22.6867C80.7789 24.9571 80.7789 24.9571 82.1506 26.4116C83.5223 27.8661 83.5223 27.8661 85.1305 27.8661C86.7624 27.8661 86.7624 27.8661 87.7557 26.6599C88.749 25.4538 88.749 25.4538 88.749 23.5854C88.749 21.2677 88.749 21.2677 87.9685 18.9855C87.1881 16.7033 87.1881 16.7033 85.7927 15.1897C84.3974 13.6761 84.3974 13.6761 82.7892 13.6761ZM31.7288 0.195557V23.8456H27.5901C21.0593 23.8456 15.7651 18.5513 15.7651 12.0206C15.7651 5.48979 21.0593 0.195557 27.5901 0.195557H31.7288ZM66.991 13.818H66.1869L66.1 13.8212C65.3828 13.8771 65.3828 13.8771 65.3828 14.8822V19.8014L65.385 19.9399C65.4094 20.6834 65.4094 20.6834 65.702 21.0194C66.0213 21.386 66.0213 21.386 66.7072 21.386H67.7241C69.0722 21.386 69.0722 21.386 69.8881 20.5464C70.704 19.7068 70.704 19.7068 70.704 18.075C70.704 16.1357 70.704 16.1357 69.5807 14.9768C68.4573 13.818 68.4573 13.818 66.991 13.818Z" fill="#A5A9B6"/>
</g>
<defs>
<clipPath id="clip0_128_51">
<rect width="109.973" height="33.11" fill="white" transform="translate(0.0332031 0.195557)"/>
</clipPath>
</defs>
</svg>
