<svg width="111" height="32" viewBox="0 0 111 32" fill="none" xmlns="http://www.w3.org/2000/svg">
<g clip-path="url(#clip0_128_38)">
<path fill-rule="evenodd" clip-rule="evenodd" d="M23.6499 23.9812C25.6173 23.9812 27.2122 25.5761 27.2122 27.5434C27.2122 29.5108 25.6173 31.1057 23.6499 31.1057H11.2095C9.24217 31.1057 7.6473 29.5108 7.6473 27.5434C7.6473 25.5761 9.24217 23.9812 11.2095 23.9812H23.6499ZM54.0932 5.53065C54.4887 5.53065 54.8288 5.67436 55.1133 5.96177C55.3979 6.24919 55.5402 6.59262 55.5402 6.99208V24.5292L55.535 24.6603C55.5069 25.0043 55.3663 25.3041 55.1133 25.5595C54.8288 25.8469 54.4887 25.9907 54.0932 25.9907C53.6976 25.9907 53.36 25.8445 53.0802 25.5522C52.9548 25.4353 52.8584 25.3087 52.7908 25.1723L46.8579 13.1885V24.5292L46.8526 24.6603C46.8245 25.0043 46.684 25.3041 46.431 25.5595C46.1464 25.8469 45.8064 25.9907 45.4109 25.9907C45.0153 25.9907 44.6753 25.8469 44.3907 25.5595C44.1061 25.2721 43.9638 24.9287 43.9638 24.5292V6.99208L43.9691 6.861C43.9972 6.51699 44.1377 6.21725 44.3907 5.96177C44.6753 5.67436 45.0153 5.53065 45.4109 5.53065C45.8064 5.53065 46.1489 5.67192 46.4383 5.95446C46.554 6.08112 46.6457 6.21265 46.7132 6.34905L52.6461 18.3328V6.99208L52.6514 6.861C52.6795 6.51699 52.82 6.21725 53.073 5.96177C53.3576 5.67436 53.6976 5.53065 54.0932 5.53065ZM67.8228 5.53065C68.2184 5.53065 68.5584 5.67436 68.843 5.96177C69.1276 6.24919 69.2699 6.59262 69.2699 6.99208V20.1449L69.2664 20.364C69.2174 21.8871 68.6542 23.1927 67.5768 24.2808C66.4481 25.4207 65.0831 25.9907 63.4817 25.9907C61.8803 25.9907 60.5152 25.4207 59.3865 24.2808C58.2578 23.1409 57.6934 21.7623 57.6934 20.1449V6.99208L57.6987 6.861C57.7268 6.51699 57.8674 6.21725 58.1203 5.96177C58.4049 5.67436 58.745 5.53065 59.1405 5.53065C59.536 5.53065 59.8761 5.67436 60.1607 5.96177C60.4453 6.24919 60.5876 6.59262 60.5876 6.99208V20.1449L60.5913 20.3051C60.6264 21.045 60.9074 21.6809 61.4341 22.2129C61.9984 22.7828 62.681 23.0678 63.4817 23.0678C64.2824 23.0678 64.9649 22.7828 65.5292 22.2129C66.0936 21.6429 66.3758 20.9536 66.3758 20.1449V6.99208L66.381 6.861C66.4091 6.51699 66.5497 6.21725 66.8027 5.96177C67.0872 5.67436 67.4273 5.53065 67.8228 5.53065ZM81.5525 5.53065C81.948 5.53065 82.288 5.67436 82.5726 5.96177C82.8572 6.24919 82.9995 6.59262 82.9995 6.99208V24.5292L82.9943 24.6603C82.9661 25.0043 82.8256 25.3041 82.5726 25.5595C82.288 25.8469 81.948 25.9907 81.5525 25.9907C81.1569 25.9907 80.8193 25.8445 80.5395 25.5522C80.4141 25.4353 80.3176 25.3087 80.2501 25.1723L74.3172 13.1885V24.5292L74.3119 24.6603C74.2838 25.0043 74.1433 25.3041 73.8903 25.5595C73.6057 25.8469 73.2657 25.9907 72.8701 25.9907C72.4746 25.9907 72.1346 25.8469 71.85 25.5595C71.5654 25.2721 71.4231 24.9287 71.4231 24.5292V6.99208L71.4284 6.861C71.4565 6.51699 71.597 6.21725 71.85 5.96177C72.1346 5.67436 72.4746 5.53065 72.8701 5.53065C73.2657 5.53065 73.6081 5.67192 73.8976 5.95446C74.0133 6.08112 74.105 6.21265 74.1725 6.34905L80.1054 18.3328V6.99208L80.1107 6.861C80.1388 6.51699 80.2793 6.21725 80.5323 5.96177C80.8169 5.67436 81.1569 5.53065 81.5525 5.53065ZM90.941 5.53065L91.1579 5.53418C92.666 5.58364 93.9587 6.15242 95.0361 7.24052C96.1648 8.38044 96.7292 9.75905 96.7292 11.3764C96.7292 12.9937 96.1648 14.3723 95.0361 15.5122C94.9493 15.5999 94.8625 15.6827 94.7757 15.7607C94.8625 15.8386 94.9493 15.9214 95.0361 16.0091C96.1648 17.149 96.7292 18.5276 96.7292 20.1449C96.7292 21.7623 96.1648 23.1409 95.0361 24.2808C93.9074 25.4207 92.5424 25.9907 90.941 25.9907H86.5998L86.47 25.9853C86.1294 25.9569 85.8326 25.815 85.5796 25.5595C85.295 25.2721 85.1527 24.9287 85.1527 24.5292V6.99208L85.158 6.861C85.1861 6.51699 85.3267 6.21725 85.5796 5.96177C85.8642 5.67436 86.2043 5.53065 86.5998 5.53065H90.941ZM109.012 5.53065C109.407 5.53065 109.747 5.67436 110.032 5.96177C110.317 6.24919 110.459 6.59262 110.459 6.99208C110.459 7.32334 110.362 7.61562 110.169 7.86894L110.184 7.89816L106.291 15.7607L110.184 23.6231L110.169 23.6524L110.237 23.7492C110.385 23.9794 110.459 24.2394 110.459 24.5292C110.459 24.9287 110.317 25.2721 110.032 25.5595C109.747 25.8469 109.407 25.9907 109.012 25.9907C108.616 25.9907 108.279 25.8445 107.999 25.5522C107.873 25.4353 107.777 25.3087 107.709 25.1723L103.773 17.2221H101.776V24.5292L101.771 24.6603C101.743 25.0043 101.603 25.3041 101.35 25.5595C101.065 25.8469 100.725 25.9907 100.329 25.9907C99.9339 25.9907 99.5938 25.8469 99.3093 25.5595C99.0247 25.2721 98.8824 24.9287 98.8824 24.5292V6.99208L98.8876 6.861C98.9158 6.51699 99.0563 6.21725 99.3093 5.96177C99.5938 5.67436 99.9339 5.53065 100.329 5.53065C100.725 5.53065 101.065 5.67436 101.35 5.96177C101.634 6.24919 101.776 6.59262 101.776 6.99208V14.2992H103.773L107.709 6.34905L107.765 6.24766C107.827 6.14719 107.905 6.04946 107.999 5.95446C108.279 5.67192 108.616 5.53065 109.012 5.53065ZM90.941 17.2221H88.0468V23.0678H90.941C91.7417 23.0678 92.4242 22.7828 92.9885 22.2129C93.5529 21.6429 93.8351 20.9536 93.8351 20.1449C93.8351 19.3363 93.5529 18.647 92.9885 18.077C92.4242 17.5071 91.7417 17.2221 90.941 17.2221ZM30.4537 0.415649C32.2188 0.415649 33.6583 1.81936 33.7309 3.57851L33.7327 3.6771L33.8443 3.6775L33.845 3.7734C33.845 12.7779 26.4957 20.0775 17.4298 20.0775C8.45463 20.0775 1.16181 12.9232 1.01685 4.04302L1.01465 3.7734L1.01493 3.67722L1.13411 3.67721C1.2537 2.01676 2.62959 0.707043 4.30931 0.707043C6.06758 0.707043 7.49294 2.14212 7.49294 3.91237C7.49294 4.08423 7.47951 4.25292 7.45365 4.41745C7.83403 9.50613 12.1117 13.5173 17.3327 13.5173C22.5998 13.5173 26.9069 9.43494 27.2216 4.28215C27.1899 4.09919 27.1736 3.91057 27.1736 3.71811C27.1736 1.89421 28.6421 0.415649 30.4537 0.415649ZM90.941 8.45351H88.0468V14.2992H90.941C91.7417 14.2992 92.4242 14.0142 92.9885 13.4443C93.5529 12.8743 93.8351 12.185 93.8351 11.3764C93.8351 10.5677 93.5529 9.8784 92.9885 9.30844C92.4242 8.73849 91.7417 8.45351 90.941 8.45351Z" fill="#A5A9B6"/>
</g>
<defs>
<clipPath id="clip0_128_38">
<rect width="109.973" height="30.69" fill="white" transform="translate(0.643555 0.415649)"/>
</clipPath>
</defs>
</svg>
