<svg width="111" height="31" viewBox="0 0 111 31" fill="none" xmlns="http://www.w3.org/2000/svg">
<g clip-path="url(#clip0_128_63)">
<path d="M25.1519 0.805664C28.8083 0.805664 31.7723 3.77949 31.7723 7.44789C31.7723 9.69138 30.6637 11.6751 28.9661 12.8776C29.2849 14.0578 29.4552 15.2994 29.4552 16.5809C29.4552 24.3763 23.1565 30.6957 15.3868 30.6957C7.617 30.6957 1.31836 24.3763 1.31836 16.5809C1.31836 8.7856 7.617 2.46622 15.3868 2.46622C17.0106 2.46622 18.5703 2.74226 20.0216 3.25011C21.2351 1.75814 23.0826 0.805664 25.1519 0.805664ZM15.3868 5.23721C9.14235 5.23721 4.08026 10.316 4.08026 16.5809C4.08026 22.8459 9.14235 27.9247 15.3868 27.9247C21.6312 27.9247 26.6933 22.8459 26.6933 16.5809C26.6933 15.6836 26.5894 14.8105 26.3931 13.9733C25.9911 14.0501 25.5762 14.0901 25.1519 14.0901C21.4955 14.0901 18.5315 11.1163 18.5315 7.44789C18.5315 6.86029 18.6075 6.29052 18.7503 5.74793C17.6881 5.41595 16.5582 5.23721 15.3868 5.23721ZM48.8346 6.44529C50.7238 6.44529 52.358 6.85541 53.7373 7.67566C55.1165 8.49592 56.1742 9.65173 56.9104 11.1431C57.6466 12.6345 58.0147 14.3583 58.0147 16.3146C58.0147 18.2709 57.6466 19.9948 56.9104 21.4862C56.1742 22.9775 55.1165 24.1333 53.7373 24.9536C52.358 25.7738 50.7238 26.184 48.8346 26.184C46.9542 26.184 45.3244 25.7738 43.9452 24.9536C42.5659 24.1333 41.5082 22.9775 40.7721 21.4862C40.0359 19.9948 39.6678 18.2709 39.6678 16.3146C39.6678 14.3583 40.0359 12.6345 40.7721 11.1431C41.5082 9.65173 42.5659 8.49592 43.9452 7.67566C45.3244 6.85541 46.9542 6.44529 48.8346 6.44529ZM104.567 11.1826C105.676 11.1826 106.665 11.3536 107.534 11.6958C108.403 12.0379 109.106 12.527 109.643 13.163C110.179 13.799 110.505 14.5381 110.621 15.3803L107.348 15.9593L107.324 15.8219C107.215 15.2812 106.941 14.8489 106.503 14.525C106.028 14.1741 105.401 13.9767 104.62 13.9328C103.866 13.8977 103.259 14.014 102.798 14.2815C102.336 14.5491 102.106 14.9198 102.106 15.3935C102.106 15.683 102.201 15.9199 102.392 16.1041C102.582 16.2883 102.948 16.4747 103.489 16.6633C104.03 16.852 104.877 17.091 106.031 17.3805C107.192 17.6788 108.113 18.0122 108.791 18.3806C109.47 18.7491 109.962 19.1899 110.268 19.7031C110.574 20.2163 110.727 20.8458 110.727 21.5914C110.727 22.5389 110.49 23.3569 110.015 24.0456C109.541 24.7343 108.858 25.2628 107.966 25.6313C107.075 25.9997 106.017 26.184 104.793 26.184C103.019 26.184 101.578 25.7892 100.469 24.9996C99.3606 24.2101 98.6865 23.1003 98.447 21.6704L101.72 21.1703L101.757 21.3202C101.934 21.9594 102.291 22.4643 102.831 22.835C103.412 23.2341 104.141 23.4337 105.019 23.4337C105.782 23.4337 106.376 23.2824 106.802 22.9797C107.228 22.6771 107.441 22.2626 107.441 21.7362C107.441 21.394 107.359 21.1309 107.195 20.9466C107.031 20.7624 106.705 20.5804 106.217 20.4005C105.729 20.2207 104.917 19.9816 103.782 19.6834C102.567 19.3675 101.607 19.0276 100.902 18.6635C100.197 18.2995 99.6887 17.8696 99.3783 17.3739C99.0679 16.8783 98.9127 16.2708 98.9127 15.5514C98.9127 14.6741 99.1455 13.9065 99.6111 13.2486C100.077 12.5906 100.738 12.0818 101.594 11.7221C102.449 11.3624 103.441 11.1826 104.567 11.1826ZM62.8442 6.84006V13.1564L62.982 13.0015C63.497 12.4443 64.1162 12.0068 64.8399 11.6892C65.6293 11.3427 66.5295 11.1694 67.5407 11.1694C69.1461 11.1694 70.3657 11.5708 71.1994 12.3735C72.0332 13.1762 72.5742 14.0688 72.8226 15.0514C73.0709 16.0339 73.1951 16.9682 73.1951 17.8542V25.7892H69.9488V18.9465L69.9474 18.7568C69.9036 15.6899 68.7865 14.1565 66.5961 14.1565C65.6293 14.1565 64.8266 14.4833 64.188 15.1369C63.5493 15.7905 63.23 16.9068 63.23 18.4859V25.7892H59.9837V6.84006H62.8442ZM91.5287 11.222C92.5664 11.222 93.4556 11.4348 94.1962 11.8603C94.9368 12.2857 95.4978 12.8823 95.8792 13.6499C96.2606 14.4175 96.4513 15.3189 96.4513 16.3541V25.7892H93.2449V17.1568L93.2421 16.9783C93.2135 16.0978 92.9705 15.3984 92.5132 14.8803C92.0254 14.3276 91.3646 14.0513 90.5308 14.0513C90.0164 14.0513 89.5529 14.1697 89.1405 14.4066C88.7281 14.6434 88.4043 14.9877 88.1693 15.4395C87.9342 15.8913 87.8167 16.4243 87.8167 17.0384V25.7892H84.6236V17.1963L84.6208 17.0146C84.5922 16.1183 84.3492 15.4091 83.8919 14.8869C83.4041 14.3298 82.7388 14.0513 81.8962 14.0513C81.3552 14.0513 80.8806 14.1763 80.4726 14.4263C80.0646 14.6763 79.7498 15.0272 79.528 15.479C79.3063 15.9308 79.1954 16.4506 79.1954 17.0384V25.7892H75.9624V11.5773H78.7963V13.117L78.9299 12.9575C79.3855 12.437 79.9419 12.0252 80.599 11.7221C81.3219 11.3887 82.1091 11.222 82.9606 11.222C83.9451 11.222 84.7922 11.4216 85.5017 11.8208C86.2113 12.2199 86.7612 12.7748 87.1515 13.4854C87.595 12.7748 88.2025 12.2199 88.9742 11.8208C89.7459 11.4216 90.5974 11.222 91.5287 11.222ZM48.7547 9.43241C47.5041 9.43241 46.4531 9.71972 45.6016 10.2943C44.7501 10.8689 44.1137 11.6738 43.6924 12.709C43.2711 13.7442 43.0604 14.9592 43.0604 16.3541C43.0604 17.749 43.28 18.9596 43.719 19.986C44.1581 21.0124 44.8144 21.8042 45.6881 22.3612C46.5617 22.9183 47.6372 23.1968 48.9144 23.1968C50.1562 23.1968 51.205 22.9139 52.0609 22.3481C52.9168 21.7822 53.5577 20.9817 53.9834 19.9465C54.4092 18.9114 54.622 17.7007 54.622 16.3146C54.622 14.911 54.4025 13.6938 53.9635 12.663C53.5244 11.6322 52.8658 10.836 51.9877 10.2746C51.1096 9.71314 50.032 9.43241 48.7547 9.43241Z" fill="#A5A9B6"/>
</g>
<defs>
<clipPath id="clip0_128_63">
<rect width="109.973" height="29.89" fill="white" transform="translate(0.813477 0.805664)"/>
</clipPath>
</defs>
</svg>
