<svg width="490" height="148" viewBox="0 0 490 148" fill="none" xmlns="http://www.w3.org/2000/svg">
<rect x="0.5" y="0.5" width="149" height="55" rx="27.5" stroke="#A1A1A1"/>
<path d="M37.7236 20.76H39.8636V35H37.1636V25.4H33.8836V23.5L34.2036 23.48C35.2436 23.42 36.0236 23.18 36.5836 22.78C37.1436 22.38 37.5236 21.7 37.7236 20.76ZM51.9516 30.46H46.0116V28.3H51.9516V30.46ZM60.7531 32.72H68.0931V35H57.7331L57.7931 33.94C57.8331 32.86 58.0731 31.88 58.4731 31C58.9531 29.92 59.9731 29.04 61.5331 28.32L62.9331 27.6C63.7531 27.2 64.3331 26.8 64.6931 26.38C65.0331 25.98 65.2131 25.46 65.2131 24.84C65.2131 24.2 64.9931 23.68 64.5931 23.3C64.1731 22.92 63.5931 22.72 62.8731 22.72C61.2331 22.72 60.4131 23.6 60.4131 25.32H57.8131C57.7931 23.8 58.2331 22.6 59.1131 21.74C59.9931 20.88 61.2731 20.44 62.9531 20.44C64.4731 20.44 65.6931 20.84 66.5931 21.6C67.4731 22.38 67.9331 23.4 67.9331 24.64C67.9331 25.72 67.6331 26.64 67.0331 27.4C66.4331 28.16 65.4731 28.86 64.1731 29.5L62.8531 30.2C62.0931 30.6 61.5731 30.98 61.2731 31.34C60.9731 31.7 60.7931 32.16 60.7531 32.72ZM79.6464 35.32C77.7064 35.32 76.2064 34.9 75.1464 34.02C74.0864 33.16 73.5464 31.92 73.5464 30.3H76.2064C76.2064 31.32 76.5064 32.04 77.1064 32.48C77.7064 32.92 78.5664 33.14 79.7264 33.14C80.6464 33.14 81.3664 32.98 81.8664 32.62C82.3464 32.26 82.6064 31.76 82.6064 31.08C82.6064 30.52 82.3864 30.1 81.9664 29.8C81.5464 29.52 80.7864 29.26 79.6864 29.02L78.4864 28.78C75.4264 28.22 73.9064 26.78 73.9064 24.46C73.9064 23.24 74.3664 22.26 75.3064 21.54C76.2264 20.82 77.5264 20.44 79.1864 20.44C81.0664 20.44 82.4864 20.84 83.4464 21.64C84.4064 22.44 84.9264 23.56 84.9864 25H82.3664C82.3064 24.2 82.0264 23.6 81.5464 23.2C81.0664 22.82 80.2864 22.62 79.2264 22.62C78.3864 22.62 77.7664 22.78 77.3264 23.08C76.8864 23.4 76.6664 23.82 76.6664 24.38C76.6664 24.96 76.8664 25.4 77.2664 25.7C77.6664 26.02 78.4064 26.28 79.4464 26.48L80.6864 26.72C82.3464 27.06 83.5464 27.56 84.2864 28.22C85.0264 28.88 85.4064 29.78 85.4064 30.94C85.4064 32.34 84.8864 33.42 83.8864 34.18C82.8664 34.94 81.4464 35.32 79.6464 35.32ZM92.0055 24.68V26.6H89.9655V32.18C89.9655 32.52 90.0455 32.76 90.2255 32.88C90.4055 33.02 90.7055 33.08 91.1455 33.08H92.0055V35C91.4455 35.06 91.0055 35.08 90.6855 35.08C89.5655 35.08 88.7455 34.88 88.2255 34.46C87.7055 34.04 87.4655 33.36 87.4655 32.44V26.6H85.8655V24.68H87.4655V21.68H89.9655V24.68H92.0055ZM102.702 35H100.182C100.062 34.8 99.9623 34.38 99.9023 33.74C99.2023 34.74 98.1023 35.24 96.5823 35.24C95.4423 35.24 94.5423 34.98 93.8623 34.42C93.1823 33.88 92.8623 33.12 92.8623 32.14C92.8623 30.26 94.1823 29.2 96.8223 28.92L98.3823 28.78C98.9023 28.72 99.2623 28.6 99.5023 28.42C99.7223 28.24 99.8423 27.96 99.8423 27.6C99.8423 27.16 99.6823 26.84 99.4023 26.64C99.1223 26.44 98.6423 26.32 97.9623 26.32C97.2223 26.32 96.7023 26.46 96.3823 26.7C96.0623 26.94 95.8623 27.36 95.8223 27.96H93.3423C93.4823 25.62 95.0223 24.44 97.9823 24.44C100.842 24.44 102.282 25.48 102.282 27.54V33.04C102.282 33.96 102.422 34.6 102.702 35ZM97.1823 33.44C97.9623 33.44 98.6023 33.24 99.1023 32.8C99.5823 32.36 99.8423 31.74 99.8423 30.92V29.98C99.6023 30.2 99.2023 30.34 98.6623 30.4L97.3023 30.56C96.6223 30.64 96.1423 30.8 95.8623 31.04C95.5823 31.28 95.4423 31.6 95.4423 32.04C95.4423 32.48 95.5823 32.84 95.8823 33.08C96.1823 33.32 96.6223 33.44 97.1823 33.44ZM109.411 22.7H108.531C107.651 22.7 107.231 23.12 107.231 23.94V24.68H109.351V26.6H107.231V35H104.731V26.6H103.131V24.68H104.731V23.9C104.731 22.9 105.011 22.12 105.571 21.56C106.131 21 106.971 20.7 108.111 20.7C108.611 20.7 109.051 20.72 109.411 20.76V22.7ZM116.384 22.7H115.504C114.624 22.7 114.204 23.12 114.204 23.94V24.68H116.324V26.6H114.204V35H111.704V26.6H110.104V24.68H111.704V23.9C111.704 22.9 111.984 22.12 112.544 21.56C113.104 21 113.944 20.7 115.084 20.7C115.584 20.7 116.024 20.72 116.384 20.76V22.7Z" fill="#3E3E3E"/>
<rect x="0.5" y="92.5" width="149" height="55" rx="27.5" stroke="#A1A1A1"/>
<path d="M24.4445 124.72H31.7845V127H21.4245L21.4845 125.94C21.5245 124.86 21.7645 123.88 22.1645 123C22.6445 121.92 23.6645 121.04 25.2245 120.32L26.6245 119.6C27.4445 119.2 28.0245 118.8 28.3845 118.38C28.7245 117.98 28.9045 117.46 28.9045 116.84C28.9045 116.2 28.6845 115.68 28.2845 115.3C27.8645 114.92 27.2845 114.72 26.5645 114.72C24.9245 114.72 24.1045 115.6 24.1045 117.32H21.5045C21.4845 115.8 21.9245 114.6 22.8045 113.74C23.6845 112.88 24.9645 112.44 26.6445 112.44C28.1645 112.44 29.3845 112.84 30.2845 113.6C31.1645 114.38 31.6245 115.4 31.6245 116.64C31.6245 117.72 31.3245 118.64 30.7245 119.4C30.1245 120.16 29.1645 120.86 27.8645 121.5L26.5445 122.2C25.7845 122.6 25.2645 122.98 24.9645 123.34C24.6645 123.7 24.4845 124.16 24.4445 124.72ZM36.9814 112.76H39.1214V127H36.4214V117.4H33.1414V115.5L33.4614 115.48C34.5014 115.42 35.2814 115.18 35.8414 114.78C36.4014 114.38 36.7814 113.7 36.9814 112.76ZM51.2094 122.46H45.2694V120.3H51.2094V122.46ZM62.7309 117.64C64.2709 117.64 65.4709 118.1 66.3509 119C67.1909 119.92 67.6109 121.04 67.6109 122.38C67.6109 123.86 67.1109 125.06 66.1309 125.96C65.1309 126.88 63.8509 127.32 62.2909 127.32C60.8309 127.32 59.6109 126.94 58.6309 126.14C57.6709 125.38 57.1309 124.3 57.0309 122.94H59.6109C59.6909 123.62 59.9909 124.16 60.4709 124.56C60.9509 124.96 61.5709 125.14 62.2909 125.14C63.0909 125.14 63.7509 124.9 64.2509 124.38C64.7509 123.86 65.0109 123.2 65.0109 122.38C65.0109 121.58 64.7509 120.92 64.2509 120.4C63.7509 119.88 63.0909 119.62 62.2909 119.62C61.0909 119.62 60.2509 120.1 59.7909 121.06H57.3109L58.6309 112.76H66.8709V115.04H60.7509L60.1309 118.58C60.8909 117.96 61.7709 117.64 62.7309 117.64ZM74.7427 127.32C72.8627 127.32 71.4427 126.68 70.4827 125.4C69.5227 124.12 69.0427 122.28 69.0427 119.88C69.0427 117.48 69.5227 115.64 70.4827 114.36C71.4427 113.08 72.8627 112.44 74.7427 112.44C76.6027 112.44 78.0227 113.08 79.0027 114.36C79.9627 115.64 80.4627 117.48 80.4627 119.88C80.4627 122.28 79.9627 124.12 79.0027 125.4C78.0227 126.68 76.6027 127.32 74.7427 127.32ZM74.7427 125.04C76.6627 125.04 77.6427 123.32 77.6427 119.88C77.6427 116.44 76.6627 114.72 74.7427 114.72C72.8227 114.72 71.8627 116.44 71.8627 119.88C71.8627 123.32 72.8227 125.04 74.7427 125.04ZM92.1855 127.32C90.2455 127.32 88.7455 126.9 87.6855 126.02C86.6255 125.16 86.0855 123.92 86.0855 122.3H88.7455C88.7455 123.32 89.0455 124.04 89.6455 124.48C90.2455 124.92 91.1055 125.14 92.2655 125.14C93.1855 125.14 93.9055 124.98 94.4055 124.62C94.8855 124.26 95.1455 123.76 95.1455 123.08C95.1455 122.52 94.9255 122.1 94.5055 121.8C94.0855 121.52 93.3255 121.26 92.2255 121.02L91.0255 120.78C87.9655 120.22 86.4455 118.78 86.4455 116.46C86.4455 115.24 86.9055 114.26 87.8455 113.54C88.7655 112.82 90.0655 112.44 91.7255 112.44C93.6055 112.44 95.0255 112.84 95.9855 113.64C96.9455 114.44 97.4655 115.56 97.5255 117H94.9055C94.8455 116.2 94.5655 115.6 94.0855 115.2C93.6055 114.82 92.8255 114.62 91.7655 114.62C90.9255 114.62 90.3055 114.78 89.8655 115.08C89.4255 115.4 89.2055 115.82 89.2055 116.38C89.2055 116.96 89.4055 117.4 89.8055 117.7C90.2055 118.02 90.9455 118.28 91.9855 118.48L93.2255 118.72C94.8855 119.06 96.0855 119.56 96.8255 120.22C97.5655 120.88 97.9455 121.78 97.9455 122.94C97.9455 124.34 97.4255 125.42 96.4255 126.18C95.4055 126.94 93.9855 127.32 92.1855 127.32ZM104.545 116.68V118.6H102.505V124.18C102.505 124.52 102.585 124.76 102.765 124.88C102.945 125.02 103.245 125.08 103.685 125.08H104.545V127C103.985 127.06 103.545 127.08 103.225 127.08C102.105 127.08 101.285 126.88 100.765 126.46C100.245 126.04 100.005 125.36 100.005 124.44V118.6H98.4045V116.68H100.005V113.68H102.505V116.68H104.545ZM115.241 127H112.721C112.601 126.8 112.501 126.38 112.441 125.74C111.741 126.74 110.641 127.24 109.121 127.24C107.981 127.24 107.081 126.98 106.401 126.42C105.721 125.88 105.401 125.12 105.401 124.14C105.401 122.26 106.721 121.2 109.361 120.92L110.921 120.78C111.441 120.72 111.801 120.6 112.041 120.42C112.261 120.24 112.381 119.96 112.381 119.6C112.381 119.16 112.221 118.84 111.941 118.64C111.661 118.44 111.181 118.32 110.501 118.32C109.761 118.32 109.241 118.46 108.921 118.7C108.601 118.94 108.401 119.36 108.361 119.96H105.881C106.021 117.62 107.561 116.44 110.521 116.44C113.381 116.44 114.821 117.48 114.821 119.54V125.04C114.821 125.96 114.961 126.6 115.241 127ZM109.721 125.44C110.501 125.44 111.141 125.24 111.641 124.8C112.121 124.36 112.381 123.74 112.381 122.92V121.98C112.141 122.2 111.741 122.34 111.201 122.4L109.841 122.56C109.161 122.64 108.681 122.8 108.401 123.04C108.121 123.28 107.981 123.6 107.981 124.04C107.981 124.48 108.121 124.84 108.421 125.08C108.721 125.32 109.161 125.44 109.721 125.44ZM121.95 114.7H121.07C120.19 114.7 119.77 115.12 119.77 115.94V116.68H121.89V118.6H119.77V127H117.27V118.6H115.67V116.68H117.27V115.9C117.27 114.9 117.55 114.12 118.11 113.56C118.67 113 119.51 112.7 120.65 112.7C121.15 112.7 121.59 112.72 121.95 112.76V114.7ZM128.923 114.7H128.043C127.163 114.7 126.743 115.12 126.743 115.94V116.68H128.863V118.6H126.743V127H124.243V118.6H122.643V116.68H124.243V115.9C124.243 114.9 124.523 114.12 125.083 113.56C125.643 113 126.483 112.7 127.623 112.7C128.123 112.7 128.563 112.72 128.923 112.76V114.7Z" fill="#3E3E3E"/>
<rect x="170.5" y="0.5" width="149" height="55" rx="27.5" stroke="#A1A1A1"/>
<path d="M205.666 27.4C206.406 27.72 206.986 28.2 207.426 28.8C207.866 29.4 208.086 30.12 208.086 30.92C208.086 32.24 207.606 33.3 206.646 34.1C205.666 34.92 204.366 35.32 202.746 35.32C200.926 35.32 199.546 34.88 198.586 34C197.626 33.12 197.166 31.88 197.166 30.28H199.786C199.826 32.12 200.786 33.04 202.666 33.04C203.466 33.04 204.106 32.84 204.586 32.44C205.046 32.04 205.286 31.5 205.286 30.82C205.286 30.1 205.046 29.52 204.566 29.12C204.086 28.72 203.406 28.52 202.566 28.52H201.506V26.54H202.546C204.206 26.54 205.046 25.88 205.046 24.56C205.046 23.96 204.826 23.5 204.406 23.16C203.966 22.82 203.386 22.64 202.646 22.64C201.026 22.64 200.186 23.4 200.106 24.9H197.506C197.526 23.48 197.986 22.38 198.866 21.6C199.746 20.84 201.026 20.44 202.666 20.44C204.186 20.44 205.406 20.8 206.306 21.5C207.206 22.2 207.666 23.14 207.666 24.34C207.666 25.7 206.986 26.72 205.666 27.4ZM219.608 30.46H213.668V28.3H219.608V30.46ZM229.149 20.76H231.289V35H228.589V25.4H225.309V23.5L225.629 23.48C226.669 23.42 227.449 23.18 228.009 22.78C228.569 22.38 228.949 21.7 229.149 20.76ZM238.981 35.32C237.101 35.32 235.681 34.68 234.721 33.4C233.761 32.12 233.281 30.28 233.281 27.88C233.281 25.48 233.761 23.64 234.721 22.36C235.681 21.08 237.101 20.44 238.981 20.44C240.841 20.44 242.261 21.08 243.241 22.36C244.201 23.64 244.701 25.48 244.701 27.88C244.701 30.28 244.201 32.12 243.241 33.4C242.261 34.68 240.841 35.32 238.981 35.32ZM238.981 33.04C240.901 33.04 241.881 31.32 241.881 27.88C241.881 24.44 240.901 22.72 238.981 22.72C237.061 22.72 236.101 24.44 236.101 27.88C236.101 31.32 237.061 33.04 238.981 33.04ZM256.424 35.32C254.484 35.32 252.984 34.9 251.924 34.02C250.864 33.16 250.324 31.92 250.324 30.3H252.984C252.984 31.32 253.284 32.04 253.884 32.48C254.484 32.92 255.344 33.14 256.504 33.14C257.424 33.14 258.144 32.98 258.644 32.62C259.124 32.26 259.384 31.76 259.384 31.08C259.384 30.52 259.164 30.1 258.744 29.8C258.324 29.52 257.564 29.26 256.464 29.02L255.264 28.78C252.204 28.22 250.684 26.78 250.684 24.46C250.684 23.24 251.144 22.26 252.084 21.54C253.004 20.82 254.304 20.44 255.964 20.44C257.844 20.44 259.264 20.84 260.224 21.64C261.184 22.44 261.704 23.56 261.764 25H259.144C259.084 24.2 258.804 23.6 258.324 23.2C257.844 22.82 257.064 22.62 256.004 22.62C255.164 22.62 254.544 22.78 254.104 23.08C253.664 23.4 253.444 23.82 253.444 24.38C253.444 24.96 253.644 25.4 254.044 25.7C254.444 26.02 255.184 26.28 256.224 26.48L257.464 26.72C259.124 27.06 260.324 27.56 261.064 28.22C261.804 28.88 262.184 29.78 262.184 30.94C262.184 32.34 261.664 33.42 260.664 34.18C259.644 34.94 258.224 35.32 256.424 35.32ZM268.783 24.68V26.6H266.743V32.18C266.743 32.52 266.823 32.76 267.003 32.88C267.183 33.02 267.483 33.08 267.923 33.08H268.783V35C268.223 35.06 267.783 35.08 267.463 35.08C266.343 35.08 265.523 34.88 265.003 34.46C264.483 34.04 264.243 33.36 264.243 32.44V26.6H262.643V24.68H264.243V21.68H266.743V24.68H268.783ZM279.48 35H276.96C276.84 34.8 276.74 34.38 276.68 33.74C275.98 34.74 274.88 35.24 273.36 35.24C272.22 35.24 271.32 34.98 270.64 34.42C269.96 33.88 269.64 33.12 269.64 32.14C269.64 30.26 270.96 29.2 273.6 28.92L275.16 28.78C275.68 28.72 276.04 28.6 276.28 28.42C276.5 28.24 276.62 27.96 276.62 27.6C276.62 27.16 276.46 26.84 276.18 26.64C275.9 26.44 275.42 26.32 274.74 26.32C274 26.32 273.48 26.46 273.16 26.7C272.84 26.94 272.64 27.36 272.6 27.96H270.12C270.26 25.62 271.8 24.44 274.76 24.44C277.62 24.44 279.06 25.48 279.06 27.54V33.04C279.06 33.96 279.2 34.6 279.48 35ZM273.96 33.44C274.74 33.44 275.38 33.24 275.88 32.8C276.36 32.36 276.62 31.74 276.62 30.92V29.98C276.38 30.2 275.98 30.34 275.44 30.4L274.08 30.56C273.4 30.64 272.92 30.8 272.64 31.04C272.36 31.28 272.22 31.6 272.22 32.04C272.22 32.48 272.36 32.84 272.66 33.08C272.96 33.32 273.4 33.44 273.96 33.44ZM286.188 22.7H285.308C284.428 22.7 284.008 23.12 284.008 23.94V24.68H286.128V26.6H284.008V35H281.508V26.6H279.908V24.68H281.508V23.9C281.508 22.9 281.788 22.12 282.348 21.56C282.908 21 283.748 20.7 284.888 20.7C285.388 20.7 285.828 20.72 286.188 20.76V22.7ZM293.161 22.7H292.281C291.401 22.7 290.981 23.12 290.981 23.94V24.68H293.101V26.6H290.981V35H288.481V26.6H286.881V24.68H288.481V23.9C288.481 22.9 288.761 22.12 289.321 21.56C289.881 21 290.721 20.7 291.861 20.7C292.361 20.7 292.801 20.72 293.161 20.76V22.7Z" fill="#3E3E3E"/>
<rect x="170.5" y="92.5" width="149" height="55" rx="27.5" stroke="#A1A1A1"/>
<path d="M209.665 117.64C211.205 117.64 212.405 118.1 213.285 119C214.125 119.92 214.545 121.04 214.545 122.38C214.545 123.86 214.045 125.06 213.065 125.96C212.065 126.88 210.785 127.32 209.225 127.32C207.765 127.32 206.545 126.94 205.565 126.14C204.605 125.38 204.065 124.3 203.965 122.94H206.545C206.625 123.62 206.925 124.16 207.405 124.56C207.885 124.96 208.505 125.14 209.225 125.14C210.025 125.14 210.685 124.9 211.185 124.38C211.685 123.86 211.945 123.2 211.945 122.38C211.945 121.58 211.685 120.92 211.185 120.4C210.685 119.88 210.025 119.62 209.225 119.62C208.025 119.62 207.185 120.1 206.725 121.06H204.245L205.565 112.76H213.805V115.04H207.685L207.065 118.58C207.825 117.96 208.705 117.64 209.665 117.64ZM221.676 127.32C219.796 127.32 218.376 126.68 217.416 125.4C216.456 124.12 215.976 122.28 215.976 119.88C215.976 117.48 216.456 115.64 217.416 114.36C218.376 113.08 219.796 112.44 221.676 112.44C223.536 112.44 224.956 113.08 225.936 114.36C226.896 115.64 227.396 117.48 227.396 119.88C227.396 122.28 226.896 124.12 225.936 125.4C224.956 126.68 223.536 127.32 221.676 127.32ZM221.676 125.04C223.596 125.04 224.576 123.32 224.576 119.88C224.576 116.44 223.596 114.72 221.676 114.72C219.756 114.72 218.796 116.44 218.796 119.88C218.796 123.32 219.756 125.04 221.676 125.04ZM234.683 118.8H238.123V120.96H234.683V124.4H232.343V120.96H228.883V118.8H232.343V115.34H234.683V118.8ZM249.685 127.32C247.745 127.32 246.245 126.9 245.185 126.02C244.125 125.16 243.585 123.92 243.585 122.3H246.245C246.245 123.32 246.545 124.04 247.145 124.48C247.745 124.92 248.605 125.14 249.765 125.14C250.685 125.14 251.405 124.98 251.905 124.62C252.385 124.26 252.645 123.76 252.645 123.08C252.645 122.52 252.425 122.1 252.005 121.8C251.585 121.52 250.825 121.26 249.725 121.02L248.525 120.78C245.465 120.22 243.945 118.78 243.945 116.46C243.945 115.24 244.405 114.26 245.345 113.54C246.265 112.82 247.565 112.44 249.225 112.44C251.105 112.44 252.525 112.84 253.485 113.64C254.445 114.44 254.965 115.56 255.025 117H252.405C252.345 116.2 252.065 115.6 251.585 115.2C251.105 114.82 250.325 114.62 249.265 114.62C248.425 114.62 247.805 114.78 247.365 115.08C246.925 115.4 246.705 115.82 246.705 116.38C246.705 116.96 246.905 117.4 247.305 117.7C247.705 118.02 248.445 118.28 249.485 118.48L250.725 118.72C252.385 119.06 253.585 119.56 254.325 120.22C255.065 120.88 255.445 121.78 255.445 122.94C255.445 124.34 254.925 125.42 253.925 126.18C252.905 126.94 251.485 127.32 249.685 127.32ZM262.045 116.68V118.6H260.005V124.18C260.005 124.52 260.085 124.76 260.265 124.88C260.445 125.02 260.745 125.08 261.185 125.08H262.045V127C261.485 127.06 261.045 127.08 260.725 127.08C259.605 127.08 258.785 126.88 258.265 126.46C257.745 126.04 257.505 125.36 257.505 124.44V118.6H255.905V116.68H257.505V113.68H260.005V116.68H262.045ZM272.741 127H270.221C270.101 126.8 270.001 126.38 269.941 125.74C269.241 126.74 268.141 127.24 266.621 127.24C265.481 127.24 264.581 126.98 263.901 126.42C263.221 125.88 262.901 125.12 262.901 124.14C262.901 122.26 264.221 121.2 266.861 120.92L268.421 120.78C268.941 120.72 269.301 120.6 269.541 120.42C269.761 120.24 269.881 119.96 269.881 119.6C269.881 119.16 269.721 118.84 269.441 118.64C269.161 118.44 268.681 118.32 268.001 118.32C267.261 118.32 266.741 118.46 266.421 118.7C266.101 118.94 265.901 119.36 265.861 119.96H263.381C263.521 117.62 265.061 116.44 268.021 116.44C270.881 116.44 272.321 117.48 272.321 119.54V125.04C272.321 125.96 272.461 126.6 272.741 127ZM267.221 125.44C268.001 125.44 268.641 125.24 269.141 124.8C269.621 124.36 269.881 123.74 269.881 122.92V121.98C269.641 122.2 269.241 122.34 268.701 122.4L267.341 122.56C266.661 122.64 266.181 122.8 265.901 123.04C265.621 123.28 265.481 123.6 265.481 124.04C265.481 124.48 265.621 124.84 265.921 125.08C266.221 125.32 266.661 125.44 267.221 125.44ZM279.45 114.7H278.57C277.69 114.7 277.27 115.12 277.27 115.94V116.68H279.39V118.6H277.27V127H274.77V118.6H273.17V116.68H274.77V115.9C274.77 114.9 275.05 114.12 275.61 113.56C276.17 113 277.01 112.7 278.15 112.7C278.65 112.7 279.09 112.72 279.45 112.76V114.7ZM286.423 114.7H285.543C284.663 114.7 284.243 115.12 284.243 115.94V116.68H286.363V118.6H284.243V127H281.743V118.6H280.143V116.68H281.743V115.9C281.743 114.9 282.023 114.12 282.583 113.56C283.143 113 283.983 112.7 285.123 112.7C285.623 112.7 286.063 112.72 286.423 112.76V114.7Z" fill="#3E3E3E"/>
<rect x="340.5" y="0.5" width="149" height="55" rx="27.5" stroke="#A1A1A1"/>
<path d="M367.47 20.76H369.61V35H366.91V25.4H363.63V23.5L363.95 23.48C364.99 23.42 365.77 23.18 366.33 22.78C366.89 22.38 367.27 21.7 367.47 20.76ZM375.243 20.76H377.383V35H374.683V25.4H371.403V23.5L371.723 23.48C372.763 23.42 373.543 23.18 374.103 22.78C374.663 22.38 375.043 21.7 375.243 20.76ZM389.471 30.46H383.531V28.3H389.471V30.46ZM398.273 32.72H405.613V35H395.253L395.313 33.94C395.353 32.86 395.593 31.88 395.993 31C396.473 29.92 397.493 29.04 399.053 28.32L400.453 27.6C401.273 27.2 401.853 26.8 402.213 26.38C402.553 25.98 402.733 25.46 402.733 24.84C402.733 24.2 402.513 23.68 402.113 23.3C401.693 22.92 401.113 22.72 400.393 22.72C398.753 22.72 397.933 23.6 397.933 25.32H395.333C395.313 23.8 395.753 22.6 396.633 21.74C397.513 20.88 398.793 20.44 400.473 20.44C401.993 20.44 403.213 20.84 404.113 21.6C404.993 22.38 405.453 23.4 405.453 24.64C405.453 25.72 405.153 26.64 404.553 27.4C403.953 28.16 402.993 28.86 401.693 29.5L400.373 30.2C399.613 30.6 399.093 30.98 398.793 31.34C398.493 31.7 398.313 32.16 398.273 32.72ZM412.458 35.32C410.578 35.32 409.158 34.68 408.198 33.4C407.238 32.12 406.758 30.28 406.758 27.88C406.758 25.48 407.238 23.64 408.198 22.36C409.158 21.08 410.578 20.44 412.458 20.44C414.318 20.44 415.738 21.08 416.718 22.36C417.678 23.64 418.178 25.48 418.178 27.88C418.178 30.28 417.678 32.12 416.718 33.4C415.738 34.68 414.318 35.32 412.458 35.32ZM412.458 33.04C414.378 33.04 415.358 31.32 415.358 27.88C415.358 24.44 414.378 22.72 412.458 22.72C410.538 22.72 409.578 24.44 409.578 27.88C409.578 31.32 410.538 33.04 412.458 33.04ZM429.9 35.32C427.96 35.32 426.46 34.9 425.4 34.02C424.34 33.16 423.8 31.92 423.8 30.3H426.46C426.46 31.32 426.76 32.04 427.36 32.48C427.96 32.92 428.82 33.14 429.98 33.14C430.9 33.14 431.62 32.98 432.12 32.62C432.6 32.26 432.86 31.76 432.86 31.08C432.86 30.52 432.64 30.1 432.22 29.8C431.8 29.52 431.04 29.26 429.94 29.02L428.74 28.78C425.68 28.22 424.16 26.78 424.16 24.46C424.16 23.24 424.62 22.26 425.56 21.54C426.48 20.82 427.78 20.44 429.44 20.44C431.32 20.44 432.74 20.84 433.7 21.64C434.66 22.44 435.18 23.56 435.24 25H432.62C432.56 24.2 432.28 23.6 431.8 23.2C431.32 22.82 430.54 22.62 429.48 22.62C428.64 22.62 428.02 22.78 427.58 23.08C427.14 23.4 426.92 23.82 426.92 24.38C426.92 24.96 427.12 25.4 427.52 25.7C427.92 26.02 428.66 26.28 429.7 26.48L430.94 26.72C432.6 27.06 433.8 27.56 434.54 28.22C435.28 28.88 435.66 29.78 435.66 30.94C435.66 32.34 435.14 33.42 434.14 34.18C433.12 34.94 431.7 35.32 429.9 35.32ZM442.259 24.68V26.6H440.219V32.18C440.219 32.52 440.299 32.76 440.479 32.88C440.659 33.02 440.959 33.08 441.399 33.08H442.259V35C441.699 35.06 441.259 35.08 440.939 35.08C439.819 35.08 438.999 34.88 438.479 34.46C437.959 34.04 437.719 33.36 437.719 32.44V26.6H436.119V24.68H437.719V21.68H440.219V24.68H442.259ZM452.956 35H450.436C450.316 34.8 450.216 34.38 450.156 33.74C449.456 34.74 448.356 35.24 446.836 35.24C445.696 35.24 444.796 34.98 444.116 34.42C443.436 33.88 443.116 33.12 443.116 32.14C443.116 30.26 444.436 29.2 447.076 28.92L448.636 28.78C449.156 28.72 449.516 28.6 449.756 28.42C449.976 28.24 450.096 27.96 450.096 27.6C450.096 27.16 449.936 26.84 449.656 26.64C449.376 26.44 448.896 26.32 448.216 26.32C447.476 26.32 446.956 26.46 446.636 26.7C446.316 26.94 446.116 27.36 446.076 27.96H443.596C443.736 25.62 445.276 24.44 448.236 24.44C451.096 24.44 452.536 25.48 452.536 27.54V33.04C452.536 33.96 452.676 34.6 452.956 35ZM447.436 33.44C448.216 33.44 448.856 33.24 449.356 32.8C449.836 32.36 450.096 31.74 450.096 30.92V29.98C449.856 30.2 449.456 30.34 448.916 30.4L447.556 30.56C446.876 30.64 446.396 30.8 446.116 31.04C445.836 31.28 445.696 31.6 445.696 32.04C445.696 32.48 445.836 32.84 446.136 33.08C446.436 33.32 446.876 33.44 447.436 33.44ZM459.665 22.7H458.785C457.905 22.7 457.485 23.12 457.485 23.94V24.68H459.605V26.6H457.485V35H454.985V26.6H453.385V24.68H454.985V23.9C454.985 22.9 455.265 22.12 455.825 21.56C456.385 21 457.225 20.7 458.365 20.7C458.865 20.7 459.305 20.72 459.665 20.76V22.7ZM466.638 22.7H465.758C464.878 22.7 464.458 23.12 464.458 23.94V24.68H466.578V26.6H464.458V35H461.958V26.6H460.358V24.68H461.958V23.9C461.958 22.9 462.238 22.12 462.798 21.56C463.358 21 464.198 20.7 465.338 20.7C465.838 20.7 466.278 20.72 466.638 20.76V22.7Z" fill="#3E3E3E"/>
<rect x="340.5" y="92.5" width="149" height="55" rx="27.5" stroke="#A1A1A1"/>
<path d="M396.42 127.32C394.28 127.32 392.56 126.64 391.26 125.28C389.94 123.92 389.3 122.12 389.3 119.88C389.3 117.66 389.94 115.86 391.26 114.48C392.56 113.12 394.28 112.44 396.42 112.44C398.54 112.44 400.26 113.12 401.58 114.48C402.86 115.84 403.52 117.64 403.52 119.88C403.52 122.14 402.86 123.94 401.58 125.28C400.26 126.64 398.54 127.32 396.42 127.32ZM393.3 123.58C394.08 124.5 395.12 124.94 396.42 124.94C397.72 124.94 398.76 124.5 399.56 123.58C400.32 122.7 400.72 121.46 400.72 119.88C400.72 118.32 400.32 117.08 399.56 116.18C398.76 115.28 397.72 114.82 396.42 114.82C395.12 114.82 394.08 115.28 393.3 116.18C392.5 117.1 392.12 118.32 392.12 119.88C392.12 121.44 392.5 122.68 393.3 123.58ZM410.492 116.68V118.6H408.452V124.18C408.452 124.52 408.532 124.76 408.712 124.88C408.892 125.02 409.192 125.08 409.632 125.08H410.492V127C409.932 127.06 409.492 127.08 409.172 127.08C408.052 127.08 407.232 126.88 406.712 126.46C406.192 126.04 405.952 125.36 405.952 124.44V118.6H404.352V116.68H405.952V113.68H408.452V116.68H410.492ZM417.627 116.44C418.747 116.44 419.627 116.78 420.267 117.42C420.907 118.06 421.247 118.98 421.247 120.16V127H418.727V120.58C418.727 119.28 418.067 118.62 416.787 118.62C416.147 118.62 415.587 118.86 415.147 119.32C414.707 119.78 414.487 120.42 414.487 121.22V127H411.967V112.76H414.487V118.06C415.267 116.98 416.307 116.44 417.627 116.44ZM433.035 122.02V122.62H425.315C425.395 123.5 425.675 124.18 426.135 124.62C426.595 125.06 427.215 125.28 427.995 125.28C429.135 125.28 429.915 124.8 430.355 123.8H432.775C432.495 124.86 431.935 125.7 431.095 126.32C430.235 126.94 429.195 127.24 427.975 127.24C426.435 127.24 425.195 126.76 424.255 125.76C423.295 124.78 422.835 123.48 422.835 121.84C422.835 120.22 423.295 118.92 424.235 117.92C425.175 116.94 426.415 116.44 427.935 116.44C429.495 116.44 430.735 116.96 431.655 117.98C432.575 119.02 433.035 120.36 433.035 122.02ZM427.915 118.4C426.435 118.4 425.575 119.22 425.335 120.86H430.515C430.395 120.1 430.115 119.5 429.675 119.06C429.215 118.62 428.635 118.4 427.915 118.4ZM440.183 116.52C440.403 116.52 440.603 116.54 440.803 116.56V118.88H440.163C439.203 118.88 438.463 119.14 437.943 119.62C437.423 120.1 437.183 120.82 437.183 121.76V127H434.663V116.68H437.103V118.52C437.663 117.2 438.703 116.52 440.183 116.52Z" fill="#3E3E3E"/>
</svg>
