<svg width="46" height="46" viewBox="0 0 46 46" fill="none" xmlns="http://www.w3.org/2000/svg">
<path d="M22.8906 45.2556C35.317 45.2556 45.3906 35.182 45.3906 22.7556C45.3906 10.3292 35.317 0.255615 22.8906 0.255615C10.4642 0.255615 0.390625 10.3292 0.390625 22.7556C0.390625 35.182 10.4642 45.2556 22.8906 45.2556Z" fill="#2350F1"/>
<g clip-path="url(#clip0_0_1)">
<path d="M24.8291 21.8035C25.1507 21.9255 25.4639 22.0598 25.7686 22.2063C26.0732 22.3528 26.3695 22.5196 26.6572 22.7068C26.471 22.9021 26.3018 23.1055 26.1494 23.3171C25.9971 23.5287 25.8574 23.7566 25.7305 24.0007C25.0788 23.5938 24.3848 23.2846 23.6484 23.073C22.9121 22.8614 22.1546 22.7556 21.376 22.7556C20.6312 22.7556 19.9118 22.8492 19.2178 23.0364C18.5238 23.2236 17.8763 23.484 17.2754 23.8176C16.6745 24.1513 16.1286 24.5582 15.6377 25.0383C15.1468 25.5185 14.7236 26.0474 14.3682 26.6252C14.0127 27.203 13.7376 27.8256 13.543 28.4929C13.3483 29.1602 13.251 29.852 13.251 30.5681H11.626C11.626 29.5916 11.7741 28.6516 12.0703 27.7483C12.3665 26.845 12.7939 26.0108 13.3525 25.2458C13.9111 24.4809 14.5713 23.8014 15.333 23.2073C16.0947 22.6132 16.958 22.1453 17.9229 21.8035C16.9665 21.2013 16.2217 20.4444 15.6885 19.533C15.1553 18.6215 14.8844 17.6124 14.876 16.5056C14.876 15.643 15.0452 14.8333 15.3838 14.0764C15.7223 13.3196 16.1836 12.6563 16.7676 12.0867C17.3516 11.517 18.0413 11.0694 18.8369 10.7439C19.6325 10.4184 20.4788 10.2556 21.376 10.2556C22.2731 10.2556 23.1152 10.4184 23.9023 10.7439C24.6895 11.0694 25.3792 11.5129 25.9717 12.0745C26.5641 12.636 27.0296 13.2992 27.3682 14.0642C27.7067 14.8292 27.876 15.643 27.876 16.5056C27.876 17.0427 27.8083 17.5676 27.6729 18.0803C27.5374 18.593 27.3343 19.0772 27.0635 19.533C26.7926 19.9887 26.4753 20.4078 26.1113 20.7903C25.7474 21.1728 25.32 21.5105 24.8291 21.8035ZM16.501 16.5056C16.501 17.1567 16.6279 17.7629 16.8818 18.3245C17.1357 18.886 17.4827 19.3824 17.9229 19.8137C18.363 20.245 18.8792 20.5828 19.4717 20.8269C20.0641 21.071 20.6989 21.1931 21.376 21.1931C22.0446 21.1931 22.6751 21.071 23.2676 20.8269C23.86 20.5828 24.3763 20.2491 24.8164 19.8259C25.2565 19.4028 25.6077 18.9063 25.8701 18.3367C26.1325 17.767 26.2594 17.1567 26.251 16.5056C26.251 15.8627 26.124 15.2564 25.8701 14.6868C25.6162 14.1171 25.2692 13.6207 24.8291 13.1975C24.389 12.7743 23.8685 12.4366 23.2676 12.1843C22.6667 11.932 22.0361 11.81 21.376 11.8181C20.6989 11.8181 20.0684 11.9402 19.4844 12.1843C18.9004 12.4285 18.3841 12.7621 17.9355 13.1853C17.487 13.6085 17.1357 14.109 16.8818 14.6868C16.6279 15.2646 16.501 15.8708 16.501 16.5056ZM35.1885 26.6619C35.1885 27.085 35.1208 27.496 34.9854 27.8948C34.8499 28.2935 34.6468 28.6638 34.376 29.0056V35.2556L31.126 33.6931L27.876 35.2556V29.0056C27.6136 28.6638 27.4147 28.2935 27.2793 27.8948C27.1439 27.496 27.0719 27.085 27.0635 26.6619C27.0635 26.1248 27.1693 25.6202 27.3809 25.1482C27.5924 24.6762 27.8802 24.2652 28.2441 23.9153C28.6081 23.5653 29.0397 23.2846 29.5391 23.073C30.0384 22.8614 30.5674 22.7556 31.126 22.7556C31.6846 22.7556 32.2093 22.8573 32.7002 23.0608C33.1911 23.2642 33.6185 23.545 33.9824 23.9031C34.3464 24.2611 34.6383 24.6762 34.8584 25.1482C35.0785 25.6202 35.1885 26.1248 35.1885 26.6619ZM31.126 24.3181C30.7874 24.3181 30.4701 24.3792 30.1738 24.5012C29.8776 24.6233 29.6195 24.7901 29.3994 25.0017C29.1794 25.2133 29.0059 25.4615 28.8789 25.7463C28.752 26.0312 28.6885 26.3363 28.6885 26.6619C28.6885 26.9874 28.752 27.2926 28.8789 27.5774C29.0059 27.8622 29.1794 28.1104 29.3994 28.322C29.6195 28.5336 29.8776 28.7004 30.1738 28.8225C30.4701 28.9446 30.7874 29.0056 31.126 29.0056C31.4645 29.0056 31.7819 28.9446 32.0781 28.8225C32.3743 28.7004 32.6325 28.5336 32.8525 28.322C33.0726 28.1104 33.2461 27.8622 33.373 27.5774C33.5 27.2926 33.5635 26.9874 33.5635 26.6619C33.5635 26.3363 33.5 26.0312 33.373 25.7463C33.2461 25.4615 33.0726 25.2133 32.8525 25.0017C32.6325 24.7901 32.3743 24.6233 32.0781 24.5012C31.7819 24.3792 31.4645 24.3181 31.126 24.3181ZM32.751 32.7288V30.2385C32.2432 30.4583 31.7015 30.5681 31.126 30.5681C30.5505 30.5681 30.0088 30.4583 29.501 30.2385V32.7288C29.7718 32.5986 30.0426 32.4724 30.3135 32.3503C30.5843 32.2283 30.8551 32.094 31.126 31.9475C31.3968 32.0859 31.6676 32.2161 31.9385 32.3381C32.2093 32.4602 32.4801 32.5904 32.751 32.7288Z" fill="white"/>
</g>
<defs>
<clipPath id="clip0_0_1">
<rect width="26" height="25" fill="white" transform="translate(10 10.2556)"/>
</clipPath>
</defs>
</svg>
