<svg width="186" height="44" viewBox="0 0 186 44" fill="none" xmlns="http://www.w3.org/2000/svg" transform="translate(0.259766 10.448364)">
<g clip-path="url(#clip0_188_811)">
<path d="M8.62543 14.5463L7.34042 22.0723H0.259766L4.00989 0.527833H14.2113C15.5487 0.501333 16.8862 0.607333 18.1974 0.792833C19.1415 0.925333 20.0331 1.21683 20.8723 1.66733C21.5017 1.98533 22 2.48883 22.3671 3.12483C22.7081 3.76083 22.8654 4.47633 22.8392 5.19183C22.8392 5.69533 22.7867 6.17233 22.6818 6.64933C22.472 7.84183 21.9738 8.98133 21.2395 9.93533C20.4527 10.9158 19.3775 11.6048 18.1712 11.8963C18.5908 12.0553 18.9842 12.2143 19.3251 12.3998C19.666 12.5588 19.9807 12.7708 20.2429 13.0358C20.5052 13.3008 20.6888 13.6453 20.8199 13.9898C20.9772 14.4668 21.0559 14.9438 21.0559 15.4473C21.0297 16.1628 20.9772 16.9048 20.8199 17.6203L20.4527 19.5283C20.3741 19.9258 20.3478 20.3233 20.3478 20.7208C20.3478 21.1713 20.5314 21.4363 20.9248 21.4363L20.8199 22.0988H13.6343C13.6081 21.8603 13.5819 21.6483 13.5819 21.4098C13.5819 21.0653 13.6081 20.6413 13.6606 20.1113C13.713 19.5813 13.7655 18.9718 13.9228 18.3358C14.0277 17.7793 14.0802 17.1963 14.0802 16.6398C14.1326 16.0038 13.8704 15.3943 13.3721 15.0233C12.5591 14.6523 11.6675 14.4933 10.7758 14.5728C10.7758 14.5463 8.62543 14.5463 8.62543 14.5463ZM9.46461 9.82933H12.2444C13.1361 9.85583 14.0015 9.69683 14.8144 9.37883C15.4176 9.08733 15.8372 8.50433 15.9159 7.81533C15.9421 7.65633 15.9421 7.49733 15.9421 7.36483C15.9683 6.83483 15.7061 6.30483 15.2603 6.01333C14.7095 5.69533 14.1064 5.53633 13.477 5.56283H10.1727L9.46461 9.82933ZM32.7259 6.38433H38.4428L38.0233 8.82233C38.7838 7.94783 39.6754 7.23233 40.6719 6.64933C41.6423 6.14583 42.7175 5.90733 43.8189 5.93383C45.2088 5.80133 46.6249 6.25183 47.7001 7.15283C48.5656 8.13333 49.0114 9.43183 48.9065 10.7303C48.9065 11.3928 48.854 12.0288 48.7229 12.6648L47.097 22.0458H40.8817L42.3241 13.7778C42.3765 13.4333 42.4028 13.0888 42.4028 12.7443C42.429 12.2673 42.2979 11.7903 42.0356 11.3928C41.6947 10.9953 41.1702 10.7833 40.6457 10.8628C39.859 10.7833 39.0722 11.1013 38.5477 11.7108C38.0495 12.3998 37.7348 13.2213 37.6299 14.0958L36.2662 22.0723H30.0247L32.7259 6.38433ZM54.7546 22.4963V22.5758C54.7546 22.8143 54.8595 23.0263 55.0168 23.1853C55.3577 23.5033 55.8298 23.6358 56.3018 23.5828C57.0361 23.6358 57.7704 23.3973 58.3211 22.8938C58.8718 22.2313 59.2128 21.4098 59.3177 20.5353L59.5537 19.2633C58.9767 19.7403 58.3211 20.1378 57.6393 20.4293C56.7214 20.8003 55.7511 20.9593 54.7546 20.9328C53.9154 20.9328 53.0762 20.8003 52.2895 20.4823C51.6338 20.2173 51.0307 19.7933 50.5324 19.2633C50.0604 18.7333 49.6932 18.0973 49.4572 17.4083C49.2212 16.6663 49.1163 15.8713 49.1163 15.1028C49.1163 14.8378 49.1163 14.5728 49.1425 14.3078L49.2474 13.5128C49.4047 12.5323 49.6932 11.5518 50.0866 10.6243C50.48 9.69683 51.0307 8.82233 51.7387 8.08033C52.4468 7.31183 53.3122 6.70233 54.2563 6.25183C55.3315 5.77483 56.4854 5.53633 57.6393 5.56283C58.5309 5.53633 59.4226 5.77483 60.2093 6.22533C60.9436 6.67583 61.5468 7.28533 61.9926 8.02733L62.3335 5.98683H67.8144L65.6116 18.6008C65.428 19.7138 65.1658 20.8003 64.8511 21.8868C64.5364 22.8673 64.0381 23.7683 63.3563 24.5368C62.5957 25.3583 61.6254 25.9678 60.5764 26.3123C57.9278 27.0543 55.1479 27.1603 52.473 26.5773C51.6601 26.3918 50.8996 26.0738 50.1915 25.6233C49.6408 25.2788 49.2212 24.8018 48.9065 24.2453C48.6442 23.7418 48.5131 23.1853 48.5131 22.6288V22.4433H54.7808L54.7546 22.4963ZM58.4522 9.96183C58.0327 9.96183 57.6393 10.0413 57.2721 10.2268C56.9312 10.4123 56.6427 10.6508 56.4067 10.9688C56.1445 11.3133 55.9609 11.7108 55.8036 12.1348C55.6462 12.5853 55.5413 13.0358 55.4626 13.5128C55.4626 13.6718 55.4364 13.8043 55.4364 13.9103L55.4102 14.2548C55.384 14.8378 55.5413 15.3943 55.856 15.8713C56.2232 16.3483 56.8001 16.6133 57.377 16.5603H57.5344C57.954 16.5603 58.3473 16.4808 58.7145 16.2953C59.0554 16.1098 59.3701 15.8713 59.6324 15.5798C59.8946 15.2618 60.0782 14.9173 60.2355 14.5463C60.3929 14.1488 60.524 13.7513 60.6027 13.3273C60.6551 12.9828 60.6813 12.6648 60.6813 12.3203C60.7076 11.7108 60.524 11.1278 60.2093 10.6243C59.8159 10.1208 59.1603 9.85583 58.5309 9.93533L58.4522 9.96183ZM21.9475 22.0458L25.4879 9.32583H29.9985L28.1628 22.0458H21.9475Z" fill="#778092"/>
<path d="M82.3955 8.95487C82.3955 8.87537 82.3955 8.82237 82.4218 8.74287C82.4218 8.68987 82.4218 8.61037 82.4218 8.55737C82.4742 7.73587 82.1857 6.94087 81.635 6.35786C81.0056 5.82787 80.1927 5.56287 79.3535 5.61587C78.1734 5.61587 77.0457 6.17237 76.3114 7.12637C75.3673 8.42487 74.7642 9.96187 74.5544 11.5784C74.4757 11.9494 74.4232 12.3204 74.3708 12.6649C74.3446 13.0094 74.3183 13.3274 74.3183 13.6719C74.3183 14.1489 74.3708 14.5994 74.4757 15.0499C74.5806 15.4474 74.7642 15.8184 75.0264 16.1099C75.3149 16.4279 75.6558 16.6929 76.0492 16.8519C76.5474 17.0374 77.0982 17.1434 77.6227 17.1169C78.593 17.1699 79.5108 16.7989 80.2189 16.1364C80.8745 15.4474 81.3728 14.5994 81.635 13.6719H88.0601C87.7191 14.9439 87.1684 16.1364 86.4341 17.2229C85.7523 18.2299 84.9131 19.1309 83.9166 19.8729C82.92 20.5884 81.8186 21.1449 80.6647 21.5159C78.1471 22.2844 75.4722 22.2844 72.9284 21.5424C71.8795 21.1979 70.8829 20.6414 70.0437 19.8994C69.257 19.1839 68.6538 18.2829 68.2605 17.2759C67.8409 16.1629 67.6311 14.9704 67.6573 13.8044C67.6573 13.4334 67.6835 13.0359 67.7097 12.6384C67.736 12.2409 67.8146 11.8169 67.8933 11.3664C68.1556 9.80287 68.68 8.29237 69.4668 6.91437C70.1749 5.64236 71.1189 4.52937 72.1941 3.57536C73.2431 2.62136 74.4757 1.87936 75.7869 1.37586C77.0982 0.872364 78.4881 0.607364 79.9042 0.607364C82.8676 0.607364 85.0967 1.26986 86.5653 2.56836C88.0601 3.97286 88.873 5.98687 88.7681 8.08037V8.50437C88.7681 8.63687 88.7419 8.79587 88.7419 8.92837L82.3955 8.95487ZM95.2718 15.1824L95.2194 15.4739C95.2194 15.5799 95.2194 15.6859 95.2194 15.7919C95.1932 16.4809 95.4554 17.1434 95.9537 17.5939C96.4782 18.0444 97.1338 18.2829 97.8156 18.2564C98.3139 18.2564 98.8122 18.1239 99.258 17.9119C99.73 17.6734 100.123 17.3289 100.412 16.8784H106.391C105.998 17.8059 105.395 18.6274 104.686 19.3429C103.978 20.0054 103.192 20.5354 102.326 20.9594C101.461 21.3569 100.543 21.6484 99.5989 21.8074C98.681 21.9664 97.737 22.0459 96.7929 22.0459C95.7439 22.0459 94.7211 21.9134 93.7246 21.6219C92.8329 21.3834 92.02 20.9594 91.2857 20.3764C90.6039 19.8199 90.0531 19.1309 89.686 18.3359C89.2926 17.4614 89.109 16.5074 89.109 15.5534C89.109 15.2884 89.1353 15.0234 89.1615 14.7584C89.1615 14.4934 89.2139 14.2284 89.2402 13.9634C89.45 12.7179 89.8696 11.5519 90.5252 10.4919C91.1546 9.45837 91.9413 8.58387 92.8854 7.84187C93.8295 7.09987 94.8785 6.54337 96.0061 6.14587C97.16 5.74837 98.3926 5.53637 99.6251 5.53637C100.753 5.50987 101.907 5.69537 102.982 6.06637C103.874 6.38437 104.713 6.88787 105.421 7.57687C106.076 8.23937 106.601 9.03437 106.916 9.90887C107.257 10.8629 107.44 11.8964 107.44 12.9034C107.414 13.6719 107.335 14.4404 107.178 15.2089L95.2718 15.1824ZM101.461 12.0024C101.487 11.8699 101.487 11.7109 101.487 11.5519C101.513 10.9424 101.277 10.3594 100.831 9.93537C100.386 9.51137 99.8087 9.27287 99.1793 9.27287C98.3663 9.21987 97.5534 9.48487 96.8978 9.98837C96.2946 10.4919 95.9012 11.1809 95.7439 11.9494L101.461 12.0024ZM109.407 6.41087H115.124L114.678 8.84887C115.439 7.97437 116.356 7.25887 117.353 6.67587C118.323 6.17237 119.425 5.90736 120.526 5.96036C121.916 5.82787 123.306 6.27837 124.381 7.17937C125.273 8.15987 125.719 9.43187 125.614 10.7569C125.614 11.4194 125.535 12.0554 125.43 12.6914L123.83 22.0724H117.589L119.005 13.8044C119.058 13.4599 119.084 13.1154 119.084 12.7709C119.11 12.2939 118.979 11.8169 118.717 11.4194C118.376 11.0219 117.851 10.8364 117.327 10.8894C116.54 10.8099 115.753 11.1279 115.229 11.7374C114.731 12.4529 114.442 13.2479 114.337 14.1224L112.973 22.0989H106.732L109.407 6.41087ZM135.317 21.9399C134.635 21.9929 133.979 22.0194 133.376 22.0459C132.773 22.0724 132.222 22.0724 131.75 22.0724C130.964 22.0724 130.177 22.0459 129.39 21.9399C128.866 21.8869 128.341 21.7279 127.869 21.4894C127.502 21.2774 127.24 20.9594 127.082 20.5619C126.925 20.1114 126.846 19.6079 126.846 19.1309C126.846 18.7334 126.873 18.3094 126.925 17.9119C126.977 17.4614 127.03 16.9579 127.161 16.4279L128.315 9.88237H126.086L126.689 6.27837H128.997L129.862 1.40236H135.999L135.133 6.27837H138.123L137.52 9.88237H134.53L133.534 15.5799L133.455 16.0304C133.429 16.1629 133.429 16.3219 133.429 16.4544C133.402 16.7724 133.534 17.0639 133.77 17.2494C134.189 17.4349 134.661 17.5144 135.133 17.4879H136.104L135.317 21.9399ZM139.355 6.41087H145.02L144.469 9.56437H144.548C145.492 7.36487 147.642 5.93387 150.003 5.96036C150.134 5.96036 150.265 5.96037 150.396 5.98687L150.789 6.06637L149.688 12.2939C149.504 12.2409 149.295 12.2144 149.085 12.1879C148.875 12.1349 148.665 12.1349 148.429 12.1084C147.328 12.0554 146.226 12.3999 145.387 13.1154C144.496 14.0959 143.945 15.3414 143.814 16.6664L142.922 22.0989H136.681L139.355 6.41087ZM159.129 22.0989L159.103 19.9524C158.211 20.7209 157.188 21.2774 156.087 21.6484C155.038 21.9399 153.936 22.0989 152.835 22.0989C152.206 22.0989 151.576 22.0194 150.973 21.8604C150.422 21.7279 149.872 21.4894 149.4 21.1714C148.954 20.8534 148.587 20.4559 148.351 19.9789C148.088 19.4489 147.957 18.8659 147.957 18.2829C147.957 17.9649 147.983 17.6734 148.036 17.3554C148.167 16.3219 148.639 15.3414 149.347 14.5994C150.003 13.9369 150.816 13.4334 151.681 13.0889C152.599 12.7444 153.543 12.5059 154.487 12.3734L157.241 12.0289C157.975 11.9494 158.683 11.7904 159.365 11.5784C159.889 11.4724 160.283 11.0749 160.388 10.5449C160.388 10.5184 160.388 10.4919 160.388 10.4654C160.388 10.4389 160.388 10.3859 160.388 10.3594C160.388 10.1474 160.335 9.96187 160.204 9.80287C160.073 9.67037 159.889 9.56437 159.706 9.48487C159.522 9.40536 159.312 9.35237 159.103 9.32587C158.919 9.29937 158.735 9.27287 158.578 9.27287C158.342 9.27287 158.106 9.29937 157.87 9.32587C157.634 9.35237 157.398 9.43187 157.162 9.53787C156.926 9.64387 156.716 9.80287 156.559 9.98837C156.349 10.2269 156.218 10.4919 156.165 10.7834H150.186C150.317 9.98837 150.58 9.21987 151.025 8.55737C151.471 7.86837 152.101 7.28537 152.809 6.88787C153.7 6.38437 154.671 6.03987 155.667 5.85436C156.978 5.58937 158.316 5.48337 159.653 5.50987C160.833 5.48337 161.987 5.58937 163.141 5.77487C163.902 5.90737 164.636 6.19887 165.292 6.59637C165.764 6.88787 166.157 7.33837 166.367 7.86837C166.577 8.39837 166.682 8.98137 166.682 9.56437C166.682 9.96187 166.655 10.3329 166.603 10.7304C166.55 11.1544 166.498 11.5519 166.419 12.0024L165.161 19.3164C165.108 19.5814 165.082 19.8729 165.082 20.1644C165.082 20.3499 165.108 20.5619 165.187 20.7474C165.318 20.9594 165.449 21.1449 165.633 21.3304L165.606 22.1254L159.129 22.0989ZM156.27 18.5479C156.769 18.5479 157.267 18.4684 157.713 18.2564C158.106 18.0709 158.473 17.7794 158.735 17.4614C159.024 17.0904 159.234 16.6664 159.391 16.2159C159.548 15.7389 159.68 15.2354 159.732 14.7054C159.181 14.9439 158.604 15.1029 158.027 15.2354L156.454 15.5799C156.008 15.6859 155.589 15.8979 155.195 16.1629C154.828 16.4279 154.592 16.8254 154.54 17.2494V17.4084C154.54 17.7529 154.697 18.0444 154.985 18.2299C155.353 18.4684 155.825 18.5744 156.27 18.5479ZM166.682 22.0724L170.432 0.527864H176.673L172.923 22.0459L166.682 22.0724ZM32.2278 3.65486C32.2016 3.60186 32.1753 3.54886 32.1491 3.49586C32.018 3.31036 31.8606 3.15136 31.7033 3.01886C31.0477 2.46236 30.2609 2.11786 29.4218 1.98536C28.9235 1.90586 28.4252 1.87936 27.927 1.93236C27.2713 1.98536 26.6419 2.22386 26.0912 2.59486C26.065 2.62136 26.0388 2.64786 26.0126 2.67436C25.7241 2.93936 25.2783 2.93936 24.9898 2.67436C24.7013 2.38286 24.7013 1.93236 24.9898 1.64086C25.7765 0.951864 26.7468 0.554364 27.7958 0.474864C28.4252 0.421864 29.0546 0.448364 29.684 0.554364C31.2837 0.739864 32.6998 1.64086 33.5652 3.01886C33.7488 3.36336 33.6177 3.81386 33.2506 3.99936C33.1719 4.05236 33.067 4.07886 32.9883 4.07886C32.6736 4.10536 32.3851 3.94636 32.2278 3.65486ZM30.4183 5.35086C30.3921 5.32437 30.3921 5.29787 30.3921 5.27137C30.3134 5.16537 30.2347 5.08587 30.1298 5.00637C29.7627 4.68836 29.3169 4.50286 28.8448 4.42336C28.5826 4.37036 28.2941 4.37036 28.0318 4.39686C27.6647 4.42336 27.3238 4.55586 27.0353 4.76786L27.0091 4.79436C26.7731 5.03287 26.3797 5.03287 26.1437 4.79436C25.9077 4.55586 25.9077 4.15837 26.1437 3.91986C26.6419 3.49586 27.2713 3.23086 27.9007 3.17786C28.2941 3.15136 28.6875 3.15136 29.0546 3.23086C30.0511 3.33686 30.969 3.91986 31.5197 4.79436C31.6508 5.08587 31.5197 5.45686 31.2313 5.58937C31.1526 5.61587 31.0739 5.64237 30.9952 5.66887C30.7592 5.72187 30.497 5.58937 30.4183 5.35086ZM29.8938 6.83487C30.0249 7.73587 29.4218 8.55737 28.5563 8.71637C27.6647 8.84887 26.8517 8.23937 26.6944 7.36487C26.5633 6.46387 27.1664 5.64236 28.0318 5.48337C28.1105 5.45687 28.1892 5.45686 28.2941 5.45686C29.1071 5.40386 29.8413 6.01337 29.8938 6.83487ZM178.404 2.91286C178.588 2.48886 178.85 2.11786 179.164 1.79986C180.187 0.819364 181.682 0.527864 182.993 1.05786C183.413 1.21686 183.78 1.48186 184.121 1.79986C184.436 2.11786 184.698 2.48886 184.881 2.88636C185.065 3.31036 185.17 3.78736 185.17 4.26436C185.17 4.74136 185.091 5.21837 184.908 5.64237C184.724 6.03987 184.462 6.41087 184.147 6.72887C183.832 7.04687 183.465 7.28537 183.046 7.47087C182.6 7.65637 182.154 7.73587 181.682 7.73587C181.21 7.73587 180.764 7.65637 180.345 7.47087C179.505 7.12637 178.824 6.46387 178.456 5.61587C178.273 5.19186 178.168 4.71487 178.194 4.23786C178.142 3.84036 178.22 3.36336 178.404 2.91286ZM178.981 5.45686C179.112 5.80136 179.322 6.11937 179.584 6.41087C179.846 6.67587 180.161 6.88787 180.502 7.04687C180.869 7.20587 181.262 7.28537 181.656 7.28537C182.81 7.28537 183.885 6.56987 184.305 5.48337C184.462 5.11237 184.541 4.71487 184.541 4.29086C184.541 3.89336 184.462 3.49586 184.305 3.12486C184.173 2.78036 183.964 2.46236 183.701 2.19736C183.151 1.64086 182.416 1.32286 181.656 1.32286C181.262 1.32286 180.869 1.40236 180.502 1.56136C179.82 1.85286 179.269 2.40936 179.007 3.12486C178.85 3.49586 178.771 3.89336 178.771 4.29086C178.745 4.68836 178.824 5.08587 178.981 5.45686ZM181.839 2.25036C182.233 2.22386 182.6 2.32986 182.915 2.54186C183.151 2.75386 183.282 3.09836 183.256 3.41636C183.282 3.70786 183.177 4.02586 182.941 4.21136C182.731 4.39686 182.443 4.50286 182.18 4.50286L183.36 6.30487H182.679L181.551 4.55586H180.895V6.30487H180.266V2.25036H181.839ZM181.577 4.07886H181.971C182.102 4.07886 182.207 4.02586 182.311 3.99936C182.416 3.94636 182.495 3.89336 182.547 3.78736C182.626 3.68137 182.652 3.54886 182.652 3.41636C182.652 3.31036 182.626 3.17786 182.574 3.09836C182.521 3.01886 182.443 2.93936 182.364 2.91286C182.285 2.85986 182.18 2.83336 182.075 2.83336C181.971 2.80686 181.839 2.80686 181.735 2.80686H180.922V4.10537L181.577 4.07886Z" fill="#778092"/>
</g>
<defs>
<clipPath id="clip0_188_811">
<rect width="184.884" height="26.5" fill="white" transform="translate(0.259766 0.448364)"/>
</clipPath>
</defs>
</svg>
