<svg width="102" height="102" viewBox="0 0 102 102" fill="none" xmlns="http://www.w3.org/2000/svg">
<circle cx="50.96" cy="50.9622" r="50.4656" fill="#ECEAF8"/>
<path d="M50.96 76.4322C65.004 76.4322 76.4298 65.0065 76.4298 50.9624C76.4298 36.9184 65.004 25.4927 50.96 25.4927C36.916 25.4927 25.4902 36.9184 25.4902 50.9624C25.4902 65.0065 36.916 76.4322 50.96 76.4322ZM59.8566 43.3215C60.3644 43.3085 60.8697 43.3974 61.3426 43.5828C61.8156 43.7682 62.2466 44.0464 62.6103 44.4011C62.974 44.7557 63.263 45.1796 63.4603 45.6477C63.6576 46.1159 63.7591 46.6187 63.7589 47.1267C63.7588 47.6347 63.6569 48.1375 63.4593 48.6055C63.2617 49.0735 62.9724 49.4972 62.6085 49.8516C62.2445 50.206 61.8133 50.4839 61.3403 50.669C60.8672 50.8541 60.3619 50.9426 59.854 50.9293C58.8622 50.9033 57.9198 50.491 57.2276 49.7802C56.5354 49.0694 56.1482 48.1163 56.1486 47.1242C56.1489 46.132 56.5367 45.1792 57.2294 44.4689C57.9221 43.7586 58.8648 43.3468 59.8566 43.3215ZM48.902 60.944C50.2605 61.2166 51.6595 61.2166 53.018 60.944C53.6623 60.8116 54.3042 60.6104 54.9282 60.3506C55.5242 60.0959 56.11 59.7801 56.6576 59.4133C57.1874 59.0516 57.6942 58.6339 58.1629 58.1678C58.6289 57.7043 59.0467 57.1974 59.4083 56.66L63.6312 59.505C62.5333 61.1322 61.1335 62.5337 59.5077 63.6337C57.8512 64.7515 55.9916 65.5337 54.0342 65.9361C52.0049 66.3438 49.9147 66.3429 47.8858 65.9336C45.9278 65.537 44.0681 64.7552 42.4149 63.6337C40.789 62.531 39.3879 61.129 38.2862 59.5025L42.5091 56.6575C42.8734 57.1949 43.2911 57.7017 43.7521 58.1602C45.1583 59.5735 46.9494 60.5416 48.902 60.944ZM42.0456 43.3215C42.5475 43.3217 43.0444 43.4207 43.508 43.6129C43.9716 43.8051 44.3928 44.0868 44.7476 44.4418C45.1024 44.7968 45.3837 45.2182 45.5756 45.6819C45.7675 46.1457 45.8662 46.6426 45.866 47.1445C45.8659 47.6464 45.7669 48.1433 45.5746 48.6069C45.3824 49.0706 45.1008 49.4918 44.7458 49.8465C44.3908 50.2013 43.9694 50.4827 43.5056 50.6746C43.0419 50.8665 42.5449 50.9652 42.043 50.965C41.0294 50.9647 40.0575 50.5617 39.341 49.8447C38.6246 49.1278 38.2222 48.1556 38.2226 47.142C38.2229 46.1284 38.6259 45.1565 39.3428 44.44C40.0598 43.7235 41.032 43.3212 42.0456 43.3215Z" fill="#2350F1"/>
</svg>
