<svg width="583" height="436" viewBox="0 0 583 436" fill="none" xmlns="http://www.w3.org/2000/svg">
<path d="M48.1738 69.4127C66.2166 69.4127 80.8432 54.7861 80.8432 36.7432C80.8432 34.6984 80.6554 32.6974 80.2959 30.7566C78.3552 30.3972 76.3542 30.2094 74.3093 30.2094C56.2665 30.2094 41.6399 44.836 41.6399 62.8788C41.6399 64.9237 41.8278 66.9246 42.1872 68.8654C44.128 69.2248 46.1289 69.4127 48.1738 69.4127Z" fill="#175CD3"/>
<path fill-rule="evenodd" clip-rule="evenodd" d="M42.1872 68.8652C27.0035 66.0533 15.5044 52.741 15.5044 36.7431C15.5044 18.7002 30.131 4.07361 48.1738 4.07361C64.1718 4.07361 77.4841 15.5727 80.296 30.7565C78.3552 30.397 76.3543 30.2092 74.3094 30.2092C56.2666 30.2092 41.64 44.8358 41.64 62.8786C41.64 64.9235 41.8278 66.9244 42.1872 68.8652Z" fill="#1570EF"/>
<path fill-rule="evenodd" clip-rule="evenodd" d="M48.1739 69.4126C66.2167 69.4126 80.8433 54.786 80.8433 36.7432C80.8433 34.6983 80.6554 32.6974 80.296 30.7566C95.4797 33.5685 106.979 46.8808 106.979 62.8787C106.979 80.9216 92.3523 95.5482 74.3094 95.5482C58.3114 95.5482 44.9992 84.0491 42.1873 68.8653C44.128 69.2248 46.129 69.4126 48.1739 69.4126Z" fill="#2E90FA"/>
<path opacity="0.8" d="M319.85 21.217C318.887 20.2542 317.925 19.2915 316.962 18.3287C314.074 15.2479 310.993 12.1671 307.142 10.2416C302.713 7.931 297.899 8.50864 293.085 8.50864C285.769 8.50864 267.476 8.50864 256.693 8.50864L264.01 18.3287C277.296 18.3287 298.092 18.3287 307.719 18.3287C311.763 18.3287 315.229 19.0989 318.502 21.217C319.08 21.4096 319.657 21.4096 319.85 21.217Z" fill="white"/>
<path opacity="0.9" d="M327.937 37.0065C326.975 36.0438 326.012 35.081 325.049 34.1183C322.161 31.0375 319.08 27.9566 315.229 26.0311C310.8 23.7205 305.987 24.2982 301.173 24.2982C294.819 24.2982 279.607 24.2982 268.824 24.2982L276.141 34.1183C289.235 34.1183 307.142 34.1183 315.999 34.1183C320.043 34.1183 323.509 34.8885 326.782 37.0065C327.167 37.1991 327.552 37.1991 327.937 37.0065Z" fill="white"/>
<path d="M336.987 52.4105C336.024 51.4477 335.061 50.485 334.099 49.5222C331.21 46.4414 328.13 43.3606 324.279 41.4351C319.85 39.1245 315.036 39.7021 310.222 39.7021C304.253 39.7021 291.16 39.7021 280.57 39.7021L287.886 49.5222C300.595 49.5222 316.769 49.5222 324.856 49.5222C328.9 49.5222 332.366 50.2924 335.639 52.4105C336.217 52.603 336.602 52.7956 336.987 52.4105Z" fill="white"/>
<path opacity="0.8" d="M255.923 78.4042C256.886 79.3669 257.849 80.3297 258.812 81.2924C261.7 84.3733 264.781 87.454 268.632 89.3795C273.06 91.6902 277.874 91.1125 282.688 91.1125H319.08L311.763 81.2924C298.477 81.2924 277.682 81.2924 268.054 81.2924C264.01 81.2924 260.545 80.5222 257.271 78.4042C256.694 78.2116 256.308 78.2116 255.923 78.4042Z" fill="white"/>
<path opacity="0.9" d="M247.836 62.6156C248.799 63.5784 249.762 64.5411 250.725 65.5039C253.613 68.5847 256.694 71.6655 260.545 73.591C264.973 75.9016 269.787 75.324 274.601 75.324H306.95L299.633 65.5039C286.539 65.5039 268.632 65.5039 259.775 65.5039C255.731 65.5039 252.265 64.7337 248.992 62.6156C248.607 62.4231 248.222 62.4231 247.836 62.6156Z" fill="white"/>
<path d="M238.979 47.0184C239.942 47.9812 240.904 48.9439 241.867 49.9067C244.755 52.9875 247.836 56.0683 251.687 57.9939C256.116 60.3045 260.93 59.7268 265.743 59.7268H295.396L288.079 49.9067C275.371 49.9067 259.197 49.9067 251.109 49.9067C247.066 49.9067 243.6 49.1365 240.327 47.0184C239.749 46.8259 239.364 46.8259 238.979 47.0184Z" fill="white"/>
<path d="M501.904 39.6752C514.737 33.5381 524.779 23.1235 530.544 10.1053C526.825 6.19989 521.99 3.41028 516.782 1.73651L513.993 0.806641C513.807 1.17859 513.621 1.73653 513.621 2.10848C509.157 14.7547 500.045 24.9833 487.77 30.7485C479.216 34.8399 472.893 42.2789 469.917 51.2056L468.987 53.9952C469.359 54.1812 469.917 54.3671 470.289 54.3671C473.822 55.669 477.356 57.3428 480.703 59.3885C485.353 51.0196 492.792 43.9526 501.904 39.6752Z" fill="#087443"/>
<path d="M555.837 40.4191C548.956 50.8336 539.471 59.2025 527.755 64.7817C518.27 69.2451 511.017 77.6139 507.67 87.6565L506.74 90.8181C510.273 93.9796 514.551 96.3973 519.2 97.8851L521.99 98.815C522.176 98.443 522.362 97.8851 522.362 97.5131C526.825 84.8669 535.938 74.6383 548.212 68.8731C556.767 64.7817 563.276 57.3427 566.065 48.416L566.995 45.6264C563.09 44.5105 559.37 42.6508 555.837 40.4191Z" fill="#16B364"/>
<path d="M499.301 81.1472C503.95 69.9887 512.505 60.876 523.477 55.6687C533.52 50.8334 541.889 43.3944 547.654 34.2817C543.377 30.1903 539.843 25.5409 537.239 19.9617C530.358 32.6079 519.572 42.8365 506.368 49.1596C498.743 52.6931 492.606 58.8303 488.886 66.2693C492.978 70.1747 496.325 75.01 498.929 80.4032C498.929 80.4032 499.115 80.7752 499.301 81.1472Z" fill="#099250"/>
<path fill-rule="evenodd" clip-rule="evenodd" d="M77.5762 245.588C92.9126 245.588 105.345 233.156 105.345 217.819C105.345 202.483 92.9126 190.05 77.5762 190.05C62.2398 190.05 49.8072 202.483 49.8072 217.819C49.8072 233.156 62.2398 245.588 77.5762 245.588ZM77.5762 266.823C104.64 266.823 126.58 244.883 126.58 217.819C126.58 190.755 104.64 168.815 77.5762 168.815C50.5119 168.815 28.572 190.755 28.572 217.819C28.572 244.883 50.5119 266.823 77.5762 266.823Z" fill="#6938EF"/>
<path d="M78.1369 218.892C83.2402 213.789 91.5142 213.789 96.6175 218.892L122.028 244.303C127.132 249.406 127.132 257.68 122.028 262.783C116.925 267.887 108.651 267.887 103.548 262.783L78.1369 237.373C73.0336 232.269 73.0336 223.995 78.1369 218.892Z" fill="#F670C7"/>
<path d="M85.2722 244.508L101.411 260.647C109.152 256.33 115.601 249.975 120.033 242.308L104.026 226.301C101.215 235.076 94.1577 241.951 85.2722 244.508Z" fill="#6519BA"/>
<path d="M296.695 231.432C311.731 231.432 323.919 219.243 323.919 204.207C323.919 189.171 311.731 176.982 296.695 176.982H258.581V231.432H296.695Z" fill="#F38744"/>
<path d="M258.581 176.982L323.919 258.656H280.36L258.581 231.432V176.982Z" fill="#2E90FA"/>
<path d="M301.763 230.961C300.121 231.27 298.427 231.432 296.695 231.432H258.581V176.982L301.763 230.961Z" fill="#53B1FD"/>
<path d="M528.301 174.74C534.895 187.669 538.614 202.31 538.614 217.819C538.614 233.328 534.895 247.969 528.301 260.898C543.566 252.597 553.928 236.418 553.928 217.819C553.928 199.22 543.567 183.041 528.301 174.74Z" fill="#0BA5EC"/>
<path d="M506.265 173.712C504.049 170.572 500.273 168.881 496.486 169.538C473.443 173.537 455.919 193.632 455.919 217.819C455.919 242.006 473.442 262.1 496.486 266.099C500.273 266.756 504.049 265.065 506.265 261.925C515.067 249.457 520.237 234.242 520.237 217.819C520.237 201.396 515.067 186.181 506.265 173.712Z" fill="#0086C9"/>
<path d="M38.5935 342.36L50.0615 385.159V338.105C50.9709 337.893 51.8899 337.706 52.818 337.545V385.164L65.7166 337.025C66.6462 337.109 67.5682 337.22 68.482 337.355L55.4795 385.881L81.3252 341.115C82.1672 341.494 82.9966 341.896 83.8125 342.32L57.8704 387.253L94.9061 350.217C95.5738 350.849 96.2237 351.499 96.8551 352.166L59.814 389.208L104.752 363.262C105.176 364.078 105.578 364.908 105.957 365.75L61.2019 391.589L109.715 378.59C109.85 379.504 109.96 380.426 110.044 381.356L61.9065 394.254L109.524 394.254C109.363 395.182 109.176 396.101 108.964 397.011L61.8992 397.011L104.707 408.481C104.267 409.323 103.804 410.15 103.318 410.962L61.1979 399.676L96.3776 419.987C95.7116 420.672 95.0257 421.338 94.321 421.983L59.8227 402.065L85.927 428.17C85.1013 428.652 84.2602 429.111 83.4047 429.546L57.8707 404.012L74.6008 432.989C73.6848 433.248 72.7579 433.481 71.821 433.687L55.4812 405.386L63.3592 434.787C62.6571 434.817 61.951 434.832 61.2415 434.832C60.9993 434.832 60.7575 434.83 60.5162 434.827L52.818 406.097V434.111C51.8899 433.95 50.9708 433.763 50.0615 433.551V406.101L43.2738 431.433C42.4081 431.092 41.5543 430.727 40.7135 430.338L47.3979 405.392L34.8499 427.125C34.0731 426.628 33.3112 426.109 32.5651 425.57L45.0145 404.007L27.58 421.441C26.9123 420.81 26.2623 420.16 25.6308 419.492L43.0598 402.063L21.5031 414.509C20.9637 413.763 20.4448 413.001 19.9472 412.225L41.6912 399.671L16.7323 406.358C16.3439 405.518 15.9785 404.664 15.6371 403.798L40.969 397.011L13.519 397.01C13.3068 396.101 13.1198 395.182 12.959 394.254L40.9615 394.254L12.2426 386.559C12.2391 386.316 12.2373 386.072 12.2373 385.828C12.2373 385.12 12.2523 384.416 12.282 383.716L41.6872 391.595L13.3814 375.252C13.5875 374.315 13.8204 373.388 14.0793 372.472L43.0685 389.209L17.5238 363.665C17.9584 362.809 18.4174 361.968 18.8998 361.142L45.0148 387.257L25.0892 352.745C25.7344 352.041 26.4 351.355 27.0849 350.689L47.3996 385.875L36.1119 343.749C36.9241 343.263 37.7516 342.799 38.5935 342.36Z" fill="#FF6838"/>
<circle cx="291.25" cy="386.384" r="45.663" stroke="white" stroke-width="6.68239"/>
<path d="M309.363 404.498C300.143 413.718 289.697 419.737 280.394 422.129C271.007 424.543 263.442 423.154 258.961 418.673C254.481 414.193 253.091 406.627 255.505 397.24C257.897 387.938 263.916 377.492 273.137 368.271C282.357 359.051 292.803 353.032 302.105 350.64C311.492 348.226 319.058 349.616 323.538 354.096C328.019 358.576 329.408 366.142 326.994 375.529C324.602 384.832 318.583 395.277 309.363 404.498Z" stroke="white" stroke-width="6.68239"/>
<path d="M309.362 368.271C318.583 377.492 324.602 387.937 326.994 397.24C329.408 406.627 328.018 414.193 323.538 418.673C319.057 423.153 311.492 424.543 302.105 422.129C292.802 419.737 282.356 413.718 273.136 404.497C263.916 395.277 257.897 384.831 255.505 375.529C253.091 366.142 254.48 358.576 258.961 354.096C263.441 349.615 271.007 348.226 280.394 350.64C289.696 353.032 300.142 359.051 309.362 368.271Z" stroke="white" stroke-width="6.68239"/>
<path d="M540.033 336.823H502.483L472.254 367.052V404.603L502.483 434.832H540.033L570.263 404.603V367.052L540.033 336.823ZM507.679 405.075L488.313 385.709L507.679 366.344C515 359.023 527.044 359.023 534.366 366.344L553.731 385.709L534.366 405.075C527.044 412.396 515.236 412.396 507.679 405.075Z" fill="#444CE7"/>
</svg>
