<svg width="178" height="44" viewBox="0 0 178 44" fill="none" xmlns="http://www.w3.org/2000/svg">
<g clip-path="url(#clip0_188_820)">
<path d="M74.4497 30.8597V8.83211H65.2207V5.88229H87.4438V8.83211H78.1623V30.8597H74.4497Z" fill="#778092"/>
<path d="M86.1137 21.6264C86.1137 24.0264 86.6916 25.8155 87.8649 26.985C89.0295 28.1544 90.4743 28.7392 92.1992 28.7392C93.8191 28.7392 95.2026 28.1457 96.3584 26.9675C97.5142 25.7806 98.0921 24.0003 98.0921 21.6264C98.0921 19.2352 97.5055 17.4548 96.3409 16.2766C95.1763 15.1072 93.7316 14.5137 92.0066 14.5137C90.378 14.5137 88.9857 15.1072 87.8299 16.2854C86.6829 17.4723 86.1137 19.2526 86.1137 21.6264ZM82.5938 21.6352C82.5938 18.4323 83.4956 16.0148 85.2906 14.3828C87.0856 12.7508 89.3622 11.9392 92.1117 11.9392C94.8173 11.9392 97.0764 12.7508 98.8977 14.3828C100.719 16.0148 101.621 18.3712 101.621 21.4432C101.621 24.777 100.728 27.2555 98.9415 28.8875C97.1552 30.5195 94.8786 31.3312 92.1117 31.3312C89.3885 31.3312 87.1294 30.5108 85.3169 28.8788C83.4956 27.2468 82.5938 24.8294 82.5938 21.6352Z" fill="#778092"/>
<path d="M102.855 25.6494L106.279 25.1519C106.481 26.4872 107.032 27.4821 107.934 28.1367C108.836 28.7912 110.027 29.1141 111.515 29.1141C113.004 29.1141 114.151 28.8348 114.965 28.2676C115.78 27.7003 116.191 26.9847 116.191 26.1207C116.191 25.3701 115.841 24.7854 115.14 24.3665C114.659 24.0785 113.494 23.7207 111.647 23.293C108.976 22.6647 107.181 22.1323 106.288 21.6872C105.386 21.2508 104.685 20.6574 104.186 19.9156C103.687 19.1738 103.442 18.3359 103.442 17.4021C103.442 15.7876 104.116 14.4698 105.474 13.4574C106.822 12.445 108.696 11.9388 111.095 11.9388C112.601 11.9388 113.932 12.1483 115.07 12.5672C116.209 12.9861 117.084 13.5447 117.697 14.2428C118.301 14.941 118.722 15.9534 118.958 17.2625L115.604 17.6901C115.289 15.6218 113.827 14.5832 111.2 14.5832C109.712 14.5832 108.599 14.8101 107.864 15.2639C107.137 15.7178 106.769 16.3025 106.769 17.0181C106.769 17.7163 107.12 18.2661 107.82 18.6763C108.24 18.9119 109.484 19.2872 111.559 19.8108C114.405 20.5003 116.252 21.0588 117.084 21.469C117.925 21.8792 118.573 22.4378 119.037 23.1534C119.501 23.8603 119.737 24.7068 119.737 25.6843C119.737 27.4908 118.984 28.9658 117.487 30.0828C115.99 31.1999 113.941 31.7672 111.349 31.7672C106.454 31.7585 103.635 29.7163 102.855 25.6494Z" fill="#778092"/>
<path d="M122.836 31.34V5.88251H126.26V20.4221L134.429 12.8992H138.886L131.119 19.7414L139.656 31.3312H135.436L128.694 21.8796L126.268 24.0178V31.3225H122.836" fill="#778092"/>
<path d="M158.728 5.45475V20.134C158.728 22.5864 158.483 24.6111 157.966 26.1907C157.449 27.7617 156.539 29.0358 155.199 29.9435C153.859 30.8511 152.161 31.3049 150.094 31.3049C147.179 31.3049 145.024 30.4846 143.562 28.8526C142.135 27.1857 141.408 24.3144 141.408 20.134V5.45475H144.324V20.1078C144.324 22.4118 144.508 24.1049 144.867 25.0998C145.261 26.1297 145.865 26.9151 146.749 27.4649C147.599 28.006 148.667 28.2853 149.875 28.2853C151.968 28.2853 153.457 27.7093 154.402 26.6184C155.348 25.5013 155.803 23.3457 155.803 20.1078V5.45475H158.728Z" fill="#778092"/>
<path d="M160.496 25.3615L163.92 24.8728C164.121 26.1819 164.673 27.1594 165.566 27.7965C166.468 28.4335 167.659 28.7565 169.147 28.7565C170.636 28.7565 171.783 28.4772 172.597 27.9274C173.411 27.3775 173.823 26.6706 173.823 25.8241C173.823 25.091 173.473 24.515 172.772 24.1135C172.291 23.8343 171.126 23.4852 169.279 23.0663C166.608 22.4466 164.813 21.923 163.92 21.4954C163.018 21.0677 162.317 20.4917 161.818 19.7674C161.319 19.043 161.074 18.2226 161.074 17.3063C161.074 15.7179 161.748 14.435 163.105 13.4488C164.454 12.4539 166.328 11.9652 168.727 11.9652C170.233 11.9652 171.564 12.1659 172.702 12.5761C173.84 12.9863 174.716 13.5274 175.329 14.2168C175.933 14.9063 176.353 15.8924 176.59 17.1754L173.236 17.5943C172.921 15.5695 171.459 14.5572 168.832 14.5572C167.343 14.5572 166.231 14.7841 165.496 15.2292C164.769 15.6743 164.401 16.2503 164.401 16.9397C164.401 17.6205 164.752 18.1615 165.452 18.563C165.872 18.7986 167.116 19.1652 169.191 19.6801C172.037 20.3608 173.884 20.9019 174.716 21.3034C175.557 21.7048 176.205 22.2546 176.669 22.9528C177.133 23.651 177.369 24.4714 177.369 25.4314C177.369 27.203 176.616 28.643 175.119 29.7339C173.622 30.8335 171.573 31.3746 168.972 31.3746C164.095 31.3397 161.275 29.3412 160.496 25.3615Z" fill="#778092"/>
<path d="M101.612 31.34H98.0918V23.4854L101.568 22.6563L101.612 31.34Z" fill="#778092"/>
<path d="M32.8924 18.694H53.6444V0.707062H33.4615C33.4615 0.707062 27.3848 1.92888 27.3848 9.69615C27.3848 17.446 32.8924 18.694 32.8924 18.694Z" fill="#778092"/>
<path d="M48.2589 18.7987L27.5069 18.5195L27.2617 36.3493L47.4446 36.6285C47.4446 36.6285 53.5389 35.5027 53.644 27.7965C53.749 20.1165 48.2589 18.7987 48.2589 18.7987Z" fill="#778092"/>
<path d="M27.3418 25.8154L27.263 0.698341L0.337891 0.785614L0.416696 26.3914C0.416696 26.3914 2.28175 36.742 13.9099 36.7071C25.503 36.6634 27.3418 25.8154 27.3418 25.8154Z" fill="#778092"/>
</g>
<defs>
<clipPath id="clip0_188_820">
<rect width="177.049" height="36" fill="white" transform="translate(0.337891 0.698364)"/>
</clipPath>
</defs>
</svg>
