<svg width="523" height="412" viewBox="0 0 523 412" fill="none" xmlns="http://www.w3.org/2000/svg">
<rect x="0.5" y="0.5" width="522" height="111" rx="23.5" fill="#F7F7F7"/>
<rect x="0.5" y="0.5" width="522" height="111" rx="23.5" stroke="#DEDEDE"/>
<path d="M83.5471 39.1469L66.8271 30.1336C65.0671 29.1736 62.9338 29.1736 61.1738 30.1336L44.4538 39.1469C43.2271 39.8136 42.4805 41.0936 42.4805 42.5602C42.4805 44.0002 43.2271 45.3069 44.4538 45.9736L61.1738 54.9869C62.0538 55.4669 63.0405 55.7069 64.0005 55.7069C64.9605 55.7069 65.9471 55.4669 66.8271 54.9869L83.5471 45.9736C84.7738 45.3069 85.5205 44.0269 85.5205 42.5602C85.5205 41.0936 84.7738 39.8136 83.5471 39.1469Z" fill="#C4A5F7"/>
<path opacity="0.4" d="M58.4273 58.1065L42.854 50.3198C41.654 49.7332 40.2673 49.7865 39.1473 50.4798C38.0007 51.1998 37.334 52.3998 37.334 53.7332V68.4265C37.334 70.9598 38.7473 73.2532 41.014 74.3998L56.5606 82.1865C57.094 82.4532 57.6807 82.5865 58.2673 82.5865C58.9607 82.5865 59.654 82.3998 60.2673 82.0265C61.414 81.3332 62.0806 80.1065 62.0806 78.7732V64.0798C62.1073 61.5198 60.694 59.2265 58.4273 58.1065Z" fill="#C4A5F7"/>
<path opacity="0.4" d="M88.8552 50.4799C87.7086 49.7866 86.3219 49.7066 85.1486 50.3199L69.6019 58.1066C67.3352 59.2532 65.9219 61.5199 65.9219 64.0799V78.7732C65.9219 80.1066 66.5886 81.3332 67.7352 82.0266C68.3486 82.3999 69.0419 82.5866 69.7352 82.5866C70.3219 82.5866 70.9086 82.4532 71.4419 82.1866L86.9886 74.3999C89.2552 73.2532 90.6686 70.9866 90.6686 68.4266V53.7332C90.6686 52.3999 90.0019 51.1999 88.8552 50.4799Z" fill="#C4A5F7"/>
<path d="M137.212 66.448C134.496 66.448 132.396 65.86 130.912 64.628C129.428 63.424 128.672 61.688 128.672 59.42H132.396C132.396 60.848 132.816 61.856 133.656 62.472C134.496 63.088 135.7 63.396 137.324 63.396C138.612 63.396 139.62 63.172 140.32 62.668C140.992 62.164 141.356 61.464 141.356 60.512C141.356 59.728 141.048 59.14 140.46 58.72C139.872 58.328 138.808 57.964 137.268 57.628L135.588 57.292C131.304 56.508 129.176 54.492 129.176 51.244C129.176 49.536 129.82 48.164 131.136 47.156C132.424 46.148 134.244 45.616 136.568 45.616C139.2 45.616 141.188 46.176 142.532 47.296C143.876 48.416 144.604 49.984 144.688 52H141.02C140.936 50.88 140.544 50.04 139.872 49.48C139.2 48.948 138.108 48.668 136.624 48.668C135.448 48.668 134.58 48.892 133.964 49.312C133.348 49.76 133.04 50.348 133.04 51.132C133.04 51.944 133.32 52.56 133.88 52.98C134.44 53.428 135.476 53.792 136.932 54.072L138.668 54.408C140.992 54.884 142.672 55.584 143.708 56.508C144.744 57.432 145.276 58.692 145.276 60.316C145.276 62.276 144.548 63.788 143.148 64.852C141.72 65.916 139.732 66.448 137.212 66.448ZM161.054 66H157.526C157.358 65.72 157.218 65.132 157.134 64.236C156.154 65.636 154.614 66.336 152.486 66.336C150.89 66.336 149.63 65.972 148.678 65.188C147.726 64.432 147.278 63.368 147.278 61.996C147.278 59.364 149.126 57.88 152.822 57.488L155.006 57.292C155.734 57.208 156.238 57.04 156.574 56.788C156.882 56.536 157.05 56.144 157.05 55.64C157.05 55.024 156.826 54.576 156.434 54.296C156.042 54.016 155.37 53.848 154.418 53.848C153.382 53.848 152.654 54.044 152.206 54.38C151.758 54.716 151.478 55.304 151.422 56.144H147.95C148.146 52.868 150.302 51.216 154.446 51.216C158.45 51.216 160.466 52.672 160.466 55.556V63.256C160.466 64.544 160.662 65.44 161.054 66ZM153.326 63.816C154.418 63.816 155.314 63.536 156.014 62.92C156.686 62.304 157.05 61.436 157.05 60.288V58.972C156.714 59.28 156.154 59.476 155.398 59.56L153.494 59.784C152.542 59.896 151.87 60.12 151.478 60.456C151.086 60.792 150.89 61.24 150.89 61.856C150.89 62.472 151.086 62.976 151.506 63.312C151.926 63.648 152.542 63.816 153.326 63.816ZM176.79 66H173.262C173.094 65.72 172.954 65.132 172.87 64.236C171.89 65.636 170.35 66.336 168.222 66.336C166.626 66.336 165.366 65.972 164.414 65.188C163.462 64.432 163.014 63.368 163.014 61.996C163.014 59.364 164.862 57.88 168.558 57.488L170.742 57.292C171.47 57.208 171.974 57.04 172.31 56.788C172.618 56.536 172.786 56.144 172.786 55.64C172.786 55.024 172.562 54.576 172.17 54.296C171.778 54.016 171.106 53.848 170.154 53.848C169.118 53.848 168.39 54.044 167.942 54.38C167.494 54.716 167.214 55.304 167.158 56.144H163.686C163.882 52.868 166.038 51.216 170.182 51.216C174.186 51.216 176.202 52.672 176.202 55.556V63.256C176.202 64.544 176.398 65.44 176.79 66ZM169.062 63.816C170.154 63.816 171.05 63.536 171.75 62.92C172.422 62.304 172.786 61.436 172.786 60.288V58.972C172.45 59.28 171.89 59.476 171.134 59.56L169.23 59.784C168.278 59.896 167.606 60.12 167.214 60.456C166.822 60.792 166.626 61.24 166.626 61.856C166.626 62.472 166.822 62.976 167.242 63.312C167.662 63.648 168.278 63.816 169.062 63.816ZM187.154 66.448C184.438 66.448 182.338 65.86 180.854 64.628C179.37 63.424 178.614 61.688 178.614 59.42H182.338C182.338 60.848 182.758 61.856 183.598 62.472C184.438 63.088 185.642 63.396 187.266 63.396C188.554 63.396 189.562 63.172 190.262 62.668C190.934 62.164 191.298 61.464 191.298 60.512C191.298 59.728 190.99 59.14 190.402 58.72C189.814 58.328 188.75 57.964 187.21 57.628L185.53 57.292C181.246 56.508 179.118 54.492 179.118 51.244C179.118 49.536 179.762 48.164 181.078 47.156C182.366 46.148 184.186 45.616 186.51 45.616C189.142 45.616 191.13 46.176 192.474 47.296C193.818 48.416 194.546 49.984 194.63 52H190.962C190.878 50.88 190.486 50.04 189.814 49.48C189.142 48.948 188.05 48.668 186.566 48.668C185.39 48.668 184.522 48.892 183.906 49.312C183.29 49.76 182.982 50.348 182.982 51.132C182.982 51.944 183.262 52.56 183.822 52.98C184.382 53.428 185.418 53.792 186.874 54.072L188.61 54.408C190.934 54.884 192.614 55.584 193.65 56.508C194.686 57.432 195.218 58.692 195.218 60.316C195.218 62.276 194.49 63.788 193.09 64.852C191.662 65.916 189.674 66.448 187.154 66.448ZM213.377 66.448C210.493 66.448 208.169 65.524 206.405 63.62C204.613 61.744 203.717 59.224 203.717 56.032C203.717 52.84 204.585 50.32 206.377 48.416C208.113 46.568 210.465 45.616 213.377 45.616C215.701 45.616 217.689 46.26 219.341 47.492C220.965 48.752 222.001 50.572 222.421 52.924H218.585C218.249 51.636 217.605 50.628 216.709 49.956C215.813 49.284 214.693 48.92 213.377 48.92C211.585 48.92 210.185 49.564 209.177 50.824C208.169 52.084 207.665 53.82 207.665 56.032C207.665 58.272 208.169 60.036 209.177 61.268C210.185 62.528 211.585 63.144 213.377 63.144C214.749 63.144 215.925 62.752 216.933 61.912C217.913 61.1 218.501 59.952 218.725 58.496H222.505C222.253 61.044 221.273 63.004 219.537 64.376C217.801 65.776 215.757 66.448 213.377 66.448ZM237.25 64.264C235.906 65.664 234.114 66.336 231.93 66.336C229.718 66.336 227.954 65.664 226.61 64.264C225.238 62.92 224.566 61.072 224.566 58.776C224.566 56.48 225.238 54.66 226.61 53.288C227.954 51.916 229.718 51.216 231.93 51.216C234.114 51.216 235.906 51.916 237.25 53.26C238.594 54.632 239.266 56.48 239.266 58.776C239.266 61.072 238.594 62.892 237.25 64.264ZM231.93 63.424C233.106 63.424 234.002 63.032 234.674 62.22C235.346 61.408 235.682 60.26 235.682 58.776C235.682 57.32 235.346 56.172 234.674 55.36C234.002 54.548 233.106 54.128 231.93 54.128C230.754 54.128 229.83 54.548 229.158 55.332C228.486 56.144 228.178 57.292 228.178 58.776C228.178 60.288 228.486 61.436 229.158 62.22C229.83 63.032 230.754 63.424 231.93 63.424ZM258.531 51.216C260.099 51.216 261.331 51.692 262.227 52.616C263.123 53.568 263.571 54.828 263.571 56.452V66H260.043V57.012C260.043 55.192 259.203 54.268 257.551 54.268C256.655 54.268 255.927 54.604 255.367 55.248C254.807 55.892 254.555 56.816 254.555 58.048V66H251.055V57.012C251.055 55.192 250.215 54.268 248.535 54.268C247.639 54.268 246.939 54.604 246.379 55.248C245.819 55.892 245.567 56.816 245.567 58.048V66H242.039V51.552H245.455V53.624C246.435 52.028 247.807 51.216 249.571 51.216C251.755 51.216 253.267 52.112 254.051 53.904C255.115 52.112 256.627 51.216 258.531 51.216ZM274.998 51.216C276.958 51.216 278.554 51.916 279.73 53.26C280.878 54.66 281.466 56.48 281.466 58.776C281.466 61.072 280.878 62.892 279.73 64.264C278.554 65.664 276.958 66.336 274.998 66.336C273.038 66.336 271.526 65.608 270.518 64.124V71.488H266.99V51.552H270.378V53.624C271.414 52.028 272.954 51.216 274.998 51.216ZM271.442 62.22C272.058 63.032 272.982 63.424 274.158 63.424C275.306 63.424 276.23 63.004 276.902 62.164C277.546 61.352 277.882 60.176 277.882 58.664C277.882 57.208 277.546 56.088 276.902 55.304C276.258 54.52 275.334 54.128 274.158 54.128C272.982 54.128 272.058 54.548 271.414 55.332C270.742 56.144 270.434 57.292 270.434 58.776C270.434 60.288 270.77 61.436 271.442 62.22ZM297.058 66H293.53C293.362 65.72 293.222 65.132 293.138 64.236C292.158 65.636 290.618 66.336 288.49 66.336C286.894 66.336 285.634 65.972 284.682 65.188C283.73 64.432 283.282 63.368 283.282 61.996C283.282 59.364 285.13 57.88 288.826 57.488L291.01 57.292C291.738 57.208 292.242 57.04 292.578 56.788C292.886 56.536 293.054 56.144 293.054 55.64C293.054 55.024 292.83 54.576 292.438 54.296C292.046 54.016 291.374 53.848 290.422 53.848C289.386 53.848 288.658 54.044 288.21 54.38C287.762 54.716 287.482 55.304 287.426 56.144H283.954C284.15 52.868 286.306 51.216 290.45 51.216C294.454 51.216 296.47 52.672 296.47 55.556V63.256C296.47 64.544 296.666 65.44 297.058 66ZM289.33 63.816C290.422 63.816 291.318 63.536 292.018 62.92C292.69 62.304 293.054 61.436 293.054 60.288V58.972C292.718 59.28 292.158 59.476 291.402 59.56L289.498 59.784C288.546 59.896 287.874 60.12 287.482 60.456C287.09 60.792 286.894 61.24 286.894 61.856C286.894 62.472 287.09 62.976 287.51 63.312C287.93 63.648 288.546 63.816 289.33 63.816ZM307.643 51.216C309.211 51.216 310.443 51.692 311.339 52.588C312.235 53.484 312.711 54.772 312.711 56.424V66H309.183V57.012C309.183 55.192 308.259 54.268 306.467 54.268C305.571 54.268 304.787 54.604 304.171 55.248C303.555 55.892 303.247 56.788 303.247 57.908V66H299.719V51.552H303.135V53.624C304.227 52.028 305.739 51.216 307.643 51.216ZM319.639 49.676H316.167V46.372H319.639V49.676ZM319.667 66H316.139V51.552H319.667V66ZM336.706 59.028V59.868H325.898C326.01 61.1 326.402 62.052 327.046 62.668C327.69 63.284 328.558 63.592 329.65 63.592C331.246 63.592 332.338 62.92 332.954 61.52H336.342C335.95 63.004 335.166 64.18 333.99 65.048C332.786 65.916 331.33 66.336 329.622 66.336C327.466 66.336 325.73 65.664 324.414 64.264C323.07 62.892 322.426 61.072 322.426 58.776C322.426 56.508 323.07 54.688 324.386 53.288C325.702 51.916 327.438 51.216 329.566 51.216C331.75 51.216 333.486 51.944 334.774 53.372C336.062 54.828 336.706 56.704 336.706 59.028ZM329.538 53.96C327.466 53.96 326.262 55.108 325.926 57.404H333.178C333.01 56.34 332.618 55.5 332.002 54.884C331.358 54.268 330.546 53.96 329.538 53.96ZM345.201 66.392C340.973 66.392 338.761 64.74 338.593 61.408H342.037C342.121 62.304 342.401 62.948 342.905 63.312C343.409 63.704 344.193 63.872 345.257 63.872C347.161 63.872 348.113 63.312 348.113 62.136C348.113 61.632 347.889 61.212 347.497 60.932C347.077 60.652 346.349 60.428 345.285 60.232L343.633 59.952C340.469 59.448 338.901 57.992 338.901 55.584C338.901 54.24 339.405 53.176 340.469 52.392C341.505 51.608 342.989 51.216 344.893 51.216C349.009 51.216 351.137 52.868 351.277 56.116H347.945C347.889 55.276 347.637 54.66 347.133 54.296C346.629 53.932 345.873 53.736 344.893 53.736C343.213 53.736 342.373 54.296 342.373 55.416C342.373 55.92 342.541 56.284 342.933 56.564C343.297 56.844 343.913 57.04 344.781 57.18L346.601 57.46C348.337 57.796 349.625 58.3 350.409 58.972C351.193 59.672 351.613 60.624 351.613 61.856C351.613 63.312 351.053 64.432 349.933 65.216C348.813 66 347.217 66.392 345.201 66.392Z" fill="#0B0B0B"/>
<rect x="0.5" y="300.5" width="522" height="111" rx="23.5" fill="#F7F7F7"/>
<rect x="0.5" y="300.5" width="522" height="111" rx="23.5" stroke="#DEDEDE"/>
<path opacity="0.4" d="M90.9993 344.826V364.426C90.226 364.052 89.3727 363.786 88.4127 363.626L87.586 363.493L86.8927 362.053C85.426 359.066 83.026 357.333 80.3327 357.333C77.6393 357.333 75.2394 359.066 73.7727 362.053L73.0526 363.493L72.2527 363.626C69.0793 364.159 66.786 365.919 65.9593 368.426C65.1593 370.959 65.986 373.732 68.2527 376.026L69.0793 376.853L68.9993 377.173C68.466 379.546 68.6794 381.359 69.186 382.666H53.1593C43.4527 382.666 37.666 376.879 37.666 367.173V344.826C37.666 335.119 43.4527 329.333 53.1593 329.333H75.506C85.2127 329.333 90.9993 335.119 90.9993 344.826Z" fill="#F97316"/>
<path d="M83.3191 363.839L84.1724 365.573C84.5991 366.426 85.6924 367.226 86.5991 367.386L87.7458 367.573C91.2391 368.159 92.0391 370.719 89.5591 373.226L88.4924 374.293C87.7724 375.013 87.3991 376.399 87.6124 377.413L87.7458 378.053C88.7058 382.266 86.4657 383.893 82.8124 381.679L82.0391 381.199C81.1058 380.639 79.559 380.639 78.6257 381.199L77.8524 381.679C74.1724 383.893 71.9591 382.266 72.9191 378.053L73.0524 377.413C73.2657 376.426 72.8924 375.013 72.1724 374.293L71.1058 373.226C68.6258 370.693 69.4258 368.159 72.9191 367.573L74.0657 367.386C74.9991 367.226 76.0657 366.426 76.4924 365.573L77.3458 363.839C78.9991 360.506 81.6657 360.506 83.3191 363.839Z" fill="#F97316"/>
<path fill-rule="evenodd" clip-rule="evenodd" d="M75.345 345.112C76.218 345.789 76.3771 347.045 75.7004 347.918L69.5285 355.88C67.9422 357.886 65.0173 358.252 62.9768 356.676L62.9629 356.665L58.092 352.832C57.7911 352.603 57.3714 352.66 57.1429 352.955C57.1427 352.955 57.1431 352.955 57.1429 352.955L50.7975 361.193C50.1234 362.069 48.8676 362.232 47.9926 361.558C47.1175 360.883 46.9545 359.628 47.6285 358.753L53.9771 350.51C55.5609 348.461 58.4974 348.09 60.5426 349.67L60.5565 349.681L65.4273 353.514C65.7314 353.745 66.1599 353.686 66.3868 353.404L72.539 345.468C73.2157 344.595 74.472 344.436 75.345 345.112Z" fill="#F97316"/>
<path d="M143.672 354.072V346.064H147.452V366H143.672V357.488H134.404V366H130.624V346.064H134.404V354.072H143.672ZM154.367 349.676H150.895V346.372H154.367V349.676ZM154.395 366H150.867V351.552H154.395V366ZM168.214 353.54V351.552H171.63V365.524C171.63 367.484 170.986 369.024 169.754 370.144C168.522 371.264 166.758 371.824 164.49 371.824C162.474 371.824 160.878 371.376 159.73 370.48C158.582 369.584 157.966 368.352 157.854 366.784H161.326C161.494 368.352 162.558 369.108 164.546 369.108C165.694 369.108 166.562 368.828 167.178 368.212C167.794 367.624 168.102 366.756 168.102 365.608V363.788C167.038 365.244 165.582 365.944 163.678 365.944C161.718 365.944 160.122 365.272 158.946 363.9C157.742 362.584 157.154 360.82 157.154 358.58C157.154 356.34 157.742 354.576 158.946 353.232C160.122 351.888 161.69 351.216 163.65 351.216C165.666 351.216 167.206 352 168.214 353.54ZM164.462 363.032C165.638 363.032 166.534 362.64 167.206 361.856C167.85 361.072 168.186 359.98 168.186 358.58C168.186 357.18 167.85 356.088 167.206 355.304C166.534 354.52 165.638 354.128 164.462 354.128C163.314 354.128 162.418 354.548 161.746 355.332C161.074 356.116 160.766 357.208 160.766 358.608C160.766 360.008 161.074 361.072 161.746 361.856C162.418 362.64 163.314 363.032 164.462 363.032ZM182.962 351.216C184.53 351.216 185.762 351.692 186.658 352.588C187.554 353.484 188.03 354.772 188.03 356.424V366H184.502V357.012C184.502 355.192 183.578 354.268 181.786 354.268C180.89 354.268 180.106 354.604 179.49 355.248C178.874 355.892 178.566 356.788 178.566 357.908V366H175.038V346.064H178.566V353.484C179.658 351.972 181.114 351.216 182.962 351.216ZM199.269 359.644H190.953V356.62H199.269V359.644ZM212.07 358.3V355.248H220.974V366H218.23L217.698 363.368C216.242 365.44 214.086 366.448 211.202 366.448C208.318 366.448 206.022 365.496 204.286 363.592C202.55 361.688 201.682 359.168 201.682 356.032C201.682 352.896 202.55 350.376 204.342 348.444C206.106 346.568 208.514 345.616 211.538 345.616C214.03 345.616 216.102 346.26 217.782 347.52C219.406 348.808 220.414 350.516 220.75 352.7H216.858C216.578 351.524 215.962 350.6 215.01 349.928C214.058 349.256 212.91 348.92 211.566 348.92C209.718 348.92 208.29 349.564 207.226 350.824C206.162 352.112 205.63 353.848 205.63 356.032C205.63 358.244 206.162 359.98 207.254 361.24C208.318 362.528 209.802 363.144 211.706 363.144C213.19 363.144 214.478 362.696 215.542 361.8C216.606 360.904 217.166 359.756 217.278 358.3H212.07ZM232.106 351.328C232.414 351.328 232.694 351.356 232.974 351.384V354.632H232.078C230.734 354.632 229.698 354.996 228.97 355.668C228.242 356.34 227.906 357.348 227.906 358.664V366H224.378V351.552H227.794V354.128C228.578 352.28 230.034 351.328 232.106 351.328ZM246.822 364.264C245.478 365.664 243.686 366.336 241.502 366.336C239.29 366.336 237.526 365.664 236.182 364.264C234.81 362.92 234.138 361.072 234.138 358.776C234.138 356.48 234.81 354.66 236.182 353.288C237.526 351.916 239.29 351.216 241.502 351.216C243.686 351.216 245.478 351.916 246.822 353.26C248.166 354.632 248.838 356.48 248.838 358.776C248.838 361.072 248.166 362.892 246.822 364.264ZM241.502 363.424C242.678 363.424 243.574 363.032 244.246 362.22C244.918 361.408 245.254 360.26 245.254 358.776C245.254 357.32 244.918 356.172 244.246 355.36C243.574 354.548 242.678 354.128 241.502 354.128C240.326 354.128 239.402 354.548 238.73 355.332C238.058 356.144 237.75 357.292 237.75 358.776C237.75 360.288 238.058 361.436 238.73 362.22C239.402 363.032 240.326 363.424 241.502 363.424ZM267.085 356.956L268.709 351.552H272.489L267.729 366H264.033L262.213 360.064C261.513 357.656 261.093 356.2 260.981 355.752C260.925 355.976 260.505 357.404 259.777 360.064L257.985 366H254.289L249.529 351.552H253.309L254.933 356.956C255.325 358.244 255.801 359.924 256.361 361.968C256.865 359.896 257.341 358.216 257.733 356.928L259.329 351.552H262.689L264.285 356.928C264.677 358.216 265.125 359.896 265.657 361.968C266.133 360.12 266.609 358.468 267.085 356.956ZM282.098 351.552V354.24H279.242V362.052C279.242 362.528 279.354 362.864 279.606 363.032C279.858 363.228 280.278 363.312 280.894 363.312H282.098V366C281.314 366.084 280.698 366.112 280.25 366.112C278.682 366.112 277.534 365.832 276.806 365.244C276.078 364.656 275.742 363.704 275.742 362.416V354.24H273.502V351.552H275.742V347.352H279.242V351.552H282.098ZM292.647 351.216C294.215 351.216 295.447 351.692 296.343 352.588C297.239 353.484 297.715 354.772 297.715 356.424V366H294.187V357.012C294.187 355.192 293.263 354.268 291.471 354.268C290.575 354.268 289.791 354.604 289.175 355.248C288.559 355.892 288.251 356.788 288.251 357.908V366H284.723V346.064H288.251V353.484C289.343 351.972 290.799 351.216 292.647 351.216ZM315.53 366.448C312.814 366.448 310.714 365.86 309.23 364.628C307.746 363.424 306.99 361.688 306.99 359.42H310.714C310.714 360.848 311.134 361.856 311.974 362.472C312.814 363.088 314.018 363.396 315.642 363.396C316.93 363.396 317.938 363.172 318.638 362.668C319.31 362.164 319.674 361.464 319.674 360.512C319.674 359.728 319.366 359.14 318.778 358.72C318.19 358.328 317.126 357.964 315.586 357.628L313.906 357.292C309.622 356.508 307.494 354.492 307.494 351.244C307.494 349.536 308.138 348.164 309.454 347.156C310.742 346.148 312.562 345.616 314.886 345.616C317.518 345.616 319.506 346.176 320.85 347.296C322.194 348.416 322.922 349.984 323.006 352H319.338C319.254 350.88 318.862 350.04 318.19 349.48C317.518 348.948 316.426 348.668 314.942 348.668C313.766 348.668 312.898 348.892 312.282 349.312C311.666 349.76 311.358 350.348 311.358 351.132C311.358 351.944 311.638 352.56 312.198 352.98C312.758 353.428 313.794 353.792 315.25 354.072L316.986 354.408C319.31 354.884 320.99 355.584 322.026 356.508C323.062 357.432 323.594 358.692 323.594 360.316C323.594 362.276 322.866 363.788 321.466 364.852C320.038 365.916 318.05 366.448 315.53 366.448ZM333.392 351.552V354.24H330.536V362.052C330.536 362.528 330.648 362.864 330.9 363.032C331.152 363.228 331.572 363.312 332.188 363.312H333.392V366C332.608 366.084 331.992 366.112 331.544 366.112C329.976 366.112 328.828 365.832 328.1 365.244C327.372 364.656 327.036 363.704 327.036 362.416V354.24H324.796V351.552H327.036V347.352H330.536V351.552H333.392ZM348.928 366H345.4C345.232 365.72 345.092 365.132 345.008 364.236C344.028 365.636 342.488 366.336 340.36 366.336C338.764 366.336 337.504 365.972 336.552 365.188C335.6 364.432 335.152 363.368 335.152 361.996C335.152 359.364 337 357.88 340.696 357.488L342.88 357.292C343.608 357.208 344.112 357.04 344.448 356.788C344.756 356.536 344.924 356.144 344.924 355.64C344.924 355.024 344.7 354.576 344.308 354.296C343.916 354.016 343.244 353.848 342.292 353.848C341.256 353.848 340.528 354.044 340.08 354.38C339.632 354.716 339.352 355.304 339.296 356.144H335.824C336.02 352.868 338.176 351.216 342.32 351.216C346.324 351.216 348.34 352.672 348.34 355.556V363.256C348.34 364.544 348.536 365.44 348.928 366ZM341.2 363.816C342.292 363.816 343.188 363.536 343.888 362.92C344.56 362.304 344.924 361.436 344.924 360.288V358.972C344.588 359.28 344.028 359.476 343.272 359.56L341.368 359.784C340.416 359.896 339.744 360.12 339.352 360.456C338.96 360.792 338.764 361.24 338.764 361.856C338.764 362.472 338.96 362.976 339.38 363.312C339.8 363.648 340.416 363.816 341.2 363.816ZM359.318 351.328C359.626 351.328 359.906 351.356 360.186 351.384V354.632H359.29C357.946 354.632 356.91 354.996 356.182 355.668C355.454 356.34 355.118 357.348 355.118 358.664V366H351.59V351.552H355.006V354.128C355.79 352.28 357.246 351.328 359.318 351.328ZM370.318 351.552V354.24H367.462V362.052C367.462 362.528 367.574 362.864 367.826 363.032C368.078 363.228 368.498 363.312 369.114 363.312H370.318V366C369.534 366.084 368.918 366.112 368.47 366.112C366.902 366.112 365.754 365.832 365.026 365.244C364.298 364.656 363.962 363.704 363.962 362.416V354.24H361.722V351.552H363.962V347.352H367.462V351.552H370.318ZM382.408 359.644V351.552H385.936V366H382.52V363.9C381.4 365.524 379.888 366.336 377.984 366.336C376.416 366.336 375.184 365.888 374.288 364.992C373.392 364.096 372.944 362.808 372.944 361.128V351.552H376.472V360.54C376.472 362.388 377.368 363.284 379.188 363.284C380.084 363.284 380.84 362.976 381.456 362.332C382.072 361.688 382.408 360.792 382.408 359.644ZM397.371 351.216C399.331 351.216 400.927 351.916 402.103 353.26C403.251 354.66 403.839 356.48 403.839 358.776C403.839 361.072 403.251 362.892 402.103 364.264C400.927 365.664 399.331 366.336 397.371 366.336C395.411 366.336 393.899 365.608 392.891 364.124V371.488H389.363V351.552H392.751V353.624C393.787 352.028 395.327 351.216 397.371 351.216ZM393.815 362.22C394.431 363.032 395.355 363.424 396.531 363.424C397.679 363.424 398.603 363.004 399.275 362.164C399.919 361.352 400.255 360.176 400.255 358.664C400.255 357.208 399.919 356.088 399.275 355.304C398.631 354.52 397.707 354.128 396.531 354.128C395.355 354.128 394.431 354.548 393.787 355.332C393.115 356.144 392.807 357.292 392.807 358.776C392.807 360.288 393.143 361.436 393.815 362.22ZM412.123 366.392C407.895 366.392 405.683 364.74 405.515 361.408H408.959C409.043 362.304 409.323 362.948 409.827 363.312C410.331 363.704 411.115 363.872 412.179 363.872C414.083 363.872 415.035 363.312 415.035 362.136C415.035 361.632 414.811 361.212 414.419 360.932C413.999 360.652 413.271 360.428 412.207 360.232L410.555 359.952C407.391 359.448 405.823 357.992 405.823 355.584C405.823 354.24 406.327 353.176 407.391 352.392C408.427 351.608 409.911 351.216 411.815 351.216C415.931 351.216 418.059 352.868 418.199 356.116H414.867C414.811 355.276 414.559 354.66 414.055 354.296C413.551 353.932 412.795 353.736 411.815 353.736C410.135 353.736 409.295 354.296 409.295 355.416C409.295 355.92 409.463 356.284 409.855 356.564C410.219 356.844 410.835 357.04 411.703 357.18L413.523 357.46C415.259 357.796 416.547 358.3 417.331 358.972C418.115 359.672 418.535 360.624 418.535 361.856C418.535 363.312 417.975 364.432 416.855 365.216C415.735 366 414.139 366.392 412.123 366.392Z" fill="#0B0B0B"/>
<rect x="0.5" y="152.5" width="522" height="111" rx="23.5" fill="#F7F7F7"/>
<rect x="0.5" y="152.5" width="522" height="111" rx="23.5" stroke="#DEDEDE"/>
<path d="M86.0003 227.36H61.8136C60.6136 227.36 59.627 226.373 59.627 225.173C59.627 223.973 60.6136 222.986 61.8136 222.986H86.0003C87.2003 222.986 88.187 223.973 88.187 225.173C88.187 226.4 87.2003 227.36 86.0003 227.36Z" fill="#21D273"/>
<path d="M86.0003 210.586H61.8136C60.6136 210.586 59.627 209.6 59.627 208.4C59.627 207.2 60.6136 206.213 61.8136 206.213H86.0003C87.2003 206.213 88.187 207.2 88.187 208.4C88.187 209.6 87.2003 210.586 86.0003 210.586Z" fill="#21D273"/>
<path d="M86.0003 193.786H61.8136C60.6136 193.786 59.627 192.799 59.627 191.599C59.627 190.399 60.6136 189.413 61.8136 189.413H86.0003C87.2003 189.413 88.187 190.399 88.187 191.599C88.187 192.799 87.2003 193.786 86.0003 193.786Z" fill="#21D273"/>
<path opacity="0.4" d="M45.7618 197.412C45.1751 197.412 44.6151 197.172 44.2151 196.772L41.7884 194.346C40.9351 193.492 40.9351 192.106 41.7884 191.252C42.6418 190.399 44.0285 190.399 44.8818 191.252L45.7618 192.132L51.4685 186.426C52.3218 185.572 53.7085 185.572 54.5618 186.426C55.4151 187.279 55.4151 188.666 54.5618 189.519L47.3085 196.772C46.8818 197.172 46.3485 197.412 45.7618 197.412Z" fill="#21D273"/>
<path opacity="0.4" d="M45.7618 214.213C45.2018 214.213 44.6418 213.999 44.2151 213.573L41.7884 211.146C40.9351 210.293 40.9351 208.906 41.7884 208.053C42.6418 207.199 44.0285 207.199 44.8818 208.053L45.7618 208.933L51.4685 203.226C52.3218 202.373 53.7085 202.373 54.5618 203.226C55.4151 204.079 55.4151 205.466 54.5618 206.319L47.3085 213.573C46.8818 213.999 46.3218 214.213 45.7618 214.213Z" fill="#21D273"/>
<path opacity="0.4" d="M45.7618 230.213C45.2018 230.213 44.6418 229.999 44.2151 229.573L41.7884 227.146C40.9351 226.293 40.9351 224.906 41.7884 224.053C42.6418 223.199 44.0285 223.199 44.8818 224.053L45.7618 224.933L51.4685 219.226C52.3218 218.373 53.7085 218.373 54.5618 219.226C55.4151 220.079 55.4151 221.466 54.5618 222.319L47.3085 229.573C46.8818 229.999 46.3218 230.213 45.7618 230.213Z" fill="#21D273"/>
<path d="M145.324 198.064V201.452H134.404V206.156H144.288V209.404H134.404V214.612H145.268V218H130.624V198.064H145.324ZM155.534 211.644H147.218V208.62H155.534V211.644ZM167.607 218.448C164.723 218.448 162.399 217.524 160.635 215.62C158.843 213.744 157.947 211.224 157.947 208.032C157.947 204.84 158.815 202.32 160.607 200.416C162.343 198.568 164.695 197.616 167.607 197.616C169.931 197.616 171.919 198.26 173.571 199.492C175.195 200.752 176.231 202.572 176.651 204.924H172.815C172.479 203.636 171.835 202.628 170.939 201.956C170.043 201.284 168.923 200.92 167.607 200.92C165.815 200.92 164.415 201.564 163.407 202.824C162.399 204.084 161.895 205.82 161.895 208.032C161.895 210.272 162.399 212.036 163.407 213.268C164.415 214.528 165.815 215.144 167.607 215.144C168.979 215.144 170.155 214.752 171.163 213.912C172.143 213.1 172.731 211.952 172.955 210.496H176.735C176.483 213.044 175.503 215.004 173.767 216.376C172.031 217.776 169.987 218.448 167.607 218.448ZM191.48 216.264C190.136 217.664 188.344 218.336 186.16 218.336C183.948 218.336 182.184 217.664 180.84 216.264C179.468 214.92 178.796 213.072 178.796 210.776C178.796 208.48 179.468 206.66 180.84 205.288C182.184 203.916 183.948 203.216 186.16 203.216C188.344 203.216 190.136 203.916 191.48 205.26C192.824 206.632 193.496 208.48 193.496 210.776C193.496 213.072 192.824 214.892 191.48 216.264ZM186.16 215.424C187.336 215.424 188.232 215.032 188.904 214.22C189.576 213.408 189.912 212.26 189.912 210.776C189.912 209.32 189.576 208.172 188.904 207.36C188.232 206.548 187.336 206.128 186.16 206.128C184.984 206.128 184.06 206.548 183.388 207.332C182.716 208.144 182.408 209.292 182.408 210.776C182.408 212.288 182.716 213.436 183.388 214.22C184.06 215.032 184.984 215.424 186.16 215.424ZM212.762 203.216C214.33 203.216 215.562 203.692 216.458 204.616C217.354 205.568 217.802 206.828 217.802 208.452V218H214.274V209.012C214.274 207.192 213.434 206.268 211.782 206.268C210.886 206.268 210.158 206.604 209.598 207.248C209.038 207.892 208.786 208.816 208.786 210.048V218H205.286V209.012C205.286 207.192 204.446 206.268 202.766 206.268C201.87 206.268 201.17 206.604 200.61 207.248C200.05 207.892 199.798 208.816 199.798 210.048V218H196.27V203.552H199.686V205.624C200.666 204.028 202.038 203.216 203.802 203.216C205.986 203.216 207.498 204.112 208.282 205.904C209.346 204.112 210.858 203.216 212.762 203.216ZM237.712 203.216C239.28 203.216 240.512 203.692 241.408 204.616C242.304 205.568 242.752 206.828 242.752 208.452V218H239.224V209.012C239.224 207.192 238.384 206.268 236.732 206.268C235.836 206.268 235.108 206.604 234.548 207.248C233.988 207.892 233.736 208.816 233.736 210.048V218H230.236V209.012C230.236 207.192 229.396 206.268 227.716 206.268C226.82 206.268 226.12 206.604 225.56 207.248C225 207.892 224.748 208.816 224.748 210.048V218H221.22V203.552H224.636V205.624C225.616 204.028 226.988 203.216 228.752 203.216C230.936 203.216 232.448 204.112 233.232 205.904C234.296 204.112 235.808 203.216 237.712 203.216ZM259.807 211.028V211.868H248.999C249.111 213.1 249.503 214.052 250.147 214.668C250.791 215.284 251.659 215.592 252.751 215.592C254.347 215.592 255.439 214.92 256.055 213.52H259.443C259.051 215.004 258.267 216.18 257.091 217.048C255.887 217.916 254.431 218.336 252.723 218.336C250.567 218.336 248.831 217.664 247.515 216.264C246.171 214.892 245.527 213.072 245.527 210.776C245.527 208.508 246.171 206.688 247.487 205.288C248.803 203.916 250.539 203.216 252.667 203.216C254.851 203.216 256.587 203.944 257.875 205.372C259.163 206.828 259.807 208.704 259.807 211.028ZM252.639 205.96C250.567 205.96 249.363 207.108 249.027 209.404H256.279C256.111 208.34 255.719 207.5 255.103 206.884C254.459 206.268 253.647 205.96 252.639 205.96ZM270.373 203.328C270.681 203.328 270.961 203.356 271.241 203.384V206.632H270.345C269.001 206.632 267.965 206.996 267.237 207.668C266.509 208.34 266.173 209.348 266.173 210.664V218H262.645V203.552H266.061V206.128C266.845 204.28 268.301 203.328 270.373 203.328ZM279.545 218.336C277.417 218.336 275.681 217.664 274.365 216.264C273.049 214.92 272.405 213.072 272.405 210.776C272.405 208.48 273.049 206.632 274.365 205.26C275.653 203.916 277.361 203.216 279.545 203.216C281.421 203.216 282.961 203.72 284.165 204.728C285.341 205.736 286.041 207.08 286.265 208.76H282.737C282.569 207.92 282.205 207.276 281.645 206.828C281.085 206.38 280.385 206.156 279.545 206.156C278.425 206.156 277.557 206.576 276.941 207.36C276.325 208.144 276.017 209.292 276.017 210.776C276.017 212.288 276.325 213.436 276.969 214.22C277.585 215.004 278.453 215.396 279.545 215.396C280.385 215.396 281.113 215.172 281.701 214.696C282.289 214.22 282.653 213.52 282.793 212.624H286.321C286.125 214.36 285.425 215.76 284.193 216.796C282.961 217.832 281.393 218.336 279.545 218.336ZM302.502 211.028V211.868H291.694C291.806 213.1 292.198 214.052 292.842 214.668C293.486 215.284 294.354 215.592 295.446 215.592C297.042 215.592 298.134 214.92 298.75 213.52H302.138C301.746 215.004 300.962 216.18 299.786 217.048C298.582 217.916 297.126 218.336 295.418 218.336C293.262 218.336 291.526 217.664 290.21 216.264C288.866 214.892 288.222 213.072 288.222 210.776C288.222 208.508 288.866 206.688 290.182 205.288C291.498 203.916 293.234 203.216 295.362 203.216C297.546 203.216 299.282 203.944 300.57 205.372C301.858 206.828 302.502 208.704 302.502 211.028ZM295.334 205.96C293.262 205.96 292.058 207.108 291.722 209.404H298.974C298.806 208.34 298.414 207.5 297.798 206.884C297.154 206.268 296.342 205.96 295.334 205.96ZM326.195 213.856L329.919 218H325.495L324.039 216.348C322.331 217.748 320.343 218.448 318.075 218.448C315.947 218.448 314.295 217.916 313.091 216.796C311.859 215.732 311.243 214.332 311.243 212.624C311.243 211.364 311.579 210.272 312.279 209.348C312.979 208.452 314.071 207.612 315.583 206.856C314.799 205.96 314.239 205.176 313.903 204.504C313.567 203.832 313.427 203.132 313.427 202.404C313.427 201.06 313.931 199.912 314.939 198.988C315.919 198.092 317.291 197.616 319.027 197.616C320.651 197.616 321.995 198.036 323.031 198.876C324.067 199.716 324.599 200.836 324.599 202.236C324.599 204.364 323.227 206.128 320.483 207.528L323.955 211.392C324.347 210.384 324.571 209.32 324.627 208.2H327.875C327.791 210.272 327.231 212.148 326.195 213.856ZM319.139 200.444C318.523 200.444 317.991 200.64 317.599 201.004C317.179 201.368 316.983 201.844 316.983 202.404C316.983 203.244 317.543 204.28 318.691 205.512L318.747 205.568C320.455 204.616 321.323 203.58 321.323 202.404C321.323 201.844 321.099 201.396 320.707 201.004C320.287 200.64 319.755 200.444 319.139 200.444ZM318.383 215.424C319.727 215.424 320.959 215.004 322.051 214.108L317.375 208.9C315.751 209.796 314.939 210.944 314.939 212.344C314.939 213.212 315.247 213.94 315.891 214.528C316.507 215.144 317.347 215.424 318.383 215.424ZM354.341 212.708L354.508 215.676C354.508 216.628 354.733 217.412 355.125 218H351.232C350.896 217.44 350.7 216.656 350.7 215.62L350.616 213.436C350.56 212.232 350.28 211.392 349.776 210.916C349.272 210.44 348.488 210.188 347.424 210.188H342.496V218H338.716V198.064H347.76C349.972 198.064 351.708 198.568 352.941 199.576C354.172 200.584 354.788 201.956 354.788 203.692C354.788 206.1 353.668 207.668 351.456 208.452C352.464 208.788 353.164 209.292 353.612 209.964C354.06 210.636 354.284 211.56 354.341 212.708ZM342.496 201.172V207.22H347.536C348.6 207.22 349.412 206.968 350 206.436C350.588 205.904 350.896 205.12 350.896 204.112C350.896 203.16 350.588 202.432 349.972 201.928C349.356 201.424 348.516 201.172 347.396 201.172H342.496ZM371.31 211.028V211.868H360.502C360.614 213.1 361.006 214.052 361.65 214.668C362.294 215.284 363.162 215.592 364.254 215.592C365.85 215.592 366.942 214.92 367.558 213.52H370.946C370.554 215.004 369.77 216.18 368.594 217.048C367.39 217.916 365.934 218.336 364.226 218.336C362.07 218.336 360.334 217.664 359.018 216.264C357.674 214.892 357.03 213.072 357.03 210.776C357.03 208.508 357.674 206.688 358.99 205.288C360.306 203.916 362.042 203.216 364.17 203.216C366.354 203.216 368.09 203.944 369.378 205.372C370.666 206.828 371.31 208.704 371.31 211.028ZM364.142 205.96C362.07 205.96 360.866 207.108 360.53 209.404H367.782C367.614 208.34 367.222 207.5 366.606 206.884C365.962 206.268 365.15 205.96 364.142 205.96ZM380.942 203.552V206.24H378.086V214.052C378.086 214.528 378.198 214.864 378.45 215.032C378.702 215.228 379.122 215.312 379.738 215.312H380.942V218C380.158 218.084 379.542 218.112 379.094 218.112C377.526 218.112 376.378 217.832 375.65 217.244C374.922 216.656 374.586 215.704 374.586 214.416V206.24H372.346V203.552H374.586V199.352H378.086V203.552H380.942ZM396.478 218H392.95C392.782 217.72 392.642 217.132 392.558 216.236C391.578 217.636 390.038 218.336 387.91 218.336C386.314 218.336 385.054 217.972 384.102 217.188C383.15 216.432 382.702 215.368 382.702 213.996C382.702 211.364 384.55 209.88 388.246 209.488L390.43 209.292C391.158 209.208 391.662 209.04 391.998 208.788C392.306 208.536 392.474 208.144 392.474 207.64C392.474 207.024 392.25 206.576 391.858 206.296C391.466 206.016 390.794 205.848 389.842 205.848C388.806 205.848 388.078 206.044 387.63 206.38C387.182 206.716 386.902 207.304 386.846 208.144H383.374C383.57 204.868 385.726 203.216 389.87 203.216C393.874 203.216 395.89 204.672 395.89 207.556V215.256C395.89 216.544 396.086 217.44 396.478 218ZM388.75 215.816C389.842 215.816 390.738 215.536 391.438 214.92C392.11 214.304 392.474 213.436 392.474 212.288V210.972C392.138 211.28 391.578 211.476 390.822 211.56L388.918 211.784C387.966 211.896 387.294 212.12 386.902 212.456C386.51 212.792 386.314 213.24 386.314 213.856C386.314 214.472 386.51 214.976 386.93 215.312C387.35 215.648 387.966 215.816 388.75 215.816ZM402.557 201.676H399.085V198.372H402.557V201.676ZM402.585 218H399.057V203.552H402.585V218ZM409.516 218H405.988V198.064H409.516V218Z" fill="#0B0B0B"/>
</svg>
