<svg width="1254" height="137" viewBox="0 0 1254 137" fill="none" xmlns="http://www.w3.org/2000/svg">
<g opacity="0.2">
<path d="M26.1282 136.67C26.1282 125.342 30.7162 114.479 38.8828 106.47C47.0494 98.46 58.1258 93.9603 69.6752 93.9603V136.67H139.35V0C139.35 18.1235 132.01 35.5047 118.943 48.32C105.876 61.1353 88.1542 68.3348 69.6752 68.3348C51.1962 68.3348 33.474 75.5343 20.4074 88.3496C7.34075 101.165 0 118.546 0 136.67H26.1282Z" fill="white"/>
<path d="M113.223 0H69.6758V42.7092C81.2252 42.7092 92.3015 38.2095 100.468 30.2C108.635 22.1905 113.223 11.3272 113.223 0Z" fill="white"/>
<path d="M199.038 20.699H224.153V134.916H199.038V20.699ZM234.218 52.2126H255.814V63.7303H256.294C259.173 58.9313 262.906 55.4653 267.492 53.3324C272.077 51.0928 276.77 49.9731 281.569 49.9731C287.647 49.9731 292.606 50.8262 296.446 52.5326C300.392 54.1322 303.484 56.4251 305.724 59.4112C307.963 62.2906 309.51 65.8632 310.363 70.129C311.323 74.2882 311.803 78.9273 311.803 84.0462V134.916H289.087V88.2054C289.087 81.3801 288.021 76.3145 285.888 73.0084C283.755 69.5958 279.969 67.8895 274.53 67.8895C268.345 67.8895 263.866 69.7558 261.093 73.4884C258.32 77.1143 256.934 83.1397 256.934 91.5647V134.916H234.218V52.2126ZM324.404 67.4096H310.807V52.2126H324.404V45.8139C324.404 38.4554 326.697 32.4299 331.282 27.7375C335.868 23.0451 342.8 20.699 352.078 20.699C354.105 20.699 356.131 20.8056 358.157 21.0189C360.183 21.1255 362.156 21.2322 364.076 21.3388V38.2954C361.41 37.9755 358.637 37.8155 355.758 37.8155C352.665 37.8155 350.425 38.562 349.039 40.0551C347.759 41.4415 347.119 43.841 347.119 47.2536V52.2126H362.796V67.4096H347.119V134.916H324.404V67.4096ZM376.553 20.699H399.269V134.916H376.553V20.699ZM463.308 84.6861C462.242 78.9273 460.322 74.5548 457.55 71.5687C454.883 68.5827 450.778 67.0896 445.232 67.0896C441.606 67.0896 438.567 67.7295 436.114 69.0093C433.768 70.1823 431.848 71.6754 430.355 73.4884C428.969 75.3013 427.956 77.2209 427.316 79.2472C426.782 81.2735 426.463 83.0864 426.356 84.6861H463.308ZM426.356 99.0832C426.676 106.442 428.542 111.774 431.955 115.08C435.367 118.386 440.273 120.039 446.672 120.039C451.258 120.039 455.203 118.919 458.509 116.68C461.815 114.333 463.842 111.881 464.588 109.321H484.584C481.385 119.239 476.479 126.331 469.867 130.597C463.255 134.863 455.257 136.996 445.872 136.996C439.367 136.996 433.501 135.982 428.275 133.956C423.05 131.823 418.624 128.837 414.998 124.998C411.372 121.159 408.546 116.573 406.52 111.241C404.6 105.909 403.64 100.043 403.64 93.6443C403.64 87.4589 404.654 81.7 406.68 76.3678C408.706 71.0355 411.585 66.4498 415.318 62.6105C419.051 58.6647 423.476 55.5719 428.595 53.3324C433.821 51.0928 439.58 49.9731 445.872 49.9731C452.911 49.9731 459.043 51.3595 464.268 54.1322C469.494 56.7984 473.76 60.4243 477.066 65.0101C480.478 69.5958 482.931 74.8214 484.424 80.6869C485.917 86.5524 486.45 92.6845 486.024 99.0832H426.356ZM511.014 91.4048L483.819 52.2126H509.734L524.291 73.8083L538.688 52.2126H563.803L536.609 90.9249L567.163 134.916H541.248L523.971 108.841L506.695 134.916H481.26L511.014 91.4048ZM589.576 39.4152H566.86V20.699H589.576V39.4152ZM566.86 52.2126H589.576V134.916H566.86V52.2126ZM618.02 93.6443C618.02 96.9503 618.34 100.203 618.98 103.402C619.62 106.495 620.686 109.321 622.179 111.881C623.779 114.333 625.858 116.306 628.418 117.799C630.977 119.292 634.177 120.039 638.016 120.039C641.855 120.039 645.054 119.292 647.614 117.799C650.28 116.306 652.36 114.333 653.853 111.881C655.452 109.321 656.572 106.495 657.212 103.402C657.852 100.203 658.172 96.9503 658.172 93.6443C658.172 90.3383 657.852 87.0856 657.212 83.8863C656.572 80.6869 655.452 77.8608 653.853 75.408C652.36 72.9551 650.28 70.9822 647.614 69.4892C645.054 67.8895 641.855 67.0896 638.016 67.0896C634.177 67.0896 630.977 67.8895 628.418 69.4892C625.858 70.9822 623.779 72.9551 622.179 75.408C620.686 77.8608 619.62 80.6869 618.98 83.8863C618.34 87.0856 618.02 90.3383 618.02 93.6443ZM595.304 93.6443C595.304 87.0323 596.318 81.0602 598.344 75.7279C600.37 70.289 603.249 65.7032 606.982 61.9707C610.715 58.1314 615.194 55.1987 620.419 53.1724C625.645 51.0395 631.51 49.9731 638.016 49.9731C644.521 49.9731 650.387 51.0395 655.612 53.1724C660.945 55.1987 665.477 58.1314 669.21 61.9707C672.942 65.7032 675.822 70.289 677.848 75.7279C679.874 81.0602 680.887 87.0323 680.887 93.6443C680.887 100.256 679.874 106.228 677.848 111.561C675.822 116.893 672.942 121.479 669.21 125.318C665.477 129.051 660.945 131.93 655.612 133.956C650.387 135.982 644.521 136.996 638.016 136.996C631.51 136.996 625.645 135.982 620.419 133.956C615.194 131.93 610.715 129.051 606.982 125.318C603.249 121.479 600.37 116.893 598.344 111.561C596.318 106.228 595.304 100.256 595.304 93.6443ZM686.059 52.2126H707.654V63.7303H708.134C711.014 58.9313 714.746 55.4653 719.332 53.3324C723.918 51.0928 728.61 49.9731 733.409 49.9731C739.488 49.9731 744.447 50.8262 748.286 52.5326C752.232 54.1322 755.325 56.4251 757.564 59.4112C759.804 62.2906 761.35 65.8632 762.203 70.129C763.163 74.2882 763.643 78.9273 763.643 84.0462V134.916H740.928V88.2054C740.928 81.3801 739.861 76.3145 737.728 73.0084C735.595 69.5958 731.81 67.8895 726.371 67.8895C720.185 67.8895 715.706 69.7558 712.933 73.4884C710.161 77.1143 708.774 83.1397 708.774 91.5647V134.916H686.059V52.2126ZM833.884 41.8147H799.651V20.699H893.232V41.8147H858.999V134.916H833.884V41.8147ZM932.264 84.6861C931.198 78.9273 929.278 74.5548 926.505 71.5687C923.839 68.5827 919.733 67.0896 914.188 67.0896C910.562 67.0896 907.523 67.7295 905.07 69.0093C902.724 70.1823 900.804 71.6754 899.311 73.4884C897.924 75.3013 896.911 77.2209 896.271 79.2472C895.738 81.2735 895.418 83.0864 895.312 84.6861H932.264ZM895.312 99.0832C895.632 106.442 897.498 111.774 900.911 115.08C904.323 118.386 909.229 120.039 915.628 120.039C920.213 120.039 924.159 118.919 927.465 116.68C930.771 114.333 932.797 111.881 933.544 109.321H953.54C950.341 119.239 945.435 126.331 938.823 130.597C932.211 134.863 924.213 136.996 914.828 136.996C908.322 136.996 902.457 135.982 897.231 133.956C892.006 131.823 887.58 128.837 883.954 124.998C880.328 121.159 877.502 116.573 875.476 111.241C873.556 105.909 872.596 100.043 872.596 93.6443C872.596 87.4589 873.609 81.7 875.636 76.3678C877.662 71.0355 880.541 66.4498 884.274 62.6105C888.006 58.6647 892.432 55.5719 897.551 53.3324C902.777 51.0928 908.536 49.9731 914.828 49.9731C921.866 49.9731 927.998 51.3595 933.224 54.1322C938.45 56.7984 942.715 60.4243 946.021 65.0101C949.434 69.5958 951.887 74.8214 953.38 80.6869C954.873 86.5524 955.406 92.6845 954.98 99.0832H895.312ZM957.894 77.6475C958.214 72.3153 959.547 67.8895 961.893 64.3702C964.239 60.8509 967.226 58.0248 970.851 55.8919C974.477 53.759 978.53 52.266 983.009 51.4128C987.595 50.453 992.181 49.9731 996.766 49.9731C1000.93 49.9731 1005.14 50.293 1009.4 50.9329C1013.67 51.4661 1017.56 52.5859 1021.08 54.2922C1024.6 55.9985 1027.48 58.398 1029.72 61.4908C1031.96 64.4768 1033.08 68.476 1033.08 73.4884V116.52C1033.08 120.252 1033.29 123.825 1033.72 127.238C1034.15 130.65 1034.89 133.21 1035.96 134.916H1012.92C1012.5 133.636 1012.12 132.357 1011.8 131.077C1011.59 129.69 1011.43 128.304 1011.32 126.918C1007.7 130.65 1003.43 133.263 998.526 134.756C993.62 136.249 988.608 136.996 983.489 136.996C979.543 136.996 975.864 136.516 972.451 135.556C969.039 134.596 966.052 133.103 963.493 131.077C960.933 129.051 958.907 126.491 957.414 123.398C956.028 120.306 955.335 116.626 955.335 112.361C955.335 107.668 956.134 103.829 957.734 100.843C959.44 97.7501 961.573 95.2973 964.133 93.4843C966.799 91.6714 969.785 90.3383 973.091 89.4851C976.504 88.5253 979.916 87.7788 983.329 87.2456C986.742 86.7124 990.101 86.2858 993.407 85.9658C996.713 85.6459 999.646 85.166 1002.21 84.5261C1004.76 83.8863 1006.79 82.9798 1008.28 81.8067C1009.78 80.5269 1010.47 78.714 1010.36 76.3678C1010.36 73.9149 1009.94 71.9953 1009.08 70.6089C1008.34 69.1159 1007.27 67.9961 1005.88 67.2496C1004.6 66.3964 1003.06 65.8632 1001.25 65.6499C999.539 65.33 997.673 65.17 995.647 65.17C991.167 65.17 987.648 66.1298 985.089 68.0494C982.529 69.9691 981.036 73.1684 980.61 77.6475H957.894ZM1010.36 94.4441C1009.4 95.2973 1008.18 95.9905 1006.68 96.5237C1005.3 96.9503 1003.75 97.3236 1002.05 97.6435C1000.45 97.9634 998.739 98.2301 996.926 98.4433C995.113 98.6566 993.3 98.9232 991.487 99.2432C989.781 99.5631 988.075 99.9897 986.368 100.523C984.769 101.056 983.329 101.803 982.049 102.762C980.876 103.616 979.916 104.735 979.17 106.122C978.423 107.508 978.05 109.268 978.05 111.401C978.05 113.427 978.423 115.133 979.17 116.52C979.916 117.906 980.929 119.026 982.209 119.879C983.489 120.626 984.982 121.159 986.688 121.479C988.395 121.799 990.154 121.959 991.967 121.959C996.446 121.959 999.912 121.212 1002.37 119.719C1004.82 118.226 1006.63 116.466 1007.8 114.44C1008.98 112.307 1009.67 110.174 1009.88 108.041C1010.2 105.909 1010.36 104.202 1010.36 102.922V94.4441ZM1041.75 52.2126H1063.19V63.4104H1063.51C1066.49 59.1446 1070.07 55.8386 1074.23 53.4924C1078.49 51.1462 1083.34 49.9731 1088.78 49.9731C1094.01 49.9731 1098.75 50.9862 1103.02 53.0125C1107.39 55.0387 1110.7 58.6113 1112.94 63.7303C1115.39 60.1044 1118.7 56.905 1122.86 54.1322C1127.12 51.3595 1132.13 49.9731 1137.89 49.9731C1142.27 49.9731 1146.32 50.5063 1150.05 51.5728C1153.78 52.6392 1156.98 54.3455 1159.65 56.6917C1162.31 59.0379 1164.39 62.1306 1165.89 65.9699C1167.38 69.7024 1168.13 74.2349 1168.13 79.5671V134.916H1145.41V88.0454C1145.41 85.2727 1145.3 82.6598 1145.09 80.207C1144.88 77.7542 1144.29 75.6213 1143.33 73.8083C1142.37 71.9953 1140.93 70.5556 1139.01 69.4892C1137.2 68.4227 1134.69 67.8895 1131.49 67.8895C1128.29 67.8895 1125.68 68.5293 1123.66 69.8091C1121.74 70.9822 1120.19 72.5819 1119.02 74.6081C1117.95 76.5277 1117.2 78.7673 1116.78 81.3268C1116.46 83.7796 1116.3 86.2858 1116.3 88.8453V134.916H1093.58V88.5253C1093.58 86.0725 1093.53 83.673 1093.42 81.3268C1093.32 78.8739 1092.84 76.6344 1091.98 74.6081C1091.24 72.5819 1089.9 70.9822 1087.98 69.8091C1086.17 68.5293 1083.45 67.8895 1079.82 67.8895C1078.76 67.8895 1077.32 68.1561 1075.51 68.6893C1073.8 69.1159 1072.09 70.0224 1070.39 71.4088C1068.79 72.6885 1067.4 74.6081 1066.23 77.1676C1065.05 79.6205 1064.47 82.8731 1064.47 86.9257V134.916H1041.75V52.2126ZM1194.08 108.041C1194.08 110.494 1194.56 112.627 1195.52 114.44C1196.59 116.146 1197.92 117.586 1199.52 118.759C1201.12 119.826 1202.93 120.626 1204.96 121.159C1207.09 121.692 1209.28 121.959 1211.52 121.959C1213.12 121.959 1214.77 121.799 1216.48 121.479C1218.29 121.052 1219.89 120.466 1221.28 119.719C1222.77 118.866 1224 117.799 1224.96 116.52C1225.92 115.133 1226.4 113.427 1226.4 111.401C1226.4 107.988 1224.1 105.429 1219.52 103.722C1215.04 102.016 1208.75 100.31 1200.64 98.6033C1197.33 97.8568 1194.08 97.0036 1190.88 96.0438C1187.79 94.9774 1185.02 93.6443 1182.56 92.0446C1180.11 90.3383 1178.14 88.2587 1176.65 85.8059C1175.15 83.2464 1174.41 80.1537 1174.41 76.5277C1174.41 71.1955 1175.42 66.823 1177.44 63.4104C1179.58 59.9977 1182.35 57.3316 1185.76 55.412C1189.18 53.3857 1193.02 51.9993 1197.28 51.2528C1201.55 50.3997 1205.92 49.9731 1210.4 49.9731C1214.88 49.9731 1219.2 50.3997 1223.36 51.2528C1227.62 52.106 1231.41 53.5457 1234.71 55.572C1238.02 57.5982 1240.74 60.3177 1242.87 63.7303C1245.11 67.0363 1246.44 71.2488 1246.87 76.3678H1225.28C1224.96 71.9953 1223.3 69.0626 1220.32 67.5695C1217.33 65.9699 1213.81 65.17 1209.76 65.17C1208.48 65.17 1207.09 65.2767 1205.6 65.49C1204.11 65.5966 1202.72 65.9165 1201.44 66.4498C1200.27 66.983 1199.25 67.7828 1198.4 68.8493C1197.55 69.8091 1197.12 71.1422 1197.12 72.8485C1197.12 74.8747 1197.87 76.5277 1199.36 77.8075C1200.85 79.0872 1202.77 80.1537 1205.12 81.0068C1207.57 81.7534 1210.35 82.4466 1213.44 83.0864C1216.53 83.7263 1219.68 84.4195 1222.88 85.166C1226.18 85.9125 1229.38 86.819 1232.47 87.8855C1235.67 88.9519 1238.5 90.3916 1240.95 92.2046C1243.41 93.9109 1245.38 96.0971 1246.87 98.7633C1248.36 101.323 1249.11 104.522 1249.11 108.361C1249.11 113.8 1247.99 118.386 1245.75 122.119C1243.62 125.745 1240.79 128.677 1237.27 130.917C1233.75 133.156 1229.7 134.703 1225.12 135.556C1220.64 136.516 1216.05 136.996 1211.36 136.996C1206.56 136.996 1201.87 136.516 1197.28 135.556C1192.7 134.596 1188.59 132.996 1184.96 130.757C1181.44 128.517 1178.51 125.585 1176.17 121.959C1173.93 118.226 1172.7 113.587 1172.49 108.041H1194.08Z" fill="white"/>
</g>
</svg>
